<?xml version="1.0" standalone="no"?>
<svg version="1.1" preserveAspectRatio="xMidYMid meet" viewBox="0 0 24 24" class="ng-element" data-id="f685e500b9ac495fc934aa27d0f09894" style="fill: rgb(31, 32, 33); width: 16px; height: 16px; filter: none;" xmlns="http://www.w3.org/2000/svg"><g><path xmlns:default="http://www.w3.org/2000/svg" id="reply" d="M21.33,14.65c0.03-1.18-0.15-2.36-0.55-3.47c-1.13-2.8-4.16-4.2-9.11-4.2H9.33V4.32c0-0.36-0.29-0.66-0.65-0.67  c-0.18,0-0.35,0.07-0.48,0.2L2.87,9.18C2.61,9.43,2.6,9.84,2.85,10.1c0.01,0.01,0.01,0.01,0.02,0.02l5.33,5.33  c0.27,0.25,0.69,0.24,0.95-0.03c0.11-0.12,0.18-0.28,0.18-0.44v-2.67h2.33c0.67,0,1.28,0.02,1.83,0.06c0.54,0.04,1.07,0.11,1.6,0.22  c0.48,0.09,0.94,0.24,1.38,0.44c0.4,0.19,0.77,0.43,1.1,0.72c0.34,0.3,0.62,0.65,0.83,1.05c0.23,0.46,0.4,0.94,0.5,1.44  c0.13,0.62,0.19,1.25,0.18,1.88c0,0.38-0.02,0.81-0.05,1.28c0,0.08,0,0.16,0,0.24C19.01,19.76,19,19.87,19,19.98  c0,0.09,0.03,0.19,0.09,0.26c0.06,0.07,0.15,0.1,0.24,0.1c0.12-0.01,0.23-0.08,0.29-0.18c0.06-0.07,0.1-0.15,0.14-0.23l0.14-0.31  l0.1-0.28c0.74-1.46,1.19-3.06,1.32-4.7l0,0L21.33,14.65z" style="fill: rgb(31, 32, 33);"/></g></svg>