<?xml version="1.0" standalone="no"?>
<svg version="1.1" preserveAspectRatio="xMidYMid meet" viewBox="0 0 24 24" class="ng-element" data-id="0323cf50c769e1fe88871feb682d7a56" style="fill: rgb(31, 32, 33); width: 16px; height: 16px; filter: none;" xmlns="http://www.w3.org/2000/svg"><g><path xmlns:default="http://www.w3.org/2000/svg" id="retweet" d="M15.32,17.66c0-0.08-0.02-0.16-0.07-0.22l-1.67-2c-0.06-0.07-0.16-0.12-0.26-0.11h-6v-4h2  c0.36-0.01,0.66-0.3,0.67-0.66c0-0.16-0.05-0.31-0.16-0.43l-3.33-4C6.25,5.96,5.82,5.95,5.54,6.2C5.53,6.21,5.51,6.23,5.5,6.24  l-3.33,4c-0.11,0.12-0.16,0.27-0.16,0.43c0.01,0.37,0.3,0.66,0.67,0.67h2v6.25c0,0,0,0.06,0,0.12c-0.01,0.04-0.01,0.08,0,0.12  l0.08,0.07c0.02,0.03,0.05,0.06,0.09,0.07L4.99,18h10c0.18-0.01,0.32-0.15,0.33-0.33l0,0V17.66z M21.99,13.33  c-0.01-0.37-0.3-0.66-0.67-0.67h-2V6.42c0,0,0-0.06,0-0.12c0.01-0.04,0.01-0.08,0-0.12l-0.1-0.08C19.2,6.06,19.17,6.02,19.13,6  h-0.14h-10C8.81,6.01,8.67,6.15,8.66,6.33c0,0.08,0.02,0.15,0.07,0.21l1.67,2c0.06,0.08,0.16,0.12,0.26,0.12h6v4h-2  c-0.37,0.01-0.66,0.3-0.67,0.67c0,0.16,0.05,0.31,0.16,0.43l3.33,4c0.24,0.28,0.65,0.31,0.93,0.07c0.02-0.02,0.05-0.04,0.07-0.07  l3.33-4C21.92,13.65,21.99,13.49,21.99,13.33L21.99,13.33z" style="fill: rgb(31, 32, 33);"/></g></svg>