<?xml version="1.0" standalone="no"?>
<svg version="1.1" preserveAspectRatio="xMidYMid meet" viewBox="0 0 24 24" class="ng-element" data-id="a7dcb26b492f8c127b23c36bff2d0fc7" style="fill: rgb(255, 255, 255); width: 32px; height: 32px; filter: none;" xmlns="http://www.w3.org/2000/svg"><g><path xmlns:default="http://www.w3.org/2000/svg" id="tumblr" d="M16.14,17.19c-0.44,0.2-0.92,0.3-1.4,0.3c-0.29,0.01-0.58-0.04-0.85-0.15c-0.21-0.09-0.4-0.24-0.52-0.43  c-0.1-0.17-0.18-0.36-0.23-0.55c-0.05-0.19-0.07-0.38-0.07-0.58V10.4h3.48V7.77h-3.46V3.36h-2.54c-0.03-0.01-0.05-0.01-0.08,0  c-0.01,0.03-0.01,0.06,0,0.09c-0.04,0.31-0.09,0.62-0.16,0.92c-0.09,0.34-0.2,0.68-0.35,1C9.8,5.75,9.6,6.1,9.36,6.43  C9.09,6.79,8.77,7.11,8.41,7.37C7.99,7.71,7.51,7.98,7,8.16v2.24h1.77v5.62c0,0.42,0.06,0.83,0.17,1.23  c0.13,0.44,0.32,0.87,0.58,1.25c0.27,0.42,0.61,0.79,1,1.1c0.44,0.35,0.94,0.61,1.48,0.77c0.65,0.2,1.32,0.29,2,0.27  c0.63-0.01,1.25-0.12,1.84-0.33c0.44-0.1,0.85-0.32,1.16-0.65l-0.83-2.47l0,0H16.14z" style="fill: rgb(255, 255, 255);"/></g></svg>