<?xml version="1.0" encoding="utf-8"?>
<!-- Generator: Adobe Illustrator 18.1.1, SVG Export Plug-In . SVG Version: 6.00 Build 0)  -->
<svg version="1.1" id="Font_copy" xmlns="http://www.w3.org/2000/svg" xmlns:xlink="http://www.w3.org/1999/xlink" x="0px" y="0px"
	 viewBox="0 0 52.2 28.6" enable-background="new 0 0 52.2 28.6" xml:space="preserve">
<linearGradient id="SVGID_1_" gradientUnits="userSpaceOnUse" x1="8.8142" y1="1.0145" x2="8.8142" y2="73.2433">
	<stop  offset="0" style="stop-color:#064F8B"/>
	<stop  offset="0.7" style="stop-color:#4B844D"/>
	<stop  offset="1" style="stop-color:#867252"/>
</linearGradient>
<path fill="url(#SVGID_1_)" d="M17.4,28.2h-2.5l-0.7-3.3c-1,2-2.1,3.7-5.5,3.7c-6.2,0-8.5-5.7-8.5-13.9c0-6.4,1.5-14.6,9.1-14.6
	c6.7,0,7.7,6.3,8,9.4l-4.7,0.9C12.2,7.3,11.9,5,9.4,5C7.9,5,7.2,5.7,6.8,7c-0.6,1.8-0.7,5.8-0.7,8c0,6.7,0.9,8.7,3.3,8.7
	c1.6,0,3-0.7,3-5.5H9v-4.6h8.4V28.2z"/>
<linearGradient id="SVGID_2_" gradientUnits="userSpaceOnUse" x1="26.7691" y1="1.0145" x2="26.7691" y2="73.2433">
	<stop  offset="0" style="stop-color:#064F8B"/>
	<stop  offset="0.7" style="stop-color:#4B844D"/>
	<stop  offset="1" style="stop-color:#867252"/>
</linearGradient>
<path fill="url(#SVGID_2_)" d="M19,0.5h5.6L29,13.2c0.5,1.3,0.8,3.2,1.3,5.5c-0.2-2.8-0.4-7.1-0.4-8.4V0.5h4.6v27.7H30L24.8,14
	c-0.7-1.9-1.3-4.2-1.6-5.7c0.2,2.5,0.5,7,0.5,8.2v11.7H19V0.5z"/>
<g>
	<linearGradient id="SVGID_3_" gradientUnits="userSpaceOnUse" x1="43.7685" y1="-21.5888" x2="43.7685" y2="28.0195">
		<stop  offset="0" style="stop-color:#064F8B"/>
		<stop  offset="0.7" style="stop-color:#4B844D"/>
		<stop  offset="1" style="stop-color:#867252"/>
	</linearGradient>
	<path fill="url(#SVGID_3_)" d="M35.9,0.5h6.9c2.6,0,5.4,0,7.2,2.6c1.2,1.8,1.7,4,1.7,6.2c0,3.1-1,5.9-2.9,7.4
		C47,18,44.5,18,43.1,18h-1.7v10.2h-5.6V0.5z M41.4,13.1h1.4c1.9,0,3-0.7,3-4.3c0-2.2-0.6-4-3-4h-1.4V13.1z"/>
</g>
</svg>
