<?xml version="1.0" encoding="utf-8"?>
<!-- Generator: Adobe Illustrator 22.0.1, SVG Export Plug-In . SVG Version: 6.00 Build 0)  -->
<svg version="1.1" xmlns="http://www.w3.org/2000/svg" xmlns:xlink="http://www.w3.org/1999/xlink" x="0px" y="0px"
	 viewBox="0 0 342.9 103.7" style="enable-background:new 0 0 342.9 103.7;" xml:space="preserve">
<style type="text/css">
	.st0{fill:none;stroke:#16467A;stroke-width:2;stroke-linecap:round;stroke-miterlimit:10;}
	.st1{fill:#F7D316;}
	.st2{fill:none;stroke:#593664;stroke-width:2;stroke-linecap:round;stroke-miterlimit:10;}
	.st3{fill:#593664;}
	.st4{fill:none;stroke:#118ACB;stroke-width:2;stroke-linecap:round;stroke-miterlimit:10;}
	.st5{fill:#118ACB;}
	.st6{fill:none;stroke:#C82035;stroke-width:2;stroke-linecap:round;stroke-miterlimit:10;}
	.st7{fill:#C82035;}
	.st8{fill:none;stroke:#26335F;stroke-width:2;stroke-linecap:round;stroke-miterlimit:10;}
	.st9{fill:#26335F;}
	.st10{fill:none;stroke:#253D79;stroke-width:2;stroke-miterlimit:10;}
	.st11{fill:#253D79;}
	.st12{fill:none;stroke:#B01F24;stroke-width:2;stroke-linecap:round;stroke-miterlimit:10;}
	.st13{fill:#B01F24;}
	.st14{fill:none;stroke:#62B946;stroke-width:2;stroke-linecap:round;stroke-miterlimit:10;}
	.st15{fill:#62B946;}
	.st16{fill:none;stroke:#E37025;stroke-width:2;stroke-linecap:round;stroke-miterlimit:10;}
	.st17{fill:#E37025;}
	.st18{fill:none;stroke:#17A9E1;stroke-width:2;stroke-linecap:round;stroke-miterlimit:10;}
	.st19{fill:#17A9E1;}
	.st20{fill:none;stroke:#000000;stroke-width:2;stroke-linecap:round;stroke-miterlimit:10;}
	.st21{fill:none;stroke:#818088;stroke-width:2;stroke-linecap:round;stroke-miterlimit:10;}
	.st22{fill:#818088;}
	.st23{fill:none;stroke:#174578;stroke-width:2;stroke-linecap:round;stroke-miterlimit:10;}
	.st24{fill:#174578;}
	.st25{fill:none;stroke:#F7D316;stroke-width:2;stroke-linecap:round;stroke-miterlimit:10;}
	.st26{fill:#16467A;}
</style>
<g id="alpha_bulldogs">
	<g>
		<g>
			<g>
				<line class="st0" x1="70.9" y1="101.6" x2="15.1" y2="103.2"/>
				<line class="st0" x1="126.7" y1="105.4" x2="70.9" y2="101.6"/>
				<line class="st0" x1="182.5" y1="102.3" x2="126.7" y2="105.4"/>
				<line class="st0" x1="238.2" y1="83.1" x2="182.5" y2="102.3"/>
				<line class="st0" x1="294" y1="70.1" x2="238.2" y2="83.1"/>
				<line class="st0" x1="349.8" y1="74.4" x2="294" y2="70.1"/>
			</g>
		</g>
	</g>
	<circle class="st1" cx="350.4" cy="6" r="5.5"/>
</g>
<g id="bluechips">
	<g>
		<g>
			<g>
				<line class="st2" x1="70.9" y1="107.7" x2="15.1" y2="103.2"/>
				<line class="st2" x1="126.7" y1="128.8" x2="70.9" y2="107.7"/>
				<line class="st2" x1="182.5" y1="132.1" x2="126.7" y2="128.8"/>
				<line class="st2" x1="238.2" y1="119.4" x2="182.5" y2="132.1"/>
				<line class="st2" x1="294" y1="112.3" x2="238.2" y2="119.4"/>
				<line class="st2" x1="349.8" y1="105.4" x2="294" y2="112.3"/>
			</g>
		</g>
	</g>
	<circle class="st3" cx="350.4" cy="105.5" r="3"/>
</g>
<g id="br_performers">
	<g>
		<g>
			<g>
				<line class="st4" x1="70.9" y1="112.2" x2="15.1" y2="103.2"/>
				<line class="st4" x1="126.7" y1="128.2" x2="70.9" y2="112.2"/>
				<line class="st4" x1="182.5" y1="133.6" x2="126.7" y2="128.2"/>
				<line class="st4" x1="238.2" y1="119.2" x2="182.5" y2="133.6"/>
				<line class="st4" x1="294" y1="105.8" x2="238.2" y2="119.2"/>
				<line class="st4" x1="349.8" y1="124.9" x2="294" y2="105.8"/>
			</g>
		</g>
	</g>
	<circle class="st5" cx="350.4" cy="125.1" r="3"/>
</g>
<g id="chinese_characteristics">
	<g>
		<g>
			<g>
				<line class="st6" x1="70.9" y1="101.6" x2="15.1" y2="103.2"/>
				<line class="st6" x1="126.7" y1="115.1" x2="70.9" y2="101.6"/>
				<line class="st6" x1="182.5" y1="133.1" x2="126.7" y2="115.1"/>
				<line class="st6" x1="238.2" y1="138.6" x2="182.5" y2="133.1"/>
				<line class="st6" x1="294" y1="124.1" x2="238.2" y2="138.6"/>
				<line class="st6" x1="349.8" y1="129.5" x2="294" y2="124.1"/>
			</g>
		</g>
	</g>
	<circle class="st7" cx="350.4" cy="129.5" r="3"/>
</g>
<g id="EAESP-FGV_Finance_Team">
	<g>
		<g>
			<g>
				<line class="st4" x1="70.9" y1="107.3" x2="15.1" y2="103.2"/>
				<line class="st4" x1="126.7" y1="138.3" x2="70.9" y2="107.3"/>
				<line class="st4" x1="182.5" y1="138.4" x2="126.7" y2="138.3"/>
				<line class="st4" x1="238.2" y1="121.9" x2="182.5" y2="138.4"/>
				<line class="st4" x1="294" y1="117.9" x2="238.2" y2="121.9"/>
				<line class="st4" x1="349.8" y1="117.9" x2="294" y2="117.9"/>
			</g>
		</g>
	</g>
	<circle class="st5" cx="350.4" cy="117.5" r="3"/>
</g>
<g id="FGV_Value_Investors">
	<g>
		<g>
			<g>
				<line class="st4" x1="70.9" y1="114.4" x2="15.1" y2="103.2"/>
				<line class="st4" x1="126.7" y1="147.6" x2="70.9" y2="114.4"/>
				<line class="st4" x1="182.5" y1="139" x2="126.7" y2="147.6"/>
				<line class="st4" x1="238.2" y1="108.2" x2="182.5" y2="139"/>
				<line class="st4" x1="294" y1="71.2" x2="238.2" y2="108.2"/>
				<line class="st4" x1="349.8" y1="62.5" x2="294" y2="71.2"/>
			</g>
		</g>
	</g>
	<circle class="st5" cx="350.4" cy="62.5" r="3"/>
</g>
<g id="HKUST_Phoenix">
	<g>
		<g>
			<g>
				<line class="st8" x1="70.9" y1="101.6" x2="15.1" y2="103.2"/>
				<line class="st8" x1="126.7" y1="93.9" x2="70.9" y2="101.6"/>
				<line class="st8" x1="182.5" y1="103.8" x2="126.7" y2="93.9"/>
				<line class="st8" x1="238.2" y1="99.7" x2="182.5" y2="103.8"/>
				<line class="st8" x1="294" y1="77" x2="238.2" y2="99.7"/>
				<line class="st8" x1="349.8" y1="84.2" x2="294" y2="77"/>
			</g>
		</g>
	</g>
	<circle class="st9" cx="350.4" cy="84.2" r="3"/>
</g>
<g id="K-Stock">
	<g>
		<g>
			<line class="st10" x1="70.9" y1="106.8" x2="15.1" y2="103.2"/>
			<line class="st10" x1="126.7" y1="119.7" x2="70.9" y2="106.8"/>
			<line class="st10" x1="182.5" y1="132.6" x2="126.7" y2="119.7"/>
			<polyline class="st10" points="349.8,102 294,103.5 238.2,103.1 182.5,132.6 			"/>
		</g>
	</g>
	<circle class="st11" cx="350.4" cy="102" r="3"/>
</g>
<g id="Panda">
	<g>
		<g>
			<g>
				<line class="st6" x1="70.9" y1="92.6" x2="15.1" y2="103.2"/>
				<line class="st6" x1="126.7" y1="113.8" x2="70.9" y2="92.6"/>
				<line class="st6" x1="182.5" y1="121.6" x2="126.7" y2="113.8"/>
				<line class="st6" x1="238.2" y1="120.5" x2="182.5" y2="121.6"/>
				<line class="st6" x1="294" y1="112.8" x2="238.2" y2="120.5"/>
				<line class="st6" x1="349.8" y1="102.9" x2="294" y2="112.8"/>
			</g>
		</g>
	</g>
	<circle class="st7" cx="350.4" cy="102.9" r="3"/>
</g>
<g id="Profit_Paranoids">
	<g>
		<g>
			<g>
				<line class="st12" x1="70.9" y1="100" x2="15.1" y2="103.2"/>
				<line class="st12" x1="126.7" y1="95.4" x2="70.9" y2="100"/>
				<line class="st12" x1="182.5" y1="97.1" x2="126.7" y2="95.4"/>
				<line class="st12" x1="238.2" y1="80.6" x2="182.5" y2="97.1"/>
				<line class="st12" x1="294" y1="90.6" x2="238.2" y2="80.6"/>
				<line class="st12" x1="349.8" y1="74.7" x2="294" y2="90.6"/>
			</g>
		</g>
	</g>
	<circle class="st13" cx="350.4" cy="74.5" r="3"/>
</g>
<g id="Sauder_Sharks">
	<g>
		<g>
			<g>
				<line class="st14" x1="70.9" y1="110" x2="15.1" y2="103.2"/>
				<line class="st14" x1="126.7" y1="110.8" x2="70.9" y2="110"/>
				<line class="st14" x1="182.5" y1="80.9" x2="126.7" y2="110.8"/>
				<line class="st14" x1="238.2" y1="85.5" x2="182.5" y2="80.9"/>
				<line class="st14" x1="294" y1="71.9" x2="238.2" y2="85.5"/>
				<line class="st14" x1="349.8" y1="81.5" x2="294" y2="71.9"/>
			</g>
		</g>
	</g>
	<circle class="st15" cx="350.4" cy="81.3" r="3"/>
</g>
<g id="Schaeffer_Holdings">
	<g>
		<g>
			<g>
				<line class="st16" x1="70.9" y1="102.6" x2="15.1" y2="103.2"/>
				<line class="st16" x1="126.7" y1="95.6" x2="70.9" y2="102.6"/>
				<line class="st16" x1="182.5" y1="84.2" x2="126.7" y2="95.6"/>
				<line class="st16" x1="238.2" y1="68.1" x2="182.5" y2="84.2"/>
				<line class="st16" x1="294" y1="77.1" x2="238.2" y2="68.1"/>
				<line class="st16" x1="349.8" y1="73" x2="294" y2="77.1"/>
			</g>
		</g>
	</g>
	<circle class="st17" cx="350.4" cy="72.7" r="3"/>
</g>
<g id="Super_Alpha">
	<g>
		<g>
			<g>
				<line class="st6" x1="70.9" y1="100.3" x2="15.1" y2="103.2"/>
				<line class="st6" x1="126.7" y1="76.2" x2="70.9" y2="100.3"/>
				<line class="st6" x1="182.5" y1="97.2" x2="126.7" y2="76.2"/>
				<line class="st6" x1="238.2" y1="105.7" x2="182.5" y2="97.2"/>
				<line class="st6" x1="294" y1="114.4" x2="238.2" y2="105.7"/>
				<line class="st6" x1="349.8" y1="120.2" x2="294" y2="114.4"/>
			</g>
		</g>
	</g>
	<circle class="st7" cx="350.4" cy="120.1" r="3"/>
</g>
<g id="Supernova_Capital">
	<g>
		<g>
			<g>
				<line class="st12" x1="70.9" y1="104.1" x2="15.1" y2="103.2"/>
				<line class="st12" x1="126.7" y1="149.2" x2="70.9" y2="104.1"/>
				<line class="st12" x1="182.5" y1="141.9" x2="126.7" y2="149.2"/>
				<line class="st12" x1="238.2" y1="117" x2="182.5" y2="141.9"/>
				<line class="st12" x1="294" y1="114.6" x2="238.2" y2="117"/>
				<line class="st12" x1="349.8" y1="116.5" x2="294" y2="114.6"/>
			</g>
		</g>
	</g>
	<circle class="st13" cx="350.4" cy="116.5" r="3"/>
</g>
<g id="Team_Big_Five">
	<g>
		<g>
			<g>
				<line class="st18" x1="70.9" y1="92" x2="15.1" y2="103.2"/>
				<line class="st18" x1="126.7" y1="121.7" x2="70.9" y2="92"/>
				<line class="st18" x1="182.5" y1="111.5" x2="126.7" y2="121.7"/>
				<line class="st18" x1="238.2" y1="94.7" x2="182.5" y2="111.5"/>
				<line class="st18" x1="294" y1="104.2" x2="238.2" y2="94.7"/>
				<line class="st18" x1="349.8" y1="99.7" x2="294" y2="104.2"/>
			</g>
		</g>
	</g>
	<circle class="st19" cx="350.4" cy="99.6" r="3"/>
</g>
<g id="The_Brainiacs">
	<g>
		<g>
			<g>
				<line class="st20" x1="70.9" y1="108.7" x2="15.1" y2="103.2"/>
				<line class="st20" x1="126.7" y1="128.8" x2="70.9" y2="108.7"/>
				<line class="st20" x1="182.5" y1="107.3" x2="126.7" y2="128.8"/>
				<line class="st20" x1="238.2" y1="74.8" x2="182.5" y2="107.3"/>
				<line class="st20" x1="294" y1="74.9" x2="238.2" y2="74.8"/>
				<line class="st20" x1="349.8" y1="68.1" x2="294" y2="74.9"/>
			</g>
		</g>
	</g>
	<circle cx="350.4" cy="67.8" r="3"/>
</g>
<g id="The_Intelligent_Investors">
	<g>
		<g>
			<g>
				<line class="st16" x1="70.9" y1="99.8" x2="15.1" y2="103.2"/>
				<line class="st16" x1="126.7" y1="104.1" x2="70.9" y2="99.8"/>
				<line class="st16" x1="182.5" y1="105" x2="126.7" y2="104.1"/>
				<line class="st16" x1="238.2" y1="91.7" x2="182.5" y2="105"/>
				<line class="st16" x1="294" y1="67.4" x2="238.2" y2="91.7"/>
				<line class="st16" x1="349.8" y1="50.7" x2="294" y2="67.4"/>
			</g>
		</g>
	</g>
	<circle class="st17" cx="350.4" cy="50.6" r="3"/>
</g>
<g id="The_Stock_Jocks">
	<g>
		<g>
			<g>
				<line class="st20" x1="70.9" y1="108.9" x2="15.1" y2="103.2"/>
				<line class="st20" x1="126.7" y1="127.7" x2="70.9" y2="108.9"/>
				<line class="st20" x1="182.5" y1="103.5" x2="126.7" y2="127.7"/>
				<line class="st20" x1="238.2" y1="75.9" x2="182.5" y2="103.5"/>
				<line class="st20" x1="294" y1="93.5" x2="238.2" y2="75.9"/>
				<line class="st20" x1="349.8" y1="95" x2="294" y2="93.5"/>
			</g>
		</g>
	</g>
	<circle cx="350.4" cy="95.2" r="3"/>
</g>
<g id="Trotz_alledem">
	<g>
		<g>
			<g>
				<line class="st21" x1="70.9" y1="108.8" x2="15.1" y2="103.2"/>
				<line class="st21" x1="126.7" y1="105.1" x2="70.9" y2="108.8"/>
				<line class="st21" x1="182.5" y1="77.1" x2="126.7" y2="105.1"/>
				<line class="st21" x1="238.2" y1="68" x2="182.5" y2="77.1"/>
				<line class="st21" x1="294" y1="56.2" x2="238.2" y2="68"/>
				<line class="st21" x1="349.8" y1="46.9" x2="294" y2="56.2"/>
			</g>
		</g>
	</g>
	<circle class="st22" cx="350.4" cy="46.8" r="3"/>
</g>
<g id="Smurfit">
	<g>
		<g>
			<g>
				<line class="st23" x1="70.9" y1="97.2" x2="15.1" y2="103.2"/>
				<line class="st23" x1="126.7" y1="103.4" x2="70.9" y2="97.2"/>
				<line class="st23" x1="182.5" y1="92.1" x2="126.7" y2="103.4"/>
				<line class="st23" x1="238.2" y1="94.6" x2="182.5" y2="92.1"/>
				<line class="st23" x1="294" y1="99.8" x2="238.2" y2="94.6"/>
				<line class="st23" x1="349.8" y1="85.6" x2="294" y2="99.8"/>
			</g>
		</g>
	</g>
	<circle class="st24" cx="350.4" cy="85.6" r="3"/>
</g>
<g id="Value_Seeker">
	<g>
		<g>
			<g>
				<line class="st12" x1="70.9" y1="105.4" x2="15.1" y2="103.2"/>
				<line class="st12" x1="126.7" y1="134.2" x2="70.9" y2="105.4"/>
				<line class="st12" x1="182.5" y1="142.4" x2="126.7" y2="134.2"/>
				<line class="st12" x1="238.2" y1="127.4" x2="182.5" y2="142.4"/>
				<line class="st12" x1="294" y1="134.4" x2="238.2" y2="127.4"/>
				<line class="st12" x1="349.8" y1="109.1" x2="294" y2="134.4"/>
			</g>
		</g>
	</g>
	<circle class="st13" cx="350.4" cy="109.1" r="3"/>
</g>
<g id="yellow_jacket">
	<g>
		<g>
			<g>
				<line class="st25" x1="70.9" y1="105.7" x2="15.1" y2="103.2"/>
				<line class="st25" x1="126.7" y1="104.3" x2="70.9" y2="105.7"/>
				<line class="st25" x1="182.5" y1="105.5" x2="126.7" y2="104.3"/>
				<line class="st25" x1="238.2" y1="94.1" x2="182.5" y2="105.5"/>
				<line class="st25" x1="294" y1="55" x2="238.2" y2="94.1"/>
				<line class="st25" x1="349.8" y1="6.2" x2="294" y2="55"/>
			</g>
		</g>
	</g>
	<circle class="st26" cx="350.4" cy="74.5" r="3"/>
	<circle cx="14.6" cy="103.2" r="3"/>
</g>
</svg>
