<?xml version="1.0" encoding="utf-8"?>
<!-- Generator: Adobe Illustrator 22.1.0, SVG Export Plug-In . SVG Version: 6.00 Build 0)  -->
<svg version="1.1" id="Layer_1" xmlns="http://www.w3.org/2000/svg" xmlns:xlink="http://www.w3.org/1999/xlink" x="0px" y="0px"
	 viewBox="0 0 236.5 361.1" style="enable-background:new 0 0 236.5 361.1;" xml:space="preserve">
<style type="text/css">
	.st0{fill:#888888;}
</style>
<g>
	<path class="st0" d="M159.3,353c-0.4,0-0.5,0.1-0.3,0.3C159,353.3,159.8,353.2,159.3,353z"/>
	<path class="st0" d="M160,284.5c-0.1,0.5,0.2-0.8,0.1-0.7C159.9,284,159.9,284.2,160,284.5z"/>
	<path class="st0" d="M153.4,296.2C153.6,295.8,153.5,296.3,153.4,296.2z"/>
	<path class="st0" d="M196.2,265.2c-0.5-2.2-0.2-6.1-1.8-7c0.1,0.1-0.5,0.2-0.4,0c0.1,0.2-0.1-0.7,0.3-0.1c0-0.3,0-0.5-0.2-0.7
		c-0.1,0.1-0.1,0.6-0.4,0.4c0.2,0.2-0.3,1-0.5,1.1c-0.1-0.2-0.2-0.3-0.4-0.2c-0.4,0.3,1.2,2.6-0.8,2.6c0,0-0.4,1.1-0.5,1.2
		c-0.2,0.2-0.6-0.8-0.6-0.8c-0.1,0.1-0.4,2.2-0.2,2.2c0.1-0.2,0.1-0.4-0.1-0.6c0,0.1-0.9,2,0.1,1.8c0.2,0-0.5-0.5-0.5-0.5
		c0.9-1.3-0.8,1.5-0.9,1.4c-0.1-0.1,0.2-1,0.2-1.1c0,0.5-1.2,0.8-0.7,2c0-0.1-0.6,0.3-0.6,0.4c-0.4-1.6-1.4,0-1.2,1.1
		c-0.1-0.1-0.3,0.1-0.4,0c-0.2-0.2-0.2-0.4-0.2-0.7c-0.3-0.3-0.5,0.4-0.6,0.4c-0.1,0-1.4-0.3-1,0.5c0.1,0.2-1.1-0.2-0.9-0.3
		c-2.5,1.1-3.6,3.8-3.1,7c0.5,3.4,0.5,4.6-1.2,7.7c-0.8,1.3-1.5,1.8-1.2,3.6c0.1,0.8,0.7,1.4,0.8,2.2c0.1,0.8-0.3,1.8-0.1,2.7
		c0.2,1.2,0.9,1.5,1.4,2.3c-0.1,0-0.2,0-0.2-0.1c0.2,2,5.6,0.3,6.3-0.3c0.9-0.9,1.5-3,1.9-4.2c1.1-3.4,2.2-6.7,3.4-10
		c0.7-2,1.5-7.1,2.9-8.3c0.4-0.1-0.7-3.7,0.2-3.9c0.3-0.1,0.3,1.6,0.8,1.4C197.2,268,196.4,266,196.2,265.2z"/>
	<path class="st0" d="M195,271c-0.1,0.2-0.1,0.4-0.2,0.6C196.1,269.6,195.3,270.6,195,271z"/>
	<path class="st0" d="M191.8,260.9c0,0-0.6,0.1,0,0.6C191.9,261.5,191.8,261,191.8,260.9z"/>
	<path class="st0" d="M184.5,259.8C184.6,259.7,184.4,259.6,184.5,259.8L184.5,259.8z"/>
	<path class="st0" d="M184.3,259.6c-0.7-0.6-0.2,0.7-0.2,0.7C184.2,260.3,184.4,259.7,184.3,259.6z"/>
	<path class="st0" d="M182.3,258.3c0.4,0.3,0.7,0.1,0.3-0.5C182.9,258.2,181.4,257.6,182.3,258.3z"/>
	<path class="st0" d="M181.1,258.6c0.1-0.2-0.6-0.5-0.5-0.2C180.6,258.6,180.8,258.7,181.1,258.6z"/>
	<path class="st0" d="M179.8,255.9c-0.5,0.4-0.1,1.3,0.4,1.5C180.3,257.4,180,255.7,179.8,255.9z"/>
	<path class="st0" d="M208.2,282.2c-0.8-1.6-1.2,1.2-0.9,0.8C207.8,282.7,209,283.8,208.2,282.2z"/>
	<path class="st0" d="M212.9,279.6c-0.2,0-0.8,1.2-0.7,1.3C213,282.5,213.5,278.8,212.9,279.6z"/>
	<path class="st0" d="M226.7,278.8C226.5,279.2,227.1,278,226.7,278.8z"/>
	<path class="st0" d="M211.9,253.2C212,253.3,211.5,252.8,211.9,253.2z"/>
	<path class="st0" d="M159.2,257.9c0.1-0.1,0-0.4-0.1-0.3C159,257.7,159,258.1,159.2,257.9z"/>
	<path class="st0" d="M158.8,257.5c-0.1,0.1,0.1,0.3,0.2,0.2C159,257.6,158.9,257.5,158.8,257.5z"/>
	<path class="st0" d="M187.2,250.3c0.1,0,0.2,0,0.3,0.1C187.6,250.3,187.2,250.3,187.2,250.3z"/>
	<path class="st0" d="M198.6,250.8C198.6,250.7,198.6,250.8,198.6,250.8C198.6,250.7,198.6,250.7,198.6,250.8z"/>
	<path class="st0" d="M190.1,251.3C190.1,251.3,190.1,251.3,190.1,251.3C190.1,251.3,190.1,251.3,190.1,251.3z"/>
	<path class="st0" d="M187.7,251.3C187.6,251.4,187.7,251.5,187.7,251.3L187.7,251.3z"/>
	<path class="st0" d="M209.1,237C209.4,236.9,208.9,236.8,209.1,237L209.1,237z"/>
	<path class="st0" d="M203.5,239.2C203.6,239.2,203.5,239.2,203.5,239.2z"/>
	<path class="st0" d="M198.7,249.9C198.7,249.9,198.7,250,198.7,249.9C198.7,250,198.7,249.9,198.7,249.9z"/>
	<path class="st0" d="M210.2,235.1C210.2,235.1,210.2,235.1,210.2,235.1C210.2,235.1,210.2,235.1,210.2,235.1z"/>
	<path class="st0" d="M210.4,236.6C210.7,236.3,209.9,236.5,210.4,236.6z"/>
	<path class="st0" d="M202.8,243.9C202.8,243.9,202.8,243.8,202.8,243.9C202.8,243.9,202.8,243.9,202.8,243.9z"/>
	<path class="st0" d="M209.4,240.8C209.4,240.7,209.4,240.7,209.4,240.8C209.4,240.7,209.4,240.7,209.4,240.8z"/>
	<path class="st0" d="M211.5,244.2c-0.1,0.1-0.1,0.1-0.1,0.2C211.5,244.3,211.5,244.3,211.5,244.2z"/>
	<path class="st0" d="M187,250.4c-0.1,0.5,0.9-0.1,0.6-0.1C187.7,250.5,187,250.5,187,250.4z"/>
	<path class="st0" d="M209.7,237.3c-0.1-0.2,0,0.3,0.1,0.5C209.9,237.6,209.8,237.4,209.7,237.3z"/>
	<path class="st0" d="M106.8,249.6C106.8,249.5,106.6,249.3,106.8,249.6z"/>
	<path class="st0" d="M106.7,249.4c0-0.1,0.3-0.3,0.3-0.4C106.8,249.1,106.8,249.3,106.7,249.4z"/>
	<path class="st0" d="M171.4,246.1c-0.1,0.1-0.4,0.4-0.1,0.5c0.4,0,0.7-0.7,0.6-1C171.8,245.7,171.4,246.1,171.4,246.1z"/>
	<path class="st0" d="M171.9,238.1c-0.1,0.4-0.2,0.3-0.4-0.1c0,0.4,0.2,1.1,0.2,1c0,0.1-0.3,0-0.3,0.4c0.2,0,0.2,0.1,0.2,0.2
		C171.8,239.4,171.9,238.5,171.9,238.1z"/>
	<path class="st0" d="M171,242.4c0.1-0.1-0.1-0.9-0.1-0.9c-0.2-0.1,0-0.2-0.4-1C170.5,240.4,170.1,243.1,171,242.4z"/>
	<path class="st0" d="M88.9,228.7C89,228.6,88.7,228.4,88.9,228.7L88.9,228.7z"/>
	<path class="st0" d="M96.5,215.4c0-1.1,0.5-0.4-0.2-1.1c0.1,0.1-0.7,1.2-0.7,1.2C95.8,215.9,96.5,215.9,96.5,215.4z"/>
	<path class="st0" d="M90.9,223.9c0,0.2,0.1,0.5,0.1,0.7c0.2-0.2,0.8-0.6,0.5-1C91.2,223.5,91,223.6,90.9,223.9z"/>
	<path class="st0" d="M93.3,220C93,219.8,93.6,220.3,93.3,220z"/>
	<path class="st0" d="M174.8,230.3c-0.3,0.1-0.3,0.3-0.1,0.4C174.7,230.7,175.3,230.1,174.8,230.3z"/>
	<path class="st0" d="M171.5,181.6c-0.7-0.1,1,0.5,1,0.2c-0.1-0.1-0.3-0.2-0.4-0.3c-0.4,0.1,0-0.5-0.7-0.5
		C171.6,181.2,171.2,181.5,171.5,181.6z"/>
	<path class="st0" d="M150.3,138c0.4,0.2-0.1,0.3,0.4,0.5c-0.1,0-0.1,0,0.3,0.2C150.8,138.3,150.6,138.1,150.3,138z"/>
	<path class="st0" d="M150.2,138C150.3,138,150.3,138,150.2,138z"/>
	<path class="st0" d="M153.4,138.9c-0.3-0.1-0.5,0-0.7,0.2C153,138.9,153.1,138.8,153.4,138.9z"/>
	<path class="st0" d="M102.4,129.2C102.6,128.5,102.1,130.1,102.4,129.2z"/>
	<path class="st0" d="M97,121.6C97.2,121.6,97,121.4,97,121.6L97,121.6z"/>
	<path class="st0" d="M101.2,131.5c-0.4,0.3,0.2,0.5,0.3,0.7c0-0.2,0.5-0.2,0.4-0.4C101.9,131.6,101.3,131.4,101.2,131.5z"/>
	<path class="st0" d="M36.7,170.1c-0.1-0.1-0.4,0.5-0.2,0.7C36.5,170.7,36.8,170.2,36.7,170.1z"/>
	<path class="st0" d="M44.1,203.7c-0.6,0.3,1.2,0.4,0.8,0.6C45.6,203.8,44.1,203.7,44.1,203.7z"/>
	<path class="st0" d="M36.7,192c0,0,0.1,0,0.1,0C36.8,191.9,36.7,191.9,36.7,192z"/>
	<path class="st0" d="M37,192.8C36.8,192.4,37.1,193.2,37,192.8z"/>
	<path class="st0" d="M38,192.9C38.2,192.6,37.6,193.4,38,192.9z"/>
	<path class="st0" d="M36.2,193.6C35.7,193.7,36.7,193.5,36.2,193.6z"/>
	<path class="st0" d="M36.7,193.9c-0.1,0-0.1,0.2,0,0.1C36.8,194,36.8,193.8,36.7,193.9z"/>
	<path class="st0" d="M36.8,194c0,0-0.2,0.3-0.1,0.3C36.8,194.2,36.8,194,36.8,194z"/>
	<path class="st0" d="M36.1,192.8c0.1,0-0.5,0.1-0.4,0.2C36,193.3,36.2,192.9,36.1,192.8z"/>
	<path class="st0" d="M36.7,193C36.9,193.1,36.7,192.6,36.7,193L36.7,193z"/>
	<path class="st0" d="M36.9,193.9C36.8,193.9,37.2,194,36.9,193.9z"/>
	<path class="st0" d="M36.2,194.1c-0.2,0.2,0.3,0.3,0.3,0.2C36.9,193.5,36.3,194.1,36.2,194.1z"/>
	<path class="st0" d="M37.4,193.6C36.7,193.9,37.7,193.4,37.4,193.6z"/>
	<path class="st0" d="M36.7,192.2c0.1-0.2-0.1-0.2-0.3-0.2C36.3,192,36.5,192.6,36.7,192.2z"/>
	<path class="st0" d="M36.9,193.2C37.3,193.2,36.1,193.3,36.9,193.2z"/>
	<path class="st0" d="M61.8,268.3c-0.3,0-0.3,0.5-0.1,0.2C61.9,268.7,62,268.3,61.8,268.3z"/>
	<path class="st0" d="M49,326.4c-0.2,0-0.1,0.2,0,0.3C49.1,326.6,49.2,326.4,49,326.4z"/>
	<path class="st0" d="M54.7,335.3c-0.1,0.1,0.2,0.2,0.3,0.3C55.1,335.5,54.9,335.2,54.7,335.3z"/>
	<path class="st0" d="M40.5,246.6c0.2,0,0.3-0.1,0.1-0.2C40.4,246.2,40.3,246.5,40.5,246.6z"/>
	<path class="st0" d="M177.9,271.5C177.9,271.5,178,271.4,177.9,271.5C177.9,271.5,177.9,271.5,177.9,271.5z"/>
	<path class="st0" d="M13.4,119c-0.2-0.2-0.4-0.3-0.7-0.2C12.3,119,14.3,119.5,13.4,119z"/>
	<path class="st0" d="M15.7,118c-0.7,0,0,0.8,0.4,0.4C16.1,118.1,16,118,15.7,118z"/>
	<path class="st0" d="M19.6,123c-0.1,0.2,0.3,0.2,0.4,0.2C20.1,123,19.8,122.8,19.6,123z"/>
	<path class="st0" d="M7,116.1c-0.1,0.1-0.2,0.5,0,0.4C7.4,116.5,7.2,115.9,7,116.1z"/>
	<path class="st0" d="M19.9,120.6c-0.1,0-1.4-0.1-1.4,0C18,121.5,20.8,120.7,19.9,120.6z"/>
	<path class="st0" d="M37.3,135c0.3,0,0.5-0.1,0.6-0.3c-0.1,0-1.2-0.4-1.2-0.2C36.5,134.8,37.1,134.8,37.3,135z"/>
	<path class="st0" d="M38.6,133.8C38.7,133.9,39.2,133.5,38.6,133.8z"/>
	<path class="st0" d="M34.3,146.4c0.2,0.1,0.6-1.6-0.2-1C34,145.5,34.2,146.3,34.3,146.4z"/>
	<path class="st0" d="M43.3,145.8c-0.4,0.9-0.6,1.2-1.3,1.7c0.2-0.1,1.1,0,1.3-0.6C43.5,146.6,43.6,145.2,43.3,145.8z"/>
	<path class="st0" d="M35.7,147.7c0.2-0.1,0.7-0.5,0-0.5C35.4,147.3,35.4,147.5,35.7,147.7z"/>
	<path class="st0" d="M36.6,147.1c0.1,0.2,0.2,0.4,0.3,0.6c0.4-0.2,1.2-1.2,1.4-1.5C38.1,146.6,36.3,146.2,36.6,147.1z"/>
	<path class="st0" d="M33.6,148.5c0.2,0.3,0.4,0.2,0.5-0.3C34.1,148.1,33,148.5,33.6,148.5z"/>
	<path class="st0" d="M44.3,145.1c0.2-0.1,0.6-0.5,0.4-0.8c-0.1-0.1-1,0.9-1,0.9C43.3,145.6,45.2,144.9,44.3,145.1z"/>
	<path class="st0" d="M39.9,147.2c-0.7,0.2-0.5,0.2-0.9,0.8C38.2,149.1,40.8,147,39.9,147.2z"/>
	<path class="st0" d="M79.7,117.6c-0.1,0.5,0.9,0.1,0.9-0.3C80.6,116.8,79.7,117.4,79.7,117.6z"/>
	<path class="st0" d="M86.3,114.5c-0.1,0-0.7,0.1-0.7,0.2c0,0.3,1,0.6,1.1,0.6c-0.1-0.2,0-0.3,0.1-0.2
		C86.7,115,86.5,114.5,86.3,114.5z"/>
	<path class="st0" d="M84.3,114.9c-0.4,0-2,1.1-1.9,1.2c0.8,0.4,3.2,0.6,1.8-0.7C84,115.2,84.2,115,84.3,114.9z"/>
	<path class="st0" d="M73.1,95.7c-0.2,0,0.2,0.3,0.2,0.3C73.4,96,73.3,95.7,73.1,95.7z"/>
	<path class="st0" d="M73,96.6C73,96.4,72.6,96.6,73,96.6L73,96.6z"/>
	<path class="st0" d="M67.5,91.9C67.4,91.7,67.2,92.1,67.5,91.9z"/>
	<path class="st0" d="M96.3,108.7c0.7,0.4-0.2,0.7,0.5,0.8c0.2,0-0.1,0.5-0.2,0.5c0.1,0.1,1.3,1,1.3,0.9c0.3-0.2,1-2.7,0.5-3.3
		c0.3,0.4,0-1-0.2-1C97.9,107,96.3,108.7,96.3,108.7z"/>
	<path class="st0" d="M74.6,97.9c0,0.1,0.5,0.2,0.6,0.2C75.1,98.1,74.6,97.7,74.6,97.9z"/>
	<path class="st0" d="M71.1,94.8C71,94.8,71.7,94.7,71.1,94.8z"/>
	<path class="st0" d="M74.9,98.7c0.2,0.4,0.3,0.5,0.3,0.1C75.1,98.4,74.6,98.4,74.9,98.7z"/>
	<path class="st0" d="M36.8,48.3c0.6,0,2.5-0.2,2.4-0.1c0.4,0.2,0.2-0.3,0.4-0.2c-0.4,0.4,0.5,0,0.3,0c0,0.1,0.1,0.2,0,0.3
		c0,0,0.7-0.2,0.8-0.2c-0.2,0.1-0.3,0.2-0.6,0.3c0.1-0.1,1,0.1,1.2,0.1c-0.6,0.1-1.2,0.4-1.7,0.6c0.2,0,0.2,0,0,0
		C40,49.5,40.6,49,41,49c-0.2,0-2.7,0.6-2.7,0.7c-0.1-0.1,0-0.2,0.1-0.2c-0.1,0-1.9,0.4-1.9,0.3c0,0.4,2.7,0.2,3,0.1
		c-0.2,0.2,0.1,0.3,0.4,0.2c-0.8,0.7,0,0.3-0.3,0.6c0.4,0.1,0.7-0.4,1.2-0.4c-0.1,0.1,0.3,0,0.3,0c-0.4,0.1-0.3,0.2,0,0.2
		c-0.8,0.1-0.9,0.4-1.3,0.6c0.4,0.1,1-0.2,1.4-0.2c-0.7,0.1-0.5,0.1-1.1,0.4c0.2,0,0.4,0.1,0.4,0.1c-0.2,0.2-0.5,0-0.6,0.1
		c0.7,0.1-1.4,0.3-1.3,0.2c-0.3,0.1,0.3,0.3-0.2,0.6c0.4,0.5,2.9-0.3,3.2-0.3c-0.8,0.4,0.6,0.3,0.6,0.2c0,0,0.2,0.2-0.1,0.2
		c0.8,0.6,2.9,1,4.7,0.8c-0.1,0-0.2-0.1-0.2-0.2c0.4-0.1,0.5,0,0.2,0.1c0-0.1,0.8-0.4,0.9-0.5c-0.8,0.3,0.6-0.6,0.2-0.1
		c0.5-0.1,1.1-0.1,1.5-0.5c0,0.1,0,0.2-0.1,0.3c0.6,0.1,2.9-1.5,3.1-1.5c0,0,1,0.6,1,0.3c0-0.3,0.8-0.3,1.1-0.8
		c-0.2,0.2-0.3,0.2-0.4,0c0,0,0.5-0.3,0.6-0.2c0,0-0.3-0.3-0.4-0.3c0.4-0.1,1.3,0.2,1.4-0.1c-0.1-0.1-0.3-0.2-0.5-0.2
		c1.3,0.1-0.1-0.2-0.3-0.2c0.4,0.1,0.5,0,0.4-0.1c0,0,1.3,0.4,1-0.2c0,0.1-0.4,0-0.4,0c0.1-0.1,0.7-0.7-0.4-0.3c0-0.1,1-0.3,0.8-0.6
		c-0.3-0.6-1.3-0.3-1.7,0c0.1-0.2,0.3-0.4,0.6-0.4c0.1,0.1-0.2-0.3-0.1-0.3c-0.3-0.1-0.8,0-1,0.1c0.3-0.1,0.5-0.3,0.6-0.6
		C54.3,47,54,46.9,53.7,47c0-0.1,0-0.1-0.1-0.1c-0.1,0,1.5-0.8,1.2-0.6c-0.3,0-1.5,0.6-1.6,0.5c-0.2-0.1-0.9-0.5-0.5-0.5
		c-0.3,0-0.9-0.4-1.4-0.3c0,0,0.1,0.9,0,0.8c-0.2-0.1-0.5,0-0.1-0.1c-0.4,0-0.4,0.1-0.2,0.2c-0.7-0.2-1.6,0.1-1.8,0.4
		c0.1-0.2-1.2-1.1-1.3-0.5c0,0.2,0.5,1,0.3,1.2c0.2-0.1-1.2-1.3-1.2-1.3c-0.5-0.1-1.4,1.1-1.4,1.1c-0.1,0.1-0.4-0.3-0.4-0.3
		c0.1,0-1-0.2-1.1-0.2c0,0-0.2,1.2-0.5,1.1c-0.2,0-0.2-0.5-0.2-0.5c-0.2,0-1,0.7-0.7,0.8c-0.5-0.2-0.1,0-0.3,0.4
		c0.3-0.2-0.3-0.7-0.6-0.7c0.2,0,0.3-0.2,0.4-0.3c0,0-0.4-0.4-0.7-0.4c0.2-0.1,0.4,0.2,0.8,0.1c-0.6-0.2,0.4-0.3,0.2-0.5
		c-0.5-0.2,0.4,0-0.5,0c0.2,0,0.4-0.1,0.5-0.1c0.1-0.1-0.7-0.1-0.6,0c0.3-0.1-2.5-2-2.5-0.8c0,0.2,0.9,0,1,0
		c-0.4,0.1,0.2,0.3,0.2,0.1c0,0.1-0.3,0.1,0.2,0.1c-0.3,0-0.7,0.1-1.1,0.1c-0.3,0.1,0.9,0.4,0.9,0.4c-0.3,0.1,0.1,0.5-0.3,0.6
		c0.3-0.5-0.2-0.1-0.3,0c0.2-0.1,0.2-0.3,0.1-0.5c-0.2-0.1-0.4,0-0.4,0.3c0.1-0.3,0.1-0.3-0.2-0.1c0.5-0.3-0.1-0.1-0.2-0.1
		c0.4-0.5-0.8-0.6-0.9-0.4c0.1,0.1,0.2,0.1,0.3,0.1c-0.8-0.4,0,0.3,0,0.3C38.3,47,38.1,47,37.8,47c0.2,0.3,0.6,0.5,1,0.5
		c-0.2,0-1.1-0.3-1.2-0.1c-0.1,0.4,1.1,0.2,1.2,0.2c-0.1,0-0.7,0.1-0.7,0.2c0.1,0.1,0.3,0.1,0.4,0.1c-0.5,0.1-2-0.7-1,0.2
		c-1-0.2-0.2,0.2-0.1,0.2c-0.5,0.2-0.8-0.4-1.4,0.1C36.3,48.3,36.6,48.3,36.8,48.3z M55.6,49c-0.1,0-0.3,0-0.4,0
		C55.4,49,55.5,49,55.6,49z M42.7,52.4C43.1,52.4,42.1,52.4,42.7,52.4z"/>
	<path class="st0" d="M53.9,50.9C53.8,50.9,53.1,51.2,53.9,50.9z"/>
	<path class="st0" d="M57.2,82.2c0.1-0.1,1.1-0.1,1.3-0.1c-0.2,0.3-1.2,0.3-1.4,0.7c0.1,0.1,0.1,0.1,0.1,0.2c0.3,0.2,1-0.1,1.6-0.2
		c-0.3,0.2-1.2,0.4-1.3,0.8c-0.5,0.2,1.4-0.5,1.5-0.4c-0.3,0.2-0.6,0.4-0.9,0.5c0.2-0.1,0.4-0.1,0.6-0.2c-0.2,0.1-0.4,0.2-0.6,0.4
		c0.1-0.1,1-0.1,1-0.2c-0.1,0.1,0,0.1-0.1,0.2c0.9-0.1,2.4-1.1,2.1-1.1c1-0.3,0.4,0,0.4,0.2c0.3-0.7,2.4-0.7,2.8-1
		c-0.1,0,0,0,0.4-0.2c-0.1,0.3,0.7,0.2,0.8,0.2c0.4-0.2-0.3-0.4-0.2-0.5c0,0,1.3-2.8,1.1-2.6c0.1-0.1-0.6-1.5-0.4-1.6
		c0,0,0.6,0,0.5-0.1c-0.1,0-0.1-0.1-0.2-0.1c0-0.1,1.4-0.2,1.5-0.7c-0.1-0.1-0.2-0.1-0.3,0c0.3-0.3,0-0.4,0.1-0.6
		c0.1-0.2,0.3,0.6,0.3,0.6c0.5,0-0.3-1.8-0.8-0.8c0.1-0.2,0.6-0.2,0.4-0.5c-0.2,0-0.2,0,0,0.1c-1.2-1.7-1.4-0.1-2.9-0.7
		c0-0.1,0.6-0.4,0.6-0.5c-0.3-0.2-0.6-0.3-0.9-0.4c0.1,0-0.2,1-0.7,1.1c0,0,0.6-1.1-0.1-0.8c-0.3,0.1,0.4,0.1,0.1,0.4
		c-0.1,0.3-0.2-0.5-0.2-0.4c-0.1,0.1-0.2,0.2-0.2,0.3c-0.2,0.2-1.1-0.2-0.9,0.7c0.1,0-0.4,0.1-0.5,0.1c0.8,0.4-0.3,0.1,0.2,0.2
		c-0.3-0.1-0.5,0-0.7,0.2c0.4,0.5,0.8-0.2,0.6,0.3c0.2-0.1,0.5-0.1,0.7-0.2c0,0.2-0.9,0.8-1.1,0.8c0.2,0,0.2,0,0.3,0.2
		c-0.3,0-0.3,0-0.1,0.2c-0.4,0.1-1.1-0.6-1.3,0.2c0-0.4-1.1-0.7-1.3-0.5c0.2-0.1-0.2,0.6-0.3,0.3c-0.2-0.5-0.2,0.3-0.2,0.3
		c0,0,0.1-0.3,0.2-0.3C58.6,76.7,59,77,59,77c-0.1,0.1,0.1,0.7-0.2,0.6c0.2-0.1,0.5-0.1,0.7,0c-0.2,0.1-0.2,0.2,0,0.2
		c-0.2,0-0.5,0.1-0.7,0.1c-0.1,0.3,0,0.4,0.4,0.4c-0.4,0.2-0.7-0.1-1,0.2c0.1,0.1,0.2,0.2,0.4,0.2c-0.1,0-0.3,0-0.4,0.2
		c0.4,0.1,0.3,0,0.7,0c-0.1,0.1,0,0.1,0.1,0c-0.1,0.1-0.1,0.2-0.2,0.3c0.2,0.2,0.6-0.2,0.7-0.2c0,0-0.2,0.3-0.2,0.3
		c0.1,0.1,1.3,0,1.4,0c-0.1,0-0.3,0.4,0.1,0.1c-0.3,0.5-1.5,0.8-2.3,1.7c0.7,0.3,1.5-0.3,2.1-0.6c-0.1,0.3,0,0.4,0.4,0.3
		c-0.8,0.5-1.9,0.2-2.5,0.7c-0.1,0.1,0.3,0.4,0.3,0.4C57.7,81.9,57.5,81.9,57.2,82.2z"/>
	<path class="st0" d="M58.4,77.4c0,0.2,0.5,0-0.2-0.2C57.7,77.4,58.4,77.2,58.4,77.4z"/>
	<path class="st0" d="M52.6,68C52.6,68,52.6,68,52.6,68C52.4,67.9,52.5,68.1,52.6,68z"/>
	<path class="st0" d="M78,60.6c0-0.1,0.3-0.5,0.2-0.6C78.1,59.9,77.8,60.6,78,60.6z"/>
	<path class="st0" d="M73.5,64.5c-0.2,0,1.1,0.2,1.1,0c0-0.1-0.9-0.2-0.8-0.1C74.9,63.9,72.8,64.6,73.5,64.5z"/>
	<path class="st0" d="M67.1,69.5C66.8,69.7,66.8,69.4,67.1,69.5z"/>
	<path class="st0" d="M77.2,61.3c0.1,0.1,0.3,0.1,0.4,0c0,0-0.3,0.9,0,1c0.1-0.6,0.5-1.2,0.5-1.3c-0.2,0-0.2,0,0-0.2
		c-0.3,0.1-0.2,0.1-0.4,0.1c0.1,0,0.2-0.1,0.1-0.2c-0.3-0.1,0.1,0.3-0.3,0.2c0,0,0.2-0.6,0.2-0.6c-0.1,0-0.5,0.3-0.2,0.3
		c0.1-0.1-0.4-0.1-0.4,0.1c0-0.1,0.6,0.3,0.6,0.3C77.1,60.7,77.1,61.7,77.2,61.3z"/>
	<path class="st0" d="M76,85.8c-0.3,0-0.5,0-0.8,0.2C75.2,86,76.8,85.9,76,85.8z"/>
	<path class="st0" d="M68.6,67.3c0.3,0.3-0.4,0-0.3,0c-0.3,0.4,0.3,0.6,0.5,0.8c0,0-0.7,0-0.7,0.1c-0.2,0.6,0.7,0.2,0.8,0.3
		c0.2,0-0.7,0.4-0.5,0.2c0.1,0,0.6,0.3,0.6,0.3c0.1-0.1-0.6,0.2-0.5,0.1c0.1,0.1,0.3,0.2,0.5,0.2c0.2,0-0.9-0.1-0.8,0.1
		c0,0.1,0.5,0.1,0.5,0.1c0.1-0.1-0.9,0.3-0.8,0.3c0.4,0.2,0.1,0,0.5,0.1c-0.2,0.2-0.9,0.5-1.1,0.5c0.3,0.1,0.5,0.1,0.8,0
		c0,0.2-0.2,0.2-0.4,0.1c0,0.9,1.7-0.5,1.8-0.5c0,0-0.4,0.3-0.1,0.3c-0.2,0.1-0.4,0.2-0.6,0.4c0.1,0,0.2,0,0.3,0
		c-0.2,0-0.3,0.1-0.4,0.2c0.3,0.1,0.4,0,0.8-0.2c-0.6,0.9-0.9,0.2-1.2,1.1c0.5-0.3-0.2,0.5-0.2,0.5c0.1-0.1,0.2-0.2,0.3-0.2
		c-0.3,0.4-0.4,0.4,0,0.3c-0.4,0.4-0.1,0.4,0.2,0.2c0.1-0.1-1.2,1.3-0.7,1.4c0.6,0.1,0.9-2.1,1.9-2.5c0,0-1.4,1.4-0.7,1.1
		c0.1,0,0.4-0.4,0.3-0.4c0.9,0.1-0.2,0,0.5-0.5c0.1,0.2,0.2,0.2,0.3-0.1c0.1-0.2-0.4,0.8-0.1,0.6c0-0.1,0-0.2,0-0.3
		c-0.2,0,1.2,0.7,0.7,0.4c-0.5,0.1-1.3,1.6-1.3,2.5c0,0.1-0.2-0.3-0.3-0.2c-0.4,0.3,0.5,0.9,0.5,1c0-0.1-0.1-0.3-0.1-0.4
		c0.1-0.4,1.1,0.3,1.1,0.3c0.2,0,0.1-0.6,0.1-0.6c0.9,1,1.7-0.9,2.8-0.2c-0.2,0-0.2,0,0,0.1c-1.4,0.3-0.9,2.1-0.5,1.8
		c-0.1,0.2-0.1,0.3,0,0.5c0,0,0.8-0.4,0.8-0.4c0.3,0.5-1.2,1-0.3,1.3c-0.6,0.5-0.4,1,0.3,1c-0.7,0.3-0.8-0.6-0.8,0.3
		c-0.6-0.6-3.4,0.1-3.5,1.1c0,0.1,1.6-0.3,1.4-0.3c-0.2,0.2-0.1,1,0.2,1c-0.2,0.2-2.9,1.6-3,1.8c0.6-0.2,0.4,0.4,0.1,0.3
		c0.4,0.2,0.6-0.1,0.9-0.2c0.2-0.1-0.7,0.4-0.6,0.3c-0.2,0.3,1.6-0.2,1.6-0.2c0.1,0,0.1,0.6,0.6,0.3c-0.1,0.1-0.3,0.2-0.5,0.2
		c-0.1,0.9,4.1-0.4,4-0.5c0.5,1.2-4.4,1.9-4.5,2c0,0-2.7,2.8-2.8,2.5c-0.1-0.4,1.1,0.3,1,0.3c0.2,0.1,1.4-1.9,2.2-0.9
		c0,0,0.1-0.4-0.1-0.2c0.1-0.1,0.2-0.1,0.2-0.2c-0.4,0.9,1.5,0.1,1.4,0.1c-0.7,0.2,2.9-1.8,2.2-0.3c-0.1,0,1.1-0.3,1.1-0.2
		c0-0.2-0.1-0.2-0.3-0.2c0,0,2.4-0.2,1.3-0.6c1.7,0.1,4.4,1,6.1-1.2c0,0-1.9,0.1-1.8-0.1c0.1-0.5,0.7,0.3-0.4-0.1
		c0.5-0.1,1.7-0.4,0.7-0.7c0.1-0.1,1.2-0.4,1.2-0.4c-0.4-0.2,0.3,0.3-0.4-0.2c0.7-0.1,0.4,0,0.2-0.2c1.4,0.1,1.6-1.8,0.2-2.4
		c-0.8-0.3-1.8,0.2-2.4,0.2c0.9-2,0-1.2-1.4-2.1c0.4-0.3,1.7,0.3,1.7,0.3c-0.3,0.1-0.4-1.6-0.3-1.4c-0.3-0.6-1.6-0.9-2-1.3
		c-0.4-0.5-0.4-1.5-0.8-2.1c-1.3-2.1-2.6-0.8-4.4-1.8c0.3-0.1,2.5,0.4,2.5-0.4c0-0.7-1.3-0.1-1.4-0.2c1.3,0.1,3.9-2.5,2.9-3.4
		c-0.8-0.8-3.7,0.5-4.5,0.4c0.1,0,0.5-0.4,0.5-0.3c-0.3-0.1-0.6,0.2-0.8,0.3c-0.1-0.3,1.4-0.3,1.3-0.7c0,0.2-1.1,0-1.2-0.1
		c0.8,0.2,2.4-0.8,2.9-1.8c0-0.1-2.6,0.3-2.9,0.4c0.4-0.6-0.6,0-0.5,0c0.5-0.7-1-0.2-0.8,0.3c0.1,0.2,0.2,0.2,0.4,0.2
		c-0.1,0-0.1,0,0,0.1c-0.3-0.1-0.5,0-0.8-0.1c0.4,0-0.2,0.7-0.3,0.5c0.1,0.1,0.7,0.4,0.7,0.6c-1.6-2-0.1,0.4-0.3,0
		C69.3,67.3,68.3,67.1,68.6,67.3z M68,70.3c0.1,0,0.3-0.1,0.4,0C68.3,70.3,68.1,70.3,68,70.3z"/>
	<path class="st0" d="M65.1,88.1C65,88.2,65.1,88.1,65.1,88.1C65.1,88.1,65.1,88.1,65.1,88.1z"/>
	<path class="st0" d="M69,73.2c-0.1-0.2-0.1-0.5-0.4-0.4C67.7,73.1,69.3,73.9,69,73.2z"/>
	<path class="st0" d="M65.3,68.7c0-0.1-0.1-0.2-0.3-0.2c-0.3-0.1-0.1,0.7,0.2,0.8C65,69.5,65.2,68.5,65.3,68.7z M64.9,68.5
		c0.1,0,0.1,0.1,0.2,0.1C65.1,68.6,65,68.6,64.9,68.5z"/>
	<path class="st0" d="M66.4,68.6c0.4,0.1,0-0.2,0.6,0.1c-0.1-0.1-0.2-0.1-0.3,0C66.6,69.1,68,69,67.9,69c-0.2,0-0.4,0.2-0.4,0.4
		c0,0,0.9-0.5,0.8-0.6c0.1,0.2-2-0.7-1.3-1.1c-0.2,0.1,0.1,0.4,0,0.5c0,0-0.6-0.3-0.6-0.3c-0.1,0.1,0,0.2,0,0.4
		C66.1,68.2,66.2,68.5,66.4,68.6z"/>
	<path class="st0" d="M67.8,70.7c-0.3-0.1-0.7-0.5-1-0.2c-0.1,0.1,0.4,0.3,0.5,0.3c-0.1,0-0.6,0.3,0,0.3c-0.1,0.1-0.7,0.2-0.7,0.2
		C66.7,71.6,68.8,71,67.8,70.7z"/>
	<path class="st0" d="M67.8,72.1c0.5-0.6-0.6,0.1-0.6,0.3C67.3,72.8,67.5,72.7,67.8,72.1z"/>
	<path class="st0" d="M66.2,67.1c-0.1,0.1,0.6-0.3,0.5-0.3c-0.2,0.1-0.3,0.2-0.1,0.3c0.1,0.1,0.5-0.2,0.6-0.2c-0.1,0-0.1-0.1,0-0.1
		c-0.1-0.1-0.3-0.1-0.5,0c0.2-0.1,0.8-0.2,0.9-0.3c0.1-0.2-0.3,0-0.4,0c0.1,0,0.6-0.4,0.4-0.6c-0.4-0.4-1.1,0.8-1.1,0.8
		c-0.2-0.1-0.3,0-0.3,0.2c0,0-0.4-0.6-0.5-0.1c0,0.5,0.8,0,0,0.4C65.9,67,66,67.1,66.2,67.1z"/>
	<path class="st0" d="M69.9,79.5c0-0.1,0.5-0.3,0.7-0.5c0,0-0.9-0.3-0.8-0.3C69.1,78.9,69.9,79.5,69.9,79.5z"/>
	<path class="st0" d="M66.7,73.2c1.1-0.3-0.1-1.6-0.4-0.3c0,0.1,0.5-0.2,0.5-0.2C66.7,72.7,66.5,73.2,66.7,73.2z"/>
	<path class="st0" d="M65.9,67.6c0.1-0.2,0.3-0.3,0.5-0.3C66.3,66.8,65.2,67.7,65.9,67.6z"/>
	<path class="st0" d="M62.8,67.4C62.6,67.3,62.7,67.5,62.8,67.4z"/>
	<path class="st0" d="M65.5,68.2c-0.4,0.3,0.2-0.3,0.2-0.3c0,0-0.7-0.1-0.8,0C64.7,68.1,65.4,68.2,65.5,68.2z"/>
	<path class="st0" d="M80.2,84c-0.2,0.1,0.2,0.2,0.3,0.2C80.7,84.1,80.3,83.9,80.2,84z"/>
	<path class="st0" d="M78.8,59.8c0-0.2-0.5,0.3-0.3,0.4C78.7,60.2,78.8,60.1,78.8,59.8z"/>
	<path class="st0" d="M66.1,70.6c0.1-0.1,0.4-0.1,0.5-0.3C66.6,70.2,66,70.5,66.1,70.6z"/>
	<path class="st0" d="M73.5,65c0.1,0,0.2-0.1-0.1-0.3C73.1,64.4,73.2,65,73.5,65z"/>
	<path class="st0" d="M65.2,68.5C65.8,68.4,64.5,68.4,65.2,68.5z"/>
	<path class="st0" d="M66.8,72C67,72.1,67.3,71.3,66.8,72z"/>
	<path class="st0" d="M64.8,69.5C64.8,69.4,64.2,69.6,64.8,69.5z"/>
	<path class="st0" d="M65.5,70.7C65.2,71,66.4,70.2,65.5,70.7z"/>
	<path class="st0" d="M73.9,90c0.2,0-0.1-0.3-0.3-0.2C73.3,89.8,74.1,90,73.9,90z"/>
	<path class="st0" d="M70,76.3c0,0-0.7,0.8-0.6,0.8C70,77.3,70.6,75.9,70,76.3z"/>
	<path class="st0" d="M72.7,89.3C73.2,89.5,73,88.6,72.7,89.3z"/>
	<path class="st0" d="M91.7,78.6C92.5,78.4,91,78.6,91.7,78.6z"/>
	<path class="st0" d="M87.3,83.3c0.9,0.2-0.3-0.6-0.5-0.4C86.8,82.9,87.4,83.3,87.3,83.3z"/>
	<path class="st0" d="M90.4,78.7c0-0.1-0.8,0.2-0.8,0.2C89.9,78.9,90.1,78.8,90.4,78.7z"/>
	<path class="st0" d="M88.7,79.9c0.1,0,0.5-0.4,0.3-0.5C88.9,79.4,88.4,79.8,88.7,79.9z"/>
	<path class="st0" d="M91.2,78.6c-0.4-0.2-0.6-0.2-0.6,0.1C90.8,78.7,91,78.7,91.2,78.6z"/>
	<path class="st0" d="M86.6,83.3c0.2,0.2,0.3,0.2,0.5,0.1C87.2,83.4,85.9,82.9,86.6,83.3z"/>
	<path class="st0" d="M92.9,78.3C92.9,78.3,92.4,78.2,92.9,78.3z"/>
	<path class="st0" d="M104,123.3c-0.2,0,0,0.2,0.1,0.3C104.3,123.6,104.1,123.3,104,123.3z"/>
	<path class="st0" d="M111.2,121c0-0.3,0.7-1.4,1-1.5c-1.2-0.2-2.7,0.8-4.2,0.8c-0.9,0-1.9-1-2.5-0.4c-1.3,1.2,0.6,1.7,1.6,2.1
		c1,0.4,2.9,2.2,4,1.8C111.1,123.6,111.2,121.4,111.2,121z"/>
	<path class="st0" d="M95.4,112.9c0.5,0.4,0.3,2.4,0.9,2.7c-0.6,0.2-0.3,1.1-0.2,1.7c0,0.2-0.6-0.4-0.3,0.2c0.6,1,1.5-0.7,1.5-0.7
		c0.2,0,1,0.5,1.1,0.4c0.3-0.1,0.4-2.8,0.4-2.3c0-0.8,0.4-2.5-0.4-2.7c0,0,0.4-0.3,0.3-0.2c0.6-0.8-3.2,0.1-3.3,0.1
		C95.5,112.2,95.5,112.9,95.4,112.9z"/>
	<path class="st0" d="M100.4,107c0.1,0.1-0.7,0.2-0.7,0.2C99.6,107.3,100.9,107.6,100.4,107z"/>
	<path class="st0" d="M109,125.6C109.1,126,109,125.4,109,125.6z"/>
	<path class="st0" d="M109.5,126.2c0.8,0.4,0-0.5-0.1-0.4C109.3,125.9,109.3,126.1,109.5,126.2z"/>
	<path class="st0" d="M94.4,77.9C94,78,95.2,77.9,94.4,77.9z"/>
	<path class="st0" d="M101.8,75.9C100.9,75.7,103.1,76.1,101.8,75.9z"/>
	<path class="st0" d="M105.9,76.5c-0.1,0.1,0.8,0.1,0.4,0.1c0.1,0,0.6-0.2,0.7-0.2c-0.1,0.1-0.1,0.1,0,0.1c-0.2-0.1-0.2-1.6-1.1-0.7
		c0,0,0.8-0.3,0.7,0.2c0,0.1-0.4,0-0.3-0.2c-0.1,0.2-0.2,0.2-0.4,0.1C105.9,75.9,106.3,76.6,105.9,76.5z"/>
	<path class="st0" d="M101.5,76.3C101.5,76.3,101.5,76.3,101.5,76.3C101.4,76.3,101.4,76.3,101.5,76.3z"/>
	<path class="st0" d="M93.6,78C94,78.2,94.3,77.6,93.6,78z"/>
	<path class="st0" d="M119,21.8c0.6-0.5,3-0.5,3.8-0.9c-0.8-0.6-2-0.1-2.9-0.5c0-0.3,0.1-0.4,0.5-0.3c-0.9-0.3-2.9-0.2-3.9,0
		c-0.2,0.1,1.1,0.4,1.1,0.4c-0.2,0.1-1,0.6-1.2,0.8c0.2,0,0.2,0.1,0.1,0.2c0.7,0.4,2-0.6,2.7-0.2c-0.1,0.1,0,0.1,0.3,0
		C119.3,21.5,119.1,21.7,119,21.8z"/>
	<path class="st0" d="M100.8,17.7c-0.6,0.4,2,0.5,1,0.2c0.2-0.2,0.7,0.1,0.8,0.1c-0.2,0-0.4,0.1-0.6,0.3c0.3,0,0.8,0.1,1,0.2
		c0,0-1.8-0.1-2,0c0.3,0.1,0.6,0.2,0.9,0.3c-0.2,0-0.3,0-0.4,0.1c-0.1,0.5,2.4,0.5,2.4,0.5c-0.4,0.1-0.9,0.1-1.3,0.1
		c1.6,1.3,2.7-0.3,3.7,0.1c-0.7-0.3,0.1-0.3-0.4-0.5c0,0,1.8-0.2,1.5-0.3c0.4,0.1-0.5,0.6-0.3,0.5c0.6,0.1,2,0.3,2.5-0.1
		c0.2-0.2-0.7,0.4-0.6,0.4c0.4,0.2,1.1-0.1,1.4,0c-0.4,0.2-2.8,0.2-2.5,0.4c-0.3,0.1-2.5,0.5-2.2,0.5c-0.5,0-0.7-0.2-1.2-0.2
		c1.4,1.3,3.2,0,5.5,0.2c0,0-0.3,0.4-0.3,0.1c0.2,0.1,0.3,0.2,0.5,0.2c-1.1,0.1-2.7-0.3-3.8,0.2c0.8,0.1,1.7,0.2,2.5,0.4
		c-0.2,0-3.9-0.1-3.8-0.1c0.5,1.3,3.3,0.6,4.3,1c-0.4,0.2-1.3-0.2-1.6,0.2c-0.2,0.3,2.4,0.5,2.6,0.4c0-0.2-0.1-0.2-0.3-0.2
		c-0.2-0.2,0.9-0.1,0.2-0.5c0.5-0.2,2.8-2.4,2.9-2.1c-0.1-0.2,0-0.4-0.2-0.7c0.4-0.1,4-0.4,3.9-0.7c-0.2-0.7-4.1-0.3-4.6-0.8
		c0.2,0,0.4,0,0.4-0.3c-0.3-0.1-2,0-2,0c0.3-0.1,0.2-0.2-0.1-0.3c0,0,0.6-0.2,0.7-0.3c-0.2,0.2-2.7-0.9-3.2-0.6c0.6,0,0.3,0,0.6,0.2
		c-0.2,0-0.5,0-0.7,0c-0.3,0.3,1.3,1.6,1.4,1.8c0,0.1-2.3-1.4-2.3-1.4c-1.7-0.5-1.2,0.5-1.5,0.7c-0.1,0.1-1.3-0.5-1.3-0.4
		c0.1,0,0.2-0.1,0.3-0.1c0,0-1.6,0-1.6,0c0-0.4,2.1-0.1,2.3-0.3c0.2-0.2-2.8,0-2.8-0.1c0.1,0,0.2,0.1,0.3,0.2c0,0.1-1.7-0.6-1.7-0.1
		c0.1,0.1,0.2,0.2,0.3,0.2c-0.1,0.2-1.7-0.2-0.4,0.2C100.9,17.4,100.3,17.3,100.8,17.7z"/>
	<path class="st0" d="M124.8,18.8c-0.1,0,0.6,0.3,0.9,0.2C125.4,18.9,125.1,18.8,124.8,18.8z"/>
	<path class="st0" d="M114.7,27.8c-0.1-0.4-0.7,0.1-0.7,0C113.9,27.8,114.8,28.3,114.7,27.8z"/>
	<path class="st0" d="M116.2,19.9c0.7-0.1,1.6,0.1,2.3-0.1c-0.7-0.7-2-1-3.4-0.4c0.4,0.2,1-0.1,0.6,0.3
		C116.4,20,115.8,20,116.2,19.9z"/>
	<path class="st0" d="M111.7,16.3c0.4,0.1,0.8,0.1,1.2,0.1c-0.1,0-0.2,0-0.2,0.1c-0.8,0.2,0.6-0.5-1,0.1c1.7,0,5.5-0.3,6.4,0.2
		c-1.1,0.4-3.7-0.5-1.7,0.4c-0.6,0.2-1.6-0.3-2.3-0.1c0.9-0.4,3.7,0.6,5,0.4c-0.1,0-0.3,0.1-0.3,0.2c0.5,0.9,5-0.3,4.7-0.6
		c0.4-0.1,1.6-0.2,2-0.5c0.3-0.2-3-0.7-3-0.7c0,0-1.3-0.2-1.3,0c0.4-0.1,0.2-0.2-0.5-0.1c0.6,0.3-0.4,0.1-0.6,0.1
		c0,0.1,0.1,0.2,0.2,0.2c-0.4,0.2-1.2,0.1-1.2,0c0,0,0.4-0.5,0.4-0.5c-0.3,0-0.6-0.1-0.9-0.1c0.1,0.1,0.1,0.2,0,0.3
		c-0.2,0-0.2-0.2-0.5-0.2c0.1,0,0.2,0.7,0.2,0.7c-0.2-0.1-0.3-0.1-0.2,0c0,0-1.1-0.2-1.2-0.2c0.2,0,0.3-0.1,0.3-0.3
		c-0.3-0.1-3.7-0.4-3.7-0.3c0.1,0.2,0.3,0.3,0.7,0.1c-0.1,0-0.3,0.3-0.1,0.3c-0.4-0.1-0.9-0.2-1.3-0.2c0.3,0.2,0.6,0.4,0.9,0.3
		c-0.9,0.4-1.8-0.4-2.7,0C112.1,16.3,112.3,16.4,111.7,16.3z"/>
	<path class="st0" d="M133.7,16.2c0.4,0,0.9-0.1,1.3-0.2c-0.6-0.2-2.6-0.1-3.2,0.2C132.1,16.5,133.4,16.3,133.7,16.2z"/>
	<path class="st0" d="M127.8,18.6c0.7-0.1,1.3-0.1,2,0c-0.6-0.4-2.1,0-2.8,0.1C127.2,18.7,127.5,18.7,127.8,18.6z"/>
	<path class="st0" d="M124.2,23c0,0.1-1.1,0.4-0.8,0.5C123.5,23.6,124.2,23.1,124.2,23z"/>
	<path class="st0" d="M95.9,54c0.3,0,0.2-0.2-0.1-0.2C95.6,53.9,95.7,54,95.9,54z"/>
	<path class="st0" d="M91.6,56.3c0.1-0.3,0-0.3-0.4-0.2C91.3,56,90.6,56.9,91.6,56.3z"/>
	<path class="st0" d="M123,36.5c0-0.2-0.1-0.3-0.4-0.2C122.8,36.3,122.9,36.4,123,36.5c-0.5,0-1,0.3-1.2,0.3
		C122.1,36.9,123.3,37.2,123,36.5z"/>
	<path class="st0" d="M117.6,37.4c0.1,0.2,0.7,0.2,0.7,0.2C118.3,37.3,117.9,36.9,117.6,37.4z"/>
	<path class="st0" d="M121,36.6c0.6,0.1,1.6-0.5,1.8-0.7c0,0-0.8,0-0.8,0c0.7,0.5-0.5-0.1-0.6,0.1c0.1,0.1,0.2,0.1,0.2,0.2
		c-0.1,0-1.5-0.2-1.5,0c0.1,0.3,1.2-0.1,0.3,0.4C120.4,36.6,121,36.6,121,36.6z"/>
	<path class="st0" d="M116,38c0,0,0.4-0.3,0.3-0.4c-0.4-0.1-1.4-0.2-1.6,0.2C114.8,37.9,115.7,38.4,116,38z"/>
	<path class="st0" d="M115,38.5c1,0.1-0.3-0.7-0.3-0.3c0.2,0,0.3,0.1,0.1,0.3c0,0-0.7-0.4-0.8-0.2c0.1,0.1,0.3,0.2,0.5,0.2
		c-1.9,0,0.1,0.3-0.4,0.3c-0.1-0.1-0.2-0.2-0.4-0.1C113.4,38.8,115.4,38.5,115,38.5z"/>
	<path class="st0" d="M113.7,39.1c-0.1-0.2-0.4,0-0.4-0.1c0.1-0.1,0.1-0.2,0.1-0.3c-0.6-0.1-0.2,0-0.7,0c0,0.2,0.1,0.3,0.3,0.3
		c-1,0.2-0.3-0.1-0.8-0.1c0,0.2,0.2,0.3,0.5,0.2c-0.3,0-0.4,0-0.2,0.1c-0.1-0.2-0.9,0-0.9,0c0.5,0.3,0.6-0.1,0.1,0.1
		c0.1,0,0.3,0,0.4,0.1c0,0.2-0.2,0.2-0.5,0.1c0,0.2,0.2,0.2,0.5,0.1c-0.2,0.1-0.4,0.2-0.7,0.2c0.2,0.1,0.4,0.1,0.6,0
		c-0.2,0-0.2,0-0.1,0.2c0.3,0,0.5-0.5,0.8-0.4c-0.3,0.2,0.7,0.1,0.8,0C113.1,39.5,113.7,39.3,113.7,39.1z"/>
	<path class="st0" d="M107.3,40.8c0.3,0.2,1.2-0.4,1.3-0.1c-0.2,0.1-0.4,0.1-0.7,0.2c1.3,0.4,1.1-0.7,0.6-0.9
		c0.8,0.2-1.2,0.5-1.1,0.5C107.6,40.4,107.4,41,107.3,40.8z"/>
	<path class="st0" d="M90.1,62.5c0.3,0,0.2,0.4,0.1,0.5c0,0,0.2-0.5,0.3-0.4C90.3,62,90,62.4,90.1,62.5z"/>
	<path class="st0" d="M90.2,64c0.2,0,0.2-0.7,0-0.7C90.2,63.4,90.1,64.1,90.2,64z"/>
	<path class="st0" d="M109.9,39.9c0.2-0.1,0.4-0.3,0.5-0.5c-0.1-0.5-1.6,1-1.1,0.9C109.3,40.3,109.8,40,109.9,39.9z"/>
	<path class="st0" d="M110.7,41.1c0.3,0.1,0.4,0,0.6-0.3c-0.1,0-0.1-0.3-0.1-0.4c0,0-0.6-0.2-0.6-0.2c-0.1,0.1-0.2,0.8-0.9,0.9
		c0.1-0.2,0.2-0.4,0.5-0.4c0.3-0.4-1.1-0.6-0.6-0.2c-0.1,0-0.3,0-0.4,0.1c0.1,0.1,0.3,0.2,0.5,0.2c-0.2-0.1-0.3-0.1-0.5,0
		c0.2-0.3-0.2,0.8-0.4,0.4c0.1,0.1,0.2,0.1,0.3,0.2c0.5-0.1-0.9,0.4-0.6,0.4c0.1,0,1-0.5,0.9-0.5c-0.1,0.2-0.2,0.3-0.4,0.4
		c0,0.5,1-0.3,0.9-0.3C110.3,41.3,110.1,41,110.7,41.1z"/>
	<path class="st0" d="M96.7,52.8c0.1,0,0.7,0,0.7-0.2C97.4,52.5,96,52.6,96.7,52.8z"/>
	<path class="st0" d="M102,50.8C102,50.8,102,50.9,102,50.8z"/>
	<path class="st0" d="M96.9,52.9c0.8,0.1-0.5,0-0.5,0.3c0.5,0.3,1.2-0.3,1.6-0.2C97.8,53.1,97.2,52.4,96.9,52.9z"/>
	<path class="st0" d="M116.8,37.4c-0.1-0.1-0.7-0.2-0.7-0.2C116.4,37.2,117.4,37.9,116.8,37.4z"/>
	<path class="st0" d="M90.3,57.2c0.2,0.3-0.2-0.5-0.6,0C89.7,57.2,90.5,57.4,90.3,57.2z"/>
	<path class="st0" d="M90.4,62.3c0,0,0.5,0.4,0.4,0C90.8,61.9,90.2,61.9,90.4,62.3z"/>
	<path class="st0" d="M106.6,41.7c-0.2-0.1-0.9,0.2-0.8,0.5C105.8,42.3,106.7,42.1,106.6,41.7z"/>
	<path class="st0" d="M92.2,56c-0.1,0-0.4-0.2-0.5-0.1c0,0.1,0,0.2,0,0.4C91.8,56.1,92,56.1,92.2,56z"/>
	<path class="st0" d="M95.6,53.5c-0.1,0.1,0.6,0,0.5,0C96.5,53,95,53.5,95.6,53.5z"/>
	<path class="st0" d="M121.8,37.2c0.4,0,0.1,0,0.2-0.2c0-0.1-1-0.1-1,0C121.2,37.1,121.5,37.2,121.8,37.2z"/>
	<path class="st0" d="M105.2,42.4c-0.2,0.1,0.1-0.4-0.2-0.3c0,0-0.4,0.6-0.5,0.6C104.7,42.9,105.2,42.5,105.2,42.4z"/>
	<path class="st0" d="M124,36.4c0.1-0.1-0.9-0.5-0.9-0.2c0.1,0.1,0.1,0.2,0,0.2C123.3,36.6,123.6,36.6,124,36.4z"/>
	<path class="st0" d="M91.1,61.7c0,0-0.5,0.2-0.5,0.2C90.5,62.6,91.5,61.6,91.1,61.7z"/>
	<path class="st0" d="M126.3,35.4c-0.8,0.2,1.2,0.2,1.1,0c-0.2,0-0.3,0-0.5,0.1c-0.1,0,0.2-0.3,0.2-0.2c0,0.2-0.8-0.8-0.5,0.1
		c-0.3-0.2-0.5,0-0.7-0.1C125.9,35.5,126,35.6,126.3,35.4z"/>
	<path class="st0" d="M96.8,53.9c0-0.1-0.4-0.2-0.4-0.2c0,0.1,0,0.1-0.2,0C96.3,53.8,96.8,54.2,96.8,53.9z"/>
	<path class="st0" d="M108.7,41.3c-0.1,0-1.2,0.1-1.4,0.2c0.1,0.1-0.2,0.5-0.3,0.5C107.5,42.1,108.6,41.4,108.7,41.3z"/>
	<path class="st0" d="M67.1,35.7c0.5-0.3,1.2,0,1.5-0.5c0,0-2,0.3-2.1,0.6C66.7,35.9,66.9,35.8,67.1,35.7z"/>
	<path class="st0" d="M67.3,56.1c-0.6,0.1,0.7,0.9,0.3,0.3c0.1,0.1,0.2,0.2,0.2,0.3c0-0.2,0.1-0.2,0.2-0.2c-0.3-0.1-0.3-0.2-0.1-0.2
		C67.9,56.4,67.2,56.1,67.3,56.1z"/>
	<path class="st0" d="M67.4,57.3c0.2,0.3,0.4,0.3,0.3,0C67.1,56.5,67.4,57.3,67.4,57.3z"/>
	<path class="st0" d="M67.6,58.4c0.1-0.1-0.2-0.5-0.4-0.5C67.3,57.8,66.8,58.1,67.6,58.4z"/>
	<path class="st0" d="M68.4,56.2c-0.2-0.5-0.5-0.1-0.3,0.2C68.2,56.4,68.4,56.2,68.4,56.2z"/>
	<path class="st0" d="M67.2,56.7c0.2,0.1,0.3,0.2,0.5,0.4c0.2-0.2-0.8-1-0.9-0.8C66.8,56.4,67.1,56.6,67.2,56.7z"/>
	<path class="st0" d="M66.6,56.7c-0.4,0,0.3,0.1,0.3,0.1c0-0.1,0-0.1,0.2-0.1C66.9,56.4,66.1,56.5,66.6,56.7z"/>
	<path class="st0" d="M99.6,74.4c1.1,0.5,1.9-0.3,1-0.9c0.1-0.1,0.6-0.1,0.2-0.4c-0.1-0.1-0.1,0.7-0.4,0.4c0,0,0.1-0.3,0.2-0.2
		c-0.5-0.3-1.2,0-1.7,0.1C98.8,73.4,99.7,74.4,99.6,74.4z"/>
	<path class="st0" d="M109.4,74.6c0.3,0.1,0.4,0,0.4-0.3c0-0.1-0.8-0.5-0.8-0.4C108.7,74.3,109.2,74.5,109.4,74.6z"/>
	<path class="st0" d="M99.5,75c0.5-0.2-0.9-0.7-0.8-0.5C99.2,74.9,99,74.6,99.5,75C98.8,75,99.6,75,99.5,75z"/>
	<path class="st0" d="M100.7,72.6c0.2-0.2,0.1-0.5-0.1-0.6C100.6,72.1,100.5,72.8,100.7,72.6z"/>
	<path class="st0" d="M101.8,72.7c-0.2,0-0.4,0.1-0.5,0c0.2,0.1,0.6,0.1,0.1,0.2c0.1,0.1,0.8,0.9,0.4,0.9c0,0,1.3,0.4,1.4,0.5
		c0.1,0.1-0.1,0.2-0.4,0.2c0.2,0,0.4,0.1,0.5,0.3c0,0.2-0.5,0-0.1,0.5c-0.2-0.2-1.7-0.6-1.7,0c0,0.3,2,0.7,1.7,0.1
		c0,0,0.2,0.5,0.3,0.5c0,0,0.3-0.8,0.3-0.8c0.1,0-0.5-0.1-0.5-0.2c-0.1,0.6,0.8-1.1,0.3-0.6c0.1-0.1,1-0.2,0.8-0.4
		c-0.2-0.1-0.3-0.2-0.5-0.3c0.3,0.6,1.3-3.7-0.7-1.3c0.3-0.4,0.5,1,0.3,0.7c0.1-0.1,0-0.1-0.2,0c-0.1-0.2,0.5-0.3,0.1-0.7
		c0,0-0.3,0.7-0.4,0.7c0-0.1-0.1-0.2-0.3-0.2c0.3-0.2,0.2,0-0.1-0.1c0.1-0.1,0.3-0.3,0.3-0.4c0,0-1.4,0-1-0.1c0.2,0,0.3,0.1,0.5,0.2
		C102.6,72.5,101.7,72.8,101.8,72.7z"/>
	<path class="st0" d="M101.4,68.7C100.6,68.9,102.6,68.4,101.4,68.7z"/>
	<path class="st0" d="M96.5,70.1c-0.2,0.5,0.8-0.5,0.8-0.6C97.1,69.8,96.6,69.9,96.5,70.1z"/>
	<path class="st0" d="M103.9,74.7c-0.4-0.1,0.6,0.3,0.7,0C104.8,74.4,103.8,74.7,103.9,74.7z"/>
	<path class="st0" d="M101.1,75.2c-0.3,0.9,0.4-1.1,0.2-0.9C100.8,74.9,101,75.3,101.1,75.2z"/>
	<path class="st0" d="M117.3,67.4c0.1-0.4-0.9-0.3-1.3,0.3c-0.2,0.3-0.4,1.9,0,1.5c-0.1,0.1-0.2,0.3-0.3,0.5c0.1,0,1.5-1.1,1.5-1.3
		C117.2,67.8,117.1,68,117.3,67.4z"/>
	<path class="st0" d="M112.4,71.5c0.3-0.2,1.4-2.8,1.2-2.9C113.5,69.5,112.5,70.4,112.4,71.5z"/>
	<path class="st0" d="M103.1,66.3c-0.2-0.2-0.6,0.2-0.8,0.3c0.3,0.3,0.4,0.1,0.5,0.2C103,66.7,103.1,66.5,103.1,66.3z"/>
	<path class="st0" d="M102.8,67c0.7-0.1-0.4-0.4-0.2-0.1C102.6,66.9,102.5,67.1,102.8,67z"/>
	<path class="st0" d="M121.9,61.4C121.5,61.5,122.4,61.3,121.9,61.4z"/>
	<path class="st0" d="M118.2,61.1c-0.3,0,0.7,0.7,0.6,0.6c0.1,0.1,0-0.6,0-0.6c0.1,0.1,0.1,0,0.1-0.1c-0.2,0.1,0.2,0.3,0.2,0.3
		c0-0.1,0.1-0.2,0.2-0.2c-0.1-0.1-0.6-0.4-0.8-0.4c-0.1,0,0.2,0.5-0.1,0.5C118.4,61.3,118.4,61.1,118.2,61.1z"/>
	<path class="st0" d="M123.7,61c-0.1,0-0.2,0-0.2-0.1C123.2,61,123.6,61.2,123.7,61z"/>
	<path class="st0" d="M122.2,61.4c-0.3,0.3,0.4,0,0.4,0C122.6,61.4,122.4,61.2,122.2,61.4z"/>
	<path class="st0" d="M119.4,61.6c0.1-0.1,0-0.1-0.1-0.2C119.3,61.5,119.3,61.8,119.4,61.6z"/>
	<path class="st0" d="M122.7,61.5C122.8,61.6,122.6,61.4,122.7,61.5z"/>
	<path class="st0" d="M118,61.4C118.1,61.7,117.7,61.1,118,61.4z"/>
	<path class="st0" d="M119.1,61.6c-0.5,0.1,0.3,0.1,0.2,0.2C119.3,62.1,119.4,61.5,119.1,61.6z"/>
	<path class="st0" d="M122.9,61.1C122.8,61.2,123.2,60.6,122.9,61.1z"/>
	<path class="st0" d="M108.8,101.3c0.1,0.3,0.2,0.6,0.4,0.9c0.3-0.2-0.5-1.5-0.5-1.4C108.7,101.4,109.3,101.2,108.8,101.3z"/>
	<path class="st0" d="M110.3,102.6c0.1,0,0.5,0.5,0.5,0.5c-0.1-0.1-0.1-0.1,0.1,0c0-0.1,0.1-0.1,0.1-0.1c0-0.1-0.7-0.6-0.7-0.6
		c0.1,0,0.2,0.1,0.3,0.1c-0.1-0.1-0.7-0.5-0.8-0.6C110,102.2,110.1,102.4,110.3,102.6z"/>
	<path class="st0" d="M115.3,106.8c-0.4-0.1-0.8-0.2-1.2-0.2c0.1,0,0.2,0.1,0.2,0.2C114.6,106.9,115,106.8,115.3,106.8z"/>
	<path class="st0" d="M114.5,107.2c0,0.1,0.1,0.1,0.2,0.1C114.9,107.3,114.6,107.1,114.5,107.2z"/>
	<path class="st0" d="M114.2,105.9c1.1-0.3-0.6-0.2-0.6-0.2C113.7,105.9,113.9,105.9,114.2,105.9z"/>
	<path class="st0" d="M115.8,107.3c0.2,0.1,0.5,0.1,0.8,0.2C116.5,107.3,115.3,107,115.8,107.3z"/>
	<path class="st0" d="M113.1,106.4C113,106.2,112.6,106.9,113.1,106.4z"/>
	<path class="st0" d="M110.5,103.8c-0.1-0.2-0.3-0.3-0.4-0.4c0.1,0.1,0,0.1-0.1,0c0,0,1.1,0.9,0.8,0.8
		C110.8,104,110.8,104.1,110.5,103.8z"/>
	<path class="st0" d="M109.8,101.4c0.3-0.1-0.2-0.7-0.3-0.8c0,0-0.1,0-0.1,0C109.4,101.1,109.1,101.1,109.8,101.4z"/>
	<path class="st0" d="M114.3,106.3c0.3,0,0.7,0,1,0c-0.5-0.4-1.5-0.2-1.8-0.2C113.8,106.1,114,106.2,114.3,106.3z"/>
	<path class="st0" d="M134.2,123.8C134.7,124.5,133.9,123.3,134.2,123.8z"/>
	<path class="st0" d="M134.3,122.8c0,0.2,0.1,0.3,0.2,0.4c0.1,0,0.5-0.7,0.2-0.8C134.5,122.5,134.4,122.6,134.3,122.8z"/>
	<path class="st0" d="M134,113.5c0,0,0.4,0.4,0.5,0.1C134.6,113.4,134.1,113.4,134,113.5z"/>
	<path class="st0" d="M133.8,121.2C132.6,121,134.5,121.4,133.8,121.2z"/>
	<path class="st0" d="M130.3,117.3C130.7,117.2,129.4,116.9,130.3,117.3z"/>
	<path class="st0" d="M136,116.5c-0.2,0-1.3,0.4-0.8,0.7c0.2,0.1,0.8,0,0.8-0.1c-0.1,0.1-0.2,0.2-0.4,0.3c0,0.2,0.8,0.3,1,0.3
		c0-0.1-0.1-0.2-0.1-0.3c0.1-0.1,0.2-0.1,0.2,0.2C136.8,117.5,136.3,116.4,136,116.5z"/>
	<path class="st0" d="M129.8,120.5c0.1,0.1,0.6-0.2,0.2-0.3C129.9,120.3,129.8,120.5,129.8,120.5z"/>
	<path class="st0" d="M133.9,123.1c0.1-0.1,0.2-0.3,0.2-0.5c-0.1,0.1-0.1,0.1-0.1,0C133.7,122.7,133.7,122.9,133.9,123.1z"/>
	<path class="st0" d="M132.7,122.9c0,0,0.1,0.3,0.2,0.4C133,123.1,132.9,122.8,132.7,122.9z"/>
	<path class="st0" d="M134.6,124.8c0.1-0.2,0-0.4-0.2-0.4C134.5,124.6,134.4,124.8,134.6,124.8z"/>
	<path class="st0" d="M136.2,121.4c0.8-0.4-0.8-0.2-0.6,0.2C135.8,121.5,136,121.5,136.2,121.4z"/>
	<path class="st0" d="M133.2,121.6C132.6,122.3,133.3,121.5,133.2,121.6z"/>
	<path class="st0" d="M132.3,117.9c-0.5-0.3-0.3,0.1-0.1,0.3C132.3,118,133,118.3,132.3,117.9z"/>
	<path class="st0" d="M133.5,114.8c-0.4-0.1-0.3,0.1-0.3,0.4c-0.1,0,0.5,0,0.4,0.1c-0.1-0.1-0.1-0.2,0-0.2c0,0.2,0,0.3,0.3,0.3
		c0-0.2,0-0.5,0.2-0.7C133.9,114.9,133.7,114.9,133.5,114.8z"/>
	<path class="st0" d="M121.5,115.3c-0.8,0.2,0.3,1.1,0.7,1.2C122.2,116.4,121.3,115.4,121.5,115.3z"/>
	<path class="st0" d="M123.5,117.9C123.5,117.9,123.5,117.9,123.5,117.9C123.5,117.9,123.5,117.9,123.5,117.9z"/>
	<path class="st0" d="M123.2,118.7c0,0,0.8-0.5,0.3-0.8C123.3,118.1,123.2,118.4,123.2,118.7z"/>
	<path class="st0" d="M135.3,119.5c-0.4,0.7,0.6-0.5,0.5-0.4c0.3-0.4-0.8-0.5-0.7-0.3C135.4,119.2,135.5,119.1,135.3,119.5z"/>
	<path class="st0" d="M123.1,119.4c-0.6-0.2,0,0.4-0.1,0.4c0.1-0.1,0.1-0.2,0.1-0.3c-0.1,0.2,0.5,0.6,0.8,0.6
		c0.3-0.1-0.3-0.5-0.3-0.5C122.7,118.8,123.7,119.5,123.1,119.4z"/>
	<path class="st0" d="M131.3,119.4c0.1,0.3,0.5,0.8,0.9,1c1.1-0.8-3.9-3.6-3.9-2.4C128.3,117.8,131.2,119.2,131.3,119.4z"/>
	<path class="st0" d="M137.3,120.8c-0.7,0.2,0.4,0.3,0.8,0.1C137.8,120.9,137.7,120.7,137.3,120.8z"/>
	<path class="st0" d="M139.9,125.9c0.3,0.6,1.2-1.6,1-1.4C140.4,124.9,139.4,125,139.9,125.9z"/>
	<path class="st0" d="M133,120.4c-0.2-0.3,0,0.5,0.3,0.7C133.3,120.7,133.2,120.7,133,120.4z"/>
	<path class="st0" d="M130.5,126.8c-0.6,1.4,5.8,3,6.2,0.8c-0.2,0-1.1,0.7-1.3,0.5c-0.1-0.1,0-0.5,0-0.5c-0.1,0.2-3.9-0.2-3.9-0.5
		c0,0.1,0.6-0.3,0.1-0.3c-0.1,0-1.2,0.4-0.9-0.2C130.7,126.7,130.6,127.5,130.5,126.8z"/>
	<path class="st0" d="M130,121.1C130.7,120.9,129.3,120.8,130,121.1z"/>
	<path class="st0" d="M132.1,121.9C132.3,122.6,131.9,121.3,132.1,121.9z"/>
	<path class="st0" d="M123.6,120.4c-0.6,0,0.6,0.8,0.4,0.8c0-0.2,0.1-0.3,0.3-0.2C124.4,121,123.6,120.4,123.6,120.4z"/>
	<path class="st0" d="M132,121.1c-0.2-0.1-0.2,0.3-0.2,0.4C131.9,121.5,132.2,121.2,132,121.1z"/>
	<path class="st0" d="M138.8,127.1c-0.2-0.3-0.2-0.5-0.1-0.8C138.8,126.3,138.9,127.7,138.8,127.1z"/>
	<path class="st0" d="M132.5,123.8c0-0.2-0.6-0.1-0.5,0.1C132.2,124,132.4,123.9,132.5,123.8z"/>
	<path class="st0" d="M132.1,112.6c-0.2,0.1-0.3,0.3-0.2,0.5c0.1,0.1,0.3,0.1,0.4,0.1C132.5,112.9,132.4,112.7,132.1,112.6z"/>
	<path class="st0" d="M129.1,125.3c0.4-0.1-0.1-0.6-0.2-0.6C128.9,124.7,128.6,125.4,129.1,125.3z"/>
	<path class="st0" d="M138,122.9c-0.3-0.3-0.3-0.2-0.1,0.1C137.9,123.1,138.2,123.3,138,122.9z"/>
	<path class="st0" d="M134.5,121.8C134.5,121.6,134.4,122,134.5,121.8z"/>
	<path class="st0" d="M138.3,123.4c-0.3,0.1-0.4,0.2-0.3,0.5c-0.2-0.3,0.9-0.3,0.8-0.5C138.7,123.2,138.5,123.2,138.3,123.4z"/>
	<path class="st0" d="M140,123.9C139.7,123.9,140.2,123.9,140,123.9z"/>
	<path class="st0" d="M125.4,119.4C125.4,119.4,125.1,119.1,125.4,119.4z"/>
	<path class="st0" d="M123.8,64.7c0.6,0.4,0.7,0.3,1.2,0.1c0.6-0.2-2.3-0.7-1.9-0.2C123.3,64.7,123.5,64.7,123.8,64.7z"/>
	<path class="st0" d="M127.1,66.6c-0.1-0.1-0.2,0-0.1,0.1C127,66.7,127.1,66.6,127.1,66.6z"/>
	<path class="st0" d="M125.3,64.3C124.9,64.2,126.2,64.5,125.3,64.3z"/>
	<path class="st0" d="M122.7,65.6c0.1,0.1,0.2,0.2,0.4,0.4c-0.7-0.1,0.4,0.6,0.4,0.6c-0.1,0.2-0.4,0.2-0.3,0.5
		c-0.2-0.8,2.4-0.8,2.5-1.3C125.8,65.1,122.7,65.7,122.7,65.6z"/>
	<path class="st0" d="M125.2,65.3c-0.1,0.1,0.5,0.4,0.6,0.2C125.6,65.2,125.4,65.1,125.2,65.3z"/>
	<path class="st0" d="M142.2,99.6C142.2,99.7,142.1,99.7,142.2,99.6C142.1,99.7,142.2,99.7,142.2,99.6z"/>
	<path class="st0" d="M147.4,98.1c0.4,0.2-1.6-0.6-1.5-0.6C145.9,97.5,147.4,98.1,147.4,98.1z"/>
	<path class="st0" d="M165.8,14.7c1.5-0.2,3.3,1,4.7,0.4c-0.7-0.5-2.6-0.4-3.4-0.5C166.7,14.5,164.7,14.8,165.8,14.7z"/>
	<path class="st0" d="M169.9,15.8c0.1,0-1.3,0-1.4,0.1c-0.1,0.1,0.4,0.2-0.2,0.4c-0.1,0,1.9,0.3,2.1,0
		C170.2,16.2,170.3,15.8,169.9,15.8z"/>
	<path class="st0" d="M181.8,36.1c-0.6-0.6-5.3-1.5-5.3-2.8c0-0.4,0.5-0.9-0.7-1.1c0.4-0.2,1,0,0.1-0.3c1.1-0.1,0-0.1,1-0.2
		c-0.3-0.2-0.6-0.3-0.9-0.3c0.1-0.1,1.3,0.2,1.2-0.2c0-0.4-1-0.2-1.1-0.2c-0.3,0.1,1.3-0.1,1.3-0.2c-0.3-0.1-0.7-0.1-1,0
		c0.4,0,0.8,0,1.1-0.2c-0.1-1-6.8-0.4-5.2,0.3c-1,0,0.1,0.1,0.1,0.2c-0.2,0-0.2,0.1,0,0.1c-0.1,0-1.5-0.2-1.5,0.3
		c0.3,0.2,0.5,0.2,0.9,0.2c-0.2,0,0,0.1-0.1,0.2c0.2,0,0.4,0,0.6,0c0,0-0.6,0.3-0.6,0.2c0,0,0.1,0.3,0.4,0.3
		c-0.5,0.1-0.2,0.2-0.7,0.1c0,0,0.2,0.3,0.2,0.3c-0.2-0.1-0.2,0-0.1,0.2c-0.1,0.3-1.3-0.5-1.3,0c-0.1,1,0.5,1.5,1.7,1.3
		c-0.8-0.3,0.3,0,0.2,0c0-0.1,0-0.2,0.1-0.3c0.1,0,1.8,0.3,1.6,0.2c-1,0.6,1.1,0.4,0.9,0.2c-0.1-0.1-0.6,0.4-0.6,0.4
		c0.5,0.4,0.8-0.1,1.2,0.1c-0.4-0.1,0.2,0.2,0.2,0.2c-0.2,0.1-0.3,0.1-0.5,0c0,0,0.1,0,0.1,0c-0.5-0.1-0.5,0-0.1,0.2
		c-0.3,0-0.5,0-0.8-0.1c0.3,0.1,0.5,0.3,0.6,0.6c-0.2-0.1-0.4-0.1-0.7-0.1c0.5,0.1,2,0.7,2.7,0.5c-0.2,0-0.4-0.1-0.6-0.3
		c0.1,0,0.1,0,0-0.1c0.7,0.5,1.5,0.2,1.8,0.4c-0.1-0.1-0.5-0.5,0.5,0c-0.6-0.9,0,0.3,0.1,0c0,0-0.3,0-0.3,0c0.8,0.2,0.7,0.3,0.3-0.1
		c0.2,0.1,0.5,0.2,0.7,0.2c-0.1-0.1-0.1-0.1-0.2-0.1c0.3,0.1,0.6,0.1,0.9,0.2c-0.1,0-0.2,0.1-0.3,0c0.2,0.1,0.3,0,0.5-0.1
		c0,0-0.9-0.3-0.9-0.3c0.2,0,0.2,0,0-0.1c0.6-0.2,0.4,0.2,0.9,0.2c-0.5-0.3,2.9,1.4,0.1-0.1c0.4-0.1,0.9,0.3,1.3,0.2
		C181.6,36.4,181.3,36.1,181.8,36.1z M172,31.7c0.2,0,0.3,0,0.3,0C172.3,31.8,172.2,31.8,172,31.7z"/>
	<path class="st0" d="M181.2,24.2c0.1,0.1,0.6,0.5-0.5,0.3c0.6-0.4-0.9-0.6-0.2,0c-0.1,0.1-3.5,0.7-3.4,0.8c0.2,0,0.3,0,0.5,0.1
		c-0.1-0.1-0.9,0.1-0.9,0.2c0.1,0.2,0.3,0.3,0.5,0.4c-0.4,0-2.9,0.2-3,0.5c-0.2,0.5,1.6-0.3,1.1,0.3c0,0,0.6,0,0.6,0
		c1.4-0.2-1.4,0.2-1.2,0.3c0.6,0.3,1.4-0.1,2,0.2c-0.7,0-1.5,0-2.2,0.1c0,0.1,0,0.1,0,0.2c0.1,0.2,1.1,0.1,1.3,0.2
		c-0.5,0.3-1.1-0.2-1.6,0.3c0.3,0,0.6,0.1,0.9,0.2c0-0.1-0.9,0-1,0c0.3,0.2,1.2,0,1.4,0.3c-0.7,0.2-2.2-0.5-1.6,0.3
		c0.5,0-1.8,0.5-1.7,0.4c-0.3,0.3,2.7,0.1,2.9,0.2c-0.6,0-1.2,0.2-1.7,0.5c1,0.7-0.4-0.3-0.2,0.3c0,0.1,3.6,0.2,3-0.1
		c0.3,0,2.2,0.8,2.2-0.1c-0.3-0.2-0.6-0.3-0.9-0.3c0.2,0,0.2-0.1-0.1-0.2c0,0,1.3,0.5,1.5,0.1c0.2-0.4-2.4-0.7-2-0.6
		c0.3,0,2,0.4,2.2,0.3c0.4-0.2-1.2-0.7-1.3-0.7c0.4-0.1,0.5,0,0.1-0.2c0.4-0.1,1,0.6,1.4,0.4c0,0-0.2-0.3-0.2-0.3
		c0.2,0.1,0.4,0.1,0.6,0c-0.2,0-0.3,0-0.5-0.1c0.2,0,0.4,0,0.5,0c-0.2-0.1,0-0.1,0.2-0.1c-0.4-0.2-0.9-0.5-1.3-0.7
		c0.2-0.1,1.8,0.3,1.7,0.3c-0.4-0.7,0.1-0.1-0.4-0.6c0.4,0.1,0.8,0.2,1.3,0.3c0.4-0.1-1.1-0.7-0.7-0.4c0.4,0,1.7,0.4,1-0.1
		c0.9-0.3,0.9,0-0.7-0.3c1.3-0.2,1.8-0.5,3-0.9c2.9-0.9,5.9-0.9,8.9-1.8c-0.3-0.2,0.3-0.3,0.6-0.6c-0.4-0.1-0.9-0.7-1.9-0.9
		c0.1,0-3.4,0.1-3.3,0.6c0.2,0.1,0.4,0.2,0.5,0.3C188.2,23.8,181.4,24.5,181.2,24.2z"/>
	<path class="st0" d="M157.7,15.5c-0.7,0-1.6-0.2-2.3,0.1c0.4-0.1,0.8-0.1,1.3,0.1c-1.3,0.4-0.8-0.1,0,0.2c-0.4,0.1-2.2-0.1-2.3,0.1
		c-0.1,0.3,1.9,0,2,0.1c-0.2,0.1-0.2,0.1,0.2,0.1c-0.3,0.1-0.4,0-0.6,0.2c0.2,0.1,2-0.1,2.2-0.2c-0.1-0.1-0.8-0.2-0.8-0.2
		c-0.1-0.2,2.1-0.4,1.7-0.2c-0.2-0.3,2.4-0.7,2.5-0.5c-0.6-0.5-1.6,0.2-2.2-0.1c0.3-0.2,0.8-0.1,1-0.2c-0.5-0.1-1-0.1-1.5,0
		c1.5-0.6-1.4,0.2-1.4,0.2c0.1,0,0.1,0.1,0,0.1c0.4,0.2,0.7-0.1,1.1,0.2C158,15.4,158.4,15.5,157.7,15.5z"/>
	<path class="st0" d="M163.6,16.2c0,0,1.7-0.1,1.7-0.2c-0.2-0.4-2.2-0.3-2.5,0C163.1,16.1,163.4,16.2,163.6,16.2z"/>
	<path class="st0" d="M176.1,13.7c-0.3-0.1-0.5-0.1-0.8-0.1C175.6,13.6,175.9,13.6,176.1,13.7z"/>
	<path class="st0" d="M169.3,13.9c0.6,0.1,1.1,0.2,1.7,0c-0.8-0.3-2-0.3-2.7-0.1C168.6,13.8,168.9,13.9,169.3,13.9z"/>
	<path class="st0" d="M167.3,15.1c-0.2,0.1,2.2,0.1,2.2,0.1C169.3,14.8,167,15.2,167.3,15.1z"/>
	<path class="st0" d="M152.4,15.5c0.8,0.3,2.2,0.3,3-0.1c-0.1,0-0.2,0-0.2-0.1c-0.1,0,2.2-0.2,2.1,0.1c0-0.2-0.9-0.1-0.3-0.2
		c-1-0.7-4.4,0-5.5,0.3C151.8,15.4,152.1,15.4,152.4,15.5z"/>
	<path class="st0" d="M173,15.4c1,0.4,3.2,0.6,4.2-0.1c-0.3,0-0.2-0.1,0-0.2c-0.1-0.5-3.1,0-3.5-0.1C175,14.7,172.3,15.1,173,15.4z"
		/>
	<path class="st0" d="M187.7,38.1c-1.3-0.6-2.7-1.5-4-1.1c0.2,0,0.5,0.1,0.7,0.3c-1.5,0.2,0.9,1,0.5,0.6
		C185,37.9,188.2,38.3,187.7,38.1z"/>
	<path class="st0" d="M170.4,39.9c0.7-0.7-5.3-1.7-3.3,0.4C168,41.1,170.4,40,170.4,39.9z"/>
	<path class="st0" d="M166.8,14.3c0.5,0.4,2.9,0.1,3.4-0.1c0.3,0.1-3.4-0.5-1.9,0C167.4,14.3,166.8,14,166.8,14.3z"/>
	<path class="st0" d="M175.7,14.7c1-0.3-1.9-0.2-2,0C174.3,14.8,175,14.8,175.7,14.7z"/>
	<path class="st0" d="M177.2,13.6c-0.4,0,1.3,0.1,1.2-0.1c-0.2-0.3-2.3-0.1-2.5-0.1C176.3,13.5,176.8,13.5,177.2,13.6z"/>
	<path class="st0" d="M174,16.6c0.2-0.1,0.5-0.1,0.7-0.2c-0.2,0-1.8-0.1-1.7,0C173.4,16.5,173.7,16.6,174,16.6z"/>
	<path class="st0" d="M166,15.1c0.1,0.2,1.9-0.1,1.9-0.1c-0.5-0.2-2.4-0.4-3-0.1C164.9,15,166,15.1,166,15.1z"/>
	<path class="st0" d="M200,30.9c0.2,0.1,2.4-0.7,2.7-0.4c-0.1-0.1-1-0.3-1.2-0.1c0.3-0.3-0.4-0.3,0.2-0.4c-0.5-0.5-1.5,0-2.1,0.1
		C199.9,29.9,200.1,30.9,200,30.9z"/>
	<path class="st0" d="M177.6,15c-0.1,0.6,4-0.1,4.2-0.2c-0.4-0.1-0.4-0.1-0.2-0.2C181.6,14.7,177.7,14.2,177.6,15z"/>
	<path class="st0" d="M202.1,15c0.2,0.1,1.6,0.1,1.9-0.1C204.3,14.7,201.5,14.7,202.1,15z"/>
	<path class="st0" d="M169.3,14.5c0,0-1.4-0.2-1.6-0.1c0.4,0.4,2.8,0.5,3.4,0.3C170.5,14.7,169.9,14.6,169.3,14.5z"/>
	<path class="st0" d="M169.7,13.4c0.2,0.3,1.9-0.1,2.1-0.2c-0.7-0.1-1.4-0.1-2.1,0C170.5,13.7,169.5,13.1,169.7,13.4z"/>
	<path class="st0" d="M170.6,15.6c-0.3,0-0.6,0-0.9,0c0.6,0.2,2.7,0.6,2.6,0.5c-0.2-0.1-0.4-0.1-0.6-0.1c0.5-0.5,1.1,0.1,1.7-0.1
		C172.7,15.5,171.3,15.5,170.6,15.6z"/>
	<path class="st0" d="M172.2,34.6c-0.4,0.1,1.3,0.9,1.6,0.9c0.1,0-0.3-1-0.7-0.8c-0.4-0.2-0.3-0.1,0.3,0.1
		C173.2,34.5,172.4,34.6,172.2,34.6z"/>
	<path class="st0" d="M151.5,128c-0.5-0.2-0.7,0.3-1.1,0.2c0,0,1.2,1.2,1.8,1.5c-0.3-0.4,1.2-0.6,1.4-1.1c0,0,0.9,0.1,0.9,0.1
		c-0.8-1.9,0.7-0.4,1-2c-0.6,0.1-1.5,0.7-2.1,0.9C153.2,127.6,151.2,127.9,151.5,128z M154,128.2C153.8,128.3,154,128.2,154,128.2z"
		/>
	<path class="st0" d="M176.4,179c0.3,0.5-0.5-1.1-0.8-0.7C175.4,178.6,176.4,178.9,176.4,179z"/>
	<path class="st0" d="M176,178.1c0,0-0.3,0.3,0,0.5C176.1,178.6,176,178.1,176,178.1z"/>
	<path class="st0" d="M175.8,177.9C175.8,177.9,175.9,177.9,175.8,177.9z"/>
	<path class="st0" d="M224.8,150.1c-0.3-0.8-1,0-1.4-0.4c0,0-0.1-1.3,0-1.2c-0.7-1.1-0.2-1-1.1-1.8c-1.1-0.9-4.2-2.7-4.1-4.5
		c0.1-1,1.9-1.7,1.6-2.9c-0.5-1.8-1.4-0.3-2.4-1.3c-0.6-0.6-1.2-5.8-0.8-5.6c-0.8-0.3-1.9-2.2-0.3-2.1c-0.2-0.2-0.3-0.4-0.5-0.6
		c-0.1-1.5,1.3-3.3,0.1-5c-0.8-1.1-2.2-1.1-3.7-2.2c-0.7-0.5-1.2-1-2.1-1.4c-0.4-0.2-1.1-0.1-1.6-0.2c-1.1-0.3-2.1-1.1-2.8-1.2
		c-1-0.2-1.7,0-2.5,0.3c-1.6,0.5-2.5,2.2-4.2,2c0.3,0.8,0.9,1.9-0.4,1.3c0.3,0,0.6,0,0.9-0.1c-0.3,0.4-4.2,0.9-4.7,0.9
		c-2.2-0.1-2.7-1.4-4.3-2.2c-1.8-0.9-2.5-0.3-3.1-2.7c-0.1-0.3-0.4-1.6-0.2-2.1c0.2-0.5,0.4,0.8,0.3,0.5c0-0.1,0.4-0.8,0.7-0.8
		c-0.1-0.2-0.1-0.2,0-0.1c-0.4-1.6-0.3-3.2,1.8-2.5c-0.1,0.3-4.1-3.8-4.4-4c-1.3-1.5-2.6-2.7-3.3-4.4c0,0.1-0.5-1.6-0.2-1.6
		c-0.3,0-0.2,1.1-0.3,1c0,0-0.9-1.7-1-1.9c-0.7-1.2-1-0.3-0.6-1.8c0.1,0.1,0.1,0.2,0.2,0.3c0.5-1.4,0.4-1.6,0.2-2.6
		c0.3,0.1,0.3,0.1,0.1,0.1c0.2,0.1,0.4,0.2,0.5,0.4c0,0-0.2-0.6-0.3-0.6c0.1,0,0.6,0.4,0.6,0.4c-0.1-0.1,1.9-0.6,2-0.6
		c-0.1,0-0.3-0.6-0.4-0.7c0.2-0.1,0.3-0.1,0.4,0.1c-0.4,0,0.6-0.4,0.6-0.3c-0.2-0.1-0.2-0.3,0-0.4c0.1,0.2,0.2,0.2,0.4,0.2
		c-0.5,0-1.4-1-2-1.1c0.2-0.2,1.1-0.1,1.1-0.3c-0.2-0.8-3.8-4-3.9-2.5c0.1,0-2.4-2.4-2.3-2c-0.2-0.4,0.5-1.9,0.5-2.2
		c0.1-1-0.5-1,0.3-2.1c1.1-1.5,0.2-0.2,2,0.3c2.2,0.6,0.7-2,0.4-1.9c1.5-0.1,2.8-2.5,3.9-2.4c0.3,0-0.1-0.4,0-0.5
		c0.9,0.2,1.1,0.5,1.3,0.7c0.6,0.6,1.1-0.5,1.6-0.5c0.4,0,1.5,0.3,2.1,0.5c0.4,0.2,4.4,2.1,3.8,2.5c0.3-0.2-0.5-1.2-0.4-1.3
		c0.9-0.2,1.6,1.2,2.5,1.2c0.7,0,0.8-0.8,1.3-1c0.9-0.4,1.5,0,2.8,0.1c-1.3-0.1-1.8-5.7-1.7-6.4c0.3-2.2,1.4-4.1,1.1-6.4
		c-0.3-2.8-2-4.7-3.1-7.2c-1.1-2.4-1.2-5-1.8-7.5c-0.5-2-2.4-5-2.2-7c0.1-1.9,1.2-2.1,2.5-3.1c2.7-2,5.5-4,7.5-6.7
		c-0.9-0.4-3.4-0.6-4-1.2c1.1-0.2-1.6-0.4-1.6-0.2c0-0.2,0.3-0.2,0.3-0.2c-0.1-1.2-7.9-1.5-8.8-0.8c0.1-0.1,1.8,1.7,2.1,1.7
		c0,0-1.9,0.6-1.8,0.5c-0.1,0.2,0.9,0.4,0.4,0.7c-1.7,1.2-1.2-0.6-1.1-0.8c0.1-0.3-2.2-0.4-0.6-0.6c-0.2-0.2-1.6,0.1-1.5,0.3
		c0.2,0,0.3,0.1,0.3,0.3c-0.6,0.1-1.4,0.3-2.2,0.4c-0.6,0.1-1.3-0.3-2-0.2c-0.6,0.1-1.9,1.1-1.7,1.1c-0.6,0-2.5-0.6-2.8-0.4
		c0.3-0.2,0.9,0.2,0.4-0.2c0.2,0.2,0.5,0.2,0.6,0c-0.1-0.3-0.9-0.6-0.3-0.9c0,0-0.7-0.2-0.7-0.2c-0.5,0.1,1.6-0.2,1.6-0.2
		c-0.4-0.7-3.3,1-3.5,1c0.1-0.1,0.3-0.1,0.4-0.1c-0.1,0.3-0.4-0.1,0.2,0.3c0,0-0.6,0.7-0.9,0.3c0.1,0.2,0.2-0.2,0.3-0.2
		c-0.6-0.5-0.4,0.4-0.3-0.2c0-0.1-3.7,1.3-3.7,1.3c0.1,0.2-1.6,0-2.2,0.2c0.4,0.3,0.6,0.6,1.1,0.7c-0.6,0.1-1.7-0.4-2.2,0.1
		c0,0,0.2,1.3,0.1,1.3c-0.5,0.5-1.2,0.3-2.2,0.7c0.1-0.1,0.2-0.2,0.3-0.3c-0.3-0.6-3.4-0.3-3.2-1.6c0.1-0.5,2.6-1,2.7-0.8
		c-0.2-0.4-1.5-1.3-1.7-1.4c-0.7-0.3-4.5-0.9-5-0.5c0.2,0.2,2.3,1.4,2.3,1.4c-1,0.3,0.5,3.4,1.3,3.3c-0.7,0.8-0.1,1-0.1,1.9
		c-0.8-0.8-1.2-0.9-1.3-0.3c-0.5-0.4-0.5-0.2,0.1-0.6c0.6-0.4-2.2-0.4-2.1-0.4c0.1-0.1-4.1,0.9-4.5,1.9c-0.1,0.2,1.9,2.5,1.7,2.5
		c-0.5,0-1.5-0.6-1-0.2c-1.3,0.6-2.3-0.8-3.4-0.1c0-0.1,0-0.2-0.1-0.2c-0.2-0.1,0.7-0.1,0.6-0.1c-0.3-0.2-1.9-1-2.3-0.9
		c-0.9,0-0.4,0.5-1.3,0.5c-0.2,0,2.9,1.5,2.9,1.4c0.7,0.7,0.5,1.1-0.7,1.3c-1.3,0.2-4-1.3-5.1-1.8c0.3,0.1,0.2-0.4,0.4-0.5
		c-0.2,0-0.3,0-0.5,0c0.4-0.3-0.5-1.2-1.1-1.5c0.5,0,1-0.8,0.6-1c-0.3-0.1,0.5,0.3,0.4,0.1c-1-0.9-1.8-1-3.2-1.4
		c1.2-0.6-0.1,0.3,0.7-0.3c-0.2,0-0.3,0-0.2-0.1c-0.1-0.1-1.1,0-1.2-0.1c0.3-0.1,0.7,0.1,1,0c-0.5-0.2-0.8,0-1.2-0.1
		c0,0,0.8-0.2,0.8-0.1c-0.3-0.1-0.7-0.2-1-0.2c0.5,0.2-0.8-0.5-0.8-0.5c0.1,0,0.2,0,0.2-0.1c-0.1-0.2-1-0.4-1.3-0.4
		c0.3-0.2,1.6,0,2,0.2c-0.7,0.3,1,0.9,1.2,0.8c0,0-0.1-0.1-0.1-0.2c0.3,0.2,0.9,0.4,1.2,0.1c-0.3,0.3,0.5,0.3,0.7,0.3
		c-0.2-0.1-0.2,0-0.2,0.1c1.7,1.4,12.5,2.5,12.3-1.3c0-0.1-1.1-1.3-1.3-1.4c-0.3-0.2-0.8-0.2-1-0.3c-0.2-0.1-1.6-1.2-1-0.4
		c-0.5,0-3.1-1.1-2.1-0.6c-2.1-0.3-4.6-2.8-6.9-2.3c-0.5-0.4-2.7,0.5-3.6,0.7c-0.2,0,0.7-0.7,0.8-0.6c-0.2-0.2-0.2-0.1-0.5-0.2
		c-0.2,0.1,0.5-0.3,0.3-0.4c-0.5-0.1-0.7,0.3-1.1,0.3c0.1-0.7,0.1-0.2-1.1-0.3c0.2,0,0.3-0.1,0.4-0.2c0-0.1-1-0.3-0.9-0.3
		c0.2,0,0.3-0.1,0.2-0.2c-0.2,0.2,2,0.6,1.7,0.1c-0.2-0.4-2-0.2-2.2-0.4c0.1,0.1,0.2,0.2,0.3,0.3c-0.2-0.1-0.4-0.1-0.6-0.1
		c0,0.2,0,0.3,0.2,0.3c0-0.1-1.1,0.2-0.8,0.2c0.8-0.5-2.2-0.2-1.6-0.1c0.3,0-0.3-0.5-0.3-0.5c-0.2,0,0,0.4-0.1,0.4
		c-0.4,0-0.4,0-0.1-0.2c-0.2-0.2-0.8,0.2-1,0.2c0-0.1,0.2-0.3,0.4-0.4c-0.3-0.4-0.4,0.1-0.7-0.1c0.2-0.1,0.3-0.2,0.5-0.2
		c-0.7-0.3-1.9-0.1-1.7-0.4c-1-0.2,4.3,0.2,3.9-0.4c-0.4-0.7-1.4-0.2-1.9-0.4c0,0,0.5,0,0.5-0.2c-0.4-0.1-0.5-0.1-0.2-0.1
		c-0.3-0.1-0.5-0.1-0.8,0.1c0.5-0.3-0.8-0.2-0.8-0.1c0.4-0.1-0.2,0,0.2-0.1c-0.4,0-0.4,0-0.1-0.1c-1-0.8-1.6,0.6-1.4,0.6
		c0.2-0.1-0.7,0.5-0.6,0.5c0-0.2,0.1-0.3,0.2-0.5c-0.2,0-0.4,0-0.5,0.2c0-0.1,0.1-0.2,0.2-0.2c-0.6-0.3-0.2,0.3-0.6,0
		c0.3,0,0.6-0.2,0.8-0.5c-0.4,0.1-0.7,0.1-1.1,0.2c1.3-0.3,0.5-0.3,0.1-0.4c0.6,0,1.1,0.1,1.3-0.3c0.2-0.3-1.8,0-1.7-0.1
		c-0.3,0.1-0.6-0.3-0.7,0c0,0,0.7,0.2,0.7,0.2c-0.2,0.1-0.1,0.2,0.2,0.1c-0.6,0.1-1.1,0-0.6,0.5c-0.2-0.1-0.4-0.1-0.5,0
		c-0.1,0.1,0.3,0.3,0.2,0.3c-0.5-0.1-0.6,0.1-0.9,0.2c0.5-0.1-0.3-0.6-0.4-0.6c0.3,0,0.5-0.2,0.6-0.4c-0.1-0.1-0.1-0.1-0.1-0.3
		c-0.9-0.5-2.2,2.3-2.7,2c-0.3-0.2,0.2-0.8,0.4-0.9c-0.9-0.1,0.4-0.2-0.4-0.1c0.4-0.5,0.9-0.6,1.4-0.8c-0.1,0-0.2,0-0.1-0.1
		c-0.1-0.1-0.7,0.1-0.8,0.1c0.4-0.2-0.2-0.2-0.2-0.2c-0.1,0.1,0.3,0.3-0.1,0.4c0.1,0-0.5-0.2-0.6-0.2c0.1,0,0.2-0.1,0.2-0.2
		c0.1,0.1-0.8-0.1-0.8-0.1c0.1,0,0.1,0.1,0,0.1c0.3,0.1-0.2,0,0.3,0.2c-0.2,0-0.3,0-0.1,0.2c0,0-0.7-0.2-0.6,0
		c0.1,0.2,0.6,0.2,0.8,0.4c-0.5-0.5-0.7,0.1-0.5,0.4c-1.5,0-1.5,0.4-1.9,0.6c0.3,0.2,0.4,0,0,0.3c0.2,0.1,0.4,0.1,0.6,0.2
		c0-0.1-1.9,0-2.1-0.1c0.3-0.2,0.8,0,1.1-0.3c0,0-1-0.3-1.1-0.1c0.1,0.2,0.2,0.3,0.4,0.2c-0.2-0.1-0.4-0.1-0.6,0c0,0-0.2-0.7-0.6,0
		c-0.2-0.2-1.1-0.5-1.2-0.1c-0.1,0.3,1.6,0.2,1.6,0.2c-0.1,0.1-0.3,0.2-0.5,0.2c0.2,0.1,0.3,0.1,0.5,0c-0.1,0-0.1,0.1,0,0.2
		c-0.1-0.1-0.2-0.1-0.3-0.1c-0.1,0,0.3,0.5,0.4,0.6c-0.3,0-0.4,0-0.2-0.1c-0.1-0.2-1.2-0.6-1.4-0.5c0,0-0.2,0.6-0.5,0.5
		c-0.3-0.1,0-0.2,0.2-0.4c-0.2-0.1-0.8,0.4-1,0.4c0,0,0.7,0.6,0.7,0.6c-0.4,0-1.3,0.5-1.5,0.5c0.2-0.3,1.1-1,0.6-1.5
		c-0.3-0.2-1.2,0.7-0.7,0.8c-0.3,0-0.5,0.1-0.7,0.4c1-0.9-1-1.2-1.1-0.4c0.2,0.1,0.3,0.2,0.5,0.2c-0.3-0.1-0.4,0-0.4,0.2
		c0.2,0.2,0.7,0.4,1,0.5c0.2,0-2.1-0.8-1.9-0.5c0.2,0.4,0.8,0.1,0.9,0.4c-0.1,0-1-0.1-0.9,0.1c-0.7-1.2-0.6,0.2-0.6,0.2
		c-0.4,0.3-1.1-0.1-1.1,0.5c0.2,0.1,0.4,0.1,0.6,0.1c-0.1,0.1-0.2,0-0.2,0c-0.1,0-0.3,0.1-0.4,0.1c0.2,0,0.4,0.1,0.6,0.2
		c-1.9-0.6-0.5,0.1-0.3,0.2c-0.1,0-2.5,0.1-2,0.4c0.1,0.3,1.3-0.1,0.9,0.1c0.2,0.1,1.2,0.1,1.5,0.1c-0.1,0-1.5-0.2-0.5,0.1
		c-0.6,0.1-0.4,0.4-0.4,0.4c-0.1-0.4-1.5-0.7-1.9-0.4c0.1-0.1,0.8,0.4,1,0.5c-0.2,0-0.9-0.6-1.2-0.3c-0.2,0.2,1-0.2,0.1,0.2
		c0.2-0.1,0.5,0,0.7,0.1C111,42,111,42,110.7,42c0.3,0.1,0.5,0.1,0.9,0.1c-0.1,0-0.1,0-0.1,0c-0.2-0.1-0.3-0.1-0.5,0
		c0,0.1,0,0.2,0.2,0.1c-0.1,0-0.1,0.1,0,0.1c-0.1-0.1-0.2-0.1-0.4-0.1c0.1,0.1,0.1,0.2,0.3,0.2c-0.1-0.1-0.3-0.2-0.5-0.3
		c0.5,0.3-0.2,0.1,0.6,0.5c-0.7,0.2-0.6-1-1-1c-0.1,0-0.2,0.6-0.6,0.4c0.2-0.1,0.2-0.1,0.1-0.3c-0.1,0-0.6,0.3-0.6,0.3
		c0,0,1.3,0.1,1.2,0.2c-0.5,0.4-1.5,0.2-1.9,0.2c0,0,0,0,0,0c0.1,0,0.3,0,0.4,0c-0.7,0.4-0.5,0,0,0.2c-1.3,0.5-0.1-0.2-0.6,0.2
		c-0.2-0.1,2-0.1,2-0.1c0-0.1-0.9,0-0.8-0.1c0.7,0.7-0.3-0.4-0.2,0.1c0,0-0.1,0.2-0.1,0.2c0.1,0,0.3,0,0.4,0.1c-0.1,0-0.2,0-0.4,0
		c-0.4,0.4,2.7,0.2,1.1,0c-0.5,0.3-0.7,0.3-0.2,0.5c-0.6-0.2-1-0.1-1.4-0.3c0.7-0.1-0.5-0.1,0.3-0.1c-0.1-0.3-0.4-0.2-0.8,0.2
		c0.2,0.1,0.4,0.1,0.7,0.1c-0.6,0.1-0.7,0.1-1.3,0.5c0.5,0,1-0.2,1.4-0.1c-0.3,0,1.1,0.2,1.1,0.2c-0.5,0-0.8-0.2-0.5,0.3
		c-0.1,0-0.9-0.6-0.8-0.1c-0.2-0.1-0.2-0.2,0-0.3c-0.5-0.1-0.9,0.3-1.3,0.3c0.2,0,0.4,0,0.6,0.2c0,0-1.4,0.1-1.3,0.2
		c0.4,0.1-0.5,0-0.7,0c0.3,0.1,0.5,0.2,0.9,0.3c-0.3,0-0.6,0-0.9,0c0,0,0.2,0.2,0.2,0.2c-0.2,0-0.5,0-0.7,0c0.2,0,0.4,0,0.6,0.2
		c-0.2-0.1-0.4-0.1-0.6,0c0.1,0,0.2,0,0.4,0c0.2,0.1-1.6-0.3,0.6,0c-0.8,0.2-0.3,0.1-0.1,0.2c0,0-1.1,0-0.5,0.1
		c-0.5,0.2-0.3-0.3-0.8-0.1c0.5,0.3,0.2,0.1,0.1,0.4c0,0,0.9,0.1,0.9,0.1c-0.6-0.1-0.9,0-0.8,0.3c0.2,0,2-0.4,2-0.4
		c0,0.3-0.8,0.2-1,0.2c0.1,0.1,0.2,0.2,0.4,0.2c-0.2,0-0.4,0-0.5,0.1c-0.1-0.5-1.1-0.3-1.5,0.1c0.3,0,0.3,0,0,0.1
		c0.3,0,0.9,0,0.9,0.5c-0.7-0.6-1.4,0.1-0.7,0.5c-0.2,0-0.6-0.4-0.7,0c0.1,0.1,0.1,0.1,0.1,0.2c0.2,0,0,0.1,0.2-0.1
		c0,0.2,0.1,0.3,0.3,0.3c-0.2,0-0.2,0.1-0.1,0.2c-0.1-0.1-0.8-0.3-0.8-0.4c-0.2,0.4,0,0,0.1,0.2c0,0-0.4,0.4-0.4,0.4
		c0.1,0,0.1,0.1-0.1,0.2c0.5,0.2,0.1-0.5,0.7-0.3c-0.3,0.3,0.5-0.5-0.3,0.3c0.5-0.2-0.1,0,0.4,0.1c-0.1,0-0.2,0-0.2,0.1
		c0.1,0.1,1.1-0.2,1.1-0.4c0.1,0.3-1.4,0.6-0.8,0.5c-0.3,0.1-0.6,0.2-0.9,0.1c0.2,0,0.4,0,0.6-0.1c-0.4-0.1-0.8-0.1-1.3,0.3
		c0.5,0.1-0.4,0.3,0,0.1c-0.2,0-0.4,0-0.6,0.1c0.1,0.3,0.3-0.2-0.2,0.3c0.3-0.1,0.6-0.2,0.9-0.3c-0.2,0.1-0.1,0.1,0.1,0
		c-0.4,0.1-0.4,0.2,0.1,0.2c0.1-0.1-0.9,0.2-0.8,0.3c0.1,0.3,0.5,0.1,0.7,0.2c-0.8,0-0.4,0.2-0.2,0.3c-0.3,0-0.5,0.2-0.8,0.4
		c0.1-0.3-0.5-0.8-0.6-0.6c0.4,0.2-0.4,0.3-0.5,0.3c0.2,0,0.3,0,0.3,0.2c-0.1-0.1-0.3-0.2-0.5-0.2c0.6,0.2-0.6,0.2-0.3,0.6
		c-0.1-0.1-0.7,0.4-0.8,0.6c0.9-0.1-0.2,0.1,0.4-0.1c-0.1,0.1-0.2,0.1-0.4,0.2c0.2-0.1,0.3-0.1,0.5,0c-0.1-0.1-1,0.2-1.1,0.2
		c0.9,0.1-0.2-0.2-0.1,0.2c0.5-0.1,0.5,0-0.1,0.3c0.3-0.1,0.7-0.2,1-0.3c-0.2,0.1-0.1,0.1,0,0.1c-1.8,1.2,2.1,0,1.7-0.3
		c-0.3-0.1-0.5,0-0.8,0.2c0,0,1.4-0.8,1.4-0.7c-0.1,0-0.7,0.5,0.2,0.2c-0.3,0.1-0.5,0.2-0.8,0.4c0,0,0.6,0.1,0.6,0.1
		c-0.1-0.1-1.4,0.5-1.5,0.6c0.2,0,0.4,0,0.5-0.1c-0.1,0.1-0.3,0.5-0.1,0.4c-0.1,0.1-2.2,0-1.1,0.3c-0.3-0.1-0.6,0-0.9,0.1
		c0.8-0.6-0.8-0.9-1.2-0.5c-0.2,0.2,0.8,0.1,0.6,0.1c-0.2,0-0.4,0-0.6,0.2c0.2,0.1,0.4,0.1,0.5,0c-0.3,0.1-0.5,0.2-0.8,0.3
		c0.6-0.8-1.2-0.1-0.9,0.1c0.3,0.1,0.5,0.1,0.8,0.1c-0.5,0.2-1.5,0.3-1.5,0.2c0.1,0.2,0.3,0.3,0.6,0.2c-0.6,0.2,0.1,0,0.2,0
		c-0.5,0.2,0.2,0,0.1,0.1c-0.1,0.4-0.6,0,0.1,0.4c-0.2-0.1-0.3-0.1-0.5-0.2c0.3,0.3-0.7-0.8-1-0.3c0.1-0.3,1,0.9,1.3,0.8
		c0.3-0.1-3.4-0.7-3-0.5c0.2,0.1,0.3,0.1,0.5,0.2c-0.1,0-0.3,0-0.4,0c-0.3,0.3,1.4,0.1,1.3,0c-0.4-0.1-0.6,0-0.6,0.2
		c0.4,0.1,1.1-0.5,1.5,0c-0.5-0.1-1,0.2-1.3,0.2c-0.2,0,0.7,0.2,0.6,0.1c-0.5,0.1-1-0.2-1.2,0.1c-0.2-0.2-0.3-0.2-0.1-0.2
		c-0.2-0.2-1.5,0.2-1.5,0.2c0.2,0.1,0.4,0.1,0.5,0c-0.3,0.1-0.2,0.1,0.3,0.1c-0.3,0-0.5,0-0.8,0.1c0.2,0,2.1,0.2,2.1,0.5
		c-0.3-0.3-0.6,0-0.8,0.3c-0.1,0.1,0.4,0,0.4,0.1c-0.2,0-0.4,0-0.6,0c0.6-0.7-0.4-0.8-0.8-0.7c-0.1,0,0.5,0.7,0.2,0.6
		c0.2-0.2-0.6-0.7-1.1-0.3c0.5,0.5-1-0.3,0.6,0.4c-1,0.1-0.1-0.2-0.9,0.2c0.2-0.1,0.2-0.3,0.1-0.5c-0.3,0-0.4,0-0.3,0.3
		c0.1,0-0.8-0.4-0.6-0.1c0.1,0,0.3,0.1,0.4,0.2c-0.1,0-0.2,0-0.3,0.1c0.1-0.1-0.5-0.5-0.6-0.5c0,0.1,0,0.2-0.1,0.2
		c0.2,0.1,0.4,0.1,0.6,0.2c-0.1,0.2-0.3,0.2-0.5,0.1c-0.4,0.2,2.3-0.1,1,0.2c0.3,0.4,1.6-0.1,2,0.1c-0.5,0.1-0.8,0.1-1.4,0.1
		c0,0.1-0.1,0.3-0.4,0.3c0.1-0.1,0.2-0.2,0.1-0.3c-0.2,0-0.4,0.1-0.6,0.1c0,0-1.3,0-0.7,0.1c0,0-0.6,0.2-0.6,0.1
		c-0.2,0.9,2.2-0.8,0,0.3c1.3,0.5-0.4-0.5,0.7,0.1c-0.2-0.1-0.3,0-0.3,0.1c0.1,0,0.3,0.1,0.4,0.1c-0.1,0-0.9,0-0.9,0.1
		c0.1,0,0.2,0,0.3,0c-0.7,0.5,0.8-0.2-0.3,0.4c0.1,0,0.6,0.2,0.6,0.2c0,0-0.4,0-0.4,0c0.4,0.1,0.4,0.1,0.2,0.1
		c0.6,0.8,2.8-0.5,3-0.7c0,0.2-0.1,0.3-0.3,0.4c-0.1,0.3,1.2,0,1.1-0.1c0,0-0.4,0.4-0.4,0.3c0.3-0.1,0.5-0.2,0.8-0.1
		c-0.8-0.2,0.4-0.8,0.4-0.8c-0.2,0.1-0.4,0.3-0.5,0.5c0.2,0.2,0.4,0.3,0.7,0.1c-1.3,1.2,0.3-0.7-1.2,0.3c0,0.2,0.1,0.4,0.1,0.6
		c0.1-1-1.2-0.2-1.5-0.4c-0.1,0-2-0.4-2.5-0.1c-0.2,0.1,0.4,0.2,0.3,0.2c-0.7,0.1,0.3,0.2-0.4,0c0.1,0.5,0.8,0.2,1.1,0.2
		c-0.6,0.3-0.5-0.1-0.2,0.5c-0.1-0.1-0.1-0.1-0.1,0c-0.1-0.1-0.7-0.5-0.9-0.4c0,0,0.5,0.3,0.5,0.4c-0.1-0.1-0.1-0.1-0.2-0.1
		c0,0.7,1.1-0.2,1.2-0.3c-0.2,0.1-0.1,0.2,0.1,0.1c-0.7,0.9-0.3,0.1-1,0.5c-1.2,0.7,1.2,1.1,0.9,0.3c-0.1,0.1-0.2,0.2-0.3,0.4
		c0.4-0.3-0.1,0.2-0.1,0.2c0.2,0,0.3,0,0.5-0.1c-0.1,0.1-0.3,0.3-0.2,0.5c0.1,0,0.2,0,0.2,0.1c0.7-0.3,0.6-1.2,1.7-1.3
		c-0.3,0.5,0.4-0.1,0.6-0.1c-0.3,0.2-0.2,0.3,0.2,0.2c-0.8,0.8-0.2-0.5-1.1,1c0.1-0.3,0.2-0.6,0.2-0.8c-0.1-0.2-1.1,0.5-1.1,0.6
		c0.1,0.1,0.2,0.2,0.4,0.1c-0.3-0.2-1,0.8-1.1,0.8c0.6,0,0.3,0.2,1.2-0.1c-0.2,0.3-1.1,0.1-1.1,0.5c0.1,0.1,0.2,0.1,0.3,0
		c-0.1,0.1-1.2,0.2-1.1,0.4c0.1-0.1,0.1-0.1,0.1,0c0.1,0,0.4-0.4,0.2-0.5c-0.8-0.3-0.4,1.6,0,1c0.3-0.4-0.1-0.3-0.2-0.4
		c-0.2-0.4,0.7,0.5,0.4,0.4c0.1-0.1,0.2-0.2,0.4-0.2c0-0.3-0.1-0.3-0.3-0.2c0.5-0.4,0.2-0.2,1-0.2c-0.3-0.1-0.5,0-0.5,0.2
		c0.2,0.3,0.9-0.7,0.9-0.7c-0.3,0.4-0.2,0.5,0.4,0.2c-0.3,0-0.9,0.2-1.1,0.5c0,0,0.4,0.2,0.4,0c0.1,0.4-0.1-0.1-0.2,0.2
		c0,0.1,1,0,0.8-0.1c-1.2,0.3-1,0.2-0.7,0.4c-1,0,0.1,0.2,0.9,0.2c-0.4,0.1-1.4,0.1-0.8,0.5c-0.2,0-1.4-0.3-1.4-0.4
		c0.2,0.1,0.3,0.2,0.1,0.3c-0.6-0.1,1.5,1.5,2.5,1.6c-0.3,0.1-0.5,0.2-0.7,0.4c0.3,0.8,0.8-0.6,0.8,0.3c0.2,0,0.3-0.1,0.4-0.3
		c0,0.2-0.4,0.2-0.3,0.3c0.1,0.1,2.1-0.1,2-0.6c0.5,0.5,0,0,0.4,0.3c-0.1,0,2-1.4,2-1.4c0,0,0-0.1-0.3-0.1c0,0,0.6-0.1,0.7-0.2
		c0.1-0.1-0.1-0.1-0.3-0.1c0-0.2,1.3-0.3,0.5-0.7c0.6,0,1.2,0.8,1.3,0c0.4,0.5-0.1-0.1,0.2,0.2c0,0,0.1-0.6,0.1-0.5
		c0,0.1,0,0.2,0.1,0.3c0.5,0-0.4-1-0.3-1c0.2,0.1,0.3,0.1,0.3-0.1c-0.1,0.3,0.1,0.3,0.3,0.1c0.2-0.3-0.6-0.9,0.2-0.9
		c0.1,0.1,0.2,0.3,0,0.4c0.5,0.8-0.2,1,0.9,1.4c0.1,0.1,0.2,1.7,0.2,2c0.1,0.1,0.3,0,0.4-0.2c-0.3,0.3,0.2,0.2-0.1,0.4
		c0.2-0.1,0.3-0.2,0.3-0.5c0,0.2,0.1,0.2,0.3,0.1c-0.2,0.1-0.3,0.3-0.3,0.5c0.4-0.1,0.1-0.4,0.7-0.2c-0.2,0.1-0.5,1.4-0.1,1.4
		c-0.1,0.1-0.2,0.1-0.2,0.2c0.5,0.3,0.1,0,0.4,0.8c0.1,0.2,2,1.6,2.1,2.2c0.1,0.3-0.6,0.3-0.6,0.4c0.6,0.6,0.2,0.3-0.4,0.3
		c1.3,0.9,0.9,1.7,0.8,2.4c0.7-0.3,2.2,0.3,2.8-0.1c0.7-0.5-0.4-0.8-0.1-1c0.8-0.6,0.8-0.7,1.6-0.9c0.4-0.1,1.4,0.2,1.6,0.2
		c-0.1,0,1.2-1.8,1.2-1.8c0-0.3-0.2-0.5,0.2-0.7c-0.1-0.1-0.2-1.4-0.2-1.5c0.3,0,0,0,0.4-0.2c-0.2-0.2-0.2-0.2,0-0.1
		c-0.1,0-0.4-0.4-0.5-0.4c0.1,0,0.7,0.1,0.6,0.1c-0.1-0.1-0.1-0.2,0-0.1c-0.1-0.1-0.2-0.2-0.4-0.2c0.1,0,0.1,0,0.1-0.1
		c0-0.1,0.7-0.4-0.1-0.8c0.1,0,0.2,0,0.3,0c-0.1-0.1-0.6-0.2-0.8-0.3c0.4-0.1,0.7,0.1,1.1,0c-0.6-0.5-1-0.1-1.5-0.4
		c0,0,1.8,0.1,1.8-0.2c-0.5,0,0.1,0-0.3-0.1c1,0.1,0.8-0.6,1.3-0.4c-0.2-0.2,0-0.6-0.2-0.3c0-0.1,0.1-0.3,0-0.4
		c0,0.3,0.1,0.3,0.2,0.1c-0.1,0.2,0,0.4,0.1,0.6c0.3-0.6-0.1,0.3,0,0.2c0.2,0.1,0.1-0.3,0.1-0.3c0,0,0.9-0.5,0.9-0.5
		c-0.2-0.1-0.1-0.1,0.3-0.2c-0.8-0.4,0.2,0.3-0.4-0.3c0.1,0,0.1,0,0.1-0.1c0.1,0,0.2,0.4,0.5,0.2c-0.1,0-0.3-0.1-0.4-0.1
		c0.2,0.1,0.4,0.1,0.5,0c-0.3-0.1-0.4-0.2-0.1-0.2c-0.5-0.5-0.2,0.4-1,0.1c0-0.1,0-0.1-0.1-0.2c0,0,0.5-0.2,0.5-0.1
		c0,0,0.3-0.6,0.8-0.6c0-0.1,0.4-0.5,0.6-0.3c-0.2-0.2-0.3-0.2-0.4-0.5c0.1,0.1,0.2,0.2,0.3,0.3c0.1,0-1.4-1.2-1.3-1
		c-0.1-0.1,0.1,0.1,0.4,0c0.1,0-2.5-1-2.8-1.2c0.2-0.1,0.1-1.3-0.2-1.5c0.4,0.2-0.2,0,0.2,0c-0.5-0.4,0-0.6-0.4-0.7
		c0.1-0.1,0.2-0.1,0.3-0.1c-0.4-0.3,0.3-0.1-0.2-0.3c0.1-0.1,0.7,0.2,0.8,0.1c-0.1,0.4,0.1-2,0.2-1.4c0,0-1-0.5-0.5-0.7
		c0.6-0.3,1.7,0,0.4-1.2c0.2,0,0.2,0,0.2-0.2c-0.2,0.5,1.2,0.6,0.5,0.6c0.2,0.3,1-0.4,1-0.4c-0.2,0-0.4-0.1-0.6-0.1
		c0.3,0,0.7-0.4,0.6-0.4c0.3,0.1,0.4,0.1,0.2-0.1c0,0,0.6,0.2,0.2,0c0.2,0.1,0.3,0,0.2-0.1c0,0.1,0.4,0.2,0.4,0.1
		c-0.2-0.4,0.6-0.5,0.8-0.5c0.1,0-0.3-0.3-0.1-0.3c0,0,4.3-1.8,3.7-2.2c-0.1,0.1-0.2,0.1-0.3-0.1c0.1,0,0.2-0.1,0.3,0
		c-0.3-0.1-0.6-0.2-0.9-0.4c0.4-0.1-0.2,0.1,0.3,0.1c-0.1,0-0.1,0,0,0c-0.2-0.1-0.2-0.2,0-0.2c0,0-0.5-0.1-0.5-0.2
		c0,0.2,1.2-1.1,1.2-1.1c0,0-0.5-0.2-0.5-0.1c0.1,0,0.9,0,1-0.3c-0.1,0-0.2-0.1-0.4-0.1c0.7-0.2,0.4,0.2,0.4-0.2
		c0.2,0.1,0.3,0.1,0.6,0.1c-0.3,0,0-0.6-0.1-0.7c0.2,0,0.5,0.3,0.6,0.3c0.1-0.1,0-0.2,0-0.3c0.5,0.2,0.7,0.3,1.2,0.4
		c0-0.1-0.2-0.2-0.3-0.3c0.6,0,1.5,0,2.2,0.1c1.8,0.3,1.4,1.1,2.2,2c-0.2-0.1-0.3-0.1-0.5,0c0.2,0,0.3,0.1,0.3,0.3
		c0.1-0.2-1.5,0.2-1.7,0.3c-0.4,0.3-1,1.2-1.4,1.5c-0.2,0.2-1.3,0.6-1.1,0.9c-0.4,0-1.4,0.3-0.9,0.6c-0.1-0.1-0.2-0.1-0.4-0.1
		c0.1,0.1,0.2,0.3,0.4,0.3c-0.2,0.2-0.7,0.2-0.7,0.4c0.1,0-0.9-0.4-0.8-0.3c-0.2,0.2,0.3,0.5,0.3,0.6c-0.2,0.1-1.3,0.6-1.1,1
		c-0.1-0.1,1.2,2.7,1.4,2.7c-0.1,0-0.3-0.1-0.4-0.1c0,0.3,0.5,0.1-0.1,0.2c0.3,0.2,0,0.5,0.4,0.7c-0.1,0-0.7,0-0.2,0.3
		c-0.6-0.1,0.3,0-0.3,0c0.1,0.1,0.7,1.7,0.8,1.4c0.1-0.1,0-0.2-0.1-0.3c0.7,0.1,0-0.1,0.4,0.3c-0.1-0.1,1.4,0.5,1.7,0.2
		c-0.3,0.4-0.1,0.4-0.2,0.5c0.2,0.1,0.9-0.4,1-0.4c-0.1,0.1-1,0.7-1.1,0.3c-0.1,0.2,0,0.3,0.3,0.2c-0.2,0-0.5,0.2-0.4,0.4
		c0,0.1,0.8-0.5,1-0.7c-0.3,0.3,0.5,0.4,0.6,0.5c-0.2,0.1-0.3,0,0,0.1c-0.1,0-0.2,0.1-0.2,0.2c0.2,0,0.2,0,0.1,0.1
		c0,0,0.3-0.2,0.3-0.3c0.1,0.5-0.7,0.2-0.8,0.6c-0.3,0.1,1.5-0.7,1.2-0.7c0,0.5,0,0.1-0.4,0.4c-0.1,0,1.2,0,0.6-0.1
		c0.4-0.2,1.1-0.2,1.3-0.1c0,0,0.6-0.4,0.1,0.1c0.3,0,0.6-0.4,0.3-0.5c0.2,0,2.2-0.2,2.2-0.5c0-0.2-0.3,0.6,0.3,0.2
		c-0.6-0.1,0.8,0.4,0-0.4c0,0,0.6,0.3,0.5,0.2c-0.1-0.1-0.2-0.2-0.3-0.3c0,0.1,5.4-0.2,5.2-0.6c0,0-0.3,0.3-0.3,0.2
		c0-0.1,0.5,0.5,0.3,0.4c-0.1-0.1-0.3-0.2-0.4-0.2c-0.2,1.1,3.6,0.7,3.6,1.5c0-0.1-4,0.3-4.2,0.4c-0.2,0.1,0.3,0.7,0,0.8
		c-0.7,0.2-1.5,0-2.3-0.1c-0.9-0.1-2.1-0.2-2.5-0.4c-0.4-0.2-4.4,1.2-3.7,1.5c-0.1,0-0.2,0.6-0.2,0.7c0.3,0,0.6,0,0.9,0
		c-2.2-0.5,1.5,1.6,1,1.1c-0.1-0.1,0.7,2.2,0.4,2.6c-1.5,2.5-2.6-0.9-3.8-1.1c-2.2-0.3-2.2,2.4-2.6,3.5c-0.1-0.1-0.1-0.2-0.1-0.3
		c-0.1,0,0.6,3.2,0.7,3.1c-1.3,0,0.4-0.6-0.4-1.1c0,0.2-0.1,1.1-0.3,1.2c-0.6,0.4-1.4,0.5-1.9,0.9c-0.4,0.3,1,0.3-0.4,1
		c-0.3,0.1-0.5,0.3-0.9,0.4c-0.5,0-1.9-1-1.7-1.1c0.2-0.1,0.9,0.4,0.9,0.4c0.6-1.5-6.1,0.9-5.6,0.9c0,0-4.8,1.3-4.6,0.4
		c-0.2-0.3-3-1.1-2.9-0.5c-0.1-0.5,1-0.2,1.1-0.4c0.1-0.2-2,0.2-1.6,0.9c-0.1-0.1-1.1-0.4-1.2,0.1c0.1-0.1,0.1-0.1,0.2-0.1
		c-0.1,0.5-1.7,0.4-1.8,0.2c0,0.1,1-0.9,0.7-1c-0.6,0-1.5,0-2,0.2c0-0.3-0.5-0.6-0.6-0.4c0.6-1,0-0.4-0.7-1c0.1-0.1,0.5-0.2,0.5,0
		c0-0.1-0.2-0.8-0.6-0.5c0.2-0.1,0.2-0.1,0-0.2c0.5-0.1,0.6-0.8,0.1-0.9c0.3-0.1,0.4-0.2,0.7-0.3c-0.3-0.1-0.3-0.1-0.6-0.2
		c0.1,0,1.7,0,0.6-0.4c0.2-0.1,1.3-0.8,1.2-1.1c0.2,0.3-0.3,0-0.3,0.2c0-0.1,0.5,0.2,0.3,0.2c0.1,0,0.8-0.6,0.8-0.8
		c-0.2-0.7-1.3-0.1-1.5-0.2c0-0.2,0.2-0.4,0.3-0.4c0.2-0.3-1.2-0.1-1.1,0c0.3-0.1,0.7-0.2,1-0.2c-0.1,0,0.5-2.5,0.6-2.6
		c-0.5-0.2-4.9,2.1-4.8,2.6c0.3-0.2,0,0,0.6,0.3c0.1-0.4,0.3-0.1-0.3-0.3c0.9-0.5,2.1-1.6,3.5-0.8c-1.1-0.4-2.6,0.3-1.6,1.2
		c-0.1-0.1-0.7-0.3-0.6-0.1c0.1-0.1,0.1-0.2,0.2-0.4c-0.2-0.9-1,0.7-0.9,0.6c-0.3,0.1-1.1-0.5-1-0.6c-0.3,0.1-0.3,1.8-0.2,1.8
		c-0.5-0.2,1.2-0.1,0.4,0.4c-0.3,0.1-0.4,0-0.4-0.3c0,0.7-0.2,1,0.3,1.3c-0.2-0.1-0.2-0.2,0-0.3c0.7,0.2,1.1,2,0.1,1.8
		c-0.2-0.1,0-0.4,0.1-0.4c-0.3,0.2-0.4,0.4-0.3,0.8c0.2-1.1,1.2,0.3,1.4,0.6c0.1,0.2-0.8,0.3-0.8,0.4c0.2,0,0.2,0.1,0,0.1
		c0.2,0.2,0.4,0.2,0.7,0c0,0.1-0.2,0.9-0.2,0.8c0.1,0.5,1.6,0.9,2,1.2c-1.3-1.3-2.3-1.1-2.7,0.2c0.1-0.3,0-0.4-0.4-0.4
		c-0.3-0.1-0.1,0.5-0.1,0.5c-0.1,0.1-0.4,0-0.5-0.1c-0.2-0.4-0.3-0.8-1.5-0.5c-1.2,0.3-0.1,0.7,0,0.9c-2.2-1.6-6.3,1.3-7,3.5
		c-0.1,0.8,1.3,0.6,1.6,0.5c-0.2,0.1,0,0.2,0.1,0.2c0,0-1.4,0.1-1.5,0.2c0.2-0.3,0,0.5-0.2,0.2c0.3,0,0.4,0.1,0.5,0.3
		c0.1-0.1-1.9-0.5-1.7-0.1c0.2,0.3,1.2,0.3,1.5,0.3c-0.2,0.2-2.2,0.3-2.7,0.5c-0.6,0.1-2.3,0.5-2.5,0.8c-0.4,0.5,0,1.8-0.2,1.9
		c-0.7,0.9-2.8,0.6-3.4,1.7c0.2,0.3,0.4,0.4,0.8,0.2c-0.6,0.7-2.7,0.5-3.4,0.3c-0.4-0.1-0.1-0.7-0.3-0.8c0,0-1.3-0.1-1.4,0
		c-0.3,0.2,0.7,1.2,0.7,1.3c-0.3-0.1,0.1,0.6,0.1,0.5c-0.6-0.2,0.3,1.1,0.3,1c-1.5-0.3-0.8,0.1-1.3,0.3c0-0.3-1.3-0.7-1.5,0
		c-0.5-0.3-0.8-1-0.8-1c-0.6,0.1-1.9,0.3-2.2,0.5C68.9,91.5,67,92.6,69,92c-0.4,0.4-0.2,0.2,0.2,0.3c-0.2,0.1-0.3,0.1-0.2,0
		c0,0-0.9-0.2-0.7,0.1c0.1,0,0.2,0.1,0.1,0.2c0.2,0,0.4-0.3,0.6,0c0.1,0.2-0.9,0.1-0.9,0.3c1,0.4,0.4,0.1,0.7,0.6
		c-0.2-0.3,2.1,0.2,2.3,0.1c-0.2,0.3,0,0.2-0.2,0.2c0.2,0.2,0.3,0.1,0.4-0.1c0.1-0.1-0.1,0.8,0.1,0.7c-0.3-0.3,0.8-0.5,0.9-0.4
		c0.2,0.2-0.4,0.2-0.4,0.3c0.1,0.1,1,0.1,1.1,0.1c-0.4,0.1-0.2,0.6-0.4,0.5c0.2,0.2,1.4,0.2,1.7,0.2c-0.7,0.2-0.5-0.5-1.1,0.2
		c0.9,0.4,0.6,1.8,2.2,2.2c0,0,0,1.4,0.2,1.6c-0.2-0.2-0.4-0.2-0.5,0c0,0,1.4,1.6,1.5,1.9c-0.2-0.1-0.3,0-0.1,0.3
		c-0.3-0.4-0.4-1.7-1.1-1.8c-0.2,0-0.6,2.2-0.5,2.5c0-0.2,0.1-0.3,0.3-0.3c0.4,0.4-1.5,3.5-1.8,3.7c-0.4,0.2-3.4-0.4-3.5-0.1
		c-0.1-0.5-0.3,0-0.8,0c0,0.3-3.5-0.4-4.1-0.5c-1.9-0.2-3.1,0.4-4.3-0.5c-0.3,0.6-0.4,0.2-0.4,0c-0.4,0.1-0.9,0.6-1.1,0.8
		c0.4,0.1,0.1,0.2,0.4,0.1c-0.2,0.1-3.2,0.4-2.6,1.4c0.3-0.5,0.3,0.4,0.4,0.4c0.1-0.1,0.3-0.2,0.5-0.2c-0.2,0.1-0.4,0.6-0.5,0.6
		c0.1,0,0.1,0.1,0.1,0.2c0,0,0.8-0.6,0.7-0.5c-0.1,0.3-0.5,0.8-0.5,0.6c0,0.2,0.7,0.2,0.6,0.1c-0.2,0.2-0.5,0.3-0.5,0.5
		c-0.1,0,0.8-0.2,0.6-0.3c-0.7,0.3-1,1.7-0.5,1.8c-0.1,0-0.2,2.5-0.2,2.9c-0.7,0.5,0.4-0.8,0.3-0.5c-0.4,1-1,2.4-1.5,3.6
		c-0.3,0.8-1.6,2.8,0.3,1.5c-0.1,0.5-0.2,0.7-0.2,0.9c0-0.1-0.3-0.2-0.3-0.2c0,0,0,0.7,0,0.7c0.1,0.2,1.1-0.4,1.1-0.4
		c-0.1,0.1,0,0.4,0.2,0.4c-1,0.1,0.2-0.1-0.6-0.2c0.8,1.2-0.9,3.1-0.4,4.1c0.5-0.4,4.6-0.3,4.5-0.8c0,0.2,0.1,0.2,0.2,0
		c-0.2,0.5,1.3,0.9,1.1,1.3c0-0.2,0.1-0.3,0.3-0.2c-0.3-0.1-0.7,0.9,0.1,1c-0.1,0.2-0.2,0.2-0.3,0c1.9,1.7,1.3,1.2,3.5,0.1
		c1.5-0.8,2.6-0.5,4.4-0.5c1.7-0.1,1.4-0.8,2.4-1.6c0.4-0.3,2.8-1.1,2.5-1.4c0.1,0.2,0.1,0.3-0.1,0.3c-0.8-0.7,2-2.5,2.1-2.7
		c0.2-0.7-0.9-1.5-0.5-2.8c0.1-0.5,1.7-2.7,2.2-2.7c-0.2,0-0.2,0.1-0.2,0.2c0.2-0.2,0.4-0.3,0.6-0.4c0.1-0.9,1.7-1.3,3.1-2
		c0.6-0.3,1.5-0.5,1.9-1.1c0.5-0.6-0.2-0.9,0.5-1.3c-0.4-0.4-0.6-0.6-0.5-1.5c0,0.1-0.1,0.2-0.2,0.2c-1-1.1,4.2-2,4.6-2
		c0.1,0.1,0.2,0.2,0.4,0.1c0,0-0.5,0.3-0.4,0.4c2.6,1.4,3.2,0.2,5.4-1.1c1.7-1,3.2-2.4,5.1-0.9c0.8,0.7,1,2.2,1.6,3.1
		c0.3,0.5,1.3,0.6,1.2,1.4c0-0.2,4,2.9,4.6,3.2c0,0,1.1,0.1,1,0c0.5,0.2,0.6,0.8,1,1c0.6,0.3,0.5,0.3,0.7,0.8
		c-0.4-1,2.2,1.3,1.4,0.9c0.3,0.2,1.7,0.7,1.8,0.8c0.6,0.6,1.1,2.9,1,3.5c0,0.1-1.1,1.1-1,1.5c0.3,1.6,1.5-0.1,2-0.6
		c0.2-0.2,0.3-1.1,0.5-1.4c0.3-0.4,0.8,0.4,1-0.4c0.3-1.3-1.4-1.4-1.4-2.5c0-1.1,1.5-1.4,1.6-1.5c-0.2,0-0.2,0-0.2,0.2
		c-0.1-0.3,2.3,1.3,1.9,1.3c1.3,0.1,1.1-0.3,0.3-1.4c-1.3-1.7-5.6-1.6-4.6-3.6c0-0.1-2.7-0.7-3.3-1c-1.5-0.9-1.5-2.7-2.6-3.8
		c-1.1-1.2-2.3-0.9-2.8-2.7c-0.2-0.6,0.2-1,0.3-0.8c0.3-0.3-0.7-1.3-0.6-1.3c0.4-0.3,0.6-0.4,0.9-0.6c-0.1,0.1-0.3,0.2-0.4,0.3
		c1.2-0.2,1.9-1.6,2.9-0.5c-1.2-0.2,0.3,2.1,0.3,2.3c0-0.1,0.2-0.4,0.3-0.7c0.2,0.3,0.4-1,1.2-0.5c0.9,0.5,1.4,2.3,2.3,2.9
		c-0.4-0.3-0.9-0.6-1.1-0.3c-0.8,0.8,3,2,3,2c0.2,0,2.4,1.8,2.5,1.7c0,0,0,0,0,0.1c-0.5-0.2-0.8-0.4-1.4-0.4c0.5,0.4,3.9,1.6,4,1.7
		c-0.1-0.1-0.4,0-0.5,0c0-0.1,2,1.6,2,1.5c0.3,0.6,0.3,1.8,0.3,2.5c0-0.4-0.2,1.8,0,1.6c-0.2,0-0.3-0.1-0.4-0.2
		c0.2-0.1,3.1,3.7,3.6,4c0,0-0.3-0.4,0-0.4c0,0,1,0.6,0.8,0.6c0,0-0.9-0.2-0.9-0.2c-0.4,0.4,1.3,1.2,0.8,1.7c0.5,0,0.3,0,0.5-0.4
		c-0.3,0.8,2.5,0.1,2.5,0.1c0,0,1.7,0.7,1.9,0.8c-0.1,0-0.1,0.1,0,0.2c-0.2,0.1-0.5,0.2-0.8,0.2c0.2,0,0.3,0.1,0.2,0.3
		c0.3-0.2-3.9-1.2-3.6-0.7c0,0.1-0.6,1-0.6,1c0,0.2,1.2,1.2,1.3,1.5c0.2,0.3,0.1,1.1,0.5,1.6c0.1,0.1,0.1-0.8,0.5-0.8
		c0.4,0,0.9,1.5,1,1.8c0.9-1.7-0.2-0.4,1.5-0.1c0,0-1.1-3.2-1-3.2c0.1-0.1,1.2,0.6,0.9,0.7c0.3,0.1,0.8-0.5,0.8-0.4
		c-0.1-0.1-0.4-0.4-0.4-0.4c0.1,0.1,0.1,0.1,0.1,0.2c-0.3,0-0.6-0.7-0.8-0.9c-0.1-0.1,1.1-0.4,1.3-0.4c-0.1,0,0.8,1,1,1
		c1,0.2-0.8-2-0.7-1.8c-0.3-0.3-1-0.8-1-0.7c0,0-1.8-0.7-1.8-0.7c0,0,1-0.2,1.2-0.5c-0.1,0-0.5-0.3-0.6-0.5
		c-0.3-1.1,1.6,0.8,0.6,0.4c1.1,0.5-1.2-2.9-1.2-3c0-0.1,0.2-1.6,0.6-1.2c-0.4-0.3,2.1,2.3,1.9,1.9c0-0.2-0.8-0.5-0.9-0.7
		c-0.4-0.7,1.4,0.7,1.5,0.6c0.3,0.2-0.9-1.4-0.7-0.9c-0.3-0.7,1.6,0.4,1.5,0.4c0,0-1.7-1.4-1.5-1.6c0.8-1.2,4-0.5,5.2-0.3
		c-0.7,0.4,1.6,0.9,1.7,0.7c0.2-0.3-1.9,1.6-1.3,1.4c1.4-0.5,3.4-3.7,5-2.8c2.5,0-0.4-1.1-1.3-2.2c0,0-1.4-1.9-1.4-1.5
		c0.2,0.3,1-2.2,1.1-2.3c0.4-0.6,0.8-0.4,1.2-1.3c0.2-0.4,0.2-1.7,0.4-2.3c-0.8,0.4,0,0-0.3-0.1c0,0,0.6-0.1,0.4,0
		c0.4-0.3-0.6-0.1-0.3-0.1c0.1,0,0.1-0.9,0.1-0.9c0.1-0.1,0.3,0,0.4,0c-0.1,0.3,0.2,0.5-0.1,0.7c1.7-0.8,1.5-1.5,1-3
		c0,0.3,0.2,0.4,0.4,0.5c0.3-0.2,0.3-0.4,0.6-0.7c-0.3,0.2,0.2,0.6-0.7,0.8c2,0.4,0.6-1.8,0.6-1.9c-0.2-0.6,1.2,0.8,0.8,0.7
		c-0.1,0,1.9-2.4,1.9-2c0.2,0.1,0.3,0.1,0.4-0.1c-0.1,0.2-0.2,0.3-0.3,0.5c0.4,1.1,1.5-1.8,0.4-1.7c0.3,0,0.5,0.8,0.7,1
		c0.5,0.3,0.3,0.6,1.5,0.7c-0.5,0.6-1.8,0.6-2.4,0.2c0.1,0.1,1.1,0.6,1.2,0.5c-0.2,0-0.4,0.1-0.6,0.2c0.3,0.6,2.7,0.7,3.2,0.2
		c-0.1,0.6,0.6,0.3,0.8,0.2c0.2-0.1,0.1,0.8,0.5,0.6c-0.5,0.2-2.4,0.6-2.6,1.4c0,0,1.6,0.5,1.8,0.7c0.5,0.4,0.4,1,0.7,1.3
		c0.7,0.7,0.6,0.6,2.3-0.2c0.6-0.3,4.7-1.1,4.2-1.7c-0.5-0.7-2,0.3-2.3,0.2c-1.8-0.6-2-2.2-1.1-3.1c0.1,0.9,0.4,0.2-0.3,1.1
		c1-1.3,2.6-1.5,3.6-1.4c-0.3-0.3,3.9-1.4,4.2-1.7c0,0.1-0.8,0.2-0.6,0.4c0.5,0.3,1.8-0.9,1.9,0.1c-0.1,0-2,0.8-2,0.8
		c-0.2,0.4,0.3,0.1,0.4,0.3c0,0-1.8,0.3-1.8,0.1c0,0.5,2.1,1.6,2,1.7c0.4-0.2-1.8,0.6-1,0.6c-0.1,0,0-0.6,0-0.7c0,0.2-0.8,1-0.9,1
		c-0.1,0.2,0,0.4,0.1,0.7c0.2,0,0-0.5,0-0.5c0.1,0.1,0.3,0.8,0.3,0.8c-0.3-0.1-1.6-0.3-0.9,0.1c-0.1,0-1.3-0.1-1.4-0.2
		c0.1,0,0.5,0.1,0.2-0.1c0,0,0.3,0.3,0.4,0.2c-0.1,0.1-0.8,0.3-0.7,0.3c0.2,0.3,3,1.6,2.7,1.2c2.2,0.3,4.8,3.3,6.6,4.4
		c1.7,1,4.2,2.6,2.6,4.6c-1.4,1.7-6.1,1.4-7.9,1.1c-0.9-0.2-2.7-0.5-3.4-0.8c-0.5-0.2-0.9-1.1-0.9-1.1c0.9,0.5-3.2-1-1.7-0.8
		c0,0-3.9,0-4.1,0c-1.5,0.2-2.7,1.2-4.1,1.9c-0.7,0.3-1.1,0.5-2.1,0.4c-0.6,0-2.4-0.4-2.8-0.2c-1.6,1,1.7,1.3,1.7,1.3
		c-0.1-0.2-2.4,0.4-2.5,0.5c-0.2,0.2,0.8,0.3,0.7,0.3c0.1,0.1-2.4,0.4-2.7,0.2c-0.1-0.1,0.3-0.2,0.2-0.3c0,0-0.8-0.2-0.7,0
		c0,0.2,0.3,0.2,0.4,0.3c-0.5,0.6-2.2-0.5-3.2,0.5c-1.7,1.7-0.2,1.6,1.1,1.7c0.5,0-0.7,1-0.5,0.7c0,0.5,0.6,0.8,1,1.1
		c0.2,0.1-0.7,0.7-0.7,0.6c0.1,0.3,0.6,1,1,0.7c-0.2,0.1-1.2,0.4-1,0.4c0,0-0.7-1.4-0.8-0.9c-0.1,0.4,0.5,0.5,0.3,0.8
		c-0.1,0.2-0.3-0.1-0.4,0c-0.2,0.4,3.5,1.2,1.8,1.9c-0.1,0,1.3,1.6,1.4,1.1c0,0.1-0.2,0.3,0,0.4c-0.1,0-1.2-0.1-0.7,0.4
		c0.1,0.1,2.4-0.1,2.4-0.2c-0.1,0.3-1.7,1.1-2.1,0.9c0.1,0.5,1.7-0.5,1.7-0.1c0,0-0.3,0.3-0.3,0.2c0.2,0.4,0.2-0.1,0,0.2
		c0.2-0.4,0.9-0.5,1-0.8c0.3,0.3,0.5,0.5,0.9,0.8c0.1,0.1,0.2-0.4,0.2-0.4c0.5,0.6,0.5,1.1,1.6,1.5c0.2,0.1,1.7-0.4,1.8,0
		c0.6-0.4,0-1.5,0.6-1.8c1.2-0.6,3,1.3,3.7,1.7c0.7,0.3,3.6,0.6,3.8,0.1c0.5-0.2,0.8-1.4,1.8-1.6c0.9-0.2,1.1,1.1,2.1,0.3
		c-0.2,0.2-0.2,0.2,0-0.1c-0.1-0.1-0.2,0-0.3,0.1c0.1,0.2,0.9-1,1.3-0.4c0.4,0.6-0.5,0.7-0.5,1c0,0.5-0.2,1.4-0.2,1.7
		c0.1,1.3,0.5,2.8,0.3,3.8c-0.2,1.3-1,2.9-1.3,3.9c-0.5,1.9-0.7,6-3.8,5.1c0.9,0.3-0.8,0.3-0.8,0.3c0.1,0,0.2,0,0.2-0.1
		c0-0.2-1.4,1.1-0.3-0.1c-0.8,0.5-1.1-0.3-1.7-0.4c0.4,0.4-0.2,0.6-0.2,0.6c0.1-0.1-0.9-0.6-0.9-0.6c0-0.1,0.3-0.7,0.2-0.7
		c-0.2,0-2-0.2-2.1-0.2c1.1,0.2-1,0.6-1,0.5c0,0,1.2-0.7,0.9-0.5c0.5-0.2-1.6,0.3-1.4,0.2c-0.1,0-0.1,0.5-0.4,0.7
		c0.1,0,0.3,0.1,0.2,0c-2.1,2.5-6.6-0.6-9.6-0.9c-2.3-0.2-2.4-0.6-4.6-1.2c-0.4-0.1-1.6-0.4-1.9-0.5c-0.3-0.2-0.4-1-0.6-1.1
		c-1.5-1-3.1-1.1-4.7-0.4c-1,0.4-2.1,0.9-2.4,2c-0.3,0.9,0.4,1.6,0.3,2.3c-0.5,2.9-2.2,2.5-4.1,1.5c-1.2-0.6-1.9-1.1-3.3-1.5
		c-1.4-0.4-2.2,0-3.2-1.2c-0.6-0.7-0.2-1.5-0.8-2.1c-0.4-0.4-2.7-1-3.3-1.1c-1.7-0.4-3-0.4-4.8-0.9c0.5,0.3-0.6-0.2-0.7-0.3
		c0.3,0.3-0.5,0.1-0.6-0.1c0.1,0,0.2,0,0.4,0c-0.3-0.2-0.6-1.1-0.9-0.9c-0.2,0.1,0.1,0.3-0.4,0.4c-0.4,0,0.1-0.6-0.2-0.6
		c-2.6,0.3-0.9-1.5-0.2-2.3c0.8-1,1.3-1.6,1-2.8c-0.2-0.7-1.2-0.5-1.2-1.6c0-0.3,1.9-2.3,1.2-2.6c0.1,0-2.2,1.1-1.9,0.7
		c0,0,0.2-1.2-0.1-0.9c0.1,0,0.2,0,0.3-0.1c0,0-1-0.4-1-0.1c0.3,0,0.3,0.1,0.1,0.2c-0.5,0.1,0.2-0.4,0-0.5c-1.1-0.4-2.6,1.1-3.9,1
		c-0.7,0-0.9-0.4-1.6-0.4c-0.6,0-0.5,0.4-1,0.4c-0.4,0-1-0.6-1.3-0.5c-0.6,0.1-1.2,1-2,1c-1.5,0.1-3.3-0.7-5.2-0.3
		c-2.8,0.6-6.3,1.5-8.6,2.7c-1.1,0.6-2.5,2-3.8,2.1c-0.6,0-2.2-0.8-1.9-0.9c-1.1,0.4-3,1.1-4.3,0.4c-1.2-0.6-0.7-2-2.1-1.4
		c-0.9,0.4-1.3,2.6-1.8,3.5c-1.6,2.6-4.5,2.7-6.3,5.1c-0.8,1.1-1.8,3-1.9,4.5c0,0.6,0.4,1.4,0.3,1.7c-0.3,2.2-2.1,3.7-3.8,5
		c-1.5,1.1-3.9,1.5-4.8,2.7c-0.7,0.8-0.8,2-1.6,2.9c-0.5,0.6-1.2,0.8-1.7,1.5c-0.9,1.3-0.7,2.9-1.5,4.1c-0.1,0.2-2.2,2.4-2.3,2.4
		c0,0,0.6-0.8,0.5-0.7c0.1,0.5-4.5,8.8-3.4,8.8c0.3,0,0.1-1.1,0.3-1.2c0.9-0.1-0.1,1.7,0.9,1.2c0,0.1,0.1,0.2,0.3,0.2
		c0.2,0,0.6,3.1-0.2,3.5c0.1-0.1,0.1-0.2,0.2-0.4c-0.2,0.7,0.1-0.2,0.1,0.1c-0.1,0.3-0.3,0.4-0.6,0.4c-0.1,0.7,1,2.1,1,3
		c0.1,1.9-0.8,3.4-1.3,5.2c-0.2,0.8-2,5.3-2.6,4.5c0.6,0.8,1.2,1.2,1.7,2.5c0-0.3,0.1-0.5,0.3-0.7c-0.3,0.4,0.6-0.2,0.7-0.2
		c-0.2,0.1-1.4,0.8-0.8,1.1c0.2,0.1,0.5-0.6,0.5-0.6c-0.1,0.7-0.4,0.3-0.4,0.8c0.1,0.2,0.2,0.1,0.3-0.1c-0.1-0.1-0.2,0.9,0.2,1.1
		c0.1,0,2.7-0.5,2.7-0.4c-0.1-0.4-2.2,0.7-2.1,0.6c-0.1,0.2-0.8-0.3-0.5,0.2c-0.3,0.1-0.5-0.7-0.6-0.7c-0.5-0.1-0.5,1.8-0.4,2.1
		c0.1-0.1,0.1-0.1,0.2,0c-0.1,0.1-0.3,0.1-0.2,0.4c0.2,0.5,0.5-1.2,0.4-0.3c-0.1,0.8,2.7-0.2,3-0.3c0.2,1.1-2.8,0.4-3.2,0.8
		c-1.2,1.1,1.5,0.6,1.5,0.6c-1.4,0.2,0,1.7,0.9,0.9c0,0.1-1,0.4-0.7,0.7c0.2,0.2,2-1.1,2.4-0.6c-0.2,0.3-0.2,0.4,0.1,0.5
		c0.4-0.5-1.9-0.3-1.5,0.2c0.2-0.3,0.2,0.3,0.2,0.3c0.1-0.4,0.3-0.1,0.4-0.5c-0.1,0.5,0.2-0.1,0.2,0c0,0,0.1,0.4,0.4,0.4
		c0.3-0.5-1.6,0.6-1.2,0.7c0.2-0.1,0.3-0.2,0.4-0.4c-0.2,0.4,0.2,0.1,0.2,0.1c-0.1,0.1-0.5,0.2-0.4,0.4c0.3,0.6,0.5-0.2,0.5,0.5
		c0.2,0.1,0.3,0,0.5-0.1c0,0.1-0.3,1.1,0.1,1.1c0.5-0.7,0.1-0.2,0.7-0.8c0-0.1-0.4,1-0.2,1c0.1-0.1,0.2-0.2,0.2-0.3
		c0,0-0.1,0.4-0.1,0.4c0,0,0.5-0.6,0.5-0.6c0,0-0.4,1-0.4,1c0,0,1.3,1.3,1.3,0.9c-0.1,0.1-0.1,0.2,0,0.3c0,0,0.3-0.4,0.3-0.4
		c-0.2,0.5,0.7,1.1,0.7,0.7c-0.1,0.2-0.1,0.4-0.1,0.6c0.2,0,0.2-0.1,0.2-0.2c0,0.1,0.1,0.2,0.2,0.2c-0.1,0.2-0.2,0.5-0.4,0.7
		c0.2,0,0.4-0.1,0.6-0.2c0,0.1,0.1,0.7,0.2,0.8c0.1,0,0.2-0.1,0.3-0.2c0,0.2,0,0.3,0,0.5c0.1,0,0.2-0.1,0.2-0.2
		c-0.1,0.2,0,0.3,0.2,0.2c-0.7,0.6-0.3,0.4,0.2,0.7c-0.5,0-0.1,1-0.2,1.1c-0.2,0.3,0.2-0.7,0.2-0.4c0.1,0-0.1,0.8,0.4,0
		c-0.1,0.1-0.1,0.2,0,0.3c-0.1,0.1-0.9,0.2-0.4,0.5c-0.1-0.2-0.3-0.3-0.6-0.3c0,0.8,1.5,0.9,0.8,1.5c-0.3,0.2,1.5,0.7,1.2,0.4
		c0,0-0.1,1,0.6,0.6c-0.5,0.3-0.5,0.3-0.7,0.4c0.7-0.4,4.8,3.3,5.1,3.5c0.2,0.8,4.6,4.6,6.4,4.8c1.5,0.2,4.9-3,6.5-2.2
		c-0.2-0.1-1,0.2-0.9,0c0,0.1,2.9,0,3.4-0.2c-0.5-0.2-1.5,0.4-1.9,0.2c-0.1-0.1,0.3-0.4,0.3-0.4c0,0,2,0.1,2.3,0.1
		c-0.1-0.1-0.2-0.2-0.1-0.2c0.5,0.4-0.4,0.3-0.6,0.3c1.1,1,1.5-0.2,2.1-0.3c-0.1,0,0,0.5,0.1,0.6c-0.1,0.1-0.4,0-0.4,0
		c0,0,0.8,0.3,0.8,0.3c1.4,0.9,1.8,0.5,2.9,0.3c1.3-0.2,4.7-1.7,5.8-2.3c-0.3-0.4-0.4-0.9-1.1-0.9c0.4-0.4,1.2,0.9,1.3,0.9
		c0.7-0.1,0.4-0.7,1-0.9c0.3-0.1,1-0.3,1.3-0.4c0.6-0.2,5.1-1.1,5.3-1.1c-0.3,0.2-0.7,0.3-1,0.5c0-0.1,2.1,0.1,2.5,0.3
		c1.2,0.6,0.9,1.1,2,1.1c-0.2,0.3-0.8,0.3-0.4,0.8c0.3,0.1,0.4,0,0.5-0.3c0.1,0.3,0.2,0.3,0.4,0.4c0,0-0.8,0-0.8,0.1
		c-0.1,0.8,1,0.1,1.1,0c0,0.1-0.7,0.7-0.7,0.6c0,0.4,0.2,0.3,0.3,0.6c0-0.1-0.1-0.1-0.2-0.1c-0.4,1.2,1.8,2.4,1.7,2
		c0,0,0,0.5,0.3,0.3c-0.1-0.1-0.1-0.3,0-0.4c0.1,0.1,0.2,0.1,0.1-0.1c0,0.3,0.1,0.3,0.2,0.1c-0.1,0.1-0.1,0.2-0.1,0.4
		c0.2,0.2,1.1-0.1,0.7-0.6c0.1,0.1,0.1,0.3,0.2,0.5c0.1-0.1,0.2-0.3,0.1-0.5c0,0.4,0.1,0.3,0.1-0.2c0.1,0.1-0.2,1,0.3,0.7
		c0.2-0.2-0.4-1.1-0.3-1.3c0,0,0.6,1.5,0.7,1.2c0.1-0.2-0.3-0.6-0.3-0.8c0.4,0.4,0.1,0.1,0.2-0.1c0,0,0.2,0.8,0.2,0.8
		c0-0.2,0.1-0.2,0.2-0.1c0.3-0.2-0.3-0.6-0.2-0.8c0.2,0.2,0.3,0.5,0.5,0.7c-0.1-0.1,0.5-0.5,0.6-0.5c0,0,2,1.4,1.5-0.8
		c0.1,0.1,0.9,1.3,0.8,1.3c0,0,0.4,0,0.4,0c0.1,0-0.1-0.6-0.1-0.6c0,0.3,0.3,0.5,0.5,0.5c0-0.1,0-0.2-0.1-0.3
		c0.7,0.7-0.1,1.6,1.2,1.7c-0.1,0.2,0,0.4,0.3,0.3c0.1,0,0.2-0.5,0.1-0.6c0.3,0.3,0.3,0.2,0.6-0.1c-0.1,0.2-0.2,0.3-0.3,0.5
		c0.1,0.2,0.4-0.1,0.3,0.3c-0.2-0.2-0.3,0.1-0.5,0c0.2,0.8,0.2,0.3,0.7,0.5c-0.8,0.1,0.3,0.9,0.3,1.4c0,0.6-0.3,1.6-0.4,2.1
		c-0.1,0.6-0.3,2.1-0.1,2.1c-0.7,1-1.2,1.4,0.3,1.4c-0.8,0.3-0.7,0.8-0.6,1.7c-0.3-0.1-0.2-0.6-0.2-0.6c-1-0.1,0.2,1.6,1.2,1.3
		c-0.4,0.3-0.6-0.1-0.5,0.5c-0.3-0.3-0.6-0.5-0.8-0.2c-0.1-0.1-0.5-0.5-0.4-0.6c-0.4,1-0.3,2.2-0.8,3.3c0-0.2-0.1-0.4-0.3-0.5
		c0.1,0.1,0,0.2-0.1,0.3c-0.1-0.1-0.3-0.5-0.3-0.6c-0.3,0.7,1.4,2.7,1.5,1.9c0.1,0.1-0.4,0.7,0,0.8c0.1-0.1,0.3-0.2,0.3-0.3
		c0,0.2,0.1,0.3,0.2,0.4c-0.1,0-0.6,0-0.6,0.2c0.1-0.3-0.6-0.8-0.7-1c0.2,0.4,1.2,2.2,1.3,2.1c0.1-0.1-0.7-0.5-0.7-0.5
		c0,0.2,1,1.6,0.9,1.4c0.2,0.2,0.2,0.2,0.2,0c0.3,0.1,1.1,0.5,1.1,0.5c0.1,0.1-1-0.2-1.1-0.3c1.1,2.5,4,4.4,5.2,6.6
		c0.3,0.7,0.5,2,0.8,2.4c0.9,1.3,0.6,0,2,0.3c-0.3,0.5-1.7,0.6-1.8,0.6c0.9,0.2,3,7.2,2.2,7.6c-1.4,2.2,2.9,6.1,1,9.5
		c-0.4,0.7-1.2,1.3-1.7,2.1c-0.9,1.3-1,2.3-1.4,3.8c-0.7,3.1-2.1,5.9-1.5,9.2c0.4,2.3,2.6,4.9,3.6,7.2c0.6,1.3,1.1,2.7,1.8,4
		c0.4,0.8,1,1.4,1.3,2.4c0.1,0.2,0.1,1.4-0.2,0.6c-0.9,1.1,0.7,6.1,0.9,7.6c0.3,1.8,0.4,3,1,4.6c0.6,1.5,1.8,2.3,2.7,3.5
		c0.8,1.1,1.1,2.6,1.5,3.9c0.6,1.6,1.9,3.1,2.3,4.7c0.4,1.5-0.2,1.7-0.3,2.8c0-0.5-1.3,1-0.1,1.2c-0.1-0.1-0.2-0.2-0.3-0.3
		c1.1-0.2,0.6,3.5,1,3.5c-0.2-0.2,0.3-1.2,0.7,0c0.1,0.2,0.8-0.2,0.7-0.1c-0.7,2.5,6.1-0.2,6.9-0.4c2.5-0.7,5.2,0.2,8.1-0.3
		c0,0,0-0.7,0.4-0.8c0.6-0.2,1.2,0.1,1.8-0.1c1.5-0.4,2.9-1.7,4-2.7c2.7-2.3,5.2-5.3,6.8-7.9c1.9-2.9,6.2-6.1,5-10.4
		c-0.2,0.1-0.8,0.7-1-0.2c0.1,0.1,1.6-2,2.1-2.1c0.3-0.2,6.7-1.9,5.4-4c-0.1-0.2-0.5,0.4-0.5,0.4c0.2,0-0.2-1.1,0.2-0.6
		c-0.1-0.1,0.5-4.2,0.5-4.3c-0.1,0.5-0.1,0.5-0.1-0.2c0-0.1-0.3,1-0.3,1c0.2-0.1-0.4-3.2-0.5-3.6c0,0.1,0,0.3-0.1,0.3
		c-0.3-0.2-0.9-4.7-1.1-4.6c0.1-0.2,0.7,0.7,1,0.6c0.8-0.6,1.2-1.5,1.9-2c0.5-0.4,0.7-0.8,1.3-0.5c0-0.2,0-0.3,0-0.5
		c0.7,0.7,1.7-2.3,1.5-2.2c0.2,0,0.3,0.1,0.4,0.3c0.6-0.5,2.6-1.7,2.8-2.3c0.2,0.6,3.1-1.2,3.6-1.6c1.2-1,2-3,2.4-4
		c0.2-0.5,0.2-0.5,0.3-0.8c0.1,0.3,0.8-1.5,0.3-1.3c-0.1,0.1-0.2,0.3-0.3,0.4c0-0.2,0.3-0.7,0.3-0.9c0,0-0.4-3.3-0.6-3.4
		c0.3,0.2,0-3.5,0.1-4c0.1-1.3,0.8-2.4,0.1-3.4c-0.1,0-0.1,0,0,0.1c0-0.3-1-0.4-1.1-0.3c-0.3-0.4-0.2-0.6-0.7-0.5
		c0.8-0.8-0.9-2.8-0.7-3.2c0.1-0.1,0.3,0,0.4,0.1c-1-0.9,0.2-3-0.6-3c1.6-2.8-2.5-5.1-0.1-8.1c0,0.1,0,0.1,0,0.2
		c0.6-0.6,1.3-2.4,1.5-2.8c0.4-1.1,0.4-1.5,1.1-2.6c0,0,0-0.7,0.1-0.9c0.3-0.4,0.8-0.1,1-0.3c0.1-0.1,0.8-1.1,0.6-0.6
		c0,0.1,0-0.9-0.1-0.9c0.1,0.1,0.1,0.2,0.2,0.3c0-0.2,0-0.3,0.1-0.5c-0.3,0.6,2.1-2,2.3-2.3c2-3.2,5.1-6.3,8.3-8.6
		c5.7-4.1,7.8-10.5,10.7-16.4c0.6-1.2,1.7-2.5,2-3.8c0.2-0.7,0-1.7,0.2-2.4c0.2-0.6,1-0.1,1.1-0.3c-0.1-0.2-0.3-0.4-0.5-0.4
		c0.2,0.3,0.1,0.4-0.4,0.4c0.4,0.1,0.1-2.3,0-2.4c-0.2-1.7,0.6-1.9-1.5-1.2c-2.8,0.8-5.6,1.6-8.4,2.3c-1.1,0.3-1.9,0.1-3,0.3
		c-2.1,0.4-2.4,2-4.5,0.1c-0.9-0.8-0.7-1.5-1.6-2c-0.5-0.3-1.2,0.2-1.7-0.1c1.7-0.8,2.8-2.1,1.1-3.6c-0.6-0.5-1.8-1.1-2-2
		c-0.1-0.3-3.1-2.8-3.7-3.3c-0.2-0.1-0.6-0.4-0.7-0.5c-0.1-0.1-0.4,0.2-0.7,0c-0.5-0.3,0-1.1-0.7-1.3c-0.3-0.1-0.1,0.9-0.1,1.1
		c0,0-2-5.2-2.1-5.6c-0.2-0.7-1.6-3.5-1.8-3.2c-0.7-0.2-1.9-1.3-2.3-2.1c-0.3-0.6-0.5-5.8-0.8-5.9c0.4,0.1,0.2,0.5,0.3,0.5
		c-0.5-0.4-0.7-2.4-1.1-3c-0.5-0.8-2.5-1.7-2.6-2.1c-0.5-0.4-1.1-3.9,0-2.8c-0.1-0.5-1.6-1.8-2-2.4c-1-1.6-1.9-3.5-2.7-5.2
		c-0.2-0.4-1-3.2-1.2-3.1c-0.1,0,0.2,0.1,0.2,0.1c-0.6-1.4-4.3-4.7-2.7-6.1c-0.2,0.9,1.3,2.7,1.6,3.3c0.7,1.1,1.2,2.3,2.7,3
		c0.3-0.7,1.5-4.4,1.3-4.9c0,0,0.1,0,0.1,0c0.1,1-1,3.2-0.6,4c-0.2-0.6,1.5,0.3,1.6,0.4c1.5,1.4,2.5,4.1,3.6,5.8
		c0.7,1.1,1.2,3,2.1,4c0.2,0.3,3.4,1.6,2.7,2.1c-0.1,0.1,1,1.7,1,1.9c-0.1,0.1-0.2,0-0.2-0.2c0,0.3,1.4,2.6,0.3,2.8
		c0.7,1,0.7,2.2,1.3,3.2c0.4,0.7,2.8,3,3.2,3.1c0.5,0.5,4.1,7.1,4.2,7.1c0-0.1,0-0.3,0-0.4c0.5-0.4,1.5,4.9,1.3,5.4
		c-0.1-0.1-0.2-0.3-0.2-0.4c0,0-0.2,0.6-0.2,0.4c0-0.3,0.7,1.4,0.7,0.9c-0.2,0.3,0.8,1.4,0.2,1c0.8,0.6,0.4,2.8,0.8,3.5
		c0,0,2.3,2.9,2.4,1.7c0.1-0.4,2.1-0.3,2-0.3c0.3,0,1.1-1.4,1.5-1.6c1.2-0.6,3-0.6,4.3-1.1c0.6-0.2,1.8-0.5,2.3-0.7
		c0.7-0.4,0.9-1,1.4-1.4c1.8-1.2,4.4-1.2,6.2-2.4c1.6-1.1,1-2.3,3.1-3.4c0.9-0.5,2.4-0.8,3.4-1.1c0.7-0.2,1,0.1,1.7-0.5
		c0.3-0.3-0.2-1.1,0.3-1.6c0.8-0.7,1.8-0.1,2.5-0.8c0.4-0.4,0-1.1,0.3-1.4c0.5-0.6,2-0.6,2.2-0.9c0.5-0.7,0.1-1.4,0.2-2.5
		c0-0.3,0.9-2.3,1-2c0.1,0.4,0,0.5-0.1,0.3c-0.3,0.4,1-0.7,1.2-0.9c0.1-0.1,1.5-2.2,1.8-2.9c0.8-2.1,0.2-1.2-0.4-2.1
		c-0.5-0.8-1.3-2.1-2.1-2.6c-2.4-1.5-4.3-0.4-5.6-3.9c-0.3-0.6-0.8-2.5-0.2-3c-0.1-0.2-0.2-0.2-0.3-0.1c-0.1-0.4,0.3-0.1,0.3-0.1
		c0.1-0.4-0.3,0,0.1-0.5c0,0-0.5-0.2-0.4-0.1c0,0.1,0,0.6,0.1,0.4c-0.2,0.5-1.7,1.9-2.3,2.6c-0.2,0.3-1.1,1.4-1.5,1.9
		c-0.1,0.1-1.4,1.3-1.2,0.8c-0.3,1-2,0.3-3.1,0.4c-0.4,0.1-1.1,0.6-1.7,0.5c-0.7-0.1-0.4-0.7-0.7-0.8c0.2,0.1-0.7,0.2-0.4-0.2
		c-0.6,1-0.5-0.7-0.4-0.7c-0.1,0-0.2,0.1-0.3,0.2c0,0-0.2-0.3-0.2-0.3c0.1,0,0.3,0.2,0.3,0.2c0.5-0.4,0.4-3.1,0.3-3.3
		c-1.4-1.9-1.3,0.4-1.4,0.4c-0.1,0.5-0.3-0.1-0.4,0.1c-0.1,0,0.2,1.6,0.3,2.2c-0.1,0-0.1,0-0.1,0.1c0,0-2.1-3-1.4-2.5
		c0-0.7-1-0.9-0.7-1.5c0.2,0.1,0.3,0.2,0.3,0.4c0-0.2-0.2-2-0.5-1.9c0.1,0.1,0.2,0.2,0.4,0.3c0.1-0.6-1.9-0.8-1.5-1.5
		c-0.4,0.4-0.7-0.4-1.1-0.7c0.1,0,0.3,0,0.4,0c-0.3-0.3-1.7-0.6-1.2-1c-0.1,0.1,0.1,0.1,0.1,0.3c0.1-0.1-2.2-5.1-3.1-4.6
		c-0.1,0.1,1.2-0.9,1-0.5c0-0.1-0.5-1-0.6-1.1c0.2,0.1,1.8,0.1,2.2-0.2c0.1-0.1-0.2-1.3,0.1-1.3c0.2,0,0.6,0,0.6,0.3
		c0,0.2-0.7,0-0.7,0.1c0.1,0.4,0.9,0.5,1.2,0.6c1.2,0.4,0.9-0.1,2.1,1c0.6,0.6,1.8,2.2,1.5,2.3c0.5-0.1,1.1,2.3,1.4,2.6
		c0-0.1,5.3,3.3,5.9,3.6c0.8,0.3,2.4,0.5,3.1,0.4c1.4-0.3,1.8-1.8,3.3-1.6c2.2,0.3,1.6,3.4,3.8,4.1c0.5,0.1,6,1.5,6.2,1.1
		c-0.1-0.1-0.1-0.2-0.2-0.3c0,0,2.2,0.9,2.7,0.5c0.4-0.4,0.2-1.5,0.5-2.1c0.3-0.8,0.8-1.2,1.4-1.6
		C222.8,151.7,225.9,150.8,224.8,150.1z M106.3,45.4c0.1,0,0.2,0,0.3,0C106.5,45.4,106.4,45.4,106.3,45.4z M102.3,49.8
		c0.2,0,0.3,0,0.3,0C102.6,49.8,102.4,49.8,102.3,49.8z M90.7,57.9C90.7,57.9,91,58,90.7,57.9z M90.6,58.5c0.1,0.1-0.1-0.5,0.7,0
		C91,58.4,90.8,58.5,90.6,58.5z M91.1,58.2c-0.3,0-0.3-0.1,0.2-0.1C91.7,58.2,91.7,58.2,91.1,58.2z M97.7,53.8
		C97.7,53.8,97.7,53.7,97.7,53.8C97.8,53.7,97.7,53.8,97.7,53.8z M114.8,93C114.5,92.8,114.9,92.9,114.8,93z M87.5,84.3
		C87.6,84.2,87.4,84.4,87.5,84.3z M145,55.6c0.3,0.2,1,1.4,1.5,1.2c0.2-0.1-1.1-0.7-0.1-0.3c-0.2-0.2-0.4-0.5-0.7-0.8
		c-0.8-0.4,0.9,0.7,0.7,0.4c-0.3-0.2-0.6-0.4-0.7-0.7c0.2,0.2,1.3,1.3,1.6,1.4c-0.1-0.2-0.2-0.4-0.3-0.5c1.9,0.2,0.4-1.2-0.4-1
		c0.1,0.1,0.1,0.1-0.1,0.1c0.1,0.2,0.3,0.3,0.4,0.5c-0.3-0.3-0.9-1.2-1.2-1.2c0,0,1.4,0.4,1,0.4c1.5,0.9,1.4,0.8,2.3,2.4
		c0.4,0.7,1.9,2.2,0.2,2.3c-0.3,0-2.1-0.4-2-0.4c-0.7-0.3,0.5-0.4,0.7-0.3c-0.1,0-0.3,0-0.4,0.1c0.1,0.2,1.1,0.4,1.2,0.2
		c0.3-0.7-3.1-1.9-2.9-2c0.2,0.1,0.4,0.2,0.5,0.2C146.4,57.2,144.7,55.4,145,55.6z M117.3,38.7c0,0-0.2,0-0.3,0
		C117.1,38.7,117.2,38.7,117.3,38.7z M103.2,49.3c-0.1,0-0.2,0.1-0.2,0.1C103,49.4,103.1,49.3,103.2,49.3z M102.9,49.7
		c0.3-0.1,0.9-0.3,1.2,0C103.6,49.7,103.4,49.6,102.9,49.7z M137.4,58.8c0.7-0.1,0.1,0.3,0.1-0.1c0,0.1,0.7-0.1,0.7-0.1
		c-0.3-0.2,0.1-0.1-0.1-0.4c-0.6-0.9,2.9,0.2,2.8,0.2c-0.1-0.2,1.8,0.7,2.2,1.2c0.7,0.9,0.1,0.7,0,1c-0.3,0.9,0.4,0.2-0.7,0.8
		c0.5-0.3-2.2,0.5-1.4,0.7C140,61.9,138.6,59.5,137.4,58.8z M121,74.6c1-0.6,0.1-0.5,1.1-0.5c0,0,0,0.7-0.4,0.8
		C121.5,75,120.5,74.9,121,74.6z M119.7,75.6c-0.2-0.2,0.8-0.1,0.9-0.1c-0.3,0.3-0.9,0.4-1.3,0.5C119.4,75.8,119.6,75.7,119.7,75.6z
		 M118.8,76.3c0.2-0.1,0.3-0.1,0.5-0.1c-0.3,0.1-0.5,0.2-0.7,0.4C118.4,76.3,117.9,76.6,118.8,76.3z M108.5,77.6
		c-0.1-0.2,0.4,0.1,0.4,0.1c-0.1,0.3,0,0.4,0,0.7C107.9,77.6,108.5,78.1,108.5,77.6z M107.2,77.1c0,0.1,0.7,0,0.5,0.2
		c-0.1,0.1-0.2,0.1-0.2-0.1c-0.1,0.1-0.1,0.2-0.1,0.3c0.2-0.1,0.7-0.1,0.7,0.3C107.4,78.2,107.2,77.1,107.2,77.1z M96.4,78.8
		c0,0.1,0,0.1,0,0.2C96.4,78.9,96.4,78.8,96.4,78.8z M89.3,81.3c-0.4-0.4,0.4-0.6,0.4-0.7c0,0.2-0.6-0.6-0.5-0.6
		c1.1-0.6,0.3,0.4,1.4,0.2c-0.9,0.1,0.3,0.8,0.3,0.7c-0.2,0,0,0.1,0,0.2c0.3-0.8-1.7,0.3-1.4,0.4c0.5,0.2,0.9,0.1,1.3-0.3
		C90,82.1,89.5,81.5,89.3,81.3z M87.9,105.5C87.4,104.4,88.1,105.8,87.9,105.5z M116.4,107C116.5,106.9,116.6,107.1,116.4,107z
		 M153.2,98.8c0.1,0.4,1.1,1.2,1.5,1.7c-0.5-0.5-1.4-1.1-1.8-1.4c0,0,0.2-0.2,0.2-0.2c-0.2,0-0.4,0.1-0.6,0.3
		c0.2-0.1,0.3-0.3,0.3-0.4c-0.1-0.1-0.4,0.1-0.4,0.2c-0.2-0.5-0.4-0.5-0.5-0.3c0-0.1-0.6-0.3-0.6-0.3c0.1,0,0.1,0.1,0.1,0.2
		c-0.1,0-0.7-0.5-0.7-0.5c0.1-0.3,0.9,0.3,1,0.2c0,0,0.2-0.3,0.1-0.4c0.1,0.1,0.2,0.3,0.3,0.4c0-0.1,0-0.2,0-0.3
		c0,0,0.6,0.2,0.6,0.3c0,0-0.4,0.2-0.3,0.3c0.1,0,0.1,0,0.1,0.1c0,0,0.8-1,0.7-0.3C153,98.5,153,98.1,153.2,98.8z M151.4,140.7
		c-0.1,0-0.1,0-0.1-0.1C151.4,140.6,151.3,140.6,151.4,140.7z M158.6,263.5c-0.5-0.9-0.5-2.6-0.7-3.7c-0.3-1.6-0.1-2.6,0-4.2
		c0.1-1.6-1-3.5-0.5-4.8c0.3-0.3,2.1,5.5,2.1,5.6c0.1,1.6-0.7,3-0.3,4.9c0.1,0.5,1.3,2.6,1,2.9c-0.2,0.1-0.9-1.1-1-1.1
		C159.2,263.2,159.1,264.4,158.6,263.5z M155.6,256.4C155.6,256.4,155.5,256.4,155.6,256.4z M149.3,247.3c-0.1,0-2.9-5-3.1-5.8
		c-0.2-1.2-0.8-4.4-0.1-5.7c0,0.3-0.1,0.6-0.3,0.7c0.1,0,0-2.4,0.2-2.7c0.4-0.6,0.9,3.1,1.1,3.8c0.1,0.6,0.4,0.8,0.5,1.5
		c0,0.4-0.1,2.2-0.2,2.1c0.3,1.1,1.4,2.1,1.9,3.1c0.1,0.4,1.6,4.3,1.5,4.3c-0.4,0.1-1.3-1.1-1.5-0.5
		C149.3,247.8,148.8,248,149.3,247.3z M152.3,227.5C152.5,227.5,152.2,227.5,152.3,227.5z M157.7,227.7c0.1-0.2-0.4,0.8-0.1,0.7
		c-0.1-0.1-0.2-0.1-0.4-0.1c-0.3,0.2,0.3,0.4,0.3,0.5c-0.1,0-0.6-0.2-0.7-0.1c-0.3,0.1,0.2,0.4-0.3,0.6c0.1,0.1,0.1,0.2,0.2,0.3
		c-0.1,0-1,0.3-0.8,0.5c-0.3-0.1,1,0,0.6,0.2c-0.2,0.1-0.7-0.2-0.8,0.2c-0.1,0.2,1.5,0.1,1.5,0.1c0,0.1-1,1.1-1,1.1
		c-0.8,0.5-1.6-1-1,0.9c-0.2-0.4-0.7,0.2-0.7,0.3c-0.1-0.7,0.6-1.7-0.5-1.2c0.2-0.1-0.7-0.7-0.7-0.8c0,0.3-0.2,0.3-0.2,0.8
		c-0.1-0.6-0.9,0.7-0.4,0.6c-0.1-0.1-0.2-0.2-0.2-0.3c0,0-0.2,0.5-0.2,0.4c0.1-0.1-0.4-1.3-0.4-1.7c0-0.9,0.3-2.1,0.5-3.2
		c0-0.1-0.3-0.1-0.3-0.1c0.1-0.7,0.3-1,0.6-1.8c0.1-0.2,0.4-1.5,0.8-0.8c-0.1-0.2,0-0.3,0.2-0.4c0,0,0.1,0.4,0.3,0.2
		c0-0.1-0.1-0.6,0.2-0.7c-0.1,0,0.3,0.5,0.1,0.5c0.7-0.2,1.1-0.2,1.2-0.9c0,0,0.5-0.1,0.5-0.1c0,0.1-0.1,0.2-0.1,0.3
		c0,0,0.4,0.1,0.4,0.2c-0.1,0.1-0.2,0.1-0.2,0c0,0.1,0.1,0.2,0.2,0.3c0,0.1,0.4-0.5,0.6-0.3c-0.3,0.1,0.1,0.4,0.2,0.4
		c0,0,0.2-0.2,0.3-0.3c0,0.1,0.5,1.8,0.8,1.8c-0.7,0.1,2.2-1.4,1.3-0.3c-0.3,0.3-1.1-0.1-1,0.6C158.6,225.2,157.7,227.6,157.7,227.7
		z M68.4,210.5C68.3,210.7,68.4,210.4,68.4,210.5z M70,127.8C70.4,128.7,70,127.8,70,127.8z M43.7,200.3c0.1,0,0.1,0,0.2,0
		C43.8,200.3,43.8,200.3,43.7,200.3z M104.5,238.5C104.7,238.3,104.5,238.5,104.5,238.5z M152,141.7c0,0-1-0.6-0.6-0.6
		C151.5,141.1,152.1,141.6,152,141.7z M158,137.2C158,137.2,158,137.3,158,137.2z M187.9,142C187.8,141.8,187.9,142.1,187.9,142z
		 M208.6,155.3C208.6,154.8,208.9,155.4,208.6,155.3L208.6,155.3z"/>
	<path class="st0" d="M206.4,151.3c-0.1,0.1-0.7,0-0.3,0.4c0.1,0,2.6-0.9,2.2-1.2C207.7,150.1,206.6,151.2,206.4,151.3z"/>
	<path class="st0" d="M135.2,114.3c-0.1-0.2-0.6-0.2-0.7,0.1C134.5,114.5,135.3,114.7,135.2,114.3z"/>
	<path class="st0" d="M205.8,189.8c-0.4,0-1.9-0.1-1.9,0.4c-0.1,0.8,2.8,0.7,2.9-0.1C206.5,190,206.1,189.9,205.8,189.8z"/>
	<path class="st0" d="M201.5,191.1c-0.2-0.1-0.4-0.1-0.6-0.1C200.8,191.4,202,191.2,201.5,191.1z"/>
	<path class="st0" d="M209.6,176.6C210.5,176.4,208.9,176.5,209.6,176.6z"/>
	<path class="st0" d="M215.9,167.8c-0.2,0.1-0.6,1.2-0.5,1.4C215.6,169.1,216,167.7,215.9,167.8z"/>
	<path class="st0" d="M204.7,157.4C204.6,157.2,204.5,157.3,204.7,157.4z"/>
	<path class="st0" d="M204.5,157.3c0,0,0.1-0.2,0-0.2C204.5,157.1,204.4,157.3,204.5,157.3z"/>
	<path class="st0" d="M201.8,158C202,157.7,201.5,157.8,201.8,158z"/>
	<path class="st0" d="M202.8,158.1c-0.5,0.2,0.5,0.3,0.6,0.2C203.7,157.9,202.7,158.2,202.8,158.1z"/>
	<path class="st0" d="M194.8,153.3c0.1,0.1,0.2,0.3,0.3,0.4c0.1-0.2,0.1-1,0-1.2C194.7,152.3,194.8,153.3,194.8,153.3z"/>
	<path class="st0" d="M188.3,142.9c0.1,0.2,0.2,0.4,0.3,0.5c0.6,0,0.1-1.2-0.3-1.1C188.4,142.2,188.2,142.8,188.3,142.9z"/>
	<path class="st0" d="M121.9,115.7C121.9,115.7,121.9,115.7,121.9,115.7L121.9,115.7z"/>
</g>
</svg>
