<?xml version="1.0" encoding="utf-8"?>
<!-- Generator: Adobe Illustrator 22.1.0, SVG Export Plug-In . SVG Version: 6.00 Build 0)  -->
<svg version="1.1" id="Layer_1" xmlns="http://www.w3.org/2000/svg" xmlns:xlink="http://www.w3.org/1999/xlink" x="0px" y="0px"
	 viewBox="0 0 152 147" style="enable-background:new 0 0 152 147;" xml:space="preserve">
<style type="text/css">
	.st0{fill:#888888;}
</style>
<g>
	<path class="st0" d="M12.1,111.3c-0.2-0.2-0.4-0.3-0.7-0.2C11,111.3,13.1,111.9,12.1,111.3z"/>
	<path class="st0" d="M14.4,110.4c-0.7,0,0,0.8,0.4,0.4C14.9,110.4,14.7,110.3,14.4,110.4z"/>
	<path class="st0" d="M18.4,115.3c-0.1,0.2,0.3,0.2,0.4,0.2C18.8,115.3,18.5,115.1,18.4,115.3z"/>
	<path class="st0" d="M5.7,108.4c-0.1,0.1-0.2,0.5,0,0.4C6.1,108.9,5.9,108.3,5.7,108.4z"/>
	<path class="st0" d="M18.6,112.9c-0.1,0-1.4-0.1-1.4,0C16.7,113.8,19.5,113,18.6,112.9z"/>
	<path class="st0" d="M36,127.3c0.3,0,0.5-0.1,0.6-0.3c-0.1,0-1.2-0.4-1.2-0.2C35.2,127.1,35.8,127.1,36,127.3z"/>
	<path class="st0" d="M37.6,126C36.9,126.3,37.7,125.9,37.6,126z"/>
	<path class="st0" d="M32.8,137.8c-0.1,0.1,0.1,0.9,0.2,1C33.2,138.9,33.6,137.1,32.8,137.8z"/>
	<path class="st0" d="M42,138.1c-0.4,0.9-0.6,1.2-1.3,1.7c0.2-0.1,1.1,0,1.3-0.6C42.2,138.9,42.3,137.5,42,138.1z"/>
	<path class="st0" d="M34.4,139.5c-0.3,0.1-0.3,0.3,0,0.5C34.6,139.9,35.1,139.5,34.4,139.5z"/>
	<path class="st0" d="M36.7,138.5c-0.6,0.1-2.3,0.9-1,1.6C36.1,139.9,37.5,138.4,36.7,138.5z"/>
	<path class="st0" d="M32.5,140.6c-0.2,0.2-0.7,0.3,0,0.4C32.7,140.8,32.9,140.2,32.5,140.6z"/>
	<path class="st0" d="M43.3,136.6c-0.2,0.3-0.7,0.7-0.9,0.9C42.6,137.4,43.2,136.9,43.3,136.6z"/>
	<path class="st0" d="M38.6,139.5c-0.7,0.2-0.5,0.2-0.9,0.8C36.9,141.4,39.6,139.3,38.6,139.5z"/>
	<path class="st0" d="M78.6,109.8c-0.6,0.1,0.7,0.8,0.7-0.2C79.3,109.2,78.5,109.5,78.6,109.8z"/>
	<path class="st0" d="M85.4,107.2c-0.1-0.2-1-0.6-1.1-0.2c0,0.3,1,0.6,1.1,0.6C85.5,107.6,85.4,107.3,85.4,107.2z"/>
	<path class="st0" d="M83.4,107.7c-0.2,0.1-0.4,0.1-0.5,0c-0.2-0.2,0.1-0.4,0.2-0.5c-0.4,0-2,1.1-1.9,1.2c0.3,0.1,0.9,0.4,1,0.4
		C82.2,108.8,84.4,108.3,83.4,107.7z"/>
	<path class="st0" d="M71.9,88c-0.2,0,0.2,0.3,0.2,0.3C72.1,88.3,72,88,71.9,88z"/>
	<path class="st0" d="M71.8,88.9C71.7,88.8,71.3,88.9,71.8,88.9L71.8,88.9z"/>
	<path class="st0" d="M66.2,84.2C66.1,84.1,65.9,84.4,66.2,84.2z"/>
	<path class="st0" d="M95,101c0.7,0.4-0.2,0.7,0.5,0.8c0.2,0-0.1,0.5-0.2,0.5c0.1,0.1,1.3,1,1.3,0.9c0.3-0.2,1-2.7,0.5-3.3
		c0.3,0.4,0-1-0.2-1C96.6,99.4,95,101,95,101z"/>
	<path class="st0" d="M73.3,90.2c0,0.1,0.5,0.2,0.6,0.2C73.9,90.4,73.3,90,73.3,90.2z"/>
	<path class="st0" d="M69.8,87.1C69.8,87.1,70.5,87,69.8,87.1z"/>
	<path class="st0" d="M73.7,91c0.2,0.4,0.3,0.5,0.3,0.1C73.8,90.7,73.3,90.7,73.7,91z"/>
	<path class="st0" d="M54.3,42.2C54.2,42.1,54,42,53.8,42c1.3,0.1-0.1-0.2-0.3-0.2c0.4,0.1,0.5,0,0.4-0.1c0,0,1.3,0.4,1-0.2
		c0,0.1-0.4,0-0.4,0c0.1-0.1,0.7-0.7-0.4-0.3c0-0.1,1-0.3,0.8-0.6c-0.3-0.6-1.3-0.3-1.7,0c0.1-0.2,0.3-0.4,0.6-0.4
		c0.1,0.1-0.2-0.3-0.1-0.3c-0.3-0.1-0.8,0-1,0.1c0.3-0.1,0.5-0.3,0.6-0.6c-0.2-0.2-0.5-0.2-0.8-0.1c0-0.1,0-0.1-0.1-0.1
		c-0.1,0,1.5-0.8,1.2-0.6c-0.3,0-1.5,0.6-1.6,0.5c-0.2-0.1-0.9-0.5-0.5-0.5c-0.3,0-0.9-0.4-1.4-0.3c0,0,0.1,0.9,0,0.8
		c-0.2-0.1-0.5,0-0.1-0.1c-0.4,0-0.4,0.1-0.2,0.2c-0.7-0.2-1.6,0.1-1.8,0.4c0.1-0.2-1.2-1.1-1.3-0.5c0,0.2,0.5,1,0.3,1.2
		c0.2-0.1-1.2-1.3-1.2-1.3c-0.5-0.1-1.4,1.1-1.4,1.1c-0.1,0.1-0.4-0.3-0.4-0.3c0.1,0-1-0.2-1.1-0.2c0,0-0.2,1.2-0.5,1.1
		c-0.2,0-0.2-0.5-0.2-0.5c-0.2,0-1,0.7-0.7,0.8c-0.5-0.2-0.1,0-0.3,0.4c0.3-0.2-0.3-0.7-0.6-0.7c0.2,0,0.3-0.2,0.4-0.3
		c0,0-0.4-0.4-0.7-0.4c0.2-0.1,0.4,0.2,0.8,0.1c-0.6-0.2,0.4-0.3,0.2-0.5c-0.5-0.2,0.4,0-0.5,0c0.2,0,0.4-0.1,0.5-0.1
		c0.1-0.1-0.7-0.1-0.6,0c0.3-0.1-2.5-2-2.5-0.8c0,0.2,0.9,0,1,0c-0.4,0.1,0.2,0.3,0.2,0.1c0,0.1-0.3,0.1,0.2,0.1
		c-0.3,0-0.7,0.1-1.1,0.1c-0.3,0.1,0.9,0.4,0.9,0.4c-0.3,0.1,0.1,0.5-0.3,0.6c0.3-0.5-0.2-0.1-0.3,0c0.2-0.1,0.2-0.3,0.1-0.5
		c-0.2-0.1-0.4,0-0.4,0.3c0.1-0.3,0.1-0.3-0.2-0.1c0.5-0.3-0.1-0.1-0.2-0.1c0.4-0.5-0.8-0.6-0.9-0.4c0.1,0.1,0.2,0.1,0.3,0.1
		c-0.8-0.4,0,0.3,0,0.3c-0.2-0.2-0.5-0.2-0.8-0.1c0.2,0.3,0.6,0.5,1,0.5c-0.2,0-1.1-0.3-1.2-0.1c-0.1,0.4,1.1,0.2,1.2,0.2
		c-0.1,0-0.7,0.1-0.7,0.2c0.1,0.1,0.3,0.1,0.4,0.1c-0.5,0.1-2-0.7-1,0.2c-1-0.2-0.2,0.2-0.1,0.2c-0.5,0.2-0.8-0.4-1.4,0.1
		c0.8,0.4,3.1-0.1,3.1-0.1c0.4,0.2,0.2-0.3,0.4-0.2c-0.4,0.4,0.5,0,0.3,0c0,0.1,0.1,0.2,0,0.3c0,0,0.7-0.2,0.8-0.2
		c-0.2,0.1-0.3,0.2-0.6,0.3c0.1-0.1,1,0.1,1.2,0.1c-0.6,0.1-1.2,0.4-1.7,0.6c0.2,0,0.2,0,0,0c0.4,0.4,1.1-0.1,1.5-0.1
		c-0.2,0-2.7,0.6-2.7,0.7c-0.1-0.1,0-0.2,0.1-0.2c-0.1,0-1.9,0.4-1.9,0.3c0,0.4,2.7,0.2,3,0.1c-0.2,0.2,0.1,0.3,0.4,0.2
		c-0.8,0.7,0,0.3-0.3,0.6c0.4,0.1,0.7-0.4,1.2-0.4c-0.1,0.1,0.3,0,0.3,0c-0.4,0.1-0.3,0.2,0,0.2C39,43,39,43.3,38.6,43.5
		c0.4,0.1,1-0.2,1.4-0.2c-0.7,0.1-0.5,0.1-1.1,0.4c0.2,0,0.4,0.1,0.4,0.1c-0.2,0.2-0.5,0-0.6,0.1c0.7,0.1-1.4,0.3-1.3,0.2
		c-0.3,0.1,0.3,0.3-0.2,0.6c0.4,0.5,2.9-0.3,3.2-0.3c-0.8,0.4,0.6,0.3,0.6,0.2c0,0,0.2,0.2-0.1,0.2c0.8,0.6,2.9,1,4.7,0.8
		c-0.1,0-0.2-0.1-0.2-0.2c0.4-0.1,0.5,0,0.2,0.1c0-0.1,0.8-0.4,0.9-0.5c-0.8,0.3,0.6-0.6,0.2-0.1c0.5-0.1,1.1-0.1,1.5-0.5
		c0,0.1,0,0.2-0.1,0.3c0.6,0.1,2.9-1.5,3.1-1.5c0,0,1,0.6,1,0.3c0-0.3,0.8-0.3,1.1-0.8c-0.2,0.2-0.3,0.2-0.4,0c0,0,0.5-0.3,0.6-0.2
		c0,0-0.3-0.3-0.4-0.3C53.3,42.2,54.2,42.6,54.3,42.2z M54.4,41.4c-0.1,0-0.3,0-0.4,0C54.1,41.4,54.2,41.4,54.4,41.4z M41.2,44.8
		C41.4,44.8,41.7,44.7,41.2,44.8z"/>
	<path class="st0" d="M52.6,43.3C52.5,43.2,51.9,43.5,52.6,43.3z"/>
	<path class="st0" d="M56,74.5c0.1-0.1,1.1-0.1,1.3-0.1c-0.2,0.3-1.2,0.3-1.4,0.7c0.1,0.1,0.1,0.1,0.1,0.2c0.3,0.2,1-0.1,1.6-0.2
		c-0.3,0.2-1.2,0.4-1.3,0.8c-0.5,0.2,1.4-0.5,1.5-0.4c-0.3,0.2-0.6,0.4-0.9,0.5c0.2-0.1,0.4-0.1,0.6-0.2c-0.2,0.1-0.4,0.2-0.6,0.4
		c0.1-0.1,1-0.1,1-0.2c-0.1,0.1,0,0.1-0.1,0.2c0.9-0.1,2.4-1.1,2.1-1.1c1-0.3,0.4,0,0.4,0.2c0.3-0.7,2.4-0.7,2.8-1
		c-0.1,0,0,0,0.4-0.2c-0.1,0.3,0.7,0.2,0.8,0.2c0.4-0.2-0.3-0.4-0.2-0.5c0,0,1.3-2.8,1.1-2.6c0.1-0.1-0.6-1.5-0.4-1.6
		c0,0,0.6,0,0.5-0.1c-0.1,0-0.1-0.1-0.2-0.1c0-0.1,1.4-0.2,1.5-0.7c-0.1-0.1-0.2-0.1-0.3,0c0.3-0.3,0-0.4,0.1-0.6
		c0.1-0.2,0.3,0.6,0.3,0.6c0.5,0-0.3-1.8-0.8-0.8c0.1-0.2,0.6-0.2,0.4-0.5c-0.2,0-0.2,0,0,0.1c-1.2-1.7-1.4-0.1-2.9-0.7
		c0-0.1,0.6-0.4,0.6-0.5c-0.3-0.2-0.6-0.3-0.9-0.4c0.1,0-0.2,1-0.7,1.1c0,0,0.6-1.1-0.1-0.8c-0.3,0.1,0.4,0.1,0.1,0.4
		c-0.1,0.3-0.2-0.5-0.2-0.4c-0.1,0.1-0.2,0.2-0.2,0.3c-0.2,0.2-1.1-0.2-0.9,0.7c0.1,0-0.4,0.1-0.5,0.1c0.8,0.4-0.3,0.1,0.2,0.2
		c-0.3-0.1-0.5,0-0.7,0.2c0.4,0.5,0.8-0.2,0.6,0.3c0.2-0.1,0.5-0.1,0.7-0.2c0,0.2-0.9,0.8-1.1,0.8c0.2,0,0.2,0,0.3,0.2
		c-0.3,0-0.3,0-0.1,0.2c-0.4,0.1-1.1-0.6-1.3,0.2c0-0.4-1.1-0.7-1.3-0.5c0.2-0.1-0.2,0.6-0.3,0.3c-0.2-0.5-0.2,0.3-0.2,0.3
		c0,0,0.1-0.3,0.2-0.3c-0.1,0,0.3,0.3,0.3,0.3c-0.1,0.1,0.1,0.7-0.2,0.6c0.2-0.1,0.5-0.1,0.7,0c-0.2,0.1-0.2,0.2,0,0.2
		c-0.2,0-0.5,0.1-0.7,0.1c-0.1,0.3,0,0.4,0.4,0.4c-0.4,0.2-0.7-0.1-1,0.2c0.1,0.1,0.2,0.2,0.4,0.2c-0.1,0-0.3,0-0.4,0.2
		c0.4,0.1,0.3,0,0.7,0c-0.1,0.1,0,0.1,0.1,0c-0.1,0.1-0.1,0.2-0.2,0.3c0.2,0.2,0.6-0.2,0.7-0.2c0,0-0.2,0.3-0.2,0.3
		c0.1,0.1,1.3,0,1.4,0c-0.1,0-0.3,0.4,0.1,0.1c-0.3,0.5-1.5,0.8-2.3,1.7c0.7,0.3,1.5-0.3,2.1-0.6c-0.1,0.3,0,0.4,0.4,0.3
		c-0.8,0.5-1.9,0.2-2.5,0.7c-0.1,0.1,0.3,0.4,0.3,0.4C56.4,74.2,56.2,74.2,56,74.5z"/>
	<path class="st0" d="M57.2,69.7c0,0.2,0.5,0-0.2-0.2C56.4,69.7,57.1,69.6,57.2,69.7z"/>
	<path class="st0" d="M51.3,60.3C51.3,60.3,51.3,60.3,51.3,60.3C51.1,60.2,51.2,60.4,51.3,60.3z"/>
	<path class="st0" d="M76.8,53c0-0.1,0.3-0.5,0.2-0.6C76.8,52.2,76.5,53,76.8,53z"/>
	<path class="st0" d="M72.2,56.8c-0.2,0,1.1,0.2,1.1,0c0-0.1-0.9-0.2-0.8-0.1C73.6,56.2,71.5,56.9,72.2,56.8z"/>
	<path class="st0" d="M65.8,61.8C65.6,62,65.6,61.7,65.8,61.8z"/>
	<path class="st0" d="M76,53.6c0.1,0.1,0.3,0.1,0.4,0c0,0-0.3,0.9,0,1c0.1-0.6,0.5-1.2,0.5-1.3c-0.2,0-0.2,0,0-0.2
		c-0.3,0.1-0.2,0.1-0.4,0.1c0.1,0,0.2-0.1,0.1-0.2c-0.3-0.1,0.1,0.3-0.3,0.2c0,0,0.2-0.6,0.2-0.6c-0.1,0-0.5,0.3-0.2,0.3
		c0.1-0.1-0.4-0.1-0.4,0.1c0-0.1,0.6,0.3,0.6,0.3C75.8,53,75.8,54,76,53.6z"/>
	<path class="st0" d="M74.8,78.1c-0.3,0-0.5,0-0.8,0.2C73.9,78.4,75.5,78.2,74.8,78.1z"/>
	<path class="st0" d="M67.3,59.6c0.3,0.3-0.4,0-0.3,0c-0.3,0.4,0.3,0.6,0.5,0.8c0,0-0.7,0-0.7,0.1c-0.2,0.6,0.7,0.2,0.8,0.3
		c0.2,0-0.7,0.4-0.5,0.2c0.1,0,0.6,0.3,0.6,0.3c0.1-0.1-0.6,0.2-0.5,0.1c0.1,0.1,0.3,0.2,0.5,0.2c0.2,0-0.9-0.1-0.8,0.1
		c0,0.1,0.5,0.1,0.5,0.1c0.1-0.1-0.9,0.3-0.8,0.3c0.4,0.2,0.1,0,0.5,0.1c-0.2,0.2-0.9,0.5-1.1,0.5c0.3,0.1,0.5,0.1,0.8,0
		c0,0.2-0.2,0.2-0.4,0.1c0,0.9,1.7-0.5,1.8-0.5c0,0-0.4,0.3-0.1,0.3c-0.2,0.1-0.4,0.2-0.6,0.4c0.1,0,0.2,0,0.3,0
		c-0.2,0-0.3,0.1-0.4,0.2c0.3,0.1,0.4,0,0.8-0.2c-0.6,0.9-0.9,0.2-1.2,1.1c0.5-0.3-0.2,0.5-0.2,0.5c0.1-0.1,0.2-0.2,0.3-0.2
		c-0.3,0.4-0.4,0.4,0,0.3c-0.4,0.4-0.1,0.4,0.2,0.2c0.1-0.1-1.2,1.3-0.7,1.4c0.6,0.1,0.9-2.1,1.9-2.5c0,0-1.4,1.4-0.7,1.1
		c0.1,0,0.4-0.4,0.3-0.4c0.9,0.1-0.2,0,0.5-0.5c0.1,0.2,0.2,0.2,0.3-0.1c0.1-0.2-0.4,0.8-0.1,0.6c0-0.1,0-0.2,0-0.3
		c-0.2,0,1.2,0.7,0.7,0.4c-0.5,0.1-1.3,1.6-1.3,2.5c0,0.1-0.2-0.3-0.3-0.2c-0.4,0.3,0.5,0.9,0.5,1c0-0.1-0.1-0.3-0.1-0.4
		c0.1-0.4,1.1,0.3,1.1,0.3c0.2,0,0.1-0.6,0.1-0.6c0.9,1,1.7-0.9,2.8-0.2c-0.2,0-0.2,0,0,0.1c-1.4,0.3-0.9,2.1-0.5,1.8
		c-0.1,0.2-0.1,0.3,0,0.5c0,0,0.8-0.4,0.8-0.4c0.3,0.5-1.2,1-0.3,1.3c-0.6,0.5-0.4,1,0.3,1c-0.7,0.3-0.8-0.6-0.8,0.3
		c-0.6-0.6-3.4,0.1-3.5,1.1c0,0.1,1.6-0.3,1.4-0.3c-0.2,0.2-0.1,1,0.2,1c-0.2,0.2-2.9,1.6-3,1.8c0.6-0.2,0.4,0.4,0.1,0.3
		c0.4,0.2,0.6-0.1,0.9-0.2c0.2-0.1-0.7,0.4-0.6,0.3c-0.2,0.3,1.6-0.2,1.6-0.2c0.1,0,0.1,0.6,0.6,0.3c-0.1,0.1-0.3,0.2-0.5,0.2
		c-0.1,0.9,4.1-0.4,4-0.5c0.5,1.2-4.4,1.9-4.5,2c0,0-2.7,2.8-2.8,2.5c-0.1-0.4,1.1,0.3,1,0.3c0.2,0.1,1.4-1.9,2.2-0.9
		c0,0,0.1-0.4-0.1-0.2c0.1-0.1,0.2-0.1,0.2-0.2C68,79.8,69.9,79,69.8,79c-0.7,0.2,2.9-1.8,2.2-0.3c-0.1,0,1.1-0.3,1.1-0.2
		c0-0.2-0.1-0.2-0.3-0.2c0,0,2.4-0.2,1.3-0.6c1.7,0.1,4.4,1,6.1-1.2c0,0-1.9,0.1-1.8-0.1c0.1-0.5,0.7,0.3-0.4-0.1
		c0.5-0.1,1.7-0.4,0.7-0.7c0.1-0.1,1.2-0.4,1.2-0.4c-0.4-0.2,0.3,0.3-0.4-0.2c0.7-0.1,0.4,0,0.2-0.2c1.4,0.1,1.6-1.8,0.2-2.4
		c-0.8-0.3-1.8,0.2-2.4,0.2c0.9-2,0-1.2-1.4-2.1c0.4-0.3,1.7,0.3,1.7,0.3c-0.3,0.1-0.4-1.6-0.3-1.4c-0.3-0.6-1.6-0.9-2-1.3
		c-0.4-0.5-0.4-1.5-0.8-2.1c-1.3-2.1-2.6-0.8-4.4-1.8c0.3-0.1,2.5,0.4,2.5-0.4c0-0.7-1.3-0.1-1.4-0.2c1.3,0.1,3.9-2.5,2.9-3.4
		c-0.8-0.8-3.7,0.5-4.5,0.4c0.1,0,0.5-0.4,0.5-0.3c-0.3-0.1-0.6,0.2-0.8,0.3c-0.1-0.3,1.4-0.3,1.3-0.7c0,0.2-1.1,0-1.2-0.1
		c0.8,0.2,2.4-0.8,2.9-1.8c0-0.1-2.6,0.3-2.9,0.4c0.4-0.6-0.6,0-0.5,0c0.5-0.7-1-0.2-0.8,0.3c0.1,0.2,0.2,0.2,0.4,0.2
		c-0.1,0-0.1,0,0,0.1c-0.3-0.1-0.5,0-0.8-0.1c0.4,0-0.2,0.7-0.3,0.5c0.1,0.1,0.7,0.4,0.7,0.6c-1.6-2-0.1,0.4-0.3,0
		C68.1,59.6,67,59.4,67.3,59.6z M66.7,62.6c0.1,0,0.3-0.1,0.4,0C67,62.6,66.8,62.6,66.7,62.6z"/>
	<path class="st0" d="M63.8,80.5C63.8,80.5,63.8,80.4,63.8,80.5C63.8,80.4,63.8,80.4,63.8,80.5z"/>
	<path class="st0" d="M67.8,65.6c-0.1-0.2-0.1-0.5-0.4-0.4C66.5,65.4,68,66.2,67.8,65.6z"/>
	<path class="st0" d="M64,61c0-0.1-0.1-0.2-0.3-0.2c-0.3-0.1-0.1,0.7,0.2,0.8C63.7,61.8,63.9,60.8,64,61z M63.7,60.8
		c0.1,0,0.1,0.1,0.2,0.1C63.8,60.9,63.7,60.9,63.7,60.8z"/>
	<path class="st0" d="M65.2,60.9c0.4,0.1,0-0.2,0.6,0.1c-0.1-0.1-0.2-0.1-0.3,0c-0.2,0.4,1.2,0.3,1.2,0.3c-0.2,0-0.4,0.2-0.4,0.4
		c0,0,0.9-0.5,0.8-0.6c0.1,0.2-2-0.7-1.3-1.1c-0.2,0.1,0.1,0.4,0,0.5c0,0-0.6-0.3-0.6-0.3c-0.1,0.1,0,0.2,0,0.4
		C64.8,60.5,65,60.9,65.2,60.9z"/>
	<path class="st0" d="M66.6,63.1c-0.3-0.1-0.7-0.5-1-0.2c-0.1,0.1,0.4,0.3,0.5,0.3c-0.1,0-0.6,0.3,0,0.3c-0.1,0.1-0.7,0.2-0.7,0.2
		C65.4,63.9,67.5,63.4,66.6,63.1z"/>
	<path class="st0" d="M66.5,64.4c0.5-0.6-0.6,0.1-0.6,0.3C66.1,65.1,66.3,65,66.5,64.4z"/>
	<path class="st0" d="M64.9,59.4c-0.1,0.1,0.6-0.3,0.5-0.3c-0.2,0.1-0.3,0.2-0.1,0.3c0.1,0.1,0.5-0.2,0.6-0.2c-0.1,0-0.1-0.1,0-0.1
		c-0.1-0.1-0.3-0.1-0.5,0c0.2-0.1,0.8-0.2,0.9-0.3c0.1-0.2-0.3,0-0.4,0c0.1,0,0.6-0.4,0.4-0.6c-0.4-0.4-1.1,0.8-1.1,0.8
		c-0.2-0.1-0.3,0-0.3,0.2c0,0-0.4-0.6-0.5-0.1c0,0.5,0.8,0,0,0.4C64.6,59.3,64.7,59.4,64.9,59.4z"/>
	<path class="st0" d="M68.7,71.9c0-0.1,0.5-0.3,0.7-0.5c0,0-0.9-0.3-0.8-0.3C67.8,71.2,68.6,71.9,68.7,71.9z"/>
	<path class="st0" d="M65.4,65.5c1.1-0.3-0.1-1.6-0.4-0.3c0,0.1,0.5-0.2,0.5-0.2C65.5,65,65.3,65.5,65.4,65.5z"/>
	<path class="st0" d="M64.6,59.9c0.1-0.2,0.3-0.3,0.5-0.3C65,59.2,63.9,60,64.6,59.9z"/>
	<path class="st0" d="M61.5,59.7C61.3,59.6,61.4,59.8,61.5,59.7z"/>
	<path class="st0" d="M64.2,60.5c-0.4,0.3,0.2-0.3,0.2-0.3c0,0-0.7-0.1-0.8,0C63.4,60.4,64.1,60.6,64.2,60.5z"/>
	<path class="st0" d="M78.9,76.3c-0.2,0.1,0.2,0.2,0.3,0.2C79.4,76.5,79,76.2,78.9,76.3z"/>
	<path class="st0" d="M77.5,52.1c0-0.2-0.5,0.3-0.3,0.4C77.4,52.6,77.5,52.4,77.5,52.1z"/>
	<path class="st0" d="M64.8,62.9c0.1-0.1,0.4-0.1,0.5-0.3C65.3,62.6,64.7,62.8,64.8,62.9z"/>
	<path class="st0" d="M72.3,57.3c0.1,0,0.2-0.1-0.1-0.3C71.9,56.7,71.9,57.3,72.3,57.3z"/>
	<path class="st0" d="M63.9,60.8C64.5,60.7,63.3,60.7,63.9,60.8z"/>
	<path class="st0" d="M65.5,64.3C65.8,64.4,66,63.7,65.5,64.3z"/>
	<path class="st0" d="M63.6,61.9C63.5,61.7,62.9,61.9,63.6,61.9z"/>
	<path class="st0" d="M64.3,63.1C63.9,63.3,65.2,62.5,64.3,63.1z"/>
	<path class="st0" d="M72.6,82.3c0.2,0-0.1-0.3-0.3-0.2C72,82.1,72.8,82.3,72.6,82.3z"/>
	<path class="st0" d="M68.7,68.6c0,0-0.7,0.8-0.6,0.8C68.7,69.6,69.3,68.3,68.7,68.6z"/>
	<path class="st0" d="M71.4,81.6C71.9,81.8,71.8,81,71.4,81.6z"/>
	<path class="st0" d="M90.4,70.9C89.8,71,91.3,70.7,90.4,70.9z"/>
	<path class="st0" d="M86,75.6c0.9,0.2-0.3-0.6-0.5-0.4C85.5,75.2,86.1,75.6,86,75.6z"/>
	<path class="st0" d="M89.1,71c0-0.1-0.8,0.2-0.8,0.2C88.6,71.2,88.9,71.1,89.1,71z"/>
	<path class="st0" d="M87.4,72.2c0.1,0,0.5-0.4,0.3-0.5C87.6,71.7,87.1,72.2,87.4,72.2z"/>
	<path class="st0" d="M89.3,71c0,0,0.3,0.1,0.6,0C89.7,71,89.5,71,89.3,71z"/>
	<path class="st0" d="M85.4,75.6c0.2,0.2,0.3,0.2,0.5,0.1C85.9,75.7,84.6,75.3,85.4,75.6z"/>
	<path class="st0" d="M91.6,70.6C91.6,70.6,91.2,70.6,91.6,70.6z"/>
	<path class="st0" d="M102.7,115.6c-0.2,0,0,0.2,0.1,0.3C103,115.9,102.9,115.7,102.7,115.6z"/>
	<path class="st0" d="M110.6,111.8c-1.1,0.5-2.8,0.8-4.4,0.7c-0.6,0-1.7-0.7-2.1-0.1c-1,1.3,0.6,1.6,1.7,2c1,0.4,3,2.2,4,1.8
		C109.7,115.5,110.3,111.9,110.6,111.8z"/>
	<path class="st0" d="M97.6,104.8c-0.2-0.2-0.2-0.2-0.5-0.2c0,0,0.4-0.3,0.3-0.2c0.6-0.8-3.2,0.1-3.3,0.1c0,0.1-0.2,1-0.1,1.1
		c0-0.3,0.8,2.3,0.9,2.4c-0.6,0.2-0.3,1.1-0.2,1.7c0,0.2-0.6-0.4-0.3,0.2c0.6,1,1.5-0.7,1.5-0.7c0.2,0,1,0.5,1.1,0.4
		c0.3-0.1,0.4-2.8,0.4-2.3C97.5,106.9,97.5,104.8,97.6,104.8z"/>
	<path class="st0" d="M99.1,99.3c0.1,0.1-0.7,0.2-0.7,0.2C98.3,99.6,99.6,99.9,99.1,99.3z"/>
	<path class="st0" d="M93.1,70.2C92.7,70.3,93.9,70.2,93.1,70.2z"/>
	<path class="st0" d="M100.5,68.2C99.7,68.1,101.8,68.4,100.5,68.2z"/>
	<path class="st0" d="M105.9,68.7c-0.5-0.1-0.4-1.4-1.2-0.6c0,0,0.8-0.3,0.7,0.2c0,0.1-0.4,0-0.3-0.2c-0.1,0.2-0.2,0.2-0.4,0.1
		c0.1,0.4,0.4,0.2,0,0.7c0.1,0,0.8,0.1,0.4,0.1C105.4,68.9,105.8,68.7,105.9,68.7z"/>
	<path class="st0" d="M100.2,68.6C100.2,68.6,100.3,68.6,100.2,68.6C100.1,68.6,100.2,68.6,100.2,68.6z"/>
	<path class="st0" d="M92.4,70.4C93.3,70.1,92.4,70.4,92.4,70.4z"/>
	<path class="st0" d="M117.7,14.1c0.6-0.5,3-0.5,3.8-0.9c-0.8-0.6-2-0.1-2.9-0.5c0-0.3,0.1-0.4,0.5-0.3c-0.9-0.3-2.9-0.2-3.9,0
		c-0.2,0.1,1.1,0.4,1.1,0.4c-0.2,0.1-1,0.6-1.2,0.8c0.2,0,0.2,0.1,0.1,0.2c0.7,0.4,2-0.6,2.7-0.2c-0.1,0.1,0,0.1,0.3,0
		C118.1,13.8,117.8,14,117.7,14.1z"/>
	<path class="st0" d="M99.6,10c-0.6,0.4,2,0.5,1,0.2c0.2-0.2,0.7,0.1,0.8,0.1c-0.2,0-0.4,0.1-0.6,0.3c0.3,0,0.8,0.1,1,0.2
		c0,0-1.8-0.1-2,0c0.3,0.1,0.6,0.2,0.9,0.3c-0.2,0-0.3,0-0.4,0.1c-0.1,0.5,2.4,0.5,2.4,0.5c-0.4,0.1-0.9,0.1-1.3,0.1
		c1.6,1.3,2.7-0.3,3.7,0.1c-0.7-0.3,0.1-0.3-0.4-0.5c0,0,1.8-0.2,1.5-0.3c0.4,0.1-0.5,0.6-0.3,0.5c0.6,0.1,2,0.3,2.5-0.1
		c0.2-0.2-0.7,0.4-0.6,0.4c0.4,0.2,1.1-0.1,1.4,0c-0.4,0.2-2.8,0.2-2.5,0.4c-0.3,0.1-2.5,0.5-2.2,0.5c-0.5,0-0.7-0.2-1.2-0.2
		c1.4,1.3,3.2,0,5.5,0.2c0,0-0.3,0.4-0.3,0.1c0.2,0.1,0.3,0.2,0.5,0.2c-1.1,0.1-2.7-0.3-3.8,0.2c0.8,0.1,1.7,0.2,2.5,0.4
		c-0.2,0-3.9-0.1-3.8-0.1c0.5,1.3,3.3,0.6,4.3,1c-0.4,0.2-1.3-0.2-1.6,0.2c-0.2,0.3,2.4,0.5,2.6,0.4c0-0.2-0.1-0.2-0.3-0.2
		c-0.2-0.2,0.9-0.1,0.2-0.5c0.5-0.2,2.8-2.4,2.9-2.1c-0.1-0.2,0-0.4-0.2-0.7c0.4-0.1,4-0.4,3.9-0.7c-0.2-0.7-4.1-0.3-4.6-0.8
		c0.2,0,0.4,0,0.4-0.3c-0.3-0.1-2,0-2,0c0.3-0.1,0.2-0.2-0.1-0.3c0,0,0.6-0.2,0.7-0.3c-0.2,0.2-2.7-0.9-3.2-0.6c0.6,0,0.3,0,0.6,0.2
		c-0.2,0-0.5,0-0.7,0c-0.3,0.3,1.3,1.6,1.4,1.8c0,0.1-2.3-1.4-2.3-1.4c-1.7-0.5-1.2,0.5-1.5,0.7c-0.1,0.1-1.3-0.5-1.3-0.4
		c0.1,0,0.2-0.1,0.3-0.1c0,0-1.6,0-1.6,0c0-0.4,2.1-0.1,2.3-0.3c0.2-0.2-2.8,0-2.8-0.1c0.1,0,0.2,0.1,0.3,0.2c0,0.1-1.7-0.6-1.7-0.1
		c0.1,0.1,0.2,0.2,0.3,0.2c-0.1,0.2-1.7-0.2-0.4,0.2C99.6,9.7,99,9.6,99.6,10z"/>
	<path class="st0" d="M123.5,11.1c-0.1,0,0.6,0.3,0.9,0.2C124.1,11.2,123.8,11.2,123.5,11.1z"/>
	<path class="st0" d="M113.4,20.1c-0.1-0.4-0.7,0.1-0.7,0C112.7,20.1,113.6,20.6,113.4,20.1z"/>
	<path class="st0" d="M114.9,12.3c0.7-0.1,1.6,0.1,2.3-0.1c-0.8-0.7-2-1-3.4-0.4c0.4,0.2,1-0.1,0.6,0.3
		C115.1,12.4,114.6,12.3,114.9,12.3z"/>
	<path class="st0" d="M110.4,8.7c0.4,0.1,0.8,0.1,1.2,0.1c-0.1,0-0.2,0-0.2,0.1c-0.8,0.2,0.6-0.5-1,0.1c1.7,0,5.5-0.3,6.4,0.2
		c-1.1,0.4-3.7-0.5-1.7,0.4c-0.6,0.2-1.6-0.3-2.3-0.1c0.9-0.4,3.7,0.6,5,0.4c-0.1,0-0.3,0.1-0.3,0.2c0.5,0.9,5-0.3,4.7-0.6
		c0.4-0.1,1.6-0.2,2-0.5c0.3-0.2-3-0.7-3-0.7c0,0-1.3-0.2-1.3,0c0.4-0.1,0.2-0.2-0.5-0.1c0.6,0.3-0.4,0.1-0.6,0.1
		c0,0.1,0.1,0.2,0.2,0.2c-0.4,0.2-1.2,0.1-1.2,0c0,0,0.4-0.5,0.4-0.5c-0.3,0-0.6-0.1-0.9-0.1c0.1,0.1,0.1,0.2,0,0.3
		c-0.2,0-0.2-0.2-0.5-0.2c0.1,0,0.2,0.7,0.2,0.7c-0.2-0.1-0.3-0.1-0.2,0c0,0-1.1-0.2-1.2-0.2c0.2,0,0.3-0.1,0.3-0.3
		c-0.3-0.1-3.7-0.4-3.7-0.3c0.1,0.2,0.3,0.3,0.7,0.1c-0.1,0-0.3,0.3-0.1,0.3c-0.4-0.1-0.9-0.2-1.3-0.2c0.3,0.2,0.6,0.4,0.9,0.3
		c-0.9,0.4-1.8-0.4-2.7,0C110.8,8.6,111,8.7,110.4,8.7z"/>
	<path class="st0" d="M132.4,8.6c0.4,0,0.9-0.1,1.3-0.2c-0.6-0.2-2.6-0.1-3.2,0.2C130.9,8.8,132.1,8.6,132.4,8.6z"/>
	<path class="st0" d="M126.5,11c0.7-0.1,1.3-0.1,2,0c-0.6-0.4-2.1,0-2.8,0.1C125.9,11,126.2,11,126.5,11z"/>
	<path class="st0" d="M123,15.3c0,0.1-1.1,0.4-0.8,0.5C122.2,15.9,122.9,15.4,123,15.3z"/>
	<path class="st0" d="M94.7,46.3c0.3,0,0.2-0.2-0.1-0.2C94.4,46.2,94.4,46.3,94.7,46.3z"/>
	<path class="st0" d="M90.3,48.6c0.1-0.3,0-0.3-0.4-0.2C90.1,48.4,89.3,49.3,90.3,48.6z"/>
	<path class="st0" d="M121.8,28.8c0-0.2-0.1-0.3-0.4-0.2C121.5,28.6,121.6,28.7,121.8,28.8c-0.5,0-1,0.3-1.2,0.3
		C120.8,29.2,122,29.5,121.8,28.8z"/>
	<path class="st0" d="M116.3,29.7c0.1,0.2,0.7,0.2,0.7,0.2C117,29.6,116.6,29.2,116.3,29.7z"/>
	<path class="st0" d="M119.8,28.9c0.6,0.1,1.6-0.5,1.8-0.7c0,0-0.8,0-0.8,0c0.7,0.5-0.5-0.1-0.6,0.1c0.1,0.1,0.2,0.1,0.2,0.2
		c-0.1,0-1.5-0.2-1.5,0c0.1,0.3,1.2-0.1,0.3,0.4C119.1,28.9,119.7,28.9,119.8,28.9z"/>
	<path class="st0" d="M114.7,30.3c0,0,0.4-0.3,0.3-0.4c-0.4-0.1-1.4-0.2-1.6,0.2C113.5,30.2,114.5,30.7,114.7,30.3z"/>
	<path class="st0" d="M113.7,30.8c1,0.1-0.3-0.7-0.3-0.3c0.2,0,0.3,0.1,0.1,0.3c0,0-0.7-0.4-0.8-0.2c0.1,0.1,0.3,0.2,0.5,0.2
		c-1.9,0,0.1,0.3-0.4,0.3c-0.1-0.1-0.2-0.2-0.4-0.1C112.1,31.1,114.1,30.8,113.7,30.8z"/>
	<path class="st0" d="M112.4,31.4c-0.1-0.2-0.4,0-0.4-0.1c0.1-0.1,0.1-0.2,0.1-0.3c-0.6-0.1-0.2,0-0.7,0c0,0.2,0.1,0.3,0.3,0.3
		c-1,0.2-0.3-0.1-0.8-0.1c0,0.2,0.2,0.3,0.5,0.2c-0.3,0-0.4,0-0.2,0.1c-0.1-0.2-0.9,0-0.9,0c0.5,0.3,0.6-0.1,0.1,0.1
		c0.1,0,0.3,0,0.4,0.1c0,0.2-0.2,0.2-0.5,0.1c0,0.2,0.2,0.2,0.5,0.1c-0.2,0.1-0.4,0.2-0.7,0.2c0.2,0.1,0.4,0.1,0.6,0
		c-0.2,0-0.2,0-0.1,0.2c0.3,0,0.5-0.5,0.8-0.4c-0.3,0.2,0.7,0.1,0.8,0C111.8,31.8,112.5,31.6,112.4,31.4z"/>
	<path class="st0" d="M106.1,33.1c0.3,0.2,1.2-0.4,1.3-0.1c-0.2,0.1-0.4,0.1-0.7,0.2c1.3,0.4,1.1-0.7,0.6-0.9
		c0.8,0.2-1.2,0.5-1.1,0.5C106.3,32.7,106.1,33.3,106.1,33.1z"/>
	<path class="st0" d="M88.8,54.8c0.3,0,0.2,0.4,0.1,0.5c0,0,0.2-0.5,0.3-0.4C89,54.4,88.8,54.8,88.8,54.8z"/>
	<path class="st0" d="M89,56.3c0.2,0,0.2-0.7,0-0.7C89,55.7,88.8,56.4,89,56.3z"/>
	<path class="st0" d="M108.6,32.2c0.2-0.1,0.4-0.3,0.5-0.5c-0.1-0.5-1.6,1-1.1,0.9C108,32.6,108.5,32.3,108.6,32.2z"/>
	<path class="st0" d="M109.4,33.4c0.3,0.1,0.4,0,0.6-0.3c-0.1,0-0.1-0.3-0.1-0.4c0,0-0.6-0.2-0.6-0.2c-0.1,0.1-0.2,0.8-0.9,0.9
		c0.1-0.2,0.2-0.4,0.5-0.4c0.3-0.4-1.1-0.6-0.6-0.2c-0.1,0-0.3,0-0.4,0.1c0.1,0.1,0.3,0.2,0.5,0.2c-0.2-0.1-0.3-0.1-0.5,0
		c0.2-0.3-0.2,0.8-0.4,0.4c0.1,0.1,0.2,0.1,0.3,0.2c0.5-0.1-0.9,0.4-0.6,0.4c0.1,0,1-0.5,0.9-0.5c-0.1,0.2-0.2,0.3-0.4,0.4
		c0,0.5,1-0.3,0.9-0.3C109,33.6,108.8,33.4,109.4,33.4z"/>
	<path class="st0" d="M95.5,45.1c0.1,0,0.7,0,0.7-0.2C96.1,44.9,94.7,45,95.5,45.1z"/>
	<path class="st0" d="M100.7,43.1C100.7,43.2,100.7,43.2,100.7,43.1z"/>
	<path class="st0" d="M89,48.9c0.2,0.1,0.4,0.1,0.6,0.2c-0.1,0.2-0.3,0.2-0.5,0.1c-0.4,0.2,2.3-0.1,1,0.2c0.3,0.4,1.6-0.1,2,0.1
		c-0.5,0.1-0.8,0.1-1.4,0.1c0,0.1-0.1,0.3-0.4,0.3c0.1-0.1,0.2-0.2,0.1-0.3c-0.2,0-0.4,0.1-0.6,0.1c0,0-1.3,0-0.7,0.1
		c0,0-0.6,0.2-0.6,0.1c-0.2,0.9,2.2-0.8,0,0.3c1.3,0.5-0.4-0.5,0.7,0.1c-0.2-0.1-0.3,0-0.3,0.1c0.1,0,0.3,0.1,0.4,0.1
		c-0.1,0-0.9,0-0.9,0.1c0.1,0,0.2,0,0.3,0c-0.7,0.5,0.8-0.2-0.3,0.4c0.1,0,0.6,0.2,0.6,0.2c0,0-0.4,0-0.4,0c0.4,0.1,0.4,0.1,0.2,0.1
		c0.6,0.8,2.8-0.5,3-0.7c0,0.2-0.1,0.3-0.3,0.4c-0.1,0.3,1.2,0,1.1-0.1c0,0-0.4,0.4-0.4,0.3c0.3-0.1,0.5-0.2,0.8-0.1
		c-0.8-0.2,0.4-0.8,0.4-0.8c-0.2,0.1-0.4,0.3-0.5,0.5c0.2,0.2,0.4,0.3,0.7,0.1c-1.3,1.2,0.3-0.7-1.2,0.3c0,0.2,0.1,0.4,0.1,0.6
		c0.1-1-1.2-0.2-1.5-0.4c-0.1,0-2-0.4-2.5-0.1c-0.2,0.1,0.4,0.2,0.3,0.2c-0.7,0.1,0.3,0.2-0.4,0c0.1,0.5,0.8,0.2,1.1,0.2
		c-0.6,0.3-0.5-0.1-0.2,0.5c-0.1-0.1-0.1-0.1-0.1,0c-0.1-0.1-0.7-0.5-0.9-0.4c0,0,0.5,0.3,0.5,0.4c-0.1-0.1-0.1-0.1-0.2-0.1
		c0,0.7,1.1-0.2,1.2-0.3c-0.2,0.1-0.1,0.2,0.1,0.1c-0.7,0.9-0.3,0.1-1,0.5c-1.2,0.7,1.2,1.1,0.9,0.3c-0.1,0.1-0.2,0.2-0.3,0.4
		c0.4-0.3-0.1,0.2-0.1,0.2c0.2,0,0.3,0,0.5-0.1C90,53.7,89.9,54,90,54.1c0.1,0,0.2,0,0.2,0.1c0.7-0.3,0.6-1.2,1.7-1.3
		c-0.3,0.5,0.4-0.1,0.6-0.1c-0.3,0.2-0.2,0.3,0.2,0.2c-0.8,0.8-0.2-0.5-1.1,1c0.1-0.3,0.2-0.6,0.2-0.8c-0.1-0.2-1.1,0.5-1.1,0.6
		c0.1,0.1,0.2,0.2,0.4,0.1c-0.3-0.2-1,0.8-1.1,0.8c0.6,0,0.3,0.2,1.2-0.1c-0.2,0.3-1.1,0.1-1.1,0.5c0.1,0.1,0.2,0.1,0.3,0
		c-0.1,0.1-1.2,0.2-1.1,0.4c0.1-0.1,0.1-0.1,0.1,0c0.1,0,0.4-0.4,0.2-0.5c-0.8-0.3-0.4,1.6,0,1c0.3-0.4-0.1-0.3-0.2-0.4
		c-0.2-0.4,0.7,0.5,0.4,0.4c0.1-0.1,0.2-0.2,0.4-0.2c0-0.3-0.1-0.3-0.3-0.2c0.5-0.4,0.2-0.2,1-0.2c-0.3-0.1-0.5,0-0.5,0.2
		c0.2,0.3,0.9-0.7,0.9-0.7c-0.3,0.4-0.2,0.5,0.4,0.2c-0.3,0-0.9,0.2-1.1,0.5c0,0,0.4,0.2,0.4,0c0.1,0.4-0.1-0.1-0.2,0.2
		c0,0.1,1,0,0.8-0.1c-1.2,0.3-1,0.2-0.7,0.4c-1,0,0.1,0.2,0.9,0.2c-0.4,0.1-1.4,0.1-0.8,0.5c-0.2,0-1.4-0.3-1.4-0.4
		c0.2,0.1,0.3,0.2,0.1,0.3c-0.6-0.1,1.5,1.5,2.5,1.6c-0.3,0.1-0.5,0.2-0.7,0.4c0.3,0.8,0.8-0.6,0.8,0.3c0.2,0,0.3-0.1,0.4-0.3
		c0,0.2-0.4,0.2-0.3,0.3c0.1,0.1,2.1-0.1,2-0.6c0.5,0.5,0,0,0.4,0.3c-0.1,0,2-1.4,2-1.4c0,0,0-0.1-0.3-0.1c0,0,0.6-0.1,0.7-0.2
		c0.1-0.1-0.1-0.1-0.3-0.1c0-0.2,1.3-0.3,0.5-0.7c0.6,0,1.2,0.8,1.3,0c0.4,0.5-0.1-0.1,0.2,0.2c0,0,0.1-0.6,0.1-0.5
		c0,0.1,0,0.2,0.1,0.3c0.5,0-0.4-1-0.3-1c0.2,0.1,0.3,0.1,0.3-0.1c-0.1,0.3,0.1,0.3,0.3,0.1c0.2-0.3-0.6-0.9,0.2-0.9
		c0.1,0.1,0.2,0.3,0,0.4c0.5,0.8-0.2,1,0.9,1.4c0.1,0.1,0.2,1.7,0.2,2c0.1,0.1,0.3,0,0.4-0.2c-0.3,0.3,0.2,0.2-0.1,0.4
		c0.2-0.1,0.3-0.2,0.3-0.5c0,0.2,0.1,0.2,0.3,0.1c-0.2,0.1-0.3,0.3-0.3,0.5c0.4-0.1,0.1-0.4,0.7-0.2c-0.2,0.1-0.5,1.4-0.1,1.4
		c-0.1,0.1-0.2,0.1-0.2,0.2c0.5,0.3,0.1,0,0.4,0.8c0.1,0.2,2,1.6,2.1,2.2c0.1,0.3-0.6,0.3-0.6,0.4c0.6,0.6,0.2,0.3-0.4,0.3
		c1.3,0.9,0.9,1.7,0.8,2.4c0.7-0.3,2.2,0.3,2.8-0.1c0.7-0.5-0.4-0.8-0.1-1c0.8-0.6,0.8-0.7,1.6-0.9c0.4-0.1,1.4,0.2,1.6,0.2
		c-0.1,0,1.2-1.8,1.2-1.8c0-0.3-0.2-0.5,0.2-0.7c-0.1-0.1-0.2-1.4-0.2-1.5c0.3,0,0,0,0.4-0.2c-0.2-0.2-0.2-0.2,0-0.1
		c-0.1,0-0.4-0.4-0.5-0.4c0.1,0,0.7,0.1,0.6,0.1c-0.1-0.1-0.1-0.2,0-0.1c-0.1-0.1-0.2-0.2-0.4-0.2c0.1,0,0.1,0,0.1-0.1
		c0-0.1,0.7-0.4-0.1-0.8c0.1,0,0.2,0,0.3,0c-0.1-0.1-0.6-0.2-0.8-0.3c0.4-0.1,0.7,0.1,1.1,0c-0.6-0.5-1-0.1-1.5-0.4
		c0,0,1.8,0.1,1.8-0.2c-0.5,0,0.1,0-0.3-0.1c1,0.1,0.8-0.6,1.3-0.4c-0.2-0.2,0-0.6-0.2-0.3c0-0.1,0.1-0.3,0-0.4
		c0,0.3,0.1,0.3,0.2,0.1c-0.1,0.2,0,0.4,0.1,0.6c0.3-0.6-0.1,0.3,0,0.2c0.2,0.1,0.1-0.3,0.1-0.3c0,0,0.9-0.5,0.9-0.5
		c-0.2-0.1-0.1-0.1,0.3-0.2c-0.8-0.4,0.2,0.3-0.4-0.3c0.1,0,0.1,0,0.1-0.1c0.1,0,0.2,0.4,0.5,0.2c-0.1,0-0.3-0.1-0.4-0.1
		c0.2,0.1,0.4,0.1,0.5,0c-0.3-0.1-0.4-0.2-0.1-0.2c-0.5-0.5-0.2,0.4-1,0.1c0-0.1,0-0.1-0.1-0.2c0,0,0.5-0.2,0.5-0.1
		c0,0,0.3-0.6,0.8-0.6c0-0.1,0.4-0.5,0.6-0.3c-0.2-0.2-0.3-0.2-0.4-0.5c0.1,0.1,0.2,0.2,0.3,0.3c0.1,0-1.4-1.2-1.3-1
		c-0.1-0.1,0.1,0.1,0.4,0c0.1,0-2.5-1-2.8-1.2c0.2-0.1,0.1-1.3-0.2-1.5c0.4,0.2-0.2,0,0.2,0c-0.5-0.4,0-0.6-0.4-0.7
		c0.1-0.1,0.2-0.1,0.3-0.1c-0.4-0.3,0.3-0.1-0.2-0.3c0.1-0.1,0.7,0.2,0.8,0.1c-0.1,0.4,0.1-2,0.2-1.4c0,0-1-0.5-0.5-0.7
		c0.6-0.3,1.7,0,0.4-1.2c0.2,0,0.2,0,0.2-0.2c-0.2,0.5,1.2,0.6,0.5,0.6c0.2,0.3,1-0.4,1-0.4c-0.2,0-0.4-0.1-0.6-0.1
		c0.3,0,0.7-0.4,0.6-0.4c0.3,0.1,0.4,0.1,0.2-0.1c0,0,0.6,0.2,0.2,0c0.2,0.1,0.3,0,0.2-0.1c0,0.1,0.4,0.2,0.4,0.1
		c-0.2-0.4,0.6-0.5,0.8-0.5c0.1,0-0.3-0.3-0.1-0.3c0,0,4.3-1.8,3.7-2.2c-0.1,0.1-0.2,0.1-0.3-0.1c0.1,0,0.2-0.1,0.3,0
		c-0.3-0.1-0.6-0.2-0.9-0.4c0.4-0.1-0.2,0.1,0.3,0.1c-0.1,0-0.1,0,0,0c-0.2-0.1-0.2-0.2,0-0.2c0,0-0.5-0.1-0.5-0.2
		c0,0.2,1.2-1.1,1.2-1.1c0,0-0.5-0.2-0.5-0.1c0.1,0,0.9,0,1-0.3c-0.1,0-0.2-0.1-0.4-0.1c0.7-0.2,0.4,0.2,0.4-0.2
		c0.2,0.1,0.3,0.1,0.6,0.1c-0.3,0,0-0.6-0.1-0.7c0.2,0,0.5,0.3,0.6,0.3c0.1-0.1,0-0.2,0-0.3c0.5,0.2,0.7,0.3,1.2,0.4
		c0-0.1-0.2-0.2-0.3-0.3c0.6,0,1.5,0,2.2,0.1c1.8,0.3,1.4,1.1,2.2,2c-0.2-0.1-0.3-0.1-0.5,0c0.2,0,0.3,0.1,0.3,0.3
		c0.1-0.2-1.5,0.2-1.7,0.3c-0.4,0.3-1,1.2-1.4,1.5c-0.2,0.2-1.3,0.6-1.1,0.9c-0.4,0-1.4,0.3-0.9,0.6c-0.1-0.1-0.2-0.1-0.4-0.1
		c0.1,0.1,0.2,0.3,0.4,0.3c-0.2,0.2-0.7,0.2-0.7,0.4c0.1,0-0.9-0.4-0.8-0.3c-0.2,0.2,0.3,0.5,0.3,0.6c-0.2,0.1-1.3,0.6-1.1,1
		c-0.1-0.1,1.2,2.7,1.4,2.7c-0.1,0-0.3-0.1-0.4-0.1c0,0.3,0.5,0.1-0.1,0.2c0.3,0.2,0,0.5,0.4,0.7c-0.1,0-0.7,0-0.2,0.3
		c-0.6-0.1,0.3,0-0.3,0c0.1,0.1,0.7,1.7,0.8,1.4c0.1-0.1,0-0.2-0.1-0.3c0.7,0.1,0-0.1,0.4,0.3c-0.1-0.1,1.4,0.5,1.7,0.2
		c-0.3,0.4-0.1,0.4-0.2,0.5c0.2,0.1,0.9-0.4,1-0.4c-0.1,0.1-1,0.7-1.1,0.3c-0.1,0.2,0,0.3,0.3,0.2c-0.2,0-0.5,0.2-0.4,0.4
		c0,0.1,0.8-0.5,1-0.7c-0.3,0.3,0.5,0.4,0.6,0.5c-0.2,0.1-0.3,0,0,0.1c-0.1,0-0.2,0.1-0.2,0.2c0.2,0,0.2,0,0.1,0.1
		c0,0,0.3-0.2,0.3-0.3c0.1,0.5-0.7,0.2-0.8,0.6c-0.3,0.1,1.5-0.7,1.2-0.7c0,0.5,0,0.1-0.4,0.4c-0.1,0,1.2,0,0.6-0.1
		c0.4-0.2,1.1-0.2,1.3-0.1c0,0,0.6-0.4,0.1,0.1c0.3,0,0.6-0.4,0.3-0.5c0.2,0,2.2-0.2,2.2-0.5c0-0.2-0.3,0.6,0.3,0.2
		c-0.6-0.1,0.8,0.4,0-0.4c0,0,0.6,0.3,0.5,0.2c-0.1-0.1-0.2-0.2-0.3-0.3c-0.1,0.3,3.7-0.4,3.4-0.2c0.1-0.2,3.2-2.2,3.7-2.7
		c0.5-0.4,1.4-1.1,1.8-1.6c1.8-2.6-0.2-2-2.2-3.6c1.6-0.5-1.1-3.7-1.3-3.7c0.1-0.1,0.2-0.8,0.2-0.9c1.7-0.3-1.4-2-1.5-2.8
		c-0.2-0.9,1.2-1.2,1-2.1c-0.1-0.5-1.3-0.8-1.7-1.1c-1.4-1.1-1.6-1.7,0.3-2.6c0.6-0.3,1.9-0.2,2.2-0.7c0.6-0.9-1.5-0.2-1.1-0.2
		c0.3,0-0.3-0.5-0.3-0.5c-0.2,0,0,0.4-0.1,0.4c-0.4,0-0.4,0-0.1-0.2c-0.2-0.2-0.8,0.2-1,0.2c0-0.1,0.2-0.3,0.4-0.4
		c-0.3-0.4-0.4,0.1-0.7-0.1c0.2-0.1,0.3-0.2,0.5-0.2c-0.7-0.3-1.9-0.1-1.7-0.4c-1-0.2,4.3,0.2,3.9-0.4c-0.4-0.7-1.4-0.2-1.9-0.4
		c0,0,0.5,0,0.5-0.2c-0.4-0.1-0.5-0.1-0.2-0.1c-0.3-0.1-0.5-0.1-0.8,0.1c0.5-0.3-0.8-0.2-0.8-0.1c0.4-0.1-0.2,0,0.2-0.1
		c-0.4,0-0.4,0-0.1-0.1c-1-0.8-1.6,0.6-1.4,0.6c0.2-0.1-0.7,0.5-0.6,0.5c0-0.2,0.1-0.3,0.2-0.5c-0.2,0-0.4,0-0.5,0.2
		c0-0.1,0.1-0.2,0.2-0.2c-0.6-0.3-0.2,0.3-0.6,0c0.3,0,0.6-0.2,0.8-0.5c-0.4,0.1-0.7,0.1-1.1,0.2c1.3-0.3,0.5-0.3,0.1-0.4
		c0.6,0,1.1,0.1,1.3-0.3c0.2-0.3-1.8,0-1.7-0.1c-0.3,0.1-0.6-0.3-0.7,0c0,0,0.7,0.2,0.7,0.2c-0.2,0.1-0.1,0.2,0.2,0.1
		c-0.6,0.1-1.1,0-0.6,0.5c-0.2-0.1-0.4-0.1-0.5,0c-0.1,0.1,0.3,0.3,0.2,0.3c-0.5-0.1-0.6,0.1-0.9,0.2c0.5-0.1-0.3-0.6-0.4-0.6
		c0.3,0,0.5-0.2,0.6-0.4c-0.1-0.1-0.1-0.1-0.1-0.3c-0.9-0.5-2.2,2.3-2.7,2c-0.3-0.2,0.2-0.8,0.4-0.9c-0.9-0.1,0.4-0.2-0.4-0.1
		c0.4-0.5,0.9-0.6,1.4-0.8c-0.1,0-0.2,0-0.1-0.1c-0.1-0.1-0.7,0.1-0.8,0.1c0.4-0.2-0.2-0.2-0.2-0.2c-0.1,0.1,0.3,0.3-0.1,0.4
		c0.1,0-0.5-0.2-0.6-0.2c0.1,0,0.2-0.1,0.2-0.2c0.1,0.1-0.8-0.1-0.8-0.1c0.1,0,0.1,0.1,0,0.1c0.3,0.1-0.2,0,0.3,0.2
		c-0.2,0-0.3,0-0.1,0.2c0,0-0.7-0.2-0.6,0c0.1,0.2,0.6,0.2,0.8,0.4c-0.5-0.5-0.7,0.1-0.5,0.4c-1.5,0-1.5,0.4-1.9,0.6
		c0.3,0.2,0.4,0,0,0.3c0.2,0.1,0.4,0.1,0.6,0.2c0-0.1-1.9,0-2.1-0.1c0.3-0.2,0.8,0,1.1-0.3c0,0-1-0.3-1.1-0.1
		c0.1,0.2,0.2,0.3,0.4,0.2c-0.2-0.1-0.4-0.1-0.6,0c0,0-0.2-0.7-0.6,0c-0.2-0.2-1.1-0.5-1.2-0.1c-0.1,0.3,1.6,0.2,1.6,0.2
		c-0.1,0.1-0.3,0.2-0.5,0.2c0.2,0.1,0.3,0.1,0.5,0c-0.1,0-0.1,0.1,0,0.2c-0.1-0.1-0.2-0.1-0.3-0.1c-0.1,0,0.3,0.5,0.4,0.6
		c-0.3,0-0.4,0-0.2-0.1c-0.1-0.2-1.2-0.6-1.4-0.5c0,0-0.2,0.6-0.5,0.5c-0.3-0.1,0-0.2,0.2-0.4c-0.2-0.1-0.8,0.4-1,0.4
		c0,0,0.7,0.6,0.7,0.6c-0.4,0-1.3,0.5-1.5,0.5c0.2-0.3,1.1-1,0.6-1.5c-0.3-0.2-1.2,0.7-0.7,0.8c-0.3,0-0.5,0.1-0.7,0.4
		c1-0.9-1-1.2-1.1-0.4c0.2,0.1,0.3,0.2,0.5,0.2c-0.3-0.1-0.4,0-0.4,0.2c0.2,0.2,0.7,0.4,1,0.5c0.2,0-2.1-0.8-1.9-0.5
		c0.2,0.4,0.8,0.1,0.9,0.4c-0.1,0-1-0.1-0.9,0.1c-0.7-1.2-0.6,0.2-0.6,0.2c-0.4,0.3-1.1-0.1-1.1,0.5c0.2,0.1,0.4,0.1,0.6,0.1
		c-0.1,0.1-0.2,0-0.2,0c-0.1,0-0.3,0.1-0.4,0.1c0.2,0,0.4,0.1,0.6,0.2c-1.9-0.6-0.5,0.1-0.3,0.2c-0.1,0-2.5,0.1-2,0.4
		c0.1,0.3,1.3-0.1,0.9,0.1c0.2,0.1,1.2,0.1,1.5,0.1c-0.1,0-1.5-0.2-0.5,0.1c-0.6,0.1-0.4,0.4-0.4,0.4c-0.1-0.4-1.5-0.7-1.9-0.4
		c0.1-0.1,0.8,0.4,1,0.5c-0.2,0-0.9-0.6-1.2-0.3c-0.2,0.2,1-0.2,0.1,0.2c0.2-0.1,0.5,0,0.7,0.1c-0.2,0.1-0.2,0.1-0.6,0.1
		c0.3,0.1,0.5,0.1,0.9,0.1c-0.1,0-0.1,0-0.1,0c-0.2-0.1-0.3-0.1-0.5,0c0,0.1,0,0.2,0.2,0.1c-0.1,0-0.1,0.1,0,0.1
		c-0.1-0.1-0.2-0.1-0.4-0.1c0.1,0.1,0.1,0.2,0.3,0.2c-0.1-0.1-0.3-0.2-0.5-0.3c0.5,0.3-0.2,0.1,0.6,0.5c-0.7,0.2-0.6-1-1-1
		c-0.1,0-0.2,0.6-0.6,0.4c0.2-0.1,0.2-0.1,0.1-0.3c-0.1,0-0.6,0.3-0.6,0.3c0,0,1.3,0.1,1.2,0.2c-0.5,0.4-1.5,0.2-1.9,0.2
		c0,0,0,0,0,0c0.1,0,0.3,0,0.4,0c-0.7,0.4-0.5,0,0,0.2c-1.3,0.5-0.1-0.2-0.6,0.2c-0.2-0.1,2-0.1,2-0.1c0-0.1-0.9,0-0.8-0.1
		c0.7,0.7-0.3-0.4-0.2,0.1c0,0-0.1,0.2-0.1,0.2c0.1,0,0.3,0,0.4,0.1c-0.1,0-0.2,0-0.4,0c-0.4,0.4,2.7,0.2,1.1,0
		c-0.5,0.3-0.7,0.3-0.2,0.5c-0.6-0.2-1-0.1-1.4-0.3c0.7-0.1-0.5-0.1,0.3-0.1c-0.1-0.3-0.4-0.2-0.8,0.2c0.2,0.1,0.4,0.1,0.7,0.1
		c-0.6,0.1-0.7,0.1-1.3,0.5c0.5,0,1-0.2,1.4-0.1c-0.3,0,1.1,0.2,1.1,0.2c-0.5,0-0.8-0.2-0.5,0.3c-0.1,0-0.9-0.6-0.8-0.1
		c-0.2-0.1-0.2-0.2,0-0.3c-0.5-0.1-0.9,0.3-1.3,0.3c0.2,0,0.4,0,0.6,0.2c0,0-1.4,0.1-1.3,0.2c0.4,0.1-0.5,0-0.7,0
		c0.3,0.1,0.5,0.2,0.9,0.3c-0.3,0-0.6,0-0.9,0c0,0,0.2,0.2,0.2,0.2c-0.2,0-0.5,0-0.7,0c0.2,0,0.4,0,0.6,0.2c-0.2-0.1-0.4-0.1-0.6,0
		c0.1,0,0.2,0,0.4,0c0.2,0.1-1.6-0.3,0.6,0c-0.8,0.2-0.3,0.1-0.1,0.2c0,0-1.1,0-0.5,0.1c-0.5,0.2-0.3-0.3-0.8-0.1
		c0.5,0.3,0.2,0.1,0.1,0.4c0,0,0.9,0.1,0.9,0.1c-0.6-0.1-0.9,0-0.8,0.3c0.2,0,2-0.4,2-0.4c0,0.3-0.8,0.2-1,0.2
		c0.1,0.1,0.2,0.2,0.4,0.2c-0.2,0-0.4,0-0.5,0.1c-0.1-0.5-1.1-0.3-1.5,0.1c0.3,0,0.3,0,0,0.1c0.3,0,0.9,0,0.9,0.5
		c-0.7-0.6-1.4,0.1-0.7,0.5c-0.2,0-0.6-0.4-0.7,0c0.1,0.1,0.1,0.1,0.1,0.2c0.2,0,0,0.1,0.2-0.1c0,0.2,0.1,0.3,0.3,0.3
		c-0.2,0-0.2,0.1-0.1,0.2c-0.1-0.1-0.8-0.3-0.8-0.4c-0.2,0.4,0,0,0.1,0.2c0,0-0.4,0.4-0.4,0.4c0.1,0,0.1,0.1-0.1,0.2
		c0.5,0.2,0.1-0.5,0.7-0.3c-0.3,0.3,0.5-0.5-0.3,0.3c0.5-0.2-0.1,0,0.4,0.1c-0.1,0-0.2,0-0.2,0.1c0.1,0.1,1.1-0.2,1.1-0.4
		c0.1,0.3-1.4,0.6-0.8,0.5c-0.3,0.1-0.6,0.2-0.9,0.1c0.2,0,0.4,0,0.6-0.1c-0.4-0.1-0.8-0.1-1.3,0.3c0.5,0.1-0.6,0.2-0.6,0.3
		c0.1,0.3,0.3-0.2-0.2,0.3c0.3-0.1,0.6-0.2,0.9-0.3c-0.2,0.1-0.1,0.1,0.1,0c-0.4,0.1-0.4,0.2,0.1,0.2c0.1-0.1-0.9,0.2-0.8,0.3
		c0.1,0.3,0.5,0.1,0.7,0.2c-0.8,0-0.4,0.2-0.2,0.3c-0.3,0-0.5,0.2-0.8,0.4c0.1-0.3-0.5-0.8-0.6-0.6c0.4,0.2-0.4,0.3-0.5,0.3
		c0.2,0,0.3,0,0.3,0.2c-0.1-0.1-0.3-0.2-0.5-0.2c0.6,0.2-0.6,0.2-0.3,0.6c-0.1-0.1-0.7,0.4-0.8,0.6c0.9-0.1-0.2,0.1,0.4-0.1
		c-0.1,0.1-0.2,0.1-0.4,0.2c0.2-0.1,0.3-0.1,0.5,0c-0.1-0.1-1,0.2-1.1,0.2c0.9,0.1-0.2-0.2-0.1,0.2c0.5-0.1,0.5,0-0.1,0.3
		c0.3-0.1,0.7-0.2,1-0.3c-0.2,0.1-0.1,0.1,0,0.1c-1.8,1.2,2.1,0,1.7-0.3c-0.3-0.1-0.5,0-0.8,0.2c0,0,1.4-0.8,1.4-0.7
		c-0.1,0-0.7,0.5,0.2,0.2c-0.3,0.1-0.5,0.2-0.8,0.4c0,0,0.6,0.1,0.6,0.1c-0.1-0.1-1.4,0.5-1.5,0.6c0.2,0,0.4,0,0.5-0.1
		c-0.1,0.1-0.3,0.5-0.1,0.4c-0.1,0.1-2.2,0-1.1,0.3c-0.3-0.1-0.6,0-0.9,0.1c0.8-0.6-0.8-0.9-1.2-0.5c-0.2,0.2,0.8,0.1,0.6,0.1
		c-0.2,0-0.4,0-0.6,0.2c0.2,0.1,0.4,0.1,0.5,0c-0.3,0.1-0.5,0.2-0.8,0.3c0.6-0.8-1.2-0.1-0.9,0.1c0.3,0.1,0.5,0.1,0.8,0.1
		c-0.5,0.2-1.5,0.3-1.5,0.2c0.1,0.2,0.3,0.3,0.6,0.2c-0.6,0.2,0.1,0,0.2,0c-0.5,0.2,0.2,0,0.1,0.1c-0.1,0.4-0.6,0,0.1,0.4
		c-0.2-0.1-0.3-0.1-0.5-0.2c0.3,0.3-0.7-0.8-1-0.3c0.1-0.3,1,0.9,1.3,0.8c0.3-0.1-3.4-0.7-3-0.5c0.2,0.1,0.3,0.1,0.5,0.2
		c-0.1,0-0.3,0-0.4,0c-0.3,0.3,1.4,0.1,1.3,0c-0.4-0.1-0.6,0-0.6,0.2c0.4,0.1,1.1-0.5,1.5,0c-0.5-0.1-1,0.2-1.3,0.2
		c-0.2,0,0.7,0.2,0.6,0.1c-0.5,0.1-1-0.2-1.2,0.1c-0.2-0.2-0.3-0.2-0.1-0.2c-0.2-0.2-1.5,0.2-1.5,0.2c0.2,0.1,0.4,0.1,0.5,0
		c-0.3,0.1-0.2,0.1,0.3,0.1c-0.3,0-0.5,0-0.8,0.1c0.2,0,2.1,0.2,2.1,0.5c-0.3-0.3-0.6,0-0.8,0.3c-0.1,0.1,0.4,0,0.4,0.1
		c-0.2,0-0.4,0-0.6,0c0.6-0.7-0.4-0.8-0.8-0.7c-0.1,0,0.5,0.7,0.2,0.6c0.2-0.2-0.6-0.7-1.1-0.3c0.5,0.5-1-0.3,0.6,0.4
		c-1,0.1-0.1-0.2-0.9,0.2c0.2-0.1,0.2-0.3,0.1-0.5c-0.3,0-0.4,0-0.3,0.3c0.1,0-0.8-0.4-0.6-0.1c0.1,0,0.3,0.1,0.4,0.2
		c-0.1,0-0.2,0-0.3,0.1C89.8,49,89.2,48.7,89,48.9z M89.4,50.2C89.4,50.2,89.7,50.3,89.4,50.2z M89.3,50.8c0.1,0.1-0.1-0.5,0.7,0
		C89.8,50.8,89.5,50.8,89.3,50.8z M89.8,50.5c-0.3,0-0.3-0.1,0.2-0.1C90.5,50.5,90.4,50.6,89.8,50.5z M105,37.7c0.1,0,0.2,0,0.3,0
		C105.2,37.7,105.1,37.7,105,37.7z M101,42.1c0.2,0,0.3,0,0.3,0C101.3,42.1,101.2,42.1,101,42.1z M116,31c0,0-0.2,0-0.3,0
		C115.8,31,115.9,31,116,31z M101.9,41.7c-0.1,0-0.2,0.1-0.2,0.1C101.7,41.7,101.8,41.7,101.9,41.7z M101.7,42
		c0.3-0.1,0.9-0.3,1.2,0C102.3,42,102.2,41.9,101.7,42z M96.5,46C96.5,46,96.5,46.1,96.5,46C96.4,46.1,96.5,46.1,96.5,46z"/>
	<path class="st0" d="M95.6,45.3c0.8,0.1-0.5,0-0.5,0.3c0.5,0.3,1.2-0.3,1.6-0.2C96.5,45.5,95.9,44.7,95.6,45.3z"/>
	<path class="st0" d="M115.5,29.7c-0.1-0.1-0.7-0.2-0.7-0.2C115.1,29.6,116.2,30.3,115.5,29.7z"/>
	<path class="st0" d="M89.1,49.5c0.2,0.3-0.2-0.5-0.6,0C88.4,49.5,89.2,49.7,89.1,49.5z"/>
	<path class="st0" d="M89.2,54.6c0,0,0.5,0.4,0.4,0C89.5,54.2,88.9,54.2,89.2,54.6z"/>
	<path class="st0" d="M105.3,34c-0.2-0.1-0.9,0.2-0.8,0.5C104.5,34.6,105.4,34.4,105.3,34z"/>
	<path class="st0" d="M90.9,48.3c-0.1,0-0.4-0.2-0.5-0.1c0,0.1,0,0.2,0,0.4C90.6,48.4,90.7,48.4,90.9,48.3z"/>
	<path class="st0" d="M94.3,45.8c-0.1,0.1,0.6,0,0.5,0C95.2,45.3,93.7,45.8,94.3,45.8z"/>
	<path class="st0" d="M120.5,29.5c0.4,0,0.1,0,0.2-0.2c0-0.1-1-0.1-1,0C120,29.4,120.2,29.5,120.5,29.5z"/>
	<path class="st0" d="M103.9,34.8c-0.2,0.1,0.1-0.4-0.2-0.3c0,0-0.4,0.6-0.5,0.6C103.4,35.2,103.9,34.8,103.9,34.8z"/>
	<path class="st0" d="M122.7,28.7c0.1-0.1-0.9-0.5-0.9-0.2c0.1,0.1,0.1,0.2,0,0.2C122.1,28.9,122.4,28.9,122.7,28.7z"/>
	<path class="st0" d="M89.8,54c0,0-0.5,0.2-0.5,0.2C89.2,54.9,90.3,53.9,89.8,54z"/>
	<path class="st0" d="M125.1,27.7c-0.8,0.2,1.2,0.2,1.1,0c-0.2,0-0.3,0-0.5,0.1c-0.1,0,0.2-0.3,0.2-0.2c0,0.2-0.8-0.8-0.5,0.1
		c-0.3-0.2-0.5,0-0.7-0.1C124.6,27.8,124.8,27.9,125.1,27.7z"/>
	<path class="st0" d="M95.6,46.2c0-0.1-0.4-0.2-0.4-0.2c0,0.1,0,0.1-0.2,0C95,46.1,95.5,46.5,95.6,46.2z"/>
	<path class="st0" d="M107.5,33.6c-0.1,0-1.2,0.1-1.4,0.2c0.1,0.1-0.2,0.5-0.3,0.5C106.2,34.4,107.3,33.7,107.5,33.6z"/>
	<path class="st0" d="M65.8,28c0.5-0.3,1.2,0,1.5-0.5c0,0-2,0.3-2.1,0.6C65.4,28.2,65.6,28.2,65.8,28z"/>
	<path class="st0" d="M66.1,48.4c-0.6,0.1,0.7,0.9,0.3,0.3c0.1,0.1,0.2,0.2,0.2,0.3c0-0.2,0.1-0.2,0.2-0.2c-0.3-0.1-0.3-0.2-0.1-0.2
		C66.7,48.7,66,48.4,66.1,48.4z"/>
	<path class="st0" d="M66.2,49.6c0.2,0.3,0.4,0.3,0.3,0C65.8,48.9,66.1,49.6,66.2,49.6z"/>
	<path class="st0" d="M66.3,50.7c0.1-0.1-0.2-0.5-0.4-0.5C66,50.1,65.5,50.5,66.3,50.7z"/>
	<path class="st0" d="M67.1,48.6c-0.2-0.5-0.5-0.1-0.3,0.2C66.9,48.7,67.1,48.6,67.1,48.6z"/>
	<path class="st0" d="M65.9,49c0.2,0.1,0.3,0.2,0.5,0.4c0.2-0.2-0.8-1-0.9-0.8C65.5,48.8,65.9,48.9,65.9,49z"/>
	<path class="st0" d="M65.3,49c-0.4,0,0.3,0.1,0.3,0.1c0-0.1,0-0.1,0.2-0.1C65.7,48.7,64.8,48.8,65.3,49z"/>
	<path class="st0" d="M98.3,66.7c1.1,0.5,1.9-0.3,1-0.9c0.1-0.1,0.6-0.1,0.2-0.4c-0.1-0.1-0.1,0.7-0.4,0.4c0,0,0.1-0.3,0.2-0.2
		c-0.5-0.3-1.2,0-1.7,0.1C97.5,65.7,98.4,66.7,98.3,66.7z"/>
	<path class="st0" d="M107.9,66.3c-0.3-0.2-0.1,1.2,0.6,0.7C108.9,66.6,108,66.3,107.9,66.3z"/>
	<path class="st0" d="M98.3,67.3c0.5-0.2-0.9-0.7-0.8-0.5C98,67.2,97.7,66.9,98.3,67.3C97.5,67.3,98.3,67.3,98.3,67.3z"/>
	<path class="st0" d="M99.4,65c0.2-0.2,0.1-0.5-0.1-0.6C99.4,64.4,99.2,65.1,99.4,65z"/>
	<path class="st0" d="M103.4,65.1c0-0.8-0.7-1.5-1.5-0.6c0.3-0.4,0.5,1,0.3,0.7c0.1-0.1,0-0.1-0.2,0c-0.1-0.2,0.5-0.3,0.1-0.7
		c0,0-0.3,0.7-0.4,0.7c0-0.1-0.1-0.2-0.3-0.2c0.3-0.2,0.2,0-0.1-0.1c0.1-0.1,0.3-0.3,0.3-0.4c0,0-1.4,0-1-0.1c0.2,0,0.3,0.1,0.5,0.2
		c0.2,0.5-1.1,0.4-1.3,0.4c0.2,0.1,0.6,0.1,0.1,0.2c0.1,0.1,0.8,0.9,0.4,0.9c0,0,1.3,0.4,1.4,0.5c0.1,0.1-0.1,0.2-0.4,0.2
		c0.2,0,0.4,0.1,0.5,0.3c0,0.2-0.5,0-0.1,0.5c-0.2-0.2-1.7-0.6-1.7,0c0,0.3,2,0.7,1.7,0.1c0,0,0.2,0.5,0.3,0.5c0,0,0.3-0.8,0.3-0.8
		c0.1,0-0.5-0.1-0.5-0.2c-0.1,0.6,0.8-1.1,0.3-0.6c0.1-0.1,1-0.2,0.8-0.4c-0.2-0.1-0.3-0.2-0.5-0.3
		C102.4,65.4,103.4,65.5,103.4,65.1z"/>
	<path class="st0" d="M100.3,61.1C100.5,60.5,100.2,61.6,100.3,61.1z"/>
	<path class="st0" d="M95.2,62.5c-0.2,0.5,0.8-0.5,0.8-0.6C95.8,62.1,95.3,62.2,95.2,62.5z"/>
	<path class="st0" d="M102.7,67c-0.4-0.1,0.6,0.3,0.7,0C103.5,66.7,102.5,67,102.7,67z"/>
	<path class="st0" d="M99.8,67.5c-0.3,0.9,0.4-1.1,0.2-0.9C99.6,67.2,99.7,67.6,99.8,67.5z"/>
	<path class="st0" d="M116,59.7c0.1-0.4-0.9-0.3-1.3,0.3c-0.2,0.3-0.4,1.9,0,1.5c-0.1,0.1-0.2,0.3-0.3,0.5c0.1,0,1.5-1.1,1.5-1.3
		C115.9,60.1,115.8,60.3,116,59.7z"/>
	<path class="st0" d="M111.1,63.8c0.3-0.2,1.4-2.8,1.2-2.9C112.2,61.8,111.2,62.7,111.1,63.8z"/>
	<path class="st0" d="M101.8,58.6c-0.2-0.2-0.6,0.2-0.8,0.3c0.3,0.3,0.4,0.1,0.5,0.2C101.8,59,101.9,58.9,101.8,58.6z"/>
	<path class="st0" d="M101.5,59.3c0.7-0.1-0.4-0.4-0.2-0.1C101.3,59.3,101.2,59.4,101.5,59.3z"/>
	<path class="st0" d="M120.6,53.7C120.3,53.8,121.1,53.6,120.6,53.7z"/>
	<path class="st0" d="M117.5,53.4c0-0.1,0.2,0.3,0.4,0.3c0-0.1,0.1-0.2,0.2-0.2c-0.1-0.1-0.6-0.4-0.8-0.4c-0.1,0,0.2,0.5-0.1,0.5
		c0-0.1-0.1-0.2-0.2-0.3c0.1,0.1,0,0.1-0.1,0.1c-0.3,0,0.7,0.7,0.6,0.6C117.6,54.1,117.6,53.4,117.5,53.4z"/>
	<path class="st0" d="M122.4,53.3c-0.1,0-0.2,0-0.2-0.1C121.9,53.4,122.3,53.5,122.4,53.3z"/>
	<path class="st0" d="M121.3,53.7C121,53.6,120.7,54,121.3,53.7z"/>
	<path class="st0" d="M118.1,53.9c0.1-0.1,0-0.1-0.1-0.2C118,53.8,118,54.1,118.1,53.9z"/>
	<path class="st0" d="M121.6,53.6C121,53.7,121.8,53.9,121.6,53.6z"/>
	<path class="st0" d="M117,53.6C116.9,53,117,54.1,117,53.6z"/>
	<path class="st0" d="M117.7,54C118.3,54.3,117.8,54.1,117.7,54z"/>
	<path class="st0" d="M121.6,53.4C121.6,53.6,121.9,52.9,121.6,53.4z"/>
	<path class="st0" d="M107.6,93.7c0.1,0.3,0.2,0.6,0.4,0.9c0.3-0.2-0.5-1.5-0.5-1.4C107.4,93.7,108.1,93.5,107.6,93.7z"/>
	<path class="st0" d="M109,95c0.1,0,0.5,0.5,0.5,0.5c-0.1-0.1-0.1-0.1,0.1,0c0-0.1,0.1-0.1,0.1-0.1c0-0.1-0.7-0.6-0.7-0.6
		c0.1,0,0.2,0.1,0.3,0.1c-0.1-0.1-0.7-0.5-0.8-0.6C108.7,94.5,108.8,94.8,109,95z"/>
	<path class="st0" d="M114,99.1c-0.4-0.1-0.8-0.2-1.2-0.2c0.1,0,0.2,0.1,0.2,0.2C113.3,99.2,113.7,99.2,114,99.1z"/>
	<path class="st0" d="M113.2,99.6c0,0.1,0.1,0.1,0.2,0.1C113.6,99.6,113.3,99.5,113.2,99.6z"/>
	<path class="st0" d="M112.9,98.2c1.1-0.3-0.6-0.2-0.6-0.2C112.5,98.2,112.7,98.2,112.9,98.2z"/>
	<path class="st0" d="M114.5,99.6c0.2,0.1,0.5,0.1,0.8,0.2C115.2,99.7,114.1,99.3,114.5,99.6z"/>
	<path class="st0" d="M111.8,98.8C111.7,98.5,111.3,99.2,111.8,98.8z"/>
	<path class="st0" d="M109.2,96.1c-0.1-0.2-0.3-0.3-0.4-0.4c0.1,0.1,0,0.1-0.1,0c0,0,1.1,0.9,0.8,0.8
		C109.6,96.3,109.5,96.5,109.2,96.1z"/>
	<path class="st0" d="M108.5,93.7c0.3-0.1-0.2-0.7-0.3-0.8c0,0-0.1,0-0.1,0C108.2,93.4,107.8,93.4,108.5,93.7z"/>
	<path class="st0" d="M113,98.6c0.3,0,0.7,0,1,0c-0.5-0.4-1.5-0.2-1.8-0.2C112.5,98.5,112.7,98.5,113,98.6z"/>
	<path class="st0" d="M132.9,116.1C133.4,116.8,132.6,115.6,132.9,116.1z"/>
	<path class="st0" d="M133.5,115.2c0.1-0.2,0-0.3-0.1-0.5C132.6,114.5,133.4,116.2,133.5,115.2z"/>
	<path class="st0" d="M132.7,105.8c0,0,0.4,0.4,0.5,0.1C133.3,105.7,132.8,105.7,132.7,105.8z"/>
	<path class="st0" d="M132.5,113.5C131.4,113.3,133.2,113.7,132.5,113.5z"/>
	<path class="st0" d="M129,109.6C129.4,109.5,128.2,109.2,129,109.6z"/>
	<path class="st0" d="M135.2,109.2c-0.6-0.7-1.4,0.2-1.3,0.2c0.2,0.1,0.8,0,0.8-0.1c-0.1,0.1-0.2,0.2-0.4,0.3c0,0.2,0.8,0.3,1,0.3
		c0-0.1-0.1-0.2-0.1-0.3c0.1-0.1,0.2-0.1,0.2,0.2C135.6,109.6,135.5,109.4,135.2,109.2z"/>
	<path class="st0" d="M128.5,112.6c0.1,0,0,0.4,0.2,0.2C129,112.6,128.7,112.6,128.5,112.6z"/>
	<path class="st0" d="M132.7,115.4c0.1-0.1,0.2-0.3,0.2-0.5c-0.1,0.1-0.1,0.1-0.1,0C132.5,115,132.4,115.2,132.7,115.4z"/>
	<path class="st0" d="M131.4,115.2c0,0,0.1,0.3,0.2,0.4C131.7,115.4,131.6,115.1,131.4,115.2z"/>
	<path class="st0" d="M133.3,117.1c0.1-0.2,0-0.4-0.2-0.4C133.2,116.9,133.2,117.1,133.3,117.1z"/>
	<path class="st0" d="M134.4,113.9c-0.7,0.3,1.1-0.5,0.8-0.5C135,113.4,134.2,113.6,134.4,113.9z"/>
	<path class="st0" d="M132,113.9C131.3,114.6,132,113.8,132,113.9z"/>
	<path class="st0" d="M131,110.2c-0.5-0.3-0.3,0.1-0.1,0.3C131,110.3,131.7,110.6,131,110.2z"/>
	<path class="st0" d="M132.2,107.1c-0.4-0.1-0.3,0.1-0.3,0.4c-0.1,0,0.5,0,0.4,0.1c-0.1-0.1-0.1-0.2,0-0.2c0,0.2,0,0.3,0.3,0.3
		c0-0.2,0-0.5,0.2-0.7C132.6,107.2,132.4,107.2,132.2,107.1z"/>
	<path class="st0" d="M120.5,108.4c-0.1-0.2-0.1-0.8-0.1-0.8c-0.2,0-0.3,0-0.5,0.1c-0.3,0.1,1,1.1,1,1.1
		C120.8,108.6,120.7,108.5,120.5,108.4z"/>
	<path class="st0" d="M122.3,110.3C122.3,110.3,122.3,110.2,122.3,110.3C122.2,110.2,122.2,110.2,122.3,110.3z"/>
	<path class="st0" d="M122,111c0,0,0.8-0.5,0.3-0.8C122,110.4,121.9,110.7,122,111z"/>
	<path class="st0" d="M134.5,111.1c0.1,0-0.8-0.3-0.6,0c0.2,0.4,0,0.9,0.4,1C134.4,111.9,134.5,111.1,134.5,111.1z"/>
	<path class="st0" d="M122.5,112.4c0.2,0-0.7-1.1-0.6-1.1c-0.1,0-0.5,0.9-0.3,0.9c0.1-0.1,0.1-0.2,0.1-0.3
		C121.6,112,122.3,112.5,122.5,112.4z"/>
	<path class="st0" d="M130,111.7c0.1,0.3,0.5,0.8,0.9,1c1.1-0.8-3.9-3.6-3.9-2.4C127.1,110.2,129.9,111.5,130,111.7z"/>
	<path class="st0" d="M136.8,113.2c-0.2,0-1.1-0.3-1.1,0.1C135.7,113.8,136.9,113.1,136.8,113.2z"/>
	<path class="st0" d="M139.6,116.8c-0.5,0.4-1.5,0.5-1,1.4C138.9,118.8,139.8,116.7,139.6,116.8z"/>
	<path class="st0" d="M131.7,112.7c-0.2-0.3,0,0.5,0.3,0.7C132.1,113,131.9,113,131.7,112.7z"/>
	<path class="st0" d="M135.5,119.9c-0.2,0-1.1,0.7-1.3,0.5c-0.1-0.1,0-0.5,0-0.5c-0.1,0.2-3.9-0.2-3.9-0.5c0,0.1,0.6-0.3,0.1-0.3
		c-0.1,0-1.2,0.4-0.9-0.2c-0.1,0.1-0.2,0.9-0.3,0.1C128.6,120.5,135.1,122,135.5,119.9z"/>
	<path class="st0" d="M128.6,113.2C128.3,113.2,129.2,113.1,128.6,113.2z"/>
	<path class="st0" d="M130.8,114.2C131,114.9,130.7,113.7,130.8,114.2z"/>
	<path class="st0" d="M122.8,113.1c-0.2,0-0.3-0.1-0.4-0.3c-0.6,0,0.6,0.8,0.4,0.8C123,113.4,123.1,113.3,122.8,113.1z"/>
	<path class="st0" d="M130.7,113.4c-0.2-0.1-0.2,0.3-0.2,0.4C130.7,113.8,130.9,113.5,130.7,113.4z"/>
	<path class="st0" d="M137.5,118.6c0,0.2-0.2,0.7-0.1,1.1C137.6,119.5,137.5,118.9,137.5,118.6z"/>
	<path class="st0" d="M131.3,116.1c0-0.2-0.6-0.1-0.5,0.1C131,116.3,131.1,116.2,131.3,116.1z"/>
	<path class="st0" d="M130.8,104.9c-0.2,0.1-0.3,0.3-0.2,0.5c0.1,0.1,0.3,0.1,0.4,0.1C131.2,105.2,131.1,105,130.8,104.9z"/>
	<path class="st0" d="M127.6,117.3c0,0.9,0.4,0.1,0.4,0.1C127.8,117.5,127.6,116.6,127.6,117.3z"/>
	<path class="st0" d="M136.7,115.5C136.9,114.8,136.3,115.5,136.7,115.5z"/>
	<path class="st0" d="M133.2,114.1C133.2,113.9,133.2,114.3,133.2,114.1z"/>
	<path class="st0" d="M137,115.7c-0.3,0.1-0.4,0.2-0.3,0.5c-0.2-0.3,0.9-0.3,0.8-0.5C137.4,115.5,137.2,115.6,137,115.7z"/>
	<path class="st0" d="M138.8,116.3C138.4,116.2,138.9,116.3,138.8,116.3z"/>
	<path class="st0" d="M124.1,111.7C124.1,111.8,123.9,111.5,124.1,111.7z"/>
	<path class="st0" d="M122.5,57c0.6,0.4,0.7,0.3,1.2,0.1c0.6-0.2-2.3-0.7-1.9-0.2C122,57,122.2,57,122.5,57z"/>
	<path class="st0" d="M125.8,58.9c-0.1-0.1-0.2,0-0.1,0.1C125.8,59,125.9,59,125.8,58.9z"/>
	<path class="st0" d="M124,56.8C124.9,56.8,123.5,56.8,124,56.8z"/>
	<path class="st0" d="M123.9,57.8c-0.8-0.4-1.9,0.1-2.5,0.1c-0.1-0.2,0.6,1.2,0.8,1c-0.1,0.2-0.4,0.2-0.3,0.5
		c-0.2-0.8,2.4-0.8,2.5-1.3C124.3,58,124.1,57.9,123.9,57.8z"/>
	<path class="st0" d="M124.5,57.8c-0.1-0.3-0.3-0.4-0.6-0.2C123.8,57.7,124.5,58.1,124.5,57.8z"/>
	<path class="st0" d="M120.7,108C120.7,108,120.6,108,120.7,108L120.7,108z"/>
	<path class="st0" d="M145,71.3c-0.1-1-1.3-1.1-2.1-1.3c0.3-0.6-2-2.4-2.4-2.6c1-2.5-1.4-2.3-3.1-2.5c0.7,0.1-1.9-0.9-1.6-0.7
		c-1-0.6-0.5-0.3-1.2-1.2c-0.6-0.7-0.5-1-0.9-1.6c0.3,0.5-0.5-1.2-0.4-0.7c0-0.1-0.5-0.4-0.5-0.5c-0.1-0.3,0.7-0.4,0.7-0.6
		c0-0.3-0.8-0.7-0.8-1c0-0.8,0.1-1.2,0.2-1.8c0,0.2,0.5-1.1,0.6-0.8c-0.4-1.2-4-0.3-5.2-1c-0.4-0.2-4.4,1.2-3.7,1.5
		c-0.1,0-0.2,0.6-0.2,0.7c0.3,0,0.6,0,0.9,0c-2.2-0.5,1.5,1.6,1,1.1c-0.1-0.1,0.7,2.2,0.4,2.6c-1.5,2.5-2.6-0.9-3.8-1.1
		c-2.2-0.3-2.2,2.4-2.6,3.5c-0.1-0.1-0.1-0.2-0.1-0.3c-0.1,0,0.6,3.2,0.7,3.1c-1.3,0,0.4-0.6-0.4-1.1c0.5,2.5-0.1,0.4-0.3,1.1
		c0,0,2.2,0.7,2.2,0.7c0.2,0,2,0.2,1.8,0.5c0,0.5-0.8,0-0.2,1.1c-2,0.2-4-0.2-5.9-0.2c-0.3,0-0.5,0.3-0.7,0.3c-0.3,0-2.5-0.8-2.1-1
		c0.2-0.1,0.9,0.4,0.9,0.4c0.6-1.5-6.1,0.9-5.6,0.9c0,0-4.8,1.3-4.6,0.4c-0.2-0.3-3-1.1-2.9-0.5c-0.1-0.5,1-0.2,1.1-0.4
		c0.1-0.2-2,0.2-1.6,0.9c-0.1-0.1-1.1-0.4-1.2,0.1c0.1-0.1,0.1-0.1,0.2-0.1c-0.1,0.5-1.7,0.4-1.8,0.2c0,0.1,1-0.9,0.7-1
		c-0.6,0-1.5,0-2,0.2c0-0.3-0.5-0.6-0.6-0.4c0.6-1,0-0.4-0.7-1c0.1-0.1,0.5-0.2,0.5,0c0-0.1-0.2-0.8-0.6-0.5c0.2-0.1,0.2-0.1,0-0.2
		c0.5-0.1,0.6-0.8,0.1-0.9c0.3-0.1,0.4-0.2,0.7-0.3c-0.3-0.1-0.3-0.1-0.6-0.2c0.1,0,1.7,0,0.6-0.4c0.2-0.1,1.3-0.8,1.2-1.1
		c0.2,0.3-0.3,0-0.3,0.2c0-0.1,0.5,0.2,0.3,0.2c0.1,0,0.8-0.6,0.8-0.8c-0.2-0.7-1.3-0.1-1.5-0.2c0-0.2,0.2-0.4,0.3-0.4
		c0.2-0.3-1.2-0.1-1.1,0c0.3-0.1,0.7-0.2,1-0.2c-0.1,0,0.5-2.5,0.6-2.6c-0.5-0.2-4.9,2.1-4.8,2.6c0.3-0.2,0,0,0.6,0.3
		c0.1-0.4,0.3-0.1-0.3-0.3c0.9-0.5,2.1-1.6,3.5-0.8c-1.1-0.4-2.6,0.3-1.6,1.2c-0.1-0.1-0.7-0.3-0.6-0.1c0.1-0.1,0.1-0.2,0.2-0.4
		c-0.2-0.9-1,0.7-0.9,0.6c-0.3,0.1-1.1-0.5-1-0.6c-0.3,0.1-0.3,1.8-0.2,1.8c-0.5-0.2,1.2-0.1,0.4,0.4c-0.3,0.1-0.4,0-0.4-0.3
		c0,0.7-0.2,1,0.3,1.3c-0.2-0.1-0.2-0.2,0-0.3c0.7,0.2,1.1,2,0.1,1.8c-0.2-0.1,0-0.4,0.1-0.4c-0.3,0.2-0.4,0.4-0.3,0.8
		c0.2-1.1,1.2,0.3,1.4,0.6c0.1,0.2-0.8,0.3-0.8,0.4c0.2,0,0.2,0.1,0,0.1c0.2,0.2,0.4,0.2,0.7,0c0,0.1-0.2,0.9-0.2,0.8
		c0.1,0.5,1.6,0.9,2,1.2c-1.3-1.3-2.3-1.1-2.7,0.2c0.1-0.3,0-0.4-0.4-0.4c-0.3-0.1-0.1,0.5-0.1,0.5c-0.1,0.1-0.4,0-0.5-0.1
		c-0.2-0.4-0.3-0.8-1.5-0.5c-1.2,0.3-0.1,0.7,0,0.9c-2.2-1.6-6.3,1.3-7,3.5c-0.1,0.8,1.3,0.6,1.6,0.5c-0.2,0.1,0,0.2,0.1,0.2
		c0,0-1.4,0.1-1.5,0.2c0.2-0.3,0,0.5-0.2,0.2c0.3,0,0.4,0.1,0.5,0.3c0.1-0.1-1.9-0.5-1.7-0.1c0.2,0.3,1.2,0.3,1.5,0.3
		c-0.2,0.2-2.2,0.3-2.7,0.5c-0.6,0.1-2.3,0.5-2.5,0.8c-0.4,0.5,0,1.8-0.2,1.9c-0.7,0.9-2.8,0.6-3.4,1.7c0.2,0.3,0.4,0.4,0.8,0.2
		c-0.6,0.7-2.7,0.5-3.4,0.3c-0.4-0.1-0.1-0.7-0.3-0.8c0,0-1.3-0.1-1.4,0c-0.3,0.2,0.7,1.2,0.7,1.3c-0.3-0.1,0.1,0.6,0.1,0.5
		c-0.6-0.2,0.3,1.1,0.3,1c-1.5-0.3-0.8,0.1-1.3,0.3c0-0.3-1.3-0.7-1.5,0c-0.5-0.3-0.8-1-0.8-1c-0.2,0-1.6,0.2-1.7,0.6
		c-1.1-0.3-2.7,1.1-1,0.6c-0.4,0.4-0.2,0.2,0.2,0.3c-0.2,0.1-0.3,0.1-0.2,0c0,0-0.9-0.2-0.7,0.1c0.1,0,0.2,0.1,0.1,0.2
		c0.2,0,0.4-0.3,0.6,0c0.1,0.2-0.9,0.1-0.9,0.3c1,0.4,0.4,0.1,0.7,0.6c-0.2-0.3,2.1,0.2,2.3,0.1c-0.2,0.3,0,0.2-0.2,0.2
		c0.2,0.2,0.3,0.1,0.4-0.1c0.1-0.1-0.1,0.8,0.1,0.7c-0.3-0.3,0.8-0.5,0.9-0.4c0.2,0.2-0.4,0.2-0.4,0.3c0.1,0.1,1,0.1,1.1,0.1
		c-0.4,0.1-0.2,0.6-0.4,0.5c0.2,0.2,1.4,0.2,1.7,0.2c-0.7,0.2-0.5-0.5-1.1,0.2c0.9,0.4,0.6,1.8,2.2,2.2c0,0,0,1.4,0.2,1.6
		c-0.2-0.2-0.4-0.2-0.5,0c0,0,1.4,1.6,1.5,1.9c-0.2-0.1-0.3,0-0.1,0.3c-0.3-0.4-0.4-1.7-1.1-1.8c-0.2,0-0.6,2.2-0.5,2.5
		c0-0.2,0.1-0.3,0.3-0.3c0.4,0.4-1.5,3.5-1.8,3.7c-0.4,0.2-3.4-0.4-3.5-0.1c-0.1-0.5-0.3,0-0.8,0c0,0.3-3.5-0.4-4.1-0.5
		c-1.9-0.2-3.1,0.4-4.3-0.5c-0.3,0.6-0.4,0.2-0.4,0c-0.4,0.1-0.9,0.6-1.1,0.8c0.4,0.1,0.1,0.2,0.4,0.1c-0.2,0.1-3.2,0.4-2.6,1.4
		c0.3-0.5,0.3,0.4,0.4,0.4c0.1-0.1,0.3-0.2,0.5-0.2c-0.2,0.1-0.4,0.6-0.5,0.6c0.1,0,0.1,0.1,0.1,0.2c0,0,0.8-0.6,0.7-0.5
		c-0.1,0.3-0.5,0.8-0.5,0.6c0,0.2,0.7,0.2,0.6,0.1c-0.2,0.2-0.5,0.3-0.5,0.5c-0.1,0,0.8-0.2,0.6-0.3c-0.7,0.3-1,1.7-0.5,1.8
		c-0.1,0-0.2,2.5-0.2,2.9c-0.7,0.5,0.4-0.8,0.3-0.5c-0.4,1-1,2.4-1.5,3.6c-0.3,0.8-1.6,2.8,0.3,1.5c-0.1,0.5-0.2,0.7-0.2,0.9
		c0-0.1-0.3-0.2-0.3-0.2c0,0,0,0.7,0,0.7c0.1,0.2,1.1-0.4,1.1-0.4c-0.1,0.1,0,0.4,0.2,0.4c-1,0.1,0.2-0.1-0.6-0.2
		c0.8,1.2-0.9,3.1-0.4,4.1c0.5-0.4,4.6-0.3,4.5-0.8c0,0.2,0.1,0.2,0.2,0c-0.2,0.5,1.3,0.9,1.1,1.3c0-0.2,0.1-0.3,0.3-0.2
		c-0.3-0.1-0.7,0.9,0.1,1c-0.1,0.2-0.2,0.2-0.3,0c1.9,1.7,1.3,1.2,3.5,0.1c1.5-0.8,2.6-0.5,4.4-0.5c1.7-0.1,1.4-0.8,2.4-1.6
		c0.4-0.3,2.8-1.1,2.5-1.4c0.1,0.2,0.1,0.3-0.1,0.3c-0.8-0.7,2-2.5,2.1-2.7c0.2-0.7-0.9-1.5-0.5-2.8c0.1-0.5,1.7-2.7,2.2-2.7
		c-0.2,0-0.2,0.1-0.2,0.2c0.2-0.2,0.4-0.3,0.6-0.4c0.1-0.9,1.7-1.3,3.1-2c0.6-0.3,1.5-0.5,1.9-1.1c0.5-0.6-0.2-0.9,0.5-1.3
		c-0.4-0.4-0.6-0.6-0.5-1.5c0,0.1-0.1,0.2-0.2,0.2c-1-1.1,4.2-2,4.6-2c0.1,0.1,0.2,0.2,0.4,0.1c0,0-0.5,0.3-0.4,0.4
		c2.6,1.4,3.2,0.2,5.4-1.1c1.7-1,3.2-2.4,5.1-0.9c0.8,0.7,1,2.2,1.6,3.1c0.3,0.5,1.3,0.6,1.2,1.4c0-0.2,4,2.9,4.6,3.2
		c0,0,1.1,0.1,1,0c0.5,0.2,0.6,0.8,1,1c0.6,0.3,0.5,0.3,0.7,0.8c-0.4-1,2.2,1.3,1.4,0.9c0.3,0.2,1.7,0.7,1.8,0.8
		c0.6,0.6,1.1,2.9,1,3.5c0,0.1-1.1,1.1-1,1.5c0.3,1.6,1.5-0.1,2-0.6c0.2-0.2,0.3-1.1,0.5-1.4c0.3-0.4,0.8,0.4,1-0.4
		c0.3-1.3-1.4-1.4-1.4-2.5c0-1.1,1.5-1.4,1.6-1.5c-0.2,0-0.2,0-0.2,0.2c-0.1-0.3,2.3,1.3,1.9,1.3c1.3,0.1,1.1-0.3,0.3-1.4
		c-1.3-1.7-5.6-1.6-4.6-3.6c0-0.1-2.7-0.7-3.3-1c-1.5-0.9-1.5-2.7-2.6-3.8c-1.1-1.2-2.3-0.9-2.8-2.7c-0.2-0.6,0.2-1,0.3-0.8
		c0.3-0.3-0.7-1.3-0.6-1.3c0.4-0.3,0.6-0.4,0.9-0.6c-0.1,0.1-0.3,0.2-0.4,0.3c1.2-0.2,1.9-1.6,2.9-0.5c-1.2-0.2,0.3,2.1,0.3,2.3
		c0-0.1,0.2-0.4,0.3-0.7c0.2,0.3,0.4-1,1.2-0.5c0.9,0.5,1.4,2.3,2.3,2.9c-0.4-0.3-0.9-0.6-1.1-0.3c-0.8,0.8,3,2,3,2
		c0.2,0,2.4,1.8,2.5,1.7c0,0,0,0,0,0.1c-0.5-0.2-0.8-0.4-1.4-0.4c0.5,0.4,3.9,1.6,4,1.7c-0.1-0.1-0.4,0-0.5,0c0-0.1,2,1.6,2,1.5
		c0.3,0.6,0.3,1.8,0.3,2.5c0-0.4-0.2,1.8,0,1.6c-0.2,0-0.3-0.1-0.4-0.2c0.2-0.1,3.1,3.7,3.6,4c0,0-0.3-0.4,0-0.4c0,0,1,0.6,0.8,0.6
		c0,0-0.9-0.2-0.9-0.2c-0.4,0.4,1.3,1.2,0.8,1.7c0.5,0,0.3,0,0.5-0.4c-0.3,0.8,2.5,0.1,2.5,0.1c0,0,1.7,0.7,1.9,0.8
		c-0.1,0-0.1,0.1,0,0.2c-0.2,0.1-0.5,0.2-0.8,0.2c0.2,0,0.3,0.1,0.2,0.3c0.3-0.2-3.9-1.2-3.6-0.7c0,0.1-0.6,1-0.6,1
		c0,0.2,1.2,1.2,1.3,1.5c0.2,0.3,0.1,1.1,0.5,1.6c0.1,0.1,0.1-0.8,0.5-0.8c0.4,0,0.9,1.5,1,1.8c0.9-1.7-0.2-0.4,1.5-0.1
		c0,0-1.1-3.2-1-3.2c0.1-0.1,1.2,0.6,0.9,0.7c0.3,0.1,0.8-0.5,0.9-0.4c-0.1-0.1-0.4-0.4-0.4-0.4c0.1,0.1,0.1,0.1,0.1,0.2
		c-0.3,0-0.6-0.7-0.8-0.9c-0.1-0.1,1.1-0.4,1.3-0.4c-0.1,0,0.8,1,1,1c1,0.2-0.8-2-0.7-1.8c-0.3-0.3-1-0.8-1-0.7c0,0-1.8-0.7-1.8-0.7
		c0,0,1-0.2,1.2-0.5c-0.1,0-0.5-0.3-0.6-0.5c-0.3-1.1,1.6,0.8,0.6,0.4c1.1,0.5-1.2-2.9-1.2-3c0-0.1,0.2-1.6,0.6-1.2
		c-0.4-0.3,2.1,2.3,1.9,1.9c0-0.2-0.8-0.5-0.9-0.7c-0.4-0.7,1.4,0.7,1.5,0.6c0.3,0.2-0.9-1.4-0.7-0.9c-0.3-0.7,1.6,0.4,1.5,0.4
		c0,0-1.7-1.4-1.5-1.6c0.8-1.2,4-0.5,5.2-0.3c0,0-0.2,0.3,0,0.4c1.1,0.2,1.2-2.5,0.6-2.9c-0.3-0.2,3.8-1.1,3.6-0.6
		c0.1-0.4-1.4-1.4-1.4-1.3c0.2,0.3,1-2.2,1.1-2.3c0.4-0.6,0.8-0.4,1.2-1.3c0.2-0.4,0.2-1.7,0.4-2.3c-0.8,0.4,0,0-0.3-0.1
		c0,0,0.6-0.1,0.4,0c0.4-0.3-0.6-0.1-0.3-0.1c0.1,0,0.1-0.9,0.1-0.9c0.1-0.1,0.3,0,0.4,0c-0.1,0.3,0.2,0.5-0.1,0.7
		c1.5-0.8,1.8-1.4,0.1-2c-1-0.3-0.6,0.8-1.9-0.1c0.5-0.4,1.6-2.7,1.7-2.7c0,0.5,2.2,0.5,2.2,0.3c-0.3-1.2-2.5-3.9-2.9-4.3
		c-1.3-1.1-3.4-1.6-5-1.1c-1.4,0.5-2.5,1.4-4.1,1.4c-0.7,0-1.9-0.4-2.7-0.5c-0.7-0.1-2.3,0.1-2.7-1c-0.4-1.2,1-1.2,1.2-1.5
		c0.1-0.2-0.3-0.6-0.3-0.6c0.1-0.1-0.1-0.8-0.1-0.7c0.3-0.5,1.1-1.4,1.6-2c-0.3,0.4,0.9-0.7,0.7-0.4c0.8-1.2,0-2-0.7-3.3
		c0.6-0.6,2.8-0.8,3.8-0.7c0.9,0.1,1.6,0.2,2.6,0.4c1,0.2,1.9,0.4,2.4,0.5c0.6,0.1,1.1,0.3,1.6,0.3c0.2,0,0.5-0.1,0.5-0.1
		c0.2,0,0.9,0.4,1.1,0.4c0.6,0,2.4,0.3,2.7,0.1c-0.1,0.1,0-1.4,0.4-1.8c0.4-0.4,1.1-0.3,1.8-0.3c-0.1-0.4-1.2-2.7-1.2-2.8
		C142.4,71.7,145.2,72.4,145,71.3z M113.5,85.3C113.2,85.1,113.7,85.2,113.5,85.3z M86.3,76.6C86.3,76.5,86.1,76.7,86.3,76.6z
		 M117.5,68.6c0.2-0.1,0.3-0.1,0.5-0.1c-0.3,0.1-0.5,0.2-0.7,0.4C117.2,68.6,116.7,68.9,117.5,68.6z M107.2,69.9
		c-0.1-0.2,0.4,0.1,0.4,0.1c-0.1,0.3,0,0.4,0,0.7C106.7,70,107.2,70.4,107.2,69.9z M105.9,69.5c0,0.1,0.7,0,0.5,0.2
		c-0.1,0.1-0.2,0.1-0.2-0.1c-0.1,0.1-0.1,0.2-0.1,0.3c0.2-0.1,0.7-0.1,0.7,0.3C106.2,70.5,106,69.4,105.9,69.5z M95.1,71.1
		c0,0.1,0,0.1,0,0.2C95.1,71.2,95.1,71.2,95.1,71.1z M88,73.7c-0.4-0.4,0.4-0.6,0.4-0.7c0,0.2-0.6-0.6-0.5-0.6
		c1.1-0.6,0.3,0.4,1.4,0.2c-0.9,0.1,0.3,0.8,0.3,0.7c-0.2,0,0,0.1,0,0.2c0.3-0.8-1.7,0.3-1.4,0.4c0.5,0.2,0.9,0.1,1.3-0.3
		C88.7,74.4,88.2,73.8,88,73.7z M86.6,97.8C86.1,96.7,86.8,98.1,86.6,97.8z M115.1,99.3C115.2,99.3,115.3,99.4,115.1,99.3z"/>
</g>
</svg>
