<?xml version="1.0" standalone="no"?>
<!DOCTYPE svg PUBLIC "-//W3C//DTD SVG 1.1//EN" "http://www.w3.org/Graphics/SVG/1.1/DTD/svg11.dtd" >
<svg xmlns="http://www.w3.org/2000/svg">
<metadata>Generated by IcoMoon</metadata>
<defs>
<font id="linearicons" horiz-adv-x="512">
<font-face units-per-em="512" ascent="480" descent="-32" />
<missing-glyph horiz-adv-x="512" />
<glyph unicode="&#x20;" horiz-adv-x="256" d="" />
<glyph unicode="&#xe600;" glyph-name="home" d="M508.691 174.987l-226.025 249.817c-7.026 7.767-16.496 12.043-26.666 12.043-0.001 0 0 0 0 0-10.169 0-19.641-4.277-26.667-12.043l-226.025-249.817c-4.742-5.243-4.338-13.337 0.904-18.079 2.45-2.216 5.521-3.308 8.584-3.308 3.491 0 6.969 1.419 9.496 4.213l54.508 60.245v-205.259c0-21.173 17.227-38.4 38.4-38.4h281.6c21.173 0 38.4 17.226 38.4 38.4v205.259l54.509-60.246c4.743-5.241 12.837-5.648 18.079-0.904 5.242 4.743 5.647 12.837 0.903 18.079zM307.2 0h-102.4v115.2c0 7.058 5.743 12.8 12.8 12.8h76.8c7.058 0 12.8-5.743 12.8-12.8v-115.2zM409.6 12.8c0-7.058-5.743-12.8-12.8-12.8h-64v115.2c0 21.175-17.226 38.4-38.4 38.4h-76.8c-21.173 0-38.4-17.226-38.4-38.4v-115.2h-64c-7.058 0-12.8 5.743-12.8 12.8v233.553l145.916 161.276c2.111 2.333 4.84 3.618 7.684 3.618s5.573-1.285 7.683-3.617l145.917-161.276v-233.554z" />
<glyph unicode="&#xe601;" glyph-name="home2" d="M12.796 179.2c-3.063 0-6.135 1.092-8.583 3.309-5.242 4.743-5.647 12.837-0.904 18.079l226.024 249.816c7.026 7.765 16.498 12.043 26.667 12.043 0 0 0 0 0 0 10.169 0 19.64-4.277 26.666-12.043l226.025-249.817c4.743-5.243 4.338-13.337-0.904-18.079-5.243-4.744-13.337-4.339-18.079 0.904l-226.025 249.817c-2.111 2.334-4.84 3.618-7.683 3.618s-5.573-1.285-7.684-3.618l-226.024-249.816c-2.526-2.793-6.005-4.213-9.496-4.213zM396.8-25.6h-281.6c-21.174 0-38.4 17.226-38.4 38.4v204.8c0 7.070 5.731 12.8 12.8 12.8s12.8-5.731 12.8-12.8v-204.8c0-7.058 5.743-12.8 12.8-12.8h281.6c7.058 0 12.8 5.743 12.8 12.8v204.8c0 7.070 5.731 12.8 12.8 12.8s12.8-5.731 12.8-12.8v-204.8c0-21.173-17.226-38.4-38.4-38.4z" />
<glyph unicode="&#xe602;" glyph-name="home3" d="M12.796 179.2c-3.063 0-6.135 1.092-8.583 3.309-5.242 4.743-5.647 12.837-0.904 18.079l226.024 249.816c7.026 7.765 16.498 12.043 26.667 12.043 0 0 0 0 0 0 10.169 0 19.64-4.277 26.666-12.043l226.025-249.817c4.743-5.243 4.338-13.337-0.904-18.079-5.243-4.744-13.337-4.339-18.079 0.904l-226.025 249.817c-2.111 2.334-4.84 3.618-7.683 3.618s-5.573-1.285-7.684-3.618l-226.024-249.816c-2.526-2.793-6.005-4.213-9.496-4.213zM396.8-25.6h-102.4c-7.070 0-12.8 5.731-12.8 12.8v89.6h-51.2v-89.6c0-7.070-5.731-12.8-12.8-12.8h-102.4c-21.174 0-38.4 17.226-38.4 38.4v204.8c0 7.070 5.731 12.8 12.8 12.8s12.8-5.731 12.8-12.8v-204.8c0-7.058 5.743-12.8 12.8-12.8h89.6v89.6c0 7.070 5.731 12.8 12.8 12.8h76.8c7.070 0 12.8-5.731 12.8-12.8v-89.6h89.6c7.058 0 12.8 5.743 12.8 12.8v204.8c0 7.070 5.731 12.8 12.8 12.8s12.8-5.731 12.8-12.8v-204.8c0-21.173-17.226-38.4-38.4-38.4z" />
<glyph unicode="&#xe603;" glyph-name="home4" d="M12.796 179.2c-3.063 0-6.135 1.092-8.583 3.309-5.242 4.743-5.647 12.837-0.904 18.079l226.024 249.816c7.026 7.765 16.498 12.043 26.667 12.043 0 0 0 0 0 0 10.169 0 19.64-4.277 26.666-12.043l75.901-83.891-0.167 30.216c-0.019 3.407 1.322 6.681 3.724 9.097s5.669 3.774 9.076 3.774h51.2c7.070 0 12.8-5.731 12.8-12.8v-114.985l73.491-81.228c4.743-5.243 4.338-13.337-0.904-18.079-5.243-4.744-13.337-4.339-18.079 0.904l-76.8 84.883c-2.13 2.353-3.309 5.414-3.309 8.588v107.117h-25.529l0.281-50.845c0.029-5.306-3.219-10.081-8.166-12.002-4.947-1.92-10.567-0.591-14.125 3.344l-98.377 108.733c-2.111 2.334-4.84 3.618-7.683 3.618s-5.573-1.285-7.684-3.618l-226.024-249.816c-2.526-2.793-6.005-4.213-9.496-4.213zM396.8-25.6h-102.4c-7.070 0-12.8 5.731-12.8 12.8v89.6h-51.2v-89.6c0-7.070-5.731-12.8-12.8-12.8h-102.4c-21.174 0-38.4 17.226-38.4 38.4v204.8c0 7.070 5.731 12.8 12.8 12.8s12.8-5.731 12.8-12.8v-204.8c0-7.058 5.743-12.8 12.8-12.8h89.6v89.6c0 7.070 5.731 12.8 12.8 12.8h76.8c7.070 0 12.8-5.731 12.8-12.8v-89.6h89.6c7.058 0 12.8 5.743 12.8 12.8v204.8c0 7.070 5.731 12.8 12.8 12.8s12.8-5.731 12.8-12.8v-204.8c0-21.173-17.226-38.4-38.4-38.4z" />
<glyph unicode="&#xe604;" glyph-name="home5" d="M12.796 179.2c-3.063 0-6.135 1.092-8.583 3.309-5.242 4.743-5.647 12.837-0.904 18.079l226.024 249.816c7.026 7.765 16.498 12.043 26.667 12.043 0 0 0 0 0 0 10.169 0 19.64-4.277 26.666-12.043l75.901-83.891-0.167 30.216c-0.019 3.407 1.322 6.681 3.724 9.097s5.669 3.774 9.076 3.774h51.2c7.070 0 12.8-5.731 12.8-12.8v-114.985l73.491-81.228c4.743-5.243 4.338-13.337-0.904-18.079-5.243-4.744-13.337-4.339-18.079 0.904l-76.8 84.883c-2.13 2.353-3.309 5.414-3.309 8.588v107.117h-25.529l0.281-50.845c0.029-5.306-3.219-10.081-8.166-12.002-4.947-1.92-10.567-0.591-14.125 3.344l-98.377 108.733c-2.111 2.334-4.84 3.618-7.683 3.618s-5.573-1.285-7.684-3.618l-226.024-249.816c-2.526-2.793-6.005-4.213-9.496-4.213zM396.8-25.6h-281.6c-21.174 0-38.4 17.226-38.4 38.4v204.8c0 7.070 5.731 12.8 12.8 12.8s12.8-5.731 12.8-12.8v-204.8c0-7.058 5.743-12.8 12.8-12.8h281.6c7.058 0 12.8 5.743 12.8 12.8v204.8c0 7.070 5.731 12.8 12.8 12.8s12.8-5.731 12.8-12.8v-204.8c0-21.173-17.226-38.4-38.4-38.4z" />
<glyph unicode="&#xe605;" glyph-name="home6" d="M371.2-25.6h-76.8c-7.070 0-12.8 5.731-12.8 12.8v89.6h-51.2v-89.6c0-7.070-5.731-12.8-12.8-12.8h-76.8c-21.174 0-38.4 17.226-38.4 38.4v156.753l-28.908-31.95c-4.725-5.221-12.78-5.647-18.027-0.951l-51.2 45.81c-2.539 2.272-4.067 5.462-4.247 8.864s1.005 6.736 3.291 9.262l226.025 249.816c7.026 7.767 16.498 12.043 26.667 12.043s19.641-4.277 26.666-12.043l226.025-249.817c2.286-2.526 3.471-5.86 3.291-9.262s-1.708-6.593-4.247-8.865l-51.2-45.811c-5.25-4.695-13.303-4.271-18.026 0.951l-28.907 31.95-0.001-156.751c0-21.175-17.226-38.4-38.4-38.4zM307.2 0h64c7.058 0 12.8 5.743 12.8 12.8l0.002 189.978c0 5.293 3.259 10.041 8.199 11.945 4.941 1.902 10.541 0.569 14.094-3.357l42.657-47.149 32.121 28.74-217.389 240.273c-2.111 2.334-4.84 3.618-7.683 3.618s-5.573-1.285-7.684-3.618l-217.389-240.272 32.121-28.741 42.66 47.151c3.551 3.926 9.153 5.259 14.094 3.357 4.94-1.903 8.198-6.651 8.198-11.945v-189.978c0-7.058 5.743-12.8 12.8-12.8h64v89.6c0 7.070 5.731 12.8 12.8 12.8h76.8c7.070 0 12.8-5.731 12.8-12.8v-89.6z" />
<glyph unicode="&#xe60b;" glyph-name="city" d="M230.4 230.4h25.6v-25.6h-25.6v25.6zM281.6 230.4h25.6v-25.6h-25.6v25.6zM332.8 230.4h25.6v-25.6h-25.6v25.6zM384 230.4h25.6v-25.6h-25.6v25.6zM230.4 153.6h25.6v-25.6h-25.6v25.6zM281.6 153.6h25.6v-25.6h-25.6v25.6zM332.8 153.6h25.6v-25.6h-25.6v25.6zM384 153.6h25.6v-25.6h-25.6v25.6zM230.4 76.8h25.6v-25.6h-25.6v25.6zM281.6 76.8h25.6v-25.6h-25.6v25.6zM332.8 76.8h25.6v-25.6h-25.6v25.6zM384 76.8h25.6v-25.6h-25.6v25.6zM448 307.2h-12.8v64c0 3.395-1.349 6.65-3.75 9.050l-47.45 47.451v45.899c0 7.069-5.731 12.8-12.8 12.8s-12.8-5.731-12.8-12.8v-45.899l-47.45-47.451c-2.401-2.4-3.75-5.656-3.75-9.050v-12.8h-51.2v63.999c0 7.069-5.731 12.8-12.8 12.8h-204.8c-7.069 0-12.8-5.731-12.8-12.8v-435.2c0-7.070 5.731-12.8 12.8-12.8h409.6c7.070 0 12.8 5.731 12.8 12.8v307.2c0 7.069-5.731 12.8-12.8 12.8zM332.8 365.899l38.4 38.4 38.4-38.4v-58.698h-25.6v38.4c0 7.069-5.731 12.8-12.8 12.8h-38.4v7.499zM358.4 332.8v-25.6h-102.4v25.6h102.4zM179.2 294.4v-294.4h-128v409.6h179.2v-102.4h-38.4c-7.069 0-12.8-5.731-12.8-12.8zM435.2 0h-230.4v281.6h230.4v-281.6zM179.2 384h25.6v-51.2h-25.6v51.2zM128 384h25.6v-51.2h-25.6v51.2zM76.8 384h25.6v-51.2h-25.6v51.2zM76.8 307.2h25.6v-51.2h-25.6v51.2zM128 307.2h25.6v-51.2h-25.6v51.2zM76.8 230.4h25.6v-51.2h-25.6v51.2zM128 230.4h25.6v-51.2h-25.6v51.2zM76.8 153.6h25.6v-51.2h-25.6v51.2zM128 153.6h25.6v-51.2h-25.6v51.2zM76.8 76.8h25.6v-51.2h-25.6v51.2zM128 76.8h25.6v-51.2h-25.6v51.2z" />
<glyph unicode="&#xe60c;" glyph-name="apartment" d="M358.4 332.8h25.6v-25.6h-25.6v25.6zM358.4 281.6h25.6v-25.6h-25.6v25.6zM358.4 230.4h25.6v-25.6h-25.6v25.6zM358.4 179.2h25.6v-25.6h-25.6v25.6zM358.4 76.8h25.6v-25.6h-25.6v25.6zM358.4 128h25.6v-25.6h-25.6v25.6zM153.6 332.8h25.6v-25.6h-25.6v25.6zM153.6 281.6h25.6v-25.6h-25.6v25.6zM153.6 230.4h25.6v-25.6h-25.6v25.6zM153.6 179.2h25.6v-25.6h-25.6v25.6zM153.6 76.8h25.6v-25.6h-25.6v25.6zM153.6 128h25.6v-25.6h-25.6v25.6zM102.4 332.8h25.6v-25.6h-25.6v25.6zM102.4 281.6h25.6v-25.6h-25.6v25.6zM102.4 230.4h25.6v-25.6h-25.6v25.6zM102.4 179.2h25.6v-25.6h-25.6v25.6zM102.4 76.8h25.6v-25.6h-25.6v25.6zM102.4 128h25.6v-25.6h-25.6v25.6zM204.8 332.8h25.6v-25.6h-25.6v25.6zM204.8 281.6h25.6v-25.6h-25.6v25.6zM204.8 230.4h25.6v-25.6h-25.6v25.6zM204.8 179.2h25.6v-25.6h-25.6v25.6zM204.8 76.8h25.6v-25.6h-25.6v25.6zM204.8 128h25.6v-25.6h-25.6v25.6zM473.6 0h-12.8v345.6c0 19.529-14.512 39.663-33.038 45.839l-120.561 40.187v41.974c0 4.047-1.913 7.855-5.159 10.27-3.247 2.414-7.444 3.153-11.318 1.99l-231.48-69.443c-18.865-5.66-33.642-25.521-33.642-45.217v-371.2h-12.8c-7.069 0-12.8-5.731-12.8-12.8s5.731-12.8 12.8-12.8h460.8c7.070 0 12.8 5.731 12.8 12.8s-5.731 12.8-12.8 12.8zM419.666 367.152c8.13-2.709 15.534-12.983 15.534-21.552v-345.6h-128v404.641l112.466-37.489zM51.2 371.2c0 8.413 7.339 18.279 15.398 20.696l215.002 64.501v-456.397h-230.4v371.2z" />
<glyph unicode="&#xe60d;" glyph-name="pencil" d="M489.050 463.451c-14.385 14.384-33.509 22.305-53.851 22.305-20.343 0-39.466-7.922-53.851-22.305l-326.4-326.4c-1.322-1.322-2.339-2.918-2.978-4.677l-51.2-140.8c-1.7-4.673-0.538-9.909 2.978-13.425 2.442-2.444 5.715-3.749 9.052-3.749 1.466 0 2.945 0.251 4.372 0.771l140.8 51.2c1.757 0.64 3.355 1.656 4.677 2.979l326.4 326.4c14.384 14.384 22.307 33.509 22.307 53.851s-7.921 39.466-22.307 53.85zM146.557 49.458l-112.355-40.855 40.856 112.353 283.341 283.342 71.499-71.499-283.341-283.341zM470.95 373.851l-22.95-22.95-71.499 71.498 22.95 22.95c9.549 9.549 22.245 14.807 35.749 14.807s26.2-5.259 35.75-14.808c9.549-9.549 14.808-22.245 14.808-35.749s-5.26-26.2-14.808-35.749z" />
<glyph unicode="&#xe60e;" glyph-name="pencil2" d="M12.802-25.6c-3.338 0-6.609 1.305-9.053 3.75-3.517 3.517-4.678 8.751-2.978 13.425l51.2 140.8c0.639 1.757 1.656 3.353 2.978 4.677l345.6 345.6c4.998 4.999 13.103 4.999 18.101 0l89.6-89.6c4.999-4.999 4.999-13.103 0-18.103l-345.6-345.6c-1.322-1.322-2.919-2.339-4.677-2.979l-140.8-51.2c-1.425-0.519-2.905-0.769-4.372-0.769zM75.059 120.957l-40.856-112.353 112.355 40.855 334.54 334.541-71.498 71.499-334.541-334.542z" />
<glyph unicode="&#xe60f;" glyph-name="pen" d="M501.050 475.451c-7.156 7.157-16.775 10.785-28.589 10.785-19.276 0-45.195-10.087-77.346-30.048-10.301 10.891-29.876 27.575-54.551 29.579-19.697 1.599-38.279-6.178-55.216-23.115-35.978-35.978-53.683-79.896-65.399-108.957-3.981-9.875-8.935-22.166-11.401-24.697-0.839-0.839-3.384-3.383-7.773 0.321-5.017 4.731-12.918 4.641-17.827-0.266-4.999-4.999-4.999-13.103 0-18.101 2.097-2.098 7.488-6.163 14.393-8.1 2.776-0.779 5.532-1.164 8.234-1.164 3.245 0 6.413 0.563 9.446 1.657-3.513-3.601-7.021-7.226-10.518-10.879-90.026-94.039-190.981-223.062-204.331-303.159-0.68-4.079 0.652-8.233 3.575-11.155 2.42-2.421 5.685-3.75 9.051-3.75 0.699 0 1.403 0.057 2.105 0.175 33.483 5.581 77.629 26.765 131.21 62.967 47.398 32.023 99.983 74.435 152.069 122.649 50.801 47.022 97.139 95.806 134.005 141.076 27.546 33.825 62.937 82.121 75.112 120.111 7.701 24.032 5.597 42.226-6.251 54.075zM303.45 444.55c11.513 11.513 22.945 16.654 34.945 15.709 14.351-1.126 26.966-10.706 34.947-18.438-6.312-4.391-12.821-9.099-19.534-14.135-36.463-27.355-77.828-63.706-119.040-104.466 2.747 5.584 5.541 12.505 8.927 20.901 10.939 27.133 27.468 68.138 59.756 100.427zM77.717 96.181l44.086-44.086c-34.955-22.823-66.145-39.070-91.391-47.291 8.242 25.257 24.538 56.486 47.306 91.376zM280.795 178.977c-48.020-44.45-94.967-82.633-137.396-112.274l-51.082 51.082c33.82 48.448 78.623 102.597 130.681 156.975 60.462 63.156 120.193 115.317 167.997 148.145l57.45-57.451c-36.633-53.398-96.909-120.998-167.649-186.478zM482.921 429.189c-3.789-11.826-10.691-25.93-20.253-41.756l-49.702 49.702c25.037 15.141 45.574 23.502 59.495 23.502 7.2 0 9.675-2.475 10.487-3.287 5.929-5.928 2.528-20.188-0.027-28.16z" />
<glyph unicode="&#xe610;" glyph-name="pencil3" d="M499.2 332.8c0 70.579-57.42 128-128 128-19.287 0-37.832-4.187-55.117-12.445-1.351-0.645-2.524-1.505-3.525-2.507l-0.008 0.008-270.401-270.406c-1.959-1.959-3.229-4.499-3.62-7.241l-25.6-179.2c-0.569-3.988 0.771-8.013 3.621-10.861 2.417-2.417 5.681-3.75 9.049-3.75 0.602 0 1.206 0.043 1.811 0.129l179.2 25.6c2.742 0.391 5.282 1.661 7.241 3.62l270.207 270.2c0.007 0.006 0.014 0.013 0.019 0.019l0.178 0.178-0.002 0.002c1.001 1.001 1.855 2.181 2.501 3.531 8.259 17.288 12.447 35.833 12.447 55.121zM473.6 332.8c0-14.728-3.052-28.9-9.061-42.164l-29.445-29.445c-2.68 73.517-61.986 132.823-135.503 135.503l29.445 29.446c13.264 6.008 27.437 9.060 42.163 9.060 56.463 0 102.4-45.936 102.4-102.4zM51.33 76.797l10.84 75.883c4.838 0.611 9.732 0.92 14.63 0.92 63.522 0 115.2-51.678 115.2-115.2 0-4.899-0.312-9.792-0.923-14.63l-75.88-10.84c-0.070 35.187-28.68 63.797-63.867 63.867zM271.9 369.001c7.37 1.458 14.921 2.199 22.5 2.199 27.159 0 52.149-9.453 71.865-25.233l-199.415-199.415c-23.184 19.337-52.656 31.368-84.855 32.543l189.905 189.907zM184.952 128.45l199.414 199.415c15.781-19.716 25.233-44.706 25.233-71.865 0-7.577-0.741-15.129-2.199-22.501l-189.907-189.903c-1.174 32.197-13.207 61.669-32.542 84.853zM47.649 51.032c1.177 0.107 2.361 0.168 3.551 0.168 21.174 0 38.4-17.226 38.4-38.4 0-1.19-0.061-2.375-0.168-3.55l-48.747-6.964 6.964 48.747z" />
<glyph unicode="&#xe611;" glyph-name="eraser" d="M504.705 309.427c-0.659 3.956-1.974 7.807-3.959 11.423-2.931 5.339-7.068 9.732-12.073 12.95-0.041 0.028-0.085 0.054-0.127 0.082-0.268 0.171-0.537 0.343-0.81 0.507-2.45 1.52-5.247 2.774-8.365 3.711-0.627 0.19-1.261 0.367-1.903 0.528l-155.129 38.782c-4.136 1.034-8.7 1.558-13.565 1.558-15.33 0-31.99-5.252-42.442-13.38l-189.985-147.767c-13.047-10.148-27.361-30.38-32.587-46.059l-35.010-105.028c-3.293-9.882-2.405-20.245 2.5-29.183 4.907-8.938 13.174-15.25 23.279-17.777l155.13-38.783c4.135-1.034 8.7-1.558 13.565-1.558 12.147 0 25.113 3.305 35.179 8.717 2.339 1.165 4.753 2.712 7.262 4.664l189.985 147.766c13.047 10.149 27.361 30.38 32.587 46.059l35.010 105.028c2.347 7.041 2.829 12.906 1.459 17.761zM308.775 353.367c2.735 0 5.279-0.274 7.356-0.795l154.453-38.613-189.435-147.339c-6.048-4.704-17.037-7.989-26.724-7.988-2.735 0-5.279 0.274-7.356 0.793l-154.454 38.615 189.435 147.339c6.047 4.703 17.037 7.988 26.725 7.988zM33.694 49.87c-1.436 2.615-1.669 5.729-0.656 8.768l35.010 105.029c2.356 7.069 10.451 11.517 17.683 9.707 0 0 0 0 0.001 0l155.13-38.783c3.108-0.777 5.611-2.646 7.047-5.26 1.435-2.616 1.668-5.729 0.655-8.769l-35.011-105.029c-2.357-7.069-10.459-11.515-17.683-9.707l-26.365 6.591c-0.001 0-0.002 0.001-0.004 0.001l-128.76 32.191c-3.108 0.776-5.611 2.645-7.045 5.261zM419.933 160.786l-176.821-137.527 29.735 89.207c3.66 10.979 14.883 26.842 24.019 33.947l176.822 137.528-29.736-89.208c-3.659-10.978-14.883-26.841-24.019-33.947z" />
<glyph unicode="&#xe612;" glyph-name="pencil4" d="M89.602 51.2c-3.338 0-6.609 1.307-9.053 3.75-3.517 3.517-4.678 8.75-2.978 13.424l51.2 140.8c0.639 1.757 1.656 3.353 2.978 4.678l268.8 268.8c4.998 4.999 13.104 4.999 18.101 0l89.6-89.6c5-4.999 5-13.103 0-18.101l-268.8-268.8c-1.322-1.322-2.918-2.34-4.677-2.98l-140.8-51.2c-1.425-0.519-2.906-0.771-4.372-0.771zM151.859 197.756l-40.856-112.353 112.355 40.855 257.741 257.742-71.498 71.498-257.741-257.743zM448-25.6h-409.6c-21.174 0-38.4 17.226-38.4 38.4v409.6c0 21.174 17.227 38.4 38.4 38.4h256c7.070 0 12.8-5.731 12.8-12.8s-5.731-12.8-12.8-12.8h-256c-7.058 0-12.8-5.743-12.8-12.8v-409.6c0-7.058 5.742-12.8 12.8-12.8h409.6c7.058 0 12.8 5.743 12.8 12.8v256c0 7.069 5.731 12.8 12.8 12.8s12.8-5.731 12.8-12.8v-256c0-21.175-17.226-38.4-38.4-38.4z" />
<glyph unicode="&#xe613;" glyph-name="pencil5" d="M489.050 463.451c-14.384 14.384-33.508 22.305-53.849 22.305s-39.466-7.922-53.849-22.305l-249.6-249.6c-1.322-1.322-2.339-2.918-2.978-4.678l-51.2-140.8c-1.7-4.673-0.538-9.909 2.978-13.424 2.442-2.445 5.715-3.75 9.052-3.75 1.466 0 2.945 0.25 4.372 0.771l140.8 51.2c1.757 0.64 3.355 1.656 4.677 2.98l249.6 249.6c14.383 14.384 22.307 33.509 22.307 53.851-0.002 20.343-7.923 39.467-22.309 53.851zM223.357 126.258l-112.355-40.855 40.856 112.353 206.541 206.543 71.499-71.499-206.542-206.542zM470.95 373.851l-22.95-22.95-71.499 71.498 22.95 22.95c9.548 9.549 22.244 14.807 35.748 14.807s26.2-5.259 35.75-14.808c9.548-9.549 14.807-22.245 14.807-35.749s-5.26-26.2-14.807-35.749zM448-25.6h-409.6c-21.174 0-38.4 17.226-38.4 38.4v409.6c0 21.174 17.227 38.4 38.4 38.4h256c7.070 0 12.8-5.731 12.8-12.8s-5.731-12.8-12.8-12.8h-256c-7.058 0-12.8-5.743-12.8-12.8v-409.6c0-7.058 5.742-12.8 12.8-12.8h409.6c7.058 0 12.8 5.743 12.8 12.8v256c0 7.069 5.731 12.8 12.8 12.8s12.8-5.731 12.8-12.8v-256c0-21.175-17.226-38.4-38.4-38.4z" />
<glyph unicode="&#xe627;" glyph-name="color-sampler" d="M345.6 256c-21.175 0-38.4 17.226-38.4 38.4s17.226 38.4 38.4 38.4 38.4-17.227 38.4-38.4-17.226-38.4-38.4-38.4zM345.6 307.2c-7.058 0-12.8-5.743-12.8-12.8s5.743-12.8 12.8-12.8 12.8 5.742 12.8 12.8-5.743 12.8-12.8 12.8zM179.2 10.635c-10.277 0-19.92 3.983-27.152 11.215l-130.197 130.197c-7.233 7.232-11.216 16.875-11.216 27.152s3.983 19.92 11.217 27.153l245.397 245.396c7.232 7.233 16.875 11.216 27.152 11.216s19.92-3.983 27.152-11.216l130.197-130.196c14.972-14.972 14.972-39.334 0.001-54.306l-245.397-245.397c-7.233-7.233-16.876-11.215-27.153-11.215zM294.4 437.365c-3.439 0-6.653-1.32-9.050-3.718l-245.397-245.397c-2.398-2.397-3.718-5.612-3.718-9.050s1.32-6.653 3.718-9.050l130.197-130.198c2.398-2.397 5.612-3.717 9.050-3.717s6.654 1.32 9.051 3.717l245.397 245.396c4.99 4.991 4.99 13.112 0 18.103l-130.197 130.196c-2.397 2.397-5.611 3.717-9.050 3.717zM287.298-25.107c-7.517 0-14.863 2.276-21.245 6.663l-30.105 20.697c-5.826 4.005-7.301 11.974-3.296 17.799s11.974 7.303 17.799 3.296l30.105-20.697c2.728-1.875 5.986-2.551 9.163-1.911 3.182 0.644 5.916 2.534 7.7 5.322l139.8 218.438c3.811 5.954 11.729 7.69 17.682 3.882 5.954-3.811 7.691-11.727 3.882-17.682l-139.8-218.438c-5.557-8.683-14.147-14.583-24.185-16.615-2.499-0.504-5.009-0.755-7.498-0.755zM395.401-7.213c-3.056 0-6.101 0.486-9.049 1.469l-19.2 6.4c-6.707 2.235-10.331 9.483-8.095 16.19 2.235 6.705 9.483 10.332 16.19 8.095l19.2-6.4c0.349-0.117 1.413-0.469 3.233 0.505 2.178 1.166 4.978 4.147 6.306 9.017l31.664 116.103c1.86 6.82 8.897 10.837 15.717 8.981 6.82-1.86 10.841-8.897 8.981-15.717l-31.664-116.103c-2.988-10.956-9.887-20.015-18.925-24.852-4.576-2.449-9.481-3.69-14.359-3.69z" />
<glyph unicode="&#xe62b;" glyph-name="magic-wand" d="M294.4 307.2c-7.070 0-12.8 5.731-12.8 12.8 0 35.29-28.71 64-64 64-7.069 0-12.8 5.731-12.8 12.8s5.731 12.8 12.8 12.8c35.29 0 64 28.71 64 64 0 7.069 5.731 12.8 12.8 12.8s12.8-5.731 12.8-12.8c0-35.289 28.711-64 64-64 7.070 0 12.8-5.731 12.8-12.8s-5.731-12.8-12.8-12.8c-35.289 0-64-28.71-64-64 0-7.069-5.731-12.8-12.8-12.8zM263.713 396.8c12.555-7.568 23.119-18.132 30.687-30.688 7.568 12.556 18.132 23.12 30.688 30.688-12.556 7.568-23.12 18.132-30.688 30.688-7.568-12.556-18.132-23.12-30.687-30.688zM38.4 230.4c-7.069 0-12.8 5.731-12.8 12.8 0 7.058-5.742 12.8-12.8 12.8-7.069 0-12.8 5.731-12.8 12.8s5.731 12.8 12.8 12.8c7.058 0 12.8 5.743 12.8 12.8 0 7.069 5.731 12.8 12.8 12.8s12.8-5.731 12.8-12.8c0-7.058 5.742-12.8 12.8-12.8 7.069 0 12.8-5.731 12.8-12.8s-5.731-12.8-12.8-12.8c-7.057 0-12.8-5.742-12.8-12.8 0-7.069-5.731-12.8-12.8-12.8zM464.55 78.352l-270.998 270.997c-7.233 7.233-16.876 11.216-27.153 11.216s-19.92-3.983-27.153-11.216l-14.996-14.996c-7.233-7.233-11.216-16.876-11.216-27.153s3.983-19.92 11.216-27.153l270.997-270.996c7.232-7.233 16.875-11.217 27.152-11.217s19.92 3.983 27.153 11.217l14.997 14.996c7.233 7.232 11.216 16.876 11.216 27.152s-3.983 19.921-11.215 27.153zM142.353 316.251l14.996 14.996c2.398 2.397 5.612 3.718 9.051 3.718s6.654-1.32 9.051-3.718l36.845-36.846-33.099-33.099-36.846 36.846c-4.991 4.992-4.991 13.112 0 18.103zM446.447 42.149l-14.997-14.996c-2.397-2.397-5.612-3.717-9.050-3.717s-6.653 1.32-9.050 3.717l-216.051 216.050 33.099 33.098 216.049-216.050c4.99-4.99 4.99-13.111 0-18.101zM89.6 358.4c-7.069 0-12.8 5.731-12.8 12.8 0 21.174-17.227 38.4-38.4 38.4-7.069 0-12.8 5.731-12.8 12.8s5.731 12.8 12.8 12.8c21.173 0 38.4 17.226 38.4 38.4 0 7.069 5.731 12.8 12.8 12.8s12.8-5.731 12.8-12.8c0-21.173 17.227-38.4 38.4-38.4 7.069 0 12.8-5.731 12.8-12.8s-5.731-12.8-12.8-12.8c-21.174 0-38.4-17.227-38.4-38.4 0-7.069-5.731-12.8-12.8-12.8zM76.76 422.4c4.862-3.652 9.188-7.978 12.84-12.84 3.652 4.863 7.978 9.188 12.84 12.84-4.862 3.652-9.188 7.978-12.84 12.84-3.652-4.861-7.978-9.188-12.84-12.84zM89.6 102.4c-7.069 0-12.8 5.731-12.8 12.8 0 21.173-17.227 38.4-38.4 38.4-7.069 0-12.8 5.731-12.8 12.8s5.731 12.8 12.8 12.8c21.173 0 38.4 17.226 38.4 38.4 0 7.070 5.731 12.8 12.8 12.8s12.8-5.731 12.8-12.8c0-21.173 17.227-38.4 38.4-38.4 7.069 0 12.8-5.731 12.8-12.8s-5.731-12.8-12.8-12.8c-21.174 0-38.4-17.226-38.4-38.4 0-7.070-5.731-12.8-12.8-12.8zM76.76 166.4c4.862-3.651 9.188-7.978 12.84-12.84 3.652 4.861 7.978 9.187 12.84 12.84-4.862 3.651-9.188 7.978-12.84 12.84-3.652-4.861-7.978-9.189-12.84-12.84z" />
<glyph unicode="&#xe62c;" glyph-name="magnet" d="M434.993 450.289c-1.107 6.087-6.408 10.511-12.594 10.511h-102.4c-3.69 0-7.2-1.592-9.63-4.368s-3.545-6.466-3.057-10.123c0.255-1.912 25.487-191.739 25.487-241.509 0-43.065-33.734-76.8-76.8-76.8-42.348 0-76.8 34.452-76.8 76.8 0 48.082 25.234 239.595 25.489 241.523 0.483 3.655-0.633 7.341-3.064 10.114s-5.939 4.363-9.625 4.363h-102.4c-6.186 0-11.487-4.424-12.594-10.51-1.053-5.795-25.806-143.113-25.806-245.49 0-26.811 5.421-53.127 16.113-78.218 10.343-24.272 25.084-46.199 43.814-65.174 39.088-39.599 90.538-61.408 144.874-61.408s105.786 21.809 144.875 61.408c18.729 18.975 33.471 40.903 43.813 65.174 10.691 25.091 16.112 51.406 16.112 78.217 0 102.377-24.752 239.695-25.806 245.49zM411.628 435.2c2.443-14.448 6.987-42.548 11.439-76.507l-78.885-0.256c-3.805 31.833-7.45 60.325-9.589 76.763h77.035zM100.371 435.2h77.052c-2.117-16.395-5.725-44.788-9.501-76.496l-79.022-0.257c4.462 34.070 9.023 62.269 11.471 76.753zM256 25.6c-97.136 0-179.2 82.063-179.2 179.2 0 40.154 4.050 86.656 8.916 128.037l79.209 0.257c-5.881-51.207-11.325-104.917-11.325-128.294 0-56.463 45.936-102.4 102.4-102.4 57.42 0 102.4 44.98 102.4 102.4 0 24.027-5.377 77.287-11.216 128.047l79.069 0.257c4.879-41.447 8.947-88.063 8.947-128.303 0-97.137-82.063-179.2-179.2-179.2z" />
<glyph unicode="&#xe62f;" glyph-name="compass" d="M268.8 153.6h-51.2c-7.069 0-12.8 5.731-12.8 12.8s5.731 12.8 12.8 12.8h51.2c7.070 0 12.8-5.731 12.8-12.8s-5.731-12.8-12.8-12.8zM396.8 204.8c-7.070 0-12.8-5.731-12.8-12.8v-12.8h-25.6c-7.070 0-12.8-5.731-12.8-12.8s5.731-12.8 12.8-12.8h25.6v-12.8c0-7.070 5.731-12.8 12.8-12.8s12.8 5.731 12.8 12.8v51.2c0 7.070-5.731 12.8-12.8 12.8zM383.255 17.105l-106.909 299.344c18.851 11.442 30.855 32.123 30.855 54.75 0 30.907-22.022 56.766-51.2 62.712v26.888h12.8c7.070 0 12.8 5.731 12.8 12.8s-5.731 12.8-12.8 12.8h-51.2c-7.069 0-12.8-5.731-12.8-12.8s5.731-12.8 12.8-12.8h12.8v-26.888c-29.178-5.947-51.2-31.805-51.2-62.712 0-22.626 12.003-43.309 30.855-54.749l-106.909-299.345c-0.493-1.382-0.746-2.839-0.746-4.305v-25.6c0-7.070 5.731-12.8 12.8-12.8s12.8 5.731 12.8 12.8v23.383l115.2 322.56 115.2-322.56v-23.383c0-7.070 5.731-12.8 12.8-12.8s12.8 5.731 12.8 12.8v25.6c0 1.467-0.252 2.923-0.745 4.305zM243.2 384c-5.41 0-10.234-3.4-12.054-8.495l-12.176-34.092c-8.778 7.165-14.169 18.038-14.169 29.787 0 21.173 17.226 38.4 38.4 38.4s38.4-17.227 38.4-38.4c0-11.749-5.392-22.622-14.171-29.786l-12.175 34.092c-1.82 5.095-6.645 8.495-12.054 8.495z" />
<glyph unicode="&#xe630;" glyph-name="aim" d="M243.2 460.8c-7.069 0-12.8-5.731-12.8-12.8v-102.4c0-7.069 5.731-12.8 12.8-12.8s12.8 5.731 12.8 12.8v102.4c0 7.069-5.731 12.8-12.8 12.8zM243.2 102.4c-7.069 0-12.8-5.731-12.8-12.8v-102.4c0-7.070 5.731-12.8 12.8-12.8s12.8 5.731 12.8 12.8v102.4c0 7.070-5.731 12.8-12.8 12.8zM128 217.6c0 7.070-5.731 12.8-12.8 12.8h-102.4c-7.069 0-12.8-5.731-12.8-12.8s5.731-12.8 12.8-12.8h102.4c7.069 0 12.8 5.731 12.8 12.8zM473.6 230.4h-102.4c-7.070 0-12.8-5.731-12.8-12.8s5.731-12.8 12.8-12.8h102.4c7.070 0 12.8 5.731 12.8 12.8s-5.731 12.8-12.8 12.8zM414.975 255.995c-5.517 0-10.609 3.595-12.262 9.152-16.081 54.031-57.938 95.887-111.968 111.965-6.776 2.017-10.634 9.143-8.617 15.919s9.145 10.633 15.918 8.618c30.394-9.045 58.375-25.741 80.918-48.283s39.239-50.523 48.284-80.917c2.017-6.775-1.841-13.902-8.617-15.919-1.217-0.363-2.447-0.535-3.656-0.535zM294.394 33.017c-5.517 0-10.609 3.594-12.262 9.151-2.017 6.776 1.841 13.903 8.617 15.919 54.028 16.081 95.883 57.935 111.962 111.962 2.017 6.777 9.146 10.634 15.918 8.617 6.776-2.017 10.634-9.144 8.617-15.918-9.045-30.392-25.741-58.372-48.282-80.915-22.543-22.541-50.521-39.238-80.913-48.283-1.217-0.361-2.447-0.534-3.656-0.534zM192.006 33.017c-1.209 0-2.438 0.173-3.656 0.535-30.392 9.045-58.371 25.74-80.913 48.281s-39.239 50.519-48.283 80.911c-2.017 6.776 1.841 13.903 8.617 15.919 6.773 2.017 13.903-1.841 15.919-8.617 16.081-54.026 57.935-95.88 111.963-111.959 6.775-2.017 10.633-9.144 8.617-15.919-1.654-5.557-6.747-9.152-12.263-9.152zM71.427 255.997c-1.209 0-2.438 0.173-3.656 0.535-6.775 2.017-10.633 9.144-8.617 15.919 9.046 30.392 25.741 58.371 48.283 80.913 22.542 22.541 50.521 39.237 80.913 48.283 6.777 2.015 13.903-1.841 15.919-8.617s-1.841-13.902-8.617-15.919c-54.028-16.079-95.882-57.934-111.962-111.962-1.655-5.558-6.748-9.153-12.264-9.153z" />
<glyph unicode="&#xe638;" glyph-name="fire" d="M361.658 470.882c-2.177 4.57-4.086 8.004-5.677 10.209-3.954 5.481-11.486 6.943-17.203 3.342s-7.651-11.027-4.415-16.96c1.508-2.765 2.995-5.493 4.462-8.194 11.317-24.049 30.747-81.169 31.809-142.117-11.811 25.595-29.941 47.855-46.475 68.145-25.13 30.837-46.833 57.471-42.688 86.481 0.525 3.673-0.57 7.394-3.001 10.197s-5.959 4.413-9.669 4.413c-0.002 0-0.001 0-0.002 0-26.054 0-53.731-20.406-72.359-37.525-23.744-21.818-46.463-50.544-63.971-80.883-2.538-4.399-4.932-8.787-7.185-13.151 5.939 41.335 17.535 84.334 27.48 114.161 1.498 4.49 0.966 8.556-1.577 12.085-2.405 3.338-6.269 5.316-10.384 5.316-4.733 0-9.049-2.611-11.268-6.728-76.993-141.156-103.934-199.561-103.934-300.475 0-55.008 20.651-105.953 58.149-143.45 19.332-19.332 42.456-34.42 68.731-44.847 27.595-10.95 58.118-16.502 90.721-16.502s63.127 5.552 90.721 16.502c26.274 10.426 49.399 25.515 68.729 44.847 37.499 37.498 58.149 88.442 58.149 143.451 0 99.883-27.195 159.38-99.142 291.682zM154.64 355.197c16.009 27.739 37.557 55.014 59.121 74.829 15.185 13.954 29.75 23.663 41.821 28.080 2.596-32.353 25.106-59.976 48.732-88.969 41.89-51.406 81.455-99.976 27.459-182.050-11.541-14.283-25.633-26.606-42.223-36.925 16.142 29.435 21.598 63.924 14.365 98.045-5.433 25.634-17.759 49.152-35.644 68.011-19.118 20.16-44.418 34.614-73.166 41.801-6.042 1.51-12.291-1.545-14.81-7.24-2.518-5.693-0.575-12.375 4.606-15.829 16.593-11.062 24.702-48.928 16.372-76.447-5.707-18.854-17.008-28.414-33.587-28.415-2.947 0-6.104 0.303-9.383 0.903-11.276 2.061-19.679 8.004-25.691 18.169-0.797 1.347-1.542 2.759-2.246 4.224h0.119c-9.219 21.715-0.416 59.231 24.157 101.814zM243.2 0c-126.049 0-192 90.149-192 179.2 0 70.303 13.383 117.683 50.934 193.677-10.852-62.935-8.017-108.917 8.442-136.748 9.872-16.693 24.381-26.895 43.123-30.32 4.794-0.877 9.5-1.32 13.988-1.32 27.951 0.002 49.123 16.986 58.087 46.599 5.358 17.701 5.853 39.075 1.358 58.641-0.694 3.019-1.49 5.943-2.385 8.765 27.861-16.694 47.271-43.265 54.124-75.595 9.382-44.256-7.305-89.32-43.547-117.607-4.888-3.816-6.339-10.586-3.442-16.069s9.305-8.104 15.214-6.215c63.436 20.265 107.344 57.582 130.505 110.911 17.083 39.338 22.495 86.159 16.125 139.337 29.905-64.019 41.474-109.712 41.474-174.055 0-89.050-65.95-179.2-192-179.2z" />
<glyph unicode="&#xe63e;" glyph-name="poop" d="M458.567 162.902c18.277 16.484 27.834 35.13 27.834 54.697 0 26.079-17.37 52.102-48.909 73.275-8.694 5.836-18.375 11.233-28.84 16.13 0.624 4.29 0.949 8.632 0.949 12.995 0 33.463-14.966 89.6-115.2 89.6-17.517 0-38.4 4.441-38.4 25.6 0 11.599 14.787 24.271 19.936 27.774 4.677 3.14 6.75 8.968 5.109 14.356s-6.612 9.070-12.245 9.070c-40.123 0-81.348-13.184-113.106-36.173-16.205-11.731-29.066-25.298-38.225-40.325-9.999-16.407-15.070-33.735-15.070-51.502 0-7.372 0.621-14.696 1.804-21.899-21.734-10.496-40.096-24.355-53.509-40.466-16.418-19.717-25.095-42.415-25.095-65.634 0-14.364 3.314-29.011 9.599-43.14-23.070-21.561-35.199-46.307-35.199-72.060 0-39.173 27.726-75.34 78.070-101.837 47.739-25.125 110.929-38.963 177.929-38.963 66.628 0 129.465 11.008 176.935 30.995 50.986 21.468 79.065 51.372 79.065 84.205 0 26.641-18.936 52.55-53.433 73.303zM423.002 28.989c-44.399-18.694-103.707-28.989-167.002-28.989-62.922 0-121.877 12.791-166.006 36.017-41.525 21.856-64.394 49.977-64.394 79.183 0 20.008 10.817 36.733 22.78 49.116 2.778-3.893 5.794-7.703 9.041-11.411 20.386-23.268 48.734-41.026 79.825-50.002 1.185-0.342 2.381-0.505 3.556-0.505 5.557 0 10.673 3.647 12.292 9.252 1.961 6.792-1.955 13.887-8.747 15.849-53.103 15.331-93.147 59.57-93.147 102.903 0 31.338 22.519 61.413 59.635 80.777 13.413-36.929 41.722-67.609 76.899-80.045 1.411-0.499 2.851-0.735 4.267-0.735 5.273 0 10.21 3.283 12.068 8.537 2.356 6.666-1.137 13.978-7.802 16.334-38.918 13.759-68.267 58.096-68.267 103.132 0 25.909 15.166 51.156 42.706 71.089 19.045 13.786 42.055 23.498 65.986 28.164-3.698-6.596-6.291-14.174-6.291-22.453 0-24.751 16.813-51.2 64-51.2 32.726 0 56.818-6.513 71.606-19.357 11.94-10.371 17.993-25.391 17.993-44.643 0-0.964-0.029-1.925-0.072-2.885-19.156 6.812-40.091 12.097-61.942 15.53-6.989 1.099-13.534-3.676-14.631-10.659s3.675-13.534 10.658-14.631c41.251-6.481 78.616-19.881 105.209-37.734 24.232-16.268 37.577-34.743 37.577-52.021 0-17.406-13.568-31.87-26.947-41.901-31.528 14.091-70.539 24.223-112.396 29.017-7.027 0.797-13.369-4.237-14.175-11.26-0.804-7.023 4.238-13.37 11.26-14.175 48.273-5.529 92.109-18.429 123.433-36.322 28.648-16.364 44.425-35.315 44.425-53.36 0-21.555-23.108-43.647-63.399-60.611z" />
<glyph unicode="&#xe645;" glyph-name="contrast" d="M243.2-25.6c-64.961 0-126.034 25.297-171.968 71.232s-71.232 107.007-71.232 171.968c0 64.962 25.297 126.034 71.232 171.968s107.006 71.232 171.968 71.232c64.961 0 126.034-25.297 171.968-71.232s71.232-107.007 71.232-171.968-25.297-126.034-71.232-171.968c-45.935-45.935-107.007-71.232-171.968-71.232zM243.2 435.2c-119.985 0-217.6-97.615-217.6-217.6s97.615-217.6 217.6-217.6 217.6 97.615 217.6 217.6-97.615 217.6-217.6 217.6zM243.2 51.2c-7.069 0-12.8 5.731-12.8 12.8v307.2c0 7.069 5.731 12.8 12.8 12.8 91.753 0 166.4-74.647 166.4-166.4s-74.647-166.4-166.4-166.4zM256 357.823v-280.447c71.665 6.485 128 66.899 128 140.223 0 73.327-56.335 133.739-128 140.224z" />
<glyph unicode="&#xe646;" glyph-name="sun-small" d="M243.2 332.8c-7.069 0-12.8 5.731-12.8 12.8v51.2c0 7.069 5.731 12.8 12.8 12.8s12.8-5.731 12.8-12.8v-51.2c0-7.069-5.731-12.8-12.8-12.8zM115.2 204.8h-51.2c-7.069 0-12.8 5.731-12.8 12.8s5.731 12.8 12.8 12.8h51.2c7.069 0 12.8-5.731 12.8-12.8s-5.731-12.8-12.8-12.8zM422.4 204.8h-51.2c-7.070 0-12.8 5.731-12.8 12.8s5.731 12.8 12.8 12.8h51.2c7.070 0 12.8-5.731 12.8-12.8s-5.731-12.8-12.8-12.8zM243.2 25.6c-7.069 0-12.8 5.731-12.8 12.8v51.2c0 7.070 5.731 12.8 12.8 12.8s12.8-5.731 12.8-12.8v-51.2c0-7.070-5.731-12.8-12.8-12.8zM243.2 281.6c35.289 0 64-28.711 64-64s-28.711-64-64-64-64 28.711-64 64 28.71 64 64 64zM243.2 307.2c-49.485 0-89.6-40.115-89.6-89.6 0-49.484 40.115-89.6 89.6-89.6s89.6 40.116 89.6 89.6c0 49.485-40.116 89.6-89.6 89.6v0zM327.31 301.71c-3.276 0-6.551 1.25-9.050 3.75-4.999 4.998-4.999 13.103 0 18.101l36.204 36.204c4.998 4.999 13.103 4.999 18.101 0s4.999-13.103 0-18.101l-36.204-36.204c-2.5-2.5-5.776-3.75-9.051-3.75zM159.090 301.71c-3.276 0-6.551 1.25-9.050 3.75l-36.204 36.204c-4.999 4.999-4.999 13.103 0 18.101s13.103 4.999 18.102 0l36.204-36.204c4.999-4.999 4.999-13.103 0-18.101-2.5-2.5-5.775-3.75-9.051-3.75zM363.514 71.686c-3.276 0-6.551 1.25-9.050 3.75l-36.204 36.204c-4.999 4.998-4.999 13.103 0 18.101s13.103 4.998 18.101 0l36.204-36.204c4.999-4.998 4.999-13.103 0-18.101-2.5-2.499-5.776-3.75-9.051-3.75zM122.886 71.686c-3.276 0-6.551 1.25-9.050 3.75-4.999 4.998-4.999 13.103 0 18.101l36.204 36.204c4.999 4.998 13.103 4.998 18.102 0s4.999-13.103 0-18.101l-36.204-36.204c-2.5-2.499-5.775-3.75-9.051-3.75z" />
<glyph unicode="&#xe647;" glyph-name="sun" d="M243.2 358.4c-7.069 0-12.8 5.731-12.8 12.8v76.8c0 7.069 5.731 12.8 12.8 12.8s12.8-5.731 12.8-12.8v-76.8c0-7.069-5.731-12.8-12.8-12.8zM89.6 204.8h-76.8c-7.069 0-12.8 5.731-12.8 12.8s5.731 12.8 12.8 12.8h76.8c7.069 0 12.8-5.731 12.8-12.8s-5.731-12.8-12.8-12.8zM473.6 204.8h-76.8c-7.070 0-12.8 5.731-12.8 12.8s5.731 12.8 12.8 12.8h76.8c7.070 0 12.8-5.731 12.8-12.8s-5.731-12.8-12.8-12.8zM243.2-25.6c-7.069 0-12.8 5.731-12.8 12.8v76.8c0 7.070 5.731 12.8 12.8 12.8s12.8-5.731 12.8-12.8v-76.8c0-7.070-5.731-12.8-12.8-12.8zM243.2 307.011c23.942 0 46.447-9.305 63.372-26.202 16.913-16.886 26.228-39.333 26.228-63.209s-9.315-46.322-26.228-63.208c-16.925-16.897-39.43-26.203-63.372-26.203s-46.447 9.305-63.371 26.203c-16.913 16.885-26.229 39.334-26.229 63.208s9.315 46.322 26.229 63.209c16.924 16.897 39.43 26.202 63.371 26.202zM243.2 332.611c-63.623 0-115.2-51.492-115.2-115.011s51.577-115.011 115.2-115.011 115.2 51.492 115.2 115.011c0 63.519-51.577 115.011-115.2 115.011v0zM140.988 319.812c-3.276 0-6.551 1.25-9.050 3.749l-54.305 54.305c-4.999 4.999-4.999 13.103 0 18.101s13.103 4.999 18.102 0l54.306-54.305c4.999-4.999 4.999-13.103 0-18.101-2.499-2.499-5.775-3.749-9.051-3.749zM86.683 35.483c-3.276 0-6.551 1.25-9.051 3.75-4.998 4.998-4.998 13.103 0 18.101l54.306 54.305c4.999 4.999 13.102 4.999 18.101 0s4.999-13.103 0-18.101l-54.305-54.305c-2.499-2.5-5.775-3.75-9.050-3.75zM345.412 319.812c-3.276 0-6.551 1.25-9.050 3.749-4.999 4.999-4.999 13.103 0 18.101l54.305 54.305c4.998 4.999 13.103 4.999 18.101 0s4.999-13.103 0-18.101l-54.305-54.305c-2.5-2.499-5.776-3.749-9.051-3.749zM399.717 35.483c-3.276 0-6.551 1.25-9.050 3.75l-54.305 54.305c-4.999 4.998-4.999 13.103 0 18.101s13.103 4.998 18.101 0l54.305-54.305c4.999-4.998 4.999-13.103 0-18.101-2.499-2.5-5.775-3.75-9.051-3.75z" />
<glyph unicode="&#xe648;" glyph-name="sun2" d="M243.2 102.4c-63.522 0-115.2 51.678-115.2 115.2s51.678 115.2 115.2 115.2c63.522 0 115.2-51.678 115.2-115.2s-51.678-115.2-115.2-115.2zM243.2 307.2c-49.406 0-89.6-40.195-89.6-89.6s40.195-89.6 89.6-89.6 89.6 40.195 89.6 89.6-40.195 89.6-89.6 89.6zM140.989 319.812c-3.276 0-6.551 1.25-9.050 3.749l-54.306 54.305c-4.999 4.999-4.999 13.103 0 18.101s13.103 4.999 18.102 0l54.307-54.305c4.999-4.999 4.999-13.103 0-18.101-2.5-2.499-5.775-3.749-9.051-3.749zM86.683 35.483c-3.276 0-6.551 1.25-9.051 3.75-4.998 4.998-4.998 13.103 0 18.101l54.306 54.305c4.999 4.999 13.103 4.999 18.101 0s4.999-13.103 0-18.101l-54.306-54.305c-2.499-2.5-5.775-3.75-9.050-3.75zM345.411 319.812c-3.277 0-6.551 1.25-9.050 3.75-4.999 4.999-4.999 13.103 0 18.101l54.307 54.306c5 4.997 13.105 4.999 18.101 0 4.999-4.999 4.999-13.103 0-18.102l-54.307-54.305c-2.5-2.499-5.776-3.75-9.051-3.75zM243.2 358.4c-7.069 0-12.8 5.731-12.8 12.8v76.8c0 7.069 5.731 12.8 12.8 12.8s12.8-5.731 12.8-12.8v-76.8c0-7.069-5.731-12.8-12.8-12.8zM89.6 204.8h-76.8c-7.069 0-12.8 5.731-12.8 12.8s5.731 12.8 12.8 12.8h76.8c7.069 0 12.8-5.731 12.8-12.8s-5.731-12.8-12.8-12.8zM243.2-25.6c-7.069 0-12.8 5.731-12.8 12.8v76.8c0 7.070 5.731 12.8 12.8 12.8s12.8-5.731 12.8-12.8v-76.8c0-7.070-5.731-12.8-12.8-12.8zM473.6 204.8h-76.8c-7.070 0-12.8 5.731-12.8 12.8s5.731 12.8 12.8 12.8h76.8c7.070 0 12.8-5.731 12.8-12.8s-5.731-12.8-12.8-12.8zM422.4 128c-35.289 0-64-28.711-64-64v-76.8c0-7.070 5.731-12.8 12.8-12.8s12.8 5.731 12.8 12.8v38.4h76.8v-38.4c0-7.070 5.731-12.8 12.8-12.8s12.8 5.731 12.8 12.8v76.8c0 35.289-28.711 64-64 64zM384 51.2v12.8c0 21.175 17.226 38.4 38.4 38.4s38.4-17.226 38.4-38.4v-12.8h-76.8z" />
<glyph unicode="&#xe64b;" glyph-name="cloud-upload" d="M329.050 188.249l-51.2 51.2c-4.998 4.999-13.103 4.999-18.101 0l-51.2-51.2c-4.999-4.998-4.999-13.103 0-18.101s13.103-4.998 18.102 0l29.35 29.349v-109.897c0-7.070 5.731-12.8 12.8-12.8s12.8 5.731 12.8 12.8v109.897l29.351-29.349c2.498-2.498 5.774-3.748 9.050-3.748s6.551 1.25 9.050 3.75c5 4.998 5 13.101 0 18.099zM409.76 76.8h-89.76c-7.070 0-12.8 5.731-12.8 12.8s5.731 12.8 12.8 12.8h89.76c42.259 0 76.64 34.381 76.64 76.64s-34.381 76.64-76.64 76.64c-9.064 0-17.897-1.55-26.253-4.611-5.583-2.044-11.839 0.025-15.101 4.994s-2.675 11.532 1.421 15.842c9.14 9.618 14.173 22.154 14.173 35.295 0 28.232-22.968 51.2-51.2 51.2-16.429 0-31.456-7.593-41.228-20.833-5.899-7.993-9.334-17.354-9.933-27.069-0.335-5.425-4.058-10.046-9.287-11.527-5.231-1.483-10.824 0.503-13.953 4.946-2.816 3.998-5.865 7.851-9.063 11.451-24.293 27.348-59.187 43.033-95.735 43.033-70.579 0-128-57.42-128-128s57.421-128 128-128h64c7.069 0 12.8-5.731 12.8-12.8s-5.731-12.8-12.8-12.8h-64c-84.695 0-153.6 68.905-153.6 153.6s68.905 153.6 153.6 153.6c41.017 0 80.294-16.459 109.052-45.433 2.241 4.973 5.024 9.734 8.322 14.202 14.435 19.556 37.546 31.231 61.827 31.231 42.348 0 76.8-34.452 76.8-76.8 0-8.978-1.559-17.761-4.548-26.025 1.563 0.071 3.134 0.106 4.708 0.106 56.375 0 102.24-45.865 102.24-102.24s-45.865-102.24-102.24-102.24z" />
<glyph unicode="&#xe64c;" glyph-name="cloud-download" d="M329.050 137.049c-4.998 4.998-13.103 4.998-18.101 0l-29.348-29.347v109.897c0 7.070-5.731 12.8-12.8 12.8s-12.8-5.731-12.8-12.8v-109.897l-29.349 29.349c-4.999 4.998-13.103 4.998-18.102 0s-4.999-13.104 0-18.103l51.2-51.2c2.5-2.499 5.776-3.75 9.051-3.75s6.551 1.25 9.050 3.75l51.2 51.2c5 4.998 5 13.101 0 18.099zM409.76 76.8h-64.16c-7.070 0-12.8 5.731-12.8 12.8s5.731 12.8 12.8 12.8h64.16c42.259 0 76.64 34.381 76.64 76.64s-34.381 76.64-76.64 76.64c-9.064 0-17.897-1.55-26.253-4.611-5.583-2.044-11.839 0.025-15.101 4.994s-2.675 11.532 1.421 15.842c9.14 9.618 14.173 22.154 14.173 35.295 0 28.232-22.968 51.2-51.2 51.2-16.429 0-31.456-7.593-41.228-20.833-5.899-7.993-9.334-17.353-9.933-27.069-0.335-5.425-4.058-10.046-9.287-11.527-5.231-1.483-10.824 0.503-13.953 4.946-2.816 3.999-5.865 7.851-9.063 11.452-24.293 27.347-59.187 43.032-95.735 43.032-70.579 0-128-57.42-128-128s57.421-128 128-128h38.4c7.069 0 12.8-5.731 12.8-12.8s-5.731-12.8-12.8-12.8h-38.4c-84.695 0-153.6 68.905-153.6 153.6s68.905 153.6 153.6 153.6c41.017 0 80.294-16.459 109.052-45.433 2.241 4.973 5.024 9.734 8.322 14.202 14.435 19.556 37.546 31.231 61.827 31.231 42.348 0 76.8-34.452 76.8-76.8 0-8.978-1.559-17.761-4.548-26.025 1.563 0.071 3.134 0.106 4.708 0.106 56.375 0 102.24-45.865 102.24-102.24s-45.865-102.24-102.24-102.24z" />
<glyph unicode="&#xe655;" glyph-name="cloud-sync" d="M114.703 82.241c-1.169 0-2.357 0.161-3.536 0.499-31.413 9.013-59.7 28.346-79.651 54.438-20.617 26.963-31.515 59.199-31.515 93.223 0 84.695 68.905 153.6 153.6 153.6 41.243 0 80.459-16.643 109.075-45.466 12.046 26.873 39.080 45.466 70.125 45.466 42.348 0 76.8-34.452 76.8-76.8 0-8.855-1.513-17.528-4.409-25.693 1.466 0.061 2.935 0.093 4.409 0.093 56.463 0 102.4-45.936 102.4-102.4 0-19.743-5.634-38.912-16.291-55.437-10.37-16.079-24.967-28.908-42.215-37.101-6.383-3.034-14.019-0.317-17.053 6.070-3.034 6.385-0.317 14.020 6.070 17.053 26.663 12.666 43.891 39.913 43.891 69.415 0 42.348-34.452 76.8-76.8 76.8-8.787 0-17.397-1.468-25.591-4.363-5.55-1.962-11.726 0.116-14.961 5.037-3.235 4.92-2.695 11.413 1.308 15.732 8.798 9.494 13.643 21.851 13.643 34.793 0 28.232-22.968 51.2-51.2 51.2-26.998 0-49.444-21.081-51.099-47.993-0.334-5.429-4.063-10.053-9.297-11.532-5.237-1.478-10.832 0.513-13.956 4.965-23.977 34.163-63.173 54.56-104.848 54.56-70.579 0-128-57.421-128-128 0-56.805 38.089-107.407 92.626-123.052 6.795-1.95 10.723-9.039 8.773-15.834-1.611-5.616-6.732-9.274-12.297-9.274zM405.851 98.65c-4.998 4.998-13.103 4.998-18.101 0l-3.749-3.749v7.498c0 56.463-45.937 102.4-102.4 102.4-15.351 0-30.119-3.317-43.894-9.861-6.386-3.033-9.102-10.669-6.070-17.053s10.667-9.104 17.053-6.070c10.315 4.9 21.388 7.384 32.909 7.384 42.348 0 76.8-34.452 76.8-76.8v-7.498l-3.75 3.75c-4.998 4.998-13.103 4.998-18.101 0s-4.999-13.103 0-18.101l25.6-25.6c2.5-2.5 5.775-3.75 9.051-3.75s6.551 1.25 9.050 3.75l25.6 25.6c4.999 4.998 4.999 13.103 0 18.101zM331.565 26.916c-3.034 6.385-10.67 9.101-17.053 6.070-10.316-4.901-21.389-7.385-32.911-7.385-42.348 0-76.8 34.452-76.8 76.8v7.498l3.75-3.75c2.499-2.499 5.774-3.749 9.050-3.749s6.551 1.25 9.050 3.75c4.999 4.998 4.999 13.103 0 18.101l-25.6 25.6c-4.999 4.998-13.103 4.998-18.102 0l-25.6-25.6c-4.999-4.998-4.999-13.103 0-18.101s13.103-4.998 18.102 0l3.75 3.75v-7.499c0-56.463 45.936-102.4 102.4-102.4 15.352 0 30.121 3.317 43.895 9.861 6.387 3.034 9.103 10.669 6.070 17.055z" />
<glyph unicode="&#xe656;" glyph-name="cloud-lock" d="M409.6 76.8h-12.8c-7.070 0-12.8 5.731-12.8 12.8s5.731 12.8 12.8 12.8h12.8c42.348 0 76.8 34.452 76.8 76.8s-34.452 76.8-76.8 76.8c-8.783 0-17.391-1.468-25.589-4.363-5.548-1.958-11.723 0.118-14.957 5.040-3.235 4.92-2.695 11.413 1.308 15.731 8.793 9.491 13.639 21.847 13.639 34.793 0 28.232-22.968 51.2-51.2 51.2-26.996 0-49.442-21.081-51.101-47.992-0.334-5.429-4.063-10.053-9.297-11.531-5.235-1.476-10.832 0.513-13.955 4.965-23.98 34.162-63.174 54.559-104.847 54.559-70.579 0-128-57.421-128-128 0-66.696 50.019-121.5 116.349-127.479 7.041-0.635 12.233-6.857 11.6-13.897-0.635-7.040-6.861-12.233-13.898-11.599-38.032 3.428-73.257 20.859-99.188 49.084-26.093 28.403-40.463 65.298-40.463 103.891 0 84.695 68.905 153.6 153.6 153.6 41.24 0 80.458-16.644 109.075-45.466 12.046 26.875 39.080 45.466 70.125 45.466 42.348 0 76.8-34.452 76.8-76.8 0-8.856-1.512-17.528-4.408-25.693 1.466 0.061 2.935 0.093 4.408 0.093 56.463 0 102.4-45.937 102.4-102.4s-45.937-102.4-102.4-102.4zM332.8 176.998v15.002c0 35.289-28.711 64-64 64s-64-28.711-64-64v-15.002c-14.899-5.284-25.6-19.512-25.6-36.199v-76.8c0-21.175 17.227-38.4 38.4-38.4h102.4c21.175 0 38.4 17.226 38.4 38.4v76.8c0 16.687-10.702 30.915-25.6 36.199zM268.8 230.4c21.173 0 38.4-17.227 38.4-38.4v-12.8h-76.8v12.8c0 21.173 17.226 38.4 38.4 38.4zM332.8 64c0-7.058-5.743-12.8-12.8-12.8h-102.4c-7.058 0-12.8 5.743-12.8 12.8v76.8c0 7.058 5.743 12.8 12.8 12.8h102.4c7.058 0 12.8-5.743 12.8-12.8v-76.8z" />
<glyph unicode="&#xe658;" glyph-name="cloud-alert" d="M409.6 76.8h-89.6c-7.070 0-12.8 5.731-12.8 12.8s5.731 12.8 12.8 12.8h89.6c42.348 0 76.8 34.452 76.8 76.8s-34.452 76.8-76.8 76.8c-8.788 0-17.399-1.468-25.591-4.363-5.55-1.961-11.726 0.117-14.961 5.037s-2.695 11.413 1.308 15.732c8.798 9.493 13.643 21.849 13.643 34.793 0 28.232-22.968 51.2-51.2 51.2-26.998 0-49.444-21.081-51.099-47.993-0.334-5.429-4.063-10.053-9.297-11.532-5.237-1.48-10.832 0.514-13.956 4.965-23.978 34.163-63.173 54.56-104.848 54.56-70.579 0-128-57.42-128-128s57.421-128 128-128h64c7.069 0 12.8-5.731 12.8-12.8s-5.731-12.8-12.8-12.8h-64c-84.695 0-153.6 68.905-153.6 153.6s68.905 153.6 153.6 153.6c41.242 0 80.459-16.643 109.075-45.466 12.046 26.873 39.080 45.466 70.125 45.466 42.348 0 76.8-34.452 76.8-76.8 0-8.855-1.512-17.528-4.409-25.693 1.466 0.061 2.935 0.093 4.409 0.093 56.463 0 102.4-45.937 102.4-102.4s-45.937-102.4-102.4-102.4zM268.8 153.6c-7.070 0-12.8 5.731-12.8 12.8v76.8c0 7.070 5.731 12.8 12.8 12.8s12.8-5.73 12.8-12.8v-76.8c0-7.070-5.731-12.8-12.8-12.8zM268.8 76.8c-7.070 0-12.8 5.731-12.8 12.8v25.6c0 7.070 5.731 12.8 12.8 12.8s12.8-5.731 12.8-12.8v-25.6c0-7.070-5.731-12.8-12.8-12.8z" />
<glyph unicode="&#xe659;" glyph-name="cloud-check" d="M409.6 76.8h-243.2c-7.069 0-12.8 5.731-12.8 12.8s5.731 12.8 12.8 12.8h243.2c42.348 0 76.8 34.452 76.8 76.8s-34.452 76.8-76.8 76.8c-8.788 0-17.399-1.468-25.591-4.363-5.55-1.961-11.726 0.117-14.961 5.037s-2.695 11.413 1.308 15.732c8.798 9.493 13.643 21.849 13.643 34.793 0 28.232-22.968 51.2-51.2 51.2-26.998 0-49.444-21.081-51.099-47.993-0.334-5.429-4.063-10.053-9.297-11.532-5.237-1.48-10.832 0.514-13.956 4.965-23.978 34.163-63.173 54.56-104.848 54.56-70.579 0-128-57.42-128-128 0-3.885 0.176-7.806 0.523-11.651 0.634-7.041-4.559-13.262-11.599-13.897-7.040-0.639-13.262 4.558-13.898 11.599-0.415 4.606-0.625 9.299-0.625 13.949 0 84.695 68.905 153.6 153.6 153.6 41.242 0 80.459-16.643 109.075-45.466 12.046 26.873 39.080 45.466 70.125 45.466 42.348 0 76.8-34.452 76.8-76.8 0-8.855-1.512-17.528-4.409-25.693 1.466 0.061 2.935 0.093 4.409 0.093 56.463 0 102.4-45.937 102.4-102.4s-45.937-102.4-102.4-102.4zM89.6 89.6c-3.276 0-6.551 1.25-9.051 3.75l-51.2 51.2c-4.998 4.998-4.998 13.103 0 18.101s13.103 4.998 18.102 0l42.149-42.149 118.949 118.949c4.999 4.999 13.103 4.999 18.102 0s4.999-13.103 0-18.102l-128-128c-2.5-2.5-5.775-3.75-9.051-3.75z" />
<glyph unicode="&#xe65a;" glyph-name="cloud-cross" d="M409.6 76.8h-115.2c-7.070 0-12.8 5.731-12.8 12.8s5.731 12.8 12.8 12.8h115.2c42.348 0 76.8 34.452 76.8 76.8s-34.452 76.8-76.8 76.8c-8.788 0-17.399-1.468-25.591-4.363-5.55-1.961-11.726 0.117-14.961 5.037s-2.695 11.413 1.308 15.732c8.798 9.493 13.643 21.849 13.643 34.793 0 28.232-22.968 51.2-51.2 51.2-26.998 0-49.444-21.081-51.099-47.993-0.334-5.429-4.063-10.053-9.297-11.532-5.237-1.48-10.832 0.514-13.956 4.965-23.978 34.163-63.173 54.56-104.848 54.56-70.579 0-128-57.42-128-128 0-26.535 8.043-51.985 23.261-73.599 4.069-5.78 2.683-13.765-3.097-17.835-5.779-4.068-13.765-2.683-17.835 3.098-18.271 25.95-27.929 56.496-27.929 88.336 0 84.695 68.905 153.6 153.6 153.6 41.242 0 80.459-16.643 109.075-45.466 12.046 26.873 39.080 45.466 70.125 45.466 42.348 0 76.8-34.452 76.8-76.8 0-8.855-1.512-17.528-4.409-25.693 1.466 0.062 2.935 0.093 4.409 0.093 56.463 0 102.4-45.937 102.4-102.4s-45.937-102.4-102.4-102.4zM184.501 153.6l54.95 54.95c4.999 4.998 4.999 13.103 0 18.102s-13.103 4.999-18.102 0l-54.95-54.95-54.95 54.95c-4.999 4.999-13.103 4.999-18.102 0s-4.999-13.103 0-18.102l54.95-54.95-54.95-54.95c-4.999-4.998-4.999-13.103 0-18.101 2.5-2.499 5.775-3.749 9.051-3.749s6.551 1.25 9.050 3.75l54.949 54.949 54.95-54.95c2.499-2.499 5.774-3.749 9.050-3.749s6.551 1.25 9.050 3.75c4.999 4.998 4.999 13.103 0 18.101l-54.949 54.949z" />
<glyph unicode="&#xe65b;" glyph-name="cloud-crossed" d="M409.6 281.6c-1.474 0-2.943-0.031-4.409-0.093 2.897 8.165 4.409 16.838 4.409 25.693 0 6.076-0.713 11.988-2.052 17.661l48.132 36.099c5.655 4.241 6.801 12.265 2.56 17.92s-12.263 6.803-17.919 2.56l-43.166-32.374c-13.719 21.015-37.439 34.934-64.354 34.934-31.046 0-58.079-18.594-70.125-45.466-28.616 28.823-67.833 45.466-109.075 45.466-84.695 0-153.6-68.905-153.6-153.6 0-53.249 27.241-100.25 68.513-127.815l-37.794-28.345c-5.655-4.241-6.802-12.265-2.56-17.919 2.515-3.353 6.357-5.121 10.25-5.121 2.672 0 5.368 0.834 7.67 2.561l47.19 35.392c18.531-7.945 38.925-12.353 60.331-12.353h256c56.463 0 102.4 45.937 102.4 102.4 0 56.464-45.937 102.4-102.4 102.4zM25.6 230.4c0 70.579 57.421 128 128 128 41.674 0 80.869-20.397 104.848-54.561 3.124-4.45 8.719-6.443 13.956-4.965 5.235 1.478 8.963 6.103 9.297 11.532 1.655 26.913 24.101 47.993 51.099 47.993 18.555 0 34.834-9.923 43.816-24.738l-286.121-214.591c-38.721 22.035-64.895 63.68-64.895 111.329zM409.6 102.4h-256c-12.439 0-24.466 1.791-35.846 5.116l266.247 199.684c0-12.944-4.846-25.3-13.644-34.793-4.002-4.319-4.543-10.811-1.308-15.732s9.411-7 14.961-5.037c8.193 2.894 16.803 4.363 25.591 4.363 42.348 0 76.8-34.452 76.8-76.8s-34.452-76.8-76.8-76.8z" />
<glyph unicode="&#xe667;" glyph-name="shield" d="M243.2-25.6c-1.367 0-2.733 0.219-4.048 0.657-47.084 15.695-106.169 67.873-150.528 132.932-40.429 59.298-88.624 157.538-88.624 288.811 0 7.069 5.731 12.8 12.8 12.8 72.031 0 185.295 49.313 223.3 74.651 4.299 2.866 9.901 2.866 14.2 0 38.005-25.337 151.269-74.651 223.3-74.651 7.070 0 12.8-5.731 12.8-12.8 0-131.273-48.195-229.514-88.624-288.811-44.358-65.058-103.444-117.238-150.528-132.932-1.315-0.438-2.681-0.657-4.048-0.657zM25.75 384.42c2.898-118.547 46.906-207.568 84.025-262.009 45.283-66.415 98.711-108.279 133.425-121.613 34.714 13.334 88.142 55.199 133.424 121.613 37.118 54.441 81.127 143.462 84.025 262.009-41.684 2.616-88.104 16.959-121.094 29.177-36.305 13.447-72.927 30.539-96.355 44.835-23.427-14.296-60.049-31.389-96.355-44.835-32.991-12.219-79.41-26.562-121.095-29.177z" />
<glyph unicode="&#xe668;" glyph-name="shield-check" d="M243.2-25.6c-1.367 0-2.733 0.219-4.048 0.657-47.084 15.695-106.169 67.873-150.528 132.932-40.429 59.298-88.624 157.538-88.624 288.811 0 7.069 5.731 12.8 12.8 12.8 72.031 0 185.295 49.313 223.3 74.651 4.299 2.866 9.901 2.866 14.2 0 38.005-25.337 151.269-74.651 223.3-74.651 7.070 0 12.8-5.731 12.8-12.8 0-131.273-48.195-229.514-88.624-288.811-44.358-65.058-103.444-117.238-150.528-132.932-1.315-0.438-2.681-0.657-4.048-0.657zM25.75 384.42c2.898-118.547 46.906-207.568 84.025-262.009 45.283-66.415 98.711-108.279 133.425-121.613 34.714 13.334 88.142 55.199 133.424 121.613 37.118 54.441 81.127 143.462 84.025 262.009-41.684 2.616-88.104 16.959-121.094 29.177-36.305 13.447-72.927 30.539-96.355 44.835-23.427-14.296-60.049-31.389-96.355-44.835-32.991-12.219-79.41-26.562-121.095-29.177zM217.6 166.4c-3.276 0-6.551 1.25-9.051 3.75l-51.2 51.2c-4.999 4.999-4.999 13.103 0 18.102s13.103 4.999 18.102 0l42.149-42.149 118.949 118.949c4.998 4.999 13.103 4.999 18.101 0s4.999-13.103 0-18.102l-128-128c-2.5-2.499-5.775-3.749-9.051-3.749z" />
<glyph unicode="&#xe669;" glyph-name="shield-alert" d="M243.2-25.6c-1.367 0-2.733 0.219-4.048 0.657-47.084 15.695-106.169 67.873-150.528 132.932-40.429 59.298-88.624 157.538-88.624 288.811 0 7.069 5.731 12.8 12.8 12.8 72.031 0 185.295 49.313 223.3 74.651 4.299 2.866 9.901 2.866 14.2 0 38.005-25.337 151.269-74.651 223.3-74.651 7.070 0 12.8-5.731 12.8-12.8 0-131.273-48.195-229.514-88.624-288.811-44.358-65.058-103.444-117.238-150.528-132.932-1.315-0.438-2.681-0.657-4.048-0.657zM25.75 384.42c2.898-118.547 46.906-207.568 84.025-262.009 45.283-66.415 98.711-108.279 133.425-121.613 34.714 13.334 88.142 55.199 133.424 121.613 37.118 54.441 81.127 143.462 84.025 262.009-41.684 2.616-88.104 16.959-121.094 29.177-36.305 13.447-72.927 30.539-96.355 44.835-23.427-14.296-60.049-31.389-96.355-44.835-32.991-12.219-79.41-26.562-121.095-29.177zM243.2 204.8c-7.069 0-12.8 5.731-12.8 12.8v128c0 7.069 5.731 12.8 12.8 12.8s12.8-5.731 12.8-12.8v-128c0-7.070-5.731-12.8-12.8-12.8zM243.2 128c-7.069 0-12.8 5.731-12.8 12.8v25.6c0 7.070 5.731 12.8 12.8 12.8s12.8-5.731 12.8-12.8v-25.6c0-7.070-5.731-12.8-12.8-12.8z" />
<glyph unicode="&#xe66a;" glyph-name="shield-cross" d="M243.2-25.6c-1.367 0-2.733 0.219-4.048 0.657-47.084 15.695-106.169 67.873-150.528 132.932-40.429 59.298-88.624 157.538-88.624 288.811 0 7.069 5.731 12.8 12.8 12.8 72.031 0 185.295 49.313 223.3 74.651 4.299 2.866 9.901 2.866 14.2 0 38.005-25.337 151.269-74.651 223.3-74.651 7.070 0 12.8-5.731 12.8-12.8 0-131.273-48.195-229.514-88.624-288.811-44.358-65.058-103.444-117.238-150.528-132.932-1.315-0.438-2.681-0.657-4.048-0.657zM25.75 384.42c2.898-118.547 46.906-207.568 84.025-262.009 45.283-66.415 98.711-108.279 133.425-121.613 34.714 13.334 88.142 55.199 133.424 121.613 37.118 54.441 81.127 143.462 84.025 262.009-41.684 2.616-88.104 16.959-121.094 29.177-36.305 13.447-72.927 30.539-96.355 44.835-23.427-14.296-60.049-31.389-96.355-44.835-32.991-12.219-79.41-26.562-121.095-29.177zM341.13 176.118l-78.262 67.082 78.262 67.082c5.367 4.6 5.988 12.681 1.388 18.049-4.601 5.366-12.681 5.99-18.050 1.388l-81.269-69.66-81.269 69.66c-5.367 4.6-13.447 3.979-18.049-1.388-4.601-5.367-3.979-13.448 1.388-18.049l78.262-67.082-78.262-67.082c-5.367-4.601-5.989-12.681-1.388-18.050 2.532-2.953 6.117-4.469 9.724-4.469 2.948 0 5.911 1.013 8.324 3.082l81.27 69.661 81.269-69.66c2.414-2.069 5.377-3.082 8.324-3.082 3.607 0 7.193 1.517 9.725 4.469 4.6 5.368 3.979 13.448-1.388 18.049z" />
<glyph unicode="&#xe66b;" glyph-name="lock" d="M371.2 281.6h-12.8v38.4c0 63.522-51.678 115.2-115.2 115.2s-115.2-51.678-115.2-115.2v-38.4h-12.8c-21.174 0-38.4-17.226-38.4-38.4v-204.8c0-21.173 17.227-38.4 38.4-38.4h256c21.173 0 38.4 17.226 38.4 38.4v204.8c0 21.174-17.226 38.4-38.4 38.4zM153.6 320c0 49.405 40.195 89.6 89.6 89.6s89.6-40.195 89.6-89.6v-38.4h-179.2v38.4zM384 38.4c0-7.058-5.743-12.8-12.8-12.8h-256c-7.058 0-12.8 5.743-12.8 12.8v204.8c0 7.058 5.742 12.8 12.8 12.8h256c7.058 0 12.8-5.742 12.8-12.8v-204.8z" />
<glyph unicode="&#xe66c;" glyph-name="rotation-lock" d="M332.8 253.799v15.001c0 35.29-28.711 64-64 64s-64-28.71-64-64v-15.001c-14.899-5.284-25.6-19.512-25.6-36.199v-76.8c0-21.175 17.227-38.4 38.4-38.4h102.4c21.175 0 38.4 17.226 38.4 38.4v76.8c0 16.687-10.702 30.915-25.6 36.199zM268.8 307.2c21.173 0 38.4-17.226 38.4-38.4v-12.8h-76.8v12.8c0 21.173 17.226 38.4 38.4 38.4zM332.8 140.8c0-7.058-5.743-12.8-12.8-12.8h-102.4c-7.058 0-12.8 5.743-12.8 12.8v76.8c0 7.058 5.743 12.8 12.8 12.8h102.4c7.058 0 12.8-5.743 12.8-12.8v-76.8zM268.8-25.6c-45.464 0-89.806 12.627-128.233 36.517-37.358 23.225-67.768 56.13-87.941 95.156-3.246 6.28-0.786 14.002 5.493 17.249 6.279 3.245 14.003 0.786 17.249-5.493 37.568-72.679 111.687-117.829 193.433-117.829 119.985 0 217.6 97.615 217.6 217.6s-97.615 217.6-217.6 217.6-217.6-97.615-217.6-217.6c0-6.465-4.82-11.914-11.236-12.704s-12.413 3.328-13.983 9.599l-25.6 102.4c-1.714 6.858 2.455 13.807 9.313 15.522 6.859 1.711 13.808-2.455 15.522-9.313l9.651-38.601c11.184 39.323 32.259 75.361 61.963 105.065 45.935 45.934 107.008 71.231 171.969 71.231s126.034-25.298 171.968-71.232c45.935-45.934 71.232-107.007 71.232-171.968s-25.297-126.034-71.232-171.968c-45.935-45.935-107.007-71.232-171.968-71.232z" />
<glyph unicode="&#xe66d;" glyph-name="unlock" d="M345.6 460.8c-63.522 0-115.2-51.679-115.2-115.2v-64h-192c-21.174 0-38.4-17.226-38.4-38.4v-204.8c0-21.173 17.227-38.4 38.4-38.4h256c21.173 0 38.4 17.226 38.4 38.4v204.8c0 21.174-17.226 38.4-38.4 38.4h-38.4v64c0 49.405 40.195 89.6 89.6 89.6s89.6-40.195 89.6-89.6v-25.6c0-7.069 5.731-12.8 12.8-12.8s12.8 5.731 12.8 12.8v25.6c0 63.522-51.678 115.2-115.2 115.2zM294.4 256c7.058 0 12.8-5.743 12.8-12.8v-204.8c0-7.058-5.743-12.8-12.8-12.8h-256c-7.058 0-12.8 5.743-12.8 12.8v204.8c0 7.058 5.742 12.8 12.8 12.8h256z" />
<glyph unicode="&#xe66e;" glyph-name="key" d="M384 486.4c-70.692 0-128-57.307-128-128 0-27.456 8.649-52.889 23.363-73.734l-275.615-275.615c-4.998-4.998-4.998-13.103 0-18.101 2.5-2.499 5.775-3.749 9.051-3.749s6.551 1.25 9.051 3.75l29.349 29.349 42.149-42.149c2.5-2.499 5.775-3.749 9.051-3.749s6.551 1.25 9.051 3.75c4.999 4.998 4.999 13.103 0 18.101l-42.15 42.149 20.299 20.298 42.149-42.149c2.499-2.499 5.774-3.749 9.050-3.749s6.551 1.25 9.050 3.75c4.999 4.998 4.999 13.103 0 18.101l-42.149 42.149 188.483 188.483c22.921-21.623 53.818-34.883 87.816-34.883 70.692 0 128 57.307 128 128s-57.308 128-128 128zM456.408 285.992c-19.341-19.341-45.057-29.992-72.408-29.992s-53.067 10.651-72.408 29.992c-19.341 19.341-29.992 45.056-29.992 72.408s10.651 53.067 29.992 72.408c19.341 19.341 45.057 29.992 72.408 29.992s53.067-10.651 72.408-29.992c19.341-19.341 29.992-45.056 29.992-72.408s-10.651-53.066-29.992-72.408z" />
<glyph unicode="&#xe66f;" glyph-name="key-hole" d="M371.2-25.6h-230.4c-4.030 0-7.826 1.899-10.243 5.124s-3.174 7.401-2.042 11.269l73.559 251.493c-44.759 20.801-74.073 66.045-74.073 116.114 0 70.579 57.421 128 128 128s128-57.421 128-128c0-50.073-29.315-95.317-74.075-116.116l73.56-251.491c1.131-3.869 0.375-8.045-2.043-11.269-2.417-3.226-6.212-5.124-10.243-5.124zM157.88 0h196.239l-72.003 246.167c-1.908 6.522 1.613 13.398 8.019 15.661 40.831 14.433 68.265 53.242 68.265 96.572 0 56.464-45.937 102.4-102.4 102.4s-102.4-45.936-102.4-102.4c0-43.328 27.433-82.137 68.263-96.571 6.405-2.265 9.927-9.14 8.018-15.662l-72.001-246.167z" />
<glyph unicode="&#xe670;" glyph-name="toggle-off" d="M332.8 51.2h-153.6c-47.867 0-92.867 18.64-126.713 52.486s-52.486 78.848-52.486 126.714c0 47.867 18.64 92.867 52.486 126.714s78.847 52.486 126.713 52.486h153.6c47.865 0 92.867-18.64 126.714-52.486s52.486-78.847 52.486-126.714c0-47.866-18.64-92.867-52.486-126.714s-78.848-52.486-126.714-52.486zM179.2 384c-84.695 0-153.6-68.905-153.6-153.6s68.905-153.6 153.6-153.6h153.6c84.695 0 153.6 68.905 153.6 153.6s-68.905 153.6-153.6 153.6h-153.6zM179.2 128c-56.464 0-102.4 45.937-102.4 102.4s45.936 102.4 102.4 102.4 102.4-45.936 102.4-102.4c0-56.463-45.936-102.4-102.4-102.4zM179.2 307.2c-42.348 0-76.8-34.452-76.8-76.8s34.452-76.8 76.8-76.8 76.8 34.452 76.8 76.8-34.452 76.8-76.8 76.8z" />
<glyph unicode="&#xe671;" glyph-name="toggle-on" d="M179.2 51.2h153.6c47.866 0 92.867 18.64 126.714 52.486s52.486 78.848 52.486 126.714c0 47.867-18.64 92.867-52.486 126.714s-78.847 52.486-126.714 52.486h-153.6c-47.865 0-92.867-18.64-126.713-52.486s-52.486-78.847-52.486-126.714c0-47.866 18.64-92.867 52.486-126.714s78.848-52.486 126.713-52.486zM332.8 384c84.695 0 153.6-68.905 153.6-153.6s-68.905-153.6-153.6-153.6h-153.6c-84.695 0-153.6 68.905-153.6 153.6s68.905 153.6 153.6 153.6h153.6zM332.8 128c56.464 0 102.4 45.937 102.4 102.4s-45.936 102.4-102.4 102.4-102.4-45.936-102.4-102.4c0-56.463 45.936-102.4 102.4-102.4zM332.8 307.2c42.348 0 76.8-34.452 76.8-76.8s-34.452-76.8-76.8-76.8-76.8 34.452-76.8 76.8 34.452 76.8 76.8 76.8z" />
<glyph unicode="&#xe672;" glyph-name="cog" d="M195.355-17.978c-1.054 0-2.124 0.131-3.189 0.405-22.988 5.901-45.075 15.021-65.645 27.105-5.962 3.502-8.065 11.105-4.751 17.172 4.075 7.462 6.23 15.933 6.23 24.496 0 28.232-22.968 51.2-51.2 51.2-8.563 0-17.033-2.154-24.496-6.229-6.066-3.313-13.669-1.211-17.171 4.75-12.085 20.571-21.204 42.657-27.105 65.647-1.667 6.495 1.96 13.175 8.315 15.315 20.849 7.019 34.858 26.517 34.858 48.519s-14.009 41.5-34.859 48.52c-6.354 2.139-9.981 8.819-8.313 15.313 5.902 22.988 15.021 45.075 27.105 65.646 3.502 5.962 11.105 8.065 17.172 4.75 7.462-4.075 15.932-6.229 24.495-6.229 28.232 0 51.2 22.968 51.2 51.2 0 8.563-2.154 17.034-6.23 24.495-3.314 6.067-1.211 13.671 4.751 17.172 20.57 12.084 42.657 21.204 65.645 27.106 6.497 1.667 13.174-1.96 15.314-8.313 7.020-20.851 26.518-34.859 48.52-34.859s41.5 14.009 48.519 34.859c2.14 6.355 8.822 9.982 15.315 8.314 22.988-5.901 45.075-15.021 65.647-27.105 5.961-3.502 8.064-11.104 4.75-17.171-4.076-7.463-6.231-15.934-6.231-24.496 0-28.232 22.968-51.2 51.2-51.2 8.563 0 17.034 2.154 24.496 6.23 6.069 3.314 13.671 1.21 17.172-4.751 12.083-20.57 21.203-42.657 27.105-65.646 1.667-6.494-1.959-13.174-8.313-15.313-20.851-7.020-34.859-26.518-34.859-48.52s14.009-41.5 34.859-48.519c6.353-2.14 9.981-8.819 8.313-15.315-5.901-22.988-15.021-45.075-27.105-65.645-3.502-5.962-11.104-8.064-17.172-4.751-7.463 4.076-15.933 6.231-24.496 6.231-28.232 0-51.2-22.968-51.2-51.2 0-8.563 2.154-17.033 6.231-24.496 3.313-6.068 1.211-13.671-4.751-17.172-20.57-12.083-42.657-21.203-65.645-27.105-6.496-1.668-13.175 1.959-15.315 8.313-7.019 20.851-26.517 34.859-48.519 34.859s-41.5-14.009-48.52-34.859c-1.789-5.312-6.751-8.719-12.125-8.719zM256 51.2c28.858 0 54.846-16.069 67.959-41.014 13.319 4.109 26.253 9.438 38.649 15.923-2.771 8.038-4.208 16.538-4.208 25.091 0 42.348 34.452 76.8 76.8 76.8 8.553 0 17.053-1.438 25.091-4.209 6.486 12.396 11.815 25.331 15.923 38.649-24.945 13.113-41.014 39.101-41.014 67.959s16.069 54.845 41.014 67.959c-4.109 13.318-9.438 26.253-15.923 38.649-8.038-2.771-16.537-4.209-25.091-4.209-42.348 0-76.8 34.452-76.8 76.8 0 8.553 1.438 17.053 4.209 25.091-12.396 6.486-25.331 11.815-38.649 15.923-13.113-24.945-39.101-41.014-67.959-41.014s-54.846 16.069-67.959 41.014c-13.319-4.108-26.254-9.437-38.649-15.923 2.771-8.038 4.208-16.536 4.208-25.091 0-42.348-34.452-76.8-76.8-76.8-8.555 0-17.053 1.437-25.090 4.209-6.486-12.397-11.815-25.331-15.923-38.649 24.945-13.114 41.014-39.101 41.014-67.959s-16.069-54.847-41.014-67.959c4.108-13.319 9.438-26.253 15.923-38.649 8.038 2.771 16.537 4.208 25.090 4.208 42.348 0 76.8-34.452 76.8-76.8 0-8.555-1.438-17.053-4.209-25.091 12.397-6.486 25.331-11.815 38.65-15.923 13.113 24.945 39.101 41.014 67.959 41.014zM256 153.6c-42.348 0-76.8 34.452-76.8 76.8s34.452 76.8 76.8 76.8 76.8-34.452 76.8-76.8-34.452-76.8-76.8-76.8zM256 281.6c-28.232 0-51.2-22.968-51.2-51.2s22.968-51.2 51.2-51.2c28.232 0 51.2 22.968 51.2 51.2s-22.968 51.2-51.2 51.2z" />
<glyph unicode="&#xe673;" glyph-name="cog2" d="M341.094-10.283c-1.897 0-3.789 0.421-5.534 1.259-3.139 1.505-5.528 4.223-6.619 7.527-10.411 31.52-39.722 52.697-72.94 52.697s-62.529-21.178-72.939-52.697c-1.091-3.305-3.482-6.022-6.619-7.527s-6.754-1.667-10.014-0.45c-26.671 9.964-51.35 24.231-73.353 42.405-2.681 2.215-4.346 5.425-4.611 8.892-0.266 3.468 0.892 6.894 3.205 9.49 22.068 24.773 25.741 60.734 9.141 89.487-13.678 23.692-39.194 38.411-66.59 38.411-5.2 0-10.411-0.534-15.489-1.585-3.411-0.709-6.96 0.005-9.832 1.975-2.872 1.968-4.819 5.021-5.391 8.455-2.326 13.972-3.506 28.219-3.506 42.344s1.18 28.371 3.507 42.344c0.572 3.434 2.518 6.488 5.39 8.456 2.873 1.968 6.423 2.681 9.832 1.975 5.079-1.052 10.29-1.585 15.489-1.585 27.396 0.001 52.912 14.719 66.591 38.41 16.6 28.752 12.927 64.713-9.141 89.486-2.314 2.597-3.471 6.023-3.205 9.49s1.93 6.678 4.612 8.892c22.002 18.173 46.682 32.441 73.352 42.404 3.261 1.217 6.876 1.056 10.014-0.45 3.137-1.505 5.528-4.223 6.619-7.527 10.41-31.519 39.721-52.696 72.939-52.696s62.529 21.177 72.94 52.697c1.091 3.305 3.481 6.023 6.619 7.527 3.137 1.506 6.753 1.667 10.014 0.45 26.671-9.964 51.349-24.231 73.352-42.405 2.682-2.214 4.346-5.425 4.611-8.892s-0.891-6.894-3.205-9.49c-22.067-24.772-25.741-60.735-9.141-89.486 13.679-23.694 39.195-38.411 66.589-38.41 5.202 0 10.413 0.534 15.49 1.585 3.408 0.706 6.959-0.007 9.832-1.975s4.819-5.022 5.39-8.457c2.327-13.975 3.507-28.221 3.507-42.343s-1.18-28.369-3.507-42.344c-0.572-3.435-2.519-6.488-5.39-8.456-2.873-1.968-6.421-2.684-9.832-1.975-5.079 1.051-10.289 1.585-15.489 1.585-27.395 0-52.912-14.717-66.591-38.411-16.6-28.752-12.926-64.714 9.141-89.486 2.313-2.597 3.471-6.022 3.205-9.49-0.265-3.467-1.93-6.678-4.611-8.892-22.002-18.173-46.682-32.441-73.352-42.405-1.449-0.541-2.966-0.81-4.481-0.81zM119.15 45.025c13.915-10.293 28.885-18.95 44.721-25.859 16.937 34.956 52.443 57.633 92.129 57.633s75.191-22.678 92.129-57.634c15.837 6.909 30.807 15.565 44.721 25.859-21.787 32.143-23.664 74.219-3.829 108.575 18.238 31.587 52.249 51.211 88.761 51.211 2.39 0 4.783-0.084 7.17-0.253 0.963 8.593 1.449 17.243 1.449 25.843s-0.486 17.25-1.449 25.843c-2.387-0.168-4.779-0.253-7.17-0.253-36.512-0.001-70.523 19.621-88.761 51.209-19.835 34.355-17.959 76.432 3.828 108.575-13.915 10.293-28.884 18.95-44.72 25.859-16.938-34.956-52.443-57.633-92.129-57.633s-75.192 22.678-92.129 57.633c-15.836-6.909-30.805-15.565-44.721-25.859 21.787-32.143 23.663-74.219 3.829-108.575-18.237-31.587-52.248-51.209-88.76-51.209-2.39 0-4.783 0.084-7.171 0.252-0.963-8.591-1.449-17.243-1.449-25.843s0.485-17.251 1.449-25.843c2.387 0.168 4.779 0.253 7.17 0.253 36.512 0 70.523-19.623 88.76-51.211 19.835-34.355 17.958-76.43-3.828-108.573zM256 153.6c-42.348 0-76.8 34.452-76.8 76.8s34.452 76.8 76.8 76.8 76.8-34.452 76.8-76.8-34.452-76.8-76.8-76.8zM256 281.6c-28.232 0-51.2-22.968-51.2-51.2s22.968-51.2 51.2-51.2c28.232 0 51.2 22.968 51.2 51.2s-22.968 51.2-51.2 51.2z" />
<glyph unicode="&#xe674;" glyph-name="wrench" d="M428.788-25.946c-15.408 0-29.926 5.952-40.881 16.761-0.019 0.019-0.040 0.040-0.059 0.059l-197.365 197.341c-15.837-5.987-32.51-9.016-49.683-9.016-77.638 0-140.8 63.163-140.8 140.8 0 20.194 4.189 39.695 12.45 57.962 1.732 3.83 5.233 6.565 9.367 7.317 4.133 0.755 8.375-0.569 11.347-3.541l74.538-74.538h45.899v45.899l-74.729 74.729c-2.971 2.971-4.295 7.213-3.541 11.347s3.489 7.635 7.319 9.367c17.733 8.020 37.843 12.259 58.152 12.259 77.637 0 140.8-63.162 140.8-140.8 0-16.968-3.070-33.599-9.137-49.561l197.234-197.235c11.014-10.885 17.112-25.395 17.172-40.86 0.060-15.44-5.901-30.019-16.788-41.052-10.968-11.116-25.632-17.237-41.293-17.237zM405.913 9.014c6.13-6.036 14.252-9.359 22.876-9.359 8.757 0 16.95 3.416 23.070 9.618 6.103 6.184 9.445 14.342 9.411 22.971-0.034 8.618-3.439 16.706-9.589 22.774-0.020 0.019-0.041 0.040-0.060 0.060l-203.313 203.312c-3.767 3.766-4.806 9.472-2.611 14.325 6.837 15.117 10.303 31.026 10.303 47.285 0 63.521-51.678 115.2-115.2 115.2-10.029 0-19.971-1.245-29.443-3.655l64.094-64.094c2.4-2.4 3.749-5.656 3.749-9.050v-64c0-7.069-5.731-12.8-12.8-12.8h-64c-3.395 0-6.65 1.349-9.050 3.749l-63.993 63.992c-2.497-9.502-3.757-19.315-3.757-29.341 0-63.522 51.678-115.2 115.2-115.2 16.533 0 32.485 3.423 47.413 10.175 4.853 2.195 10.559 1.155 14.325-2.611l203.375-203.35z" />
<glyph unicode="&#xe676;" glyph-name="hammer-wrench" d="M476.068 116.291l-116.087 105.533 13.574 15.101c11.48-4.334 23.563-6.525 36.045-6.525 56.463 0 102.4 45.936 102.4 102.4 0 16.356-3.959 32.636-11.449 47.080-1.879 3.623-5.373 6.134-9.406 6.758-4.034 0.623-8.122-0.712-11.008-3.599l-50.238-50.239h-20.298v20.298l50.239 50.238c2.885 2.886 4.223 6.975 3.599 11.008-0.623 4.034-3.134 7.527-6.756 9.406-14.444 7.49-30.724 11.45-47.082 11.45-56.463 0-102.4-45.936-102.4-102.4 0-12.482 2.19-24.566 6.525-36.045l-18.185-16.346-63.186 57.442c-2.423 2.203-3.799 5.155-3.875 8.313s1.159 6.171 3.475 8.487l58.699 58.699c3.661 3.661 4.756 9.166 2.775 13.949s-6.649 7.901-11.827 7.901c-1.061 0-26.29-0.019-53.551-1.621-52.079-3.064-64.757-8.985-70.699-14.927l-89.6-89.6c-2.401-2.4-3.749-5.656-3.749-9.051v-12.8h-12.8c-3.395 0-6.651-1.349-9.050-3.75l-25.6-25.6c-4.999-4.999-4.999-13.103 0-18.101l51.2-51.2c4.999-4.998 13.103-4.998 18.102 0l25.6 25.6c2.401 2.4 3.749 5.656 3.749 9.050v12.8h12.8c3.395 0 6.65 1.349 9.050 3.75l20.298 20.298c2.243 2.243 5.161 3.477 8.218 3.477 3.262 0 6.309-1.377 8.583-3.877l54.205-59.626-115.472-103.79c-7.704-6.924-12.096-16.365-12.368-26.583s3.612-19.878 10.936-27.202l27.797-27.797c7.084-7.084 16.353-10.95 26.198-10.95 0.333 0 0.669 0.005 1.004 0.014 10.218 0.272 19.659 4.664 26.583 12.368l100.693 112.029 101.981-112.18c7.082-7.789 17.115-12.257 27.525-12.257 9.894 0 19.241 3.897 26.318 10.976l27.797 27.797c7.315 7.315 11.209 16.974 10.966 27.197-0.243 10.225-4.593 19.687-12.247 26.645zM340.612 299.021c-5.184 10.563-7.812 21.928-7.812 33.779 0 42.348 34.452 76.8 76.8 76.8 6.209 0 12.274-0.718 18.155-2.143l-40.007-40.006c-2.4-2.401-3.749-5.656-3.749-9.051v-38.4c0-7.069 5.731-12.8 12.8-12.8h38.4c3.394 0 6.651 1.349 9.050 3.749l40.007 40.007c1.426-5.883 2.143-11.947 2.143-18.155 0-42.348-34.452-76.8-76.8-76.8-11.851 0-23.217 2.628-33.779 7.811-5.141 2.523-11.331 1.324-15.159-2.934l-19.623-21.833-26.461 24.056 23.099 20.762c4.259 3.829 5.457 10.019 2.935 15.159zM165.566 309.125c-9.894 0-19.242-3.899-26.319-10.976l-16.549-16.549h-20.299c-7.069 0-12.8-5.731-12.8-12.8v-20.298l-12.8-12.8-33.099 33.098 12.8 12.8h20.299c7.069 0 12.8 5.731 12.8 12.8v20.298l85.495 85.495c1.625 0.923 11.767 5.463 56.898 7.969 6.236 0.346 12.367 0.609 18.076 0.809l-36.218-36.217c-7.315-7.315-11.209-16.974-10.965-27.199s4.593-19.688 12.247-26.646l22.324-20.295-24.071-24.071-20.295 22.324c-7.082 7.79-17.114 12.257-27.525 12.257zM173.994 53.196c-2.18-2.425-5.101-3.807-8.225-3.89-3.129-0.074-6.113 1.142-8.419 3.447l-27.797 27.797c-2.305 2.307-3.531 5.296-3.447 8.419s1.465 6.045 3.891 8.225l115.579 103.885 30.845-33.929-102.427-113.954zM459.248 80.549l-27.797-27.797c-2.243-2.243-5.161-3.478-8.217-3.478-3.262 0-6.31 1.377-8.583 3.877l-184.024 202.427 25.794 25.794 202.427-184.024c2.423-2.203 3.799-5.155 3.875-8.313 0.075-3.158-1.159-6.172-3.474-8.487z" />
<glyph unicode="&#xe67d;" glyph-name="factory" d="M473.6-25.6h-435.2c-10.416 0-19.967 4.119-26.895 11.601s-10.303 17.32-9.504 27.705l21.668 281.676c0.513 6.669 6.073 11.819 12.762 11.819h53.169c6.455 0 11.9-4.807 12.701-11.213l23.163-185.302 111.15 66.69c3.953 2.373 8.879 2.435 12.892 0.163s6.493-6.526 6.493-11.139v-54.193l108.615 65.169c3.952 2.373 8.878 2.435 12.891 0.163s6.493-6.526 6.493-11.137v-54.193l108.615 65.169c3.953 2.373 8.879 2.435 12.891 0.163 4.014-2.272 6.493-6.526 6.493-11.139v-153.6c0-21.175-17.226-38.4-38.4-38.4zM48.284 281.6l-20.759-269.858c-0.245-3.193 0.735-6.159 2.763-8.348s4.908-3.394 8.111-3.394h435.2c7.058 0 12.8 5.743 12.8 12.8v130.993l-108.615-65.169c-3.953-2.373-8.879-2.435-12.891-0.163s-6.493 6.526-6.493 11.139v54.193l-108.615-65.169c-3.955-2.373-8.88-2.435-12.892-0.163-4.013 2.272-6.494 6.526-6.494 11.139v54.193l-108.615-65.169c-3.711-2.228-8.295-2.428-12.188-0.533-3.891 1.894-6.563 5.627-7.099 9.921l-24.198 193.588h-30.016zM64 332.8c-21.174 0-38.4 17.227-38.4 38.4s17.227 38.4 38.4 38.4 38.4-17.226 38.4-38.4-17.227-38.4-38.4-38.4zM64 384c-7.057 0-12.8-5.743-12.8-12.8s5.742-12.8 12.8-12.8 12.8 5.743 12.8 12.8-5.742 12.8-12.8 12.8zM153.6 384c-28.71 0-51.2 16.867-51.2 38.4s22.49 38.4 51.2 38.4 51.2-16.867 51.2-38.4-22.489-38.4-51.2-38.4zM153.6 435.2c-15.627 0-25.6-7.581-25.6-12.8s9.973-12.8 25.6-12.8 25.6 7.581 25.6 12.8-9.973 12.8-25.6 12.8zM307.2 384c-43.065 0-76.8 22.49-76.8 51.2s33.735 51.2 76.8 51.2 76.8-22.489 76.8-51.2-33.735-51.2-76.8-51.2zM307.2 460.8c-29.304 0-51.2-13.516-51.2-25.6s21.896-25.6 51.2-25.6 51.2 13.516 51.2 25.6-21.896 25.6-51.2 25.6z" />
<glyph unicode="&#xe67e;" glyph-name="factory2" d="M473.6-25.6h-435.2c-10.416 0-19.967 4.119-26.895 11.601s-10.303 17.32-9.504 27.705l21.668 281.676c0.513 6.669 6.073 11.819 12.762 11.819h53.169c6.455 0 11.9-4.807 12.701-11.213l23.163-185.302 111.15 66.69c3.953 2.373 8.879 2.435 12.892 0.163s6.493-6.526 6.493-11.139v-54.193l108.615 65.169c3.952 2.373 8.878 2.435 12.891 0.163s6.493-6.526 6.493-11.137v-54.193l108.615 65.169c3.953 2.373 8.879 2.435 12.891 0.163 4.014-2.272 6.493-6.526 6.493-11.139v-153.6c0-21.175-17.226-38.4-38.4-38.4zM48.284 281.6l-20.759-269.858c-0.245-3.193 0.735-6.159 2.763-8.348s4.908-3.394 8.111-3.394h435.2c7.058 0 12.8 5.743 12.8 12.8v130.993l-108.615-65.169c-3.953-2.373-8.879-2.435-12.891-0.163s-6.493 6.526-6.493 11.139v54.193l-108.615-65.169c-3.955-2.373-8.88-2.435-12.892-0.163-4.013 2.272-6.494 6.526-6.494 11.139v54.193l-108.615-65.169c-3.711-2.228-8.295-2.428-12.188-0.533-3.891 1.894-6.563 5.627-7.099 9.921l-24.198 193.588h-30.016zM64 332.8c-7.069 0-12.8 5.731-12.8 12.8 0 77.637 63.163 140.8 140.8 140.8 30.755 0 59.974-9.739 84.499-28.165 5.652-4.246 6.791-12.27 2.546-17.923-4.245-5.651-12.269-6.792-17.921-2.545-20.056 15.067-43.958 23.032-69.123 23.032-63.522 0-115.2-51.678-115.2-115.2 0-7.069-5.731-12.8-12.8-12.8zM396.81 358.4c-30.755 0-59.974 9.739-84.498 28.165-5.652 4.247-6.791 12.271-2.546 17.922 4.247 5.651 12.271 6.792 17.921 2.545 20.056-15.067 43.959-23.032 69.123-23.032 36.433 0 69.949 16.691 91.953 45.793 4.264 5.639 12.291 6.753 17.93 2.49s6.753-12.291 2.49-17.93c-12.851-16.997-29.657-31.075-48.601-40.714-19.873-10.113-41.33-15.24-63.772-15.24z" />
<glyph unicode="&#xe67f;" glyph-name="recycle" d="M268.81-0.003c-4.696 0-9.217 2.593-11.459 7.079l-25.6 51.2c-1.983 3.968-1.772 8.68 0.561 12.454 2.332 3.774 6.452 6.070 10.888 6.070h102.4c36.139 0 62.964 11.767 75.536 33.134s9.83 50.531-7.719 82.12l-24.963 44.934c-3.433 6.18-1.207 13.973 4.973 17.405 6.18 3.434 13.974 1.207 17.406-4.973l24.963-44.934c10.943-19.697 17.142-39.031 18.424-57.462 1.293-18.601-2.413-35.449-11.019-50.074s-21.532-26.047-38.421-33.95c-16.737-7.83-36.648-11.801-59.181-11.801h-81.689l16.337-32.676c3.161-6.322 0.599-14.012-5.724-17.173-1.839-0.918-3.791-1.353-5.714-1.354zM371.199 281.6c-4.642 0-8.927 2.514-11.188 6.583l-53.406 96.13c-17.484 31.471-40.002 48.803-63.406 48.803s-45.922-17.332-63.406-48.803l-24.961-44.929c-3.433-6.18-11.225-8.408-17.405-4.973-6.18 3.433-8.406 11.226-4.973 17.405l24.961 44.93c22.199 39.96 52.668 61.97 85.783 61.97 0.002 0-0.001 0 0 0 33.118 0 63.582-22.008 85.783-61.97l41.62-74.916 14.748 29.495c3.161 6.322 10.849 8.886 17.173 5.725s8.885-10.851 5.724-17.173l-25.6-51.2c-2.123-4.247-6.423-6.969-11.171-7.073-0.093-0.002-0.187-0.003-0.279-0.003zM192 51.2h-51.2c-22.533 0-42.443 3.971-59.179 11.801-16.889 7.902-29.815 19.324-38.421 33.949-8.605 14.625-12.312 31.472-11.018 50.074 1.282 18.432 7.481 37.765 18.424 57.462l42.841 77.114h-29.447c-7.069 0-12.8 5.731-12.8 12.8s5.731 12.8 12.8 12.8h51.2c4.535 0 8.732-2.4 11.032-6.309s2.36-8.743 0.157-12.708l-53.406-96.13c-17.55-31.589-20.291-60.755-7.719-82.12s39.398-33.134 75.536-33.134h51.2c7.069 0 12.8-5.731 12.8-12.8s-5.731-12.8-12.8-12.8z" />
<glyph unicode="&#xe680;" glyph-name="trash" d="M473.6 435.198h-147.199l-34.561 46.082c-2.418 3.223-6.211 5.12-10.24 5.12h-51.2c-4.029 0-7.822-1.897-10.24-5.12l-34.56-46.080h-147.2c-7.069 0-12.8-5.731-12.8-12.8s5.731-12.8 12.8-12.8l435.2-0.002c7.070 0 12.8 5.731 12.8 12.8s-5.731 12.8-12.8 12.8zM236.8 460.8h38.4l19.201-25.601h-76.801l19.2 25.601zM450.105 383.826c-6.971 1.161-13.568-3.549-14.731-10.522l-59.791-358.748c-1.293-7.755-9.322-14.556-17.183-14.556h-204.8c-7.861 0-15.891 6.801-17.183 14.555l-59.791 358.749c-1.162 6.973-7.752 11.683-14.73 10.521-6.973-1.162-11.683-7.757-10.521-14.731l59.791-358.749c3.361-20.157 22-35.947 42.435-35.947h204.8c20.435 0 39.075 15.789 42.435 35.948l59.791 358.748c1.163 6.973-3.548 13.568-10.521 14.729z" />
<glyph unicode="&#xe681;" glyph-name="trash2" d="M396.8 435.2h-89.6v12.8c0 21.173-17.226 38.4-38.4 38.4h-51.2c-21.173 0-38.4-17.226-38.4-38.4v-12.8h-89.6c-21.174 0-38.4-17.226-38.4-38.4v-25.6c0-16.687 10.702-30.915 25.6-36.199v-322.202c0-21.175 17.227-38.4 38.4-38.4h256c21.175 0 38.4 17.226 38.4 38.4v322.202c14.899 5.284 25.6 19.512 25.6 36.199v25.6c0 21.174-17.226 38.4-38.4 38.4zM204.8 448c0 7.058 5.743 12.8 12.8 12.8h51.2c7.058 0 12.8-5.743 12.8-12.8v-12.8h-76.8v12.8zM371.2 0h-256c-7.058 0-12.8 5.743-12.8 12.8v320h281.6v-320c0-7.058-5.743-12.8-12.8-12.8zM409.6 371.2c0-7.058-5.743-12.8-12.8-12.8h-307.2c-7.058 0-12.8 5.743-12.8 12.8v25.6c0 7.058 5.742 12.8 12.8 12.8h307.2c7.058 0 12.8-5.743 12.8-12.8v-25.6zM320 307.2c-7.070 0-12.8-5.731-12.8-12.8v-256c0-7.070 5.731-12.8 12.8-12.8s12.8 5.731 12.8 12.8v256c0 7.069-5.731 12.8-12.8 12.8zM243.2 307.2c-7.069 0-12.8-5.731-12.8-12.8v-256c0-7.070 5.731-12.8 12.8-12.8s12.8 5.731 12.8 12.8v256c0 7.069-5.731 12.8-12.8 12.8zM166.4 307.2c-7.069 0-12.8-5.731-12.8-12.8v-256c0-7.070 5.731-12.8 12.8-12.8s12.8 5.731 12.8 12.8v256c0 7.069-5.731 12.8-12.8 12.8z" />
<glyph unicode="&#xe68b;" glyph-name="hearts" d="M243.2 0c-7.069 0-12.8 5.731-12.8 12.8 0 55.777-51.285 91.357-105.581 129.026-29.734 20.63-60.483 41.961-83.915 67.617-27.524 30.139-40.904 62.115-40.904 97.757 0 70.579 57.421 128 128 128 50.6 0 94.436-29.513 115.2-72.229 20.764 42.716 64.6 72.229 115.2 72.229 34.226 0 66.366-13.261 90.499-37.338 24.184-24.128 37.501-56.326 37.501-90.662 0-35.642-13.38-67.618-40.905-97.755-23.433-25.658-54.181-46.989-83.916-67.618-54.295-37.671-105.579-73.251-105.579-129.028 0-7.070-5.731-12.8-12.8-12.8zM128 409.6c-56.464 0-102.4-45.936-102.4-102.4 0-65.379 55.283-103.734 113.812-144.34 41.131-28.536 83.269-57.774 103.788-97.57 20.519 39.796 62.657 69.033 103.787 97.57 58.529 40.606 113.813 78.962 113.813 144.34 0 56.464-45.937 102.4-102.4 102.4s-102.4-45.936-102.4-102.4c0-7.069-5.731-12.8-12.8-12.8s-12.8 5.731-12.8 12.8c0 56.464-45.936 102.4-102.4 102.4z" />
<glyph unicode="&#xe68c;" glyph-name="heart" d="M243.2 0c-2.142 0-4.283 0.537-6.217 1.611-2.404 1.335-59.544 33.312-117.561 85.688-34.322 30.985-61.733 62.682-81.472 94.209-25.183 40.221-37.95 80.358-37.95 119.292 0 74.109 60.291 134.4 134.4 134.4 25.087 0 51.731-9.402 75.025-26.476 13.625-9.987 25.221-22.022 33.775-34.803 8.553 12.782 20.149 24.817 33.775 34.803 23.295 17.073 49.939 26.476 75.025 26.476 74.109 0 134.4-60.291 134.4-134.4 0-38.935-12.769-79.071-37.95-119.292-19.739-31.527-47.151-63.223-81.472-94.209-58.017-52.377-115.157-84.353-117.561-85.688-1.934-1.075-4.075-1.611-6.217-1.611zM134.4 409.6c-59.993 0-108.8-48.807-108.8-108.8 0-77.812 60.151-148.539 110.612-194.169 45.065-40.752 90.72-69.329 106.988-79.021 16.268 9.692 61.923 38.269 106.988 79.021 50.461 45.63 110.612 116.357 110.612 194.169 0 59.993-48.808 108.8-108.8 108.8-43.594 0-85.928-35.863-96.657-68.048-1.743-5.226-6.633-8.752-12.143-8.752s-10.401 3.526-12.143 8.752c-10.728 32.185-53.063 68.048-96.657 68.048z" />
<glyph unicode="&#xe68d;" glyph-name="star" d="M396.799 0c-2.103 0-4.211 0.517-6.129 1.563l-134.671 73.456-134.671-73.456c-4.299-2.346-9.559-2.031-13.549 0.807-3.99 2.839-6.011 7.705-5.207 12.534l24.517 147.103-97.742 97.743c-3.39 3.391-4.602 8.391-3.139 12.957s5.356 7.931 10.085 8.719l147.171 24.529 61.085 122.169c2.168 4.337 6.6 7.076 11.449 7.076s9.281-2.739 11.449-7.076l61.085-122.169 147.171-24.529c4.729-0.788 8.622-4.154 10.085-8.719s0.252-9.566-3.139-12.957l-97.742-97.743 24.517-147.103c0.805-4.829-1.217-9.696-5.207-12.534-2.209-1.572-4.81-2.37-7.42-2.37zM256 102.4c2.11 0 4.219-0.521 6.13-1.563l117.722-64.213-21.279 127.672c-0.68 4.077 0.651 8.232 3.575 11.154l84.813 84.813-129.065 21.511c-4.040 0.673-7.514 3.238-9.345 6.901l-52.551 105.102-52.551-105.102c-1.832-3.663-5.305-6.229-9.345-6.901l-129.065-21.511 84.812-84.813c2.923-2.923 4.255-7.077 3.575-11.154l-21.279-127.672 117.723 64.213c1.911 1.043 4.020 1.563 6.13 1.563z" />
<glyph unicode="&#xe68e;" glyph-name="star-half" d="M396.799 0c-2.103 0-4.211 0.517-6.128 1.563l-76.798 41.889c-6.207 3.384-8.493 11.16-5.109 17.365 3.385 6.207 11.161 8.496 17.366 5.108l53.721-29.301-4.212 25.271c-1.163 6.974 3.549 13.568 10.521 14.731 6.971 1.165 13.568-3.548 14.731-10.521l8.534-51.2c0.805-4.83-1.217-9.697-5.207-12.535-2.209-1.572-4.81-2.37-7.419-2.37zM379.717 102.397c-6.145 0-11.567 4.438-12.611 10.699l-8.533 51.2c-0.68 4.077 0.651 8.232 3.575 11.154l25.6 25.6c4.998 4.998 13.103 4.998 18.101 0s4.999-13.103 0-18.101l-20.942-20.942 7.45-44.703c1.163-6.973-3.549-13.568-10.522-14.729-0.711-0.118-1.419-0.175-2.119-0.176zM448 230.4c-3.276 0-6.551 1.25-9.050 3.75-4.999 4.999-4.999 13.103 0 18.101l8.012 8.013-52.265 8.711c-6.974 1.163-11.684 7.757-10.522 14.731s7.767 11.684 14.729 10.522l76.8-12.8c4.729-0.788 8.622-4.154 10.085-8.719s0.252-9.566-3.139-12.957l-25.6-25.6c-2.5-2.501-5.775-3.751-9.051-3.751zM345.616 277.332c-0.699 0-1.407 0.058-2.119 0.176l-25.6 4.267c-4.040 0.673-7.514 3.238-9.345 6.901l-25.6 51.197c-3.161 6.323-0.599 14.012 5.724 17.173 6.322 3.161 14.012 0.599 17.173-5.724l22.685-45.368 19.171-3.195c6.974-1.163 11.684-7.757 10.522-14.731-1.043-6.259-6.466-10.696-12.61-10.696zM115.201 0c-2.611 0-5.21 0.798-7.421 2.37-3.99 2.839-6.011 7.705-5.207 12.534l24.517 147.103-97.741 97.743c-3.39 3.391-4.602 8.391-3.139 12.957s5.355 7.931 10.085 8.719l147.171 24.529 61.085 122.169c2.168 4.337 6.601 7.076 11.449 7.076 0 0 0 0 0 0 4.849 0 9.281-2.739 11.449-7.076l12.8-25.6c3.161-6.323 0.598-14.012-5.725-17.173-6.323-3.162-14.012-0.599-17.173 5.725l-1.351 2.702-52.55-105.101c-1.832-3.663-5.305-6.229-9.345-6.902l-129.066-21.511 84.813-84.813c2.923-2.923 4.255-7.077 3.575-11.154l-21.279-127.672 117.723 64.213c3.821 2.085 8.438 2.083 12.259 0l12.801-6.983c6.205-3.385 8.492-11.16 5.107-17.366s-11.159-8.492-17.366-5.107l-6.672 3.639-134.671-73.456c-1.918-1.046-4.026-1.563-6.129-1.563z" />
<glyph unicode="&#xe68f;" glyph-name="star-empty" d="M140.785 273.065c-6.145 0-11.567 4.437-12.611 10.697-1.162 6.973 3.549 13.568 10.522 14.731l44.77 7.462 9.885 19.769c3.161 6.323 10.851 8.887 17.173 5.725s8.886-10.851 5.725-17.173l-12.8-25.6c-1.832-3.663-5.305-6.229-9.345-6.901l-51.2-8.534c-0.712-0.119-1.421-0.176-2.119-0.176zM64 230.4c-3.276 0-6.551 1.25-9.050 3.75l-25.6 25.6c-3.39 3.39-4.602 8.391-3.139 12.957s5.355 7.931 10.085 8.719l51.2 8.534c6.978 1.163 13.568-3.55 14.731-10.522 1.162-6.973-3.549-13.568-10.522-14.731l-26.666-4.445 8.012-8.013c4.999-4.999 4.999-13.103 0-18.101-2.5-2.499-5.775-3.748-9.051-3.748zM379.717 102.397c-6.145 0-11.567 4.438-12.611 10.699l-8.533 51.2c-0.68 4.077 0.651 8.232 3.575 11.154l25.6 25.6c4.998 4.998 13.103 4.998 18.101 0s4.999-13.103 0-18.101l-20.942-20.942 7.45-44.703c1.163-6.973-3.549-13.568-10.522-14.729-0.711-0.118-1.419-0.176-2.119-0.176zM396.799 0c-2.103 0-4.211 0.517-6.128 1.563l-76.803 41.892c-6.207 3.384-8.493 11.16-5.108 17.365 3.383 6.207 11.16 8.495 17.365 5.108l53.726-29.305-4.212 25.271c-1.163 6.974 3.549 13.568 10.521 14.731 6.978 1.161 13.568-3.548 14.731-10.521l8.534-51.2c0.805-4.83-1.217-9.697-5.207-12.535-2.209-1.572-4.81-2.37-7.419-2.37zM136.549 127.998c-0.699 0-1.407 0.058-2.119 0.177-6.973 1.163-11.683 7.757-10.522 14.731l3.184 19.103-20.942 20.942c-4.999 4.998-4.999 13.103 0 18.101s13.103 4.998 18.102 0l25.6-25.6c2.923-2.923 4.255-7.077 3.575-11.155l-4.267-25.6c-1.044-6.261-6.467-10.699-12.611-10.699zM115.201 0c-2.611 0-5.21 0.798-7.421 2.37-3.99 2.839-6.011 7.705-5.207 12.534l12.8 76.799c1.162 6.974 7.757 11.684 14.731 10.522 6.973-1.161 11.683-7.757 10.522-14.729l-8.478-50.871 28.123 15.34c6.205 3.385 13.982 1.099 17.367-5.107s1.099-13.981-5.108-17.366l-51.2-27.927c-1.917-1.046-4.025-1.563-6.128-1.563zM217.611 55.852c-4.534 0-8.925 2.413-11.249 6.673-3.385 6.205-1.099 13.981 5.108 17.365l38.4 20.945c3.82 2.084 8.438 2.084 12.259 0l12.798-6.981c6.207-3.384 8.493-11.16 5.108-17.365-3.383-6.207-11.16-8.495-17.365-5.108l-6.669 3.637-32.27-17.601c-1.946-1.062-4.047-1.565-6.119-1.565zM448 230.4c-3.276 0-6.551 1.25-9.050 3.75-4.999 4.999-4.999 13.103 0 18.101l8.012 8.013-52.265 8.711c-6.974 1.163-11.684 7.757-10.522 14.731s7.767 11.684 14.729 10.522l76.8-12.8c4.729-0.788 8.622-4.154 10.085-8.719s0.252-9.566-3.139-12.957l-25.6-25.6c-2.5-2.501-5.775-3.751-9.051-3.751zM345.617 277.331c-0.699 0-1.408 0.058-2.12 0.176l-25.601 4.267c-4.039 0.673-7.513 3.238-9.344 6.901l-25.6 51.197c-3.161 6.323-0.599 14.012 5.724 17.173 6.322 3.161 14.012 0.599 17.173-5.724l22.685-45.368 19.172-3.195c6.973-1.163 11.683-7.757 10.521-14.731-1.043-6.259-6.466-10.696-12.61-10.696zM230.389 358.398c-1.923 0-3.877 0.435-5.714 1.353-6.323 3.162-8.886 10.851-5.725 17.173l25.6 51.2c2.169 4.337 6.601 7.076 11.45 7.076 0 0 0 0 0 0 4.849 0 9.281-2.739 11.449-7.076l12.799-25.6c3.161-6.323 0.599-14.012-5.724-17.173-6.323-3.163-14.012-0.599-17.173 5.725l-1.351 2.701-14.15-28.301c-2.243-4.486-6.765-7.079-11.46-7.079z" />
<glyph unicode="&#xe690;" glyph-name="flag" d="M38.4-25.6c-7.069 0-12.8 5.731-12.8 12.8v435.2c0 7.069 5.731 12.8 12.8 12.8s12.8-5.731 12.8-12.8v-435.2c0-7.070-5.731-12.8-12.8-12.8zM396.8 179.2c-56.502 0-85.695 29.193-111.45 54.95-25.462 25.461-47.451 47.451-93.35 47.451s-67.887-21.99-93.35-47.451c-4.999-4.999-13.103-4.999-18.102 0s-4.999 13.103 0 18.101c25.757 25.756 54.95 54.949 111.451 54.949s85.695-29.193 111.451-54.95c25.462-25.462 47.452-47.451 93.35-47.451 43.632 0 65.658 19.872 89.6 43.707v144.071c-21.467-18.508-48.203-34.178-89.6-34.178-56.502 0-85.695 29.193-111.451 54.95-25.462 25.461-47.451 47.45-93.35 47.45s-67.887-21.989-93.35-47.45c-4.999-4.999-13.103-4.999-18.102 0s-4.999 13.103 0 18.101c25.757 25.756 54.95 54.949 111.451 54.949s85.695-29.193 111.451-54.95c25.462-25.461 47.452-47.451 93.35-47.451s67.887 21.99 93.35 47.451c3.66 3.661 9.165 4.757 13.95 2.775 4.783-1.981 7.901-6.648 7.901-11.825v-179.2c0-3.395-1.349-6.65-3.75-9.050-25.756-25.757-54.948-54.95-111.451-54.95z" />
<glyph unicode="&#xe691;" glyph-name="flag2" d="M38.4-25.6c-7.069 0-12.8 5.731-12.8 12.8v384c0 7.069 5.731 12.8 12.8 12.8s12.8-5.731 12.8-12.8v-384c0-7.070-5.731-12.8-12.8-12.8zM396.8 128c-56.502 0-85.695 29.193-111.45 54.95-25.462 25.462-47.451 47.451-93.35 47.451s-67.887-21.989-93.35-47.451c-4.999-4.999-13.103-4.999-18.102 0s-4.999 13.103 0 18.101c25.757 25.756 54.95 54.949 111.451 54.949s85.695-29.193 111.451-54.95c25.462-25.462 47.452-47.45 93.35-47.45 43.632 0 65.658 19.872 89.6 43.708v144.070c-21.467-18.508-48.203-34.178-89.6-34.178-56.502 0-85.695 29.193-111.451 54.949-25.462 25.461-47.451 47.451-93.35 47.451s-67.887-21.99-93.35-47.451c-4.999-4.999-13.103-4.999-18.102 0s-4.999 13.103 0 18.101c25.757 25.756 54.95 54.949 111.451 54.949s85.695-29.193 111.451-54.95c25.462-25.461 47.452-47.45 93.35-47.45s67.887 21.989 93.35 47.45c3.66 3.661 9.165 4.757 13.95 2.775 4.783-1.981 7.901-6.648 7.901-11.825v-179.2c0-3.395-1.349-6.649-3.75-9.050-25.756-25.757-54.948-54.95-111.451-54.95zM38.4 409.6c-21.174 0-38.4 17.226-38.4 38.4s17.227 38.4 38.4 38.4 38.4-17.226 38.4-38.4-17.227-38.4-38.4-38.4zM38.4 460.8c-7.058 0-12.8-5.743-12.8-12.8s5.742-12.8 12.8-12.8 12.8 5.743 12.8 12.8-5.742 12.8-12.8 12.8z" />
<glyph unicode="&#xe692;" glyph-name="flag3" d="M38.4 0c-7.069 0-12.8 5.731-12.8 12.8v384c0 7.069 5.731 12.8 12.8 12.8s12.8-5.731 12.8-12.8v-384c0-7.070-5.731-12.8-12.8-12.8zM89.591 230.399c-2.673 0-5.367 0.833-7.671 2.561-5.655 4.242-6.802 12.265-2.56 17.919 1.725 2.3 42.895 56.32 99.84 56.32 43.358 0 72.019-15.333 97.307-28.861 22.406-11.987 41.757-22.339 69.093-22.339 56.123 0 96.195 53.245 119.046 95.172-17.868-10.159-40.705-18.372-67.846-18.372-56.502 0-85.695 29.193-111.45 54.949-25.462 25.461-47.451 47.451-93.35 47.451-56.941 0-91.814-45.619-92.16-46.080-4.242-5.655-12.265-6.801-17.92-2.56s-6.802 12.265-2.56 17.92c1.725 2.3 43.040 56.32 112.64 56.32 56.501 0 85.695-29.193 111.451-54.95 25.462-25.461 47.452-47.45 93.35-47.45 56.942 0 91.815 45.619 92.16 46.080 3.767 5.022 10.619 6.571 16.181 3.658s8.187-9.431 6.202-15.385c-0.545-1.635-13.644-40.479-39.893-79.852-15.671-23.506-32.819-42.327-50.971-55.94-23.498-17.624-48.692-26.56-74.88-26.56-33.752 0-57.858 12.895-81.169 25.367-24.834 13.285-48.291 25.833-85.231 25.833-44.288 0-79.014-45.619-79.36-46.080-2.514-3.353-6.359-5.121-10.249-5.121z" />
<glyph unicode="&#xe693;" glyph-name="mailbox-full" d="M268.8 486.4h-102.4c-7.069 0-12.8-5.731-12.8-12.8v-143.002c-14.899-5.284-25.6-19.512-25.6-36.199 0-21.173 17.226-38.4 38.4-38.4s38.4 17.226 38.4 38.4c0 16.687-10.702 30.915-25.6 36.199v79.002h89.6c7.070 0 12.8 5.731 12.8 12.8v51.2c0 7.069-5.731 12.8-12.8 12.8zM166.4 281.6c-7.058 0-12.8 5.742-12.8 12.8s5.743 12.8 12.8 12.8 12.8-5.743 12.8-12.8-5.743-12.8-12.8-12.8zM256 435.2h-76.8v25.6h76.8v-25.6zM488.657 308.616c-9.062 23.44-20.945 41.685-35.319 54.229-16.087 14.037-35.329 21.155-57.196 21.155h-178.542c-7.069 0-12.8-5.731-12.8-12.8s5.731-12.8 12.8-12.8h178.542c71.417 0 88.815-108.449 90.169-204.8h-409.511v204.8h38.4c7.069 0 12.8 5.731 12.8 12.8s-5.731 12.8-12.8 12.8h-38.4v12.8c0 7.069-5.731 12.8-12.8 12.8h-51.2c-7.069 0-12.8-5.731-12.8-12.8v-281.6c0-7.070 5.731-12.8 12.8-12.8h51.2c7.069 0 12.8 5.731 12.8 12.8v12.8h128v-140.8c0-7.070 5.731-12.8 12.8-12.8h76.8c7.070 0 12.8 5.731 12.8 12.8v140.8h192c7.070 0 12.8 5.731 12.8 12.8 0 71.287-7.853 127.749-23.343 167.816zM51.2 128h-25.6v256h25.6v-256zM281.6 0h-51.2v128h51.2v-128z" />
<glyph unicode="&#xe694;" glyph-name="mailbox-empty" d="M488.657 308.616c-9.062 23.44-20.945 41.685-35.319 54.229-16.087 14.037-35.329 21.155-57.196 21.155h-319.342v12.8c0 7.069-5.731 12.8-12.8 12.8h-51.2c-7.069 0-12.8-5.731-12.8-12.8v-281.6c0-7.070 5.731-12.8 12.8-12.8h51.2c7.069 0 12.8 5.731 12.8 12.8v12.8h128v-140.8c0-7.070 5.731-12.8 12.8-12.8h76.8c7.070 0 12.8 5.731 12.8 12.8v140.8h192c7.070 0 12.8 5.731 12.8 12.8 0 71.287-7.853 127.749-23.343 167.816zM51.2 128h-25.6v256h25.6v-256zM281.6 0h-51.2v128h51.2v-128zM76.8 153.6v204.8h319.342c71.417 0 88.815-108.449 90.169-204.8h-409.511zM345.6 307.2h-143.001c-5.284 14.899-19.512 25.6-36.198 25.6-21.173 0-38.4-17.227-38.4-38.4s17.227-38.4 38.4-38.4c16.686 0 30.915 10.702 36.198 25.6h79.001v-89.6c0-7.070 5.731-12.8 12.8-12.8h51.2c7.070 0 12.8 5.731 12.8 12.8v102.4c0 7.069-5.731 12.8-12.8 12.8zM166.4 281.6c-7.058 0-12.8 5.742-12.8 12.8s5.743 12.8 12.8 12.8 12.8-5.743 12.8-12.8-5.743-12.8-12.8-12.8zM332.8 204.8h-25.6v76.8h25.6v-76.8z" />
<glyph unicode="&#xe695;" glyph-name="at-sign" d="M437.019 411.419c-48.352 48.352-112.639 74.981-181.019 74.981s-132.667-26.629-181.019-74.981c-48.352-48.352-74.981-112.639-74.981-181.019s26.629-132.667 74.981-181.019c48.352-48.352 112.639-74.981 181.019-74.981 40.165 0 78.621 9.043 114.303 26.876 34.013 16.999 64.373 41.887 87.799 71.975 4.344 5.579 3.342 13.62-2.235 17.963-5.579 4.343-13.619 3.343-17.963-2.235-44.029-56.548-110.33-88.979-181.904-88.979-127.043 0-230.4 103.357-230.4 230.4s103.357 230.4 230.4 230.4 230.4-103.357 230.4-230.4c0-45.219-26.317-76.8-64-76.8-35.289 0-64 28.711-64 64v102.4c0 7.069-5.731 12.8-12.8 12.8s-12.8-5.731-12.8-12.8v-21.949c-18.779 21.293-46.245 34.749-76.8 34.749-56.464 0-102.4-45.936-102.4-102.4s45.936-102.4 102.4-102.4c36.616 0 68.798 19.322 86.904 48.301 14.957-28.677 44.977-48.301 79.496-48.301 24.771 0 47.442 10.068 63.835 28.349 16.855 18.796 25.765 44.401 25.765 74.051 0 68.38-26.629 132.667-74.981 181.019zM256 153.6c-42.348 0-76.8 34.452-76.8 76.8s34.452 76.8 76.8 76.8 76.8-34.452 76.8-76.8-34.452-76.8-76.8-76.8z" />
<glyph unicode="&#xe696;" glyph-name="envelope" d="M448 332.8h-409.6c-21.174 0-38.4-17.227-38.4-38.4v-230.4c0-21.175 17.227-38.4 38.4-38.4h409.6c21.175 0 38.4 17.226 38.4 38.4v230.4c0 21.173-17.226 38.4-38.4 38.4zM448 307.2c0.757 0 1.495-0.079 2.217-0.206l-192.816-128.545c-7.431-4.954-20.969-4.954-28.401 0l-192.817 128.545c0.721 0.126 1.46 0.206 2.217 0.206h409.6zM448 51.2h-409.6c-7.058 0-12.8 5.743-12.8 12.8v219.283l189.2-126.134c7.963-5.309 18.181-7.962 28.4-7.962s20.439 2.654 28.401 7.962l189.199 126.134v-219.283c0-7.058-5.743-12.8-12.8-12.8z" />
<glyph unicode="&#xe697;" glyph-name="envelope-open" d="M458.43 344.271l-186.712 114.101c-7.792 4.762-17.921 7.385-28.518 7.385s-20.727-2.623-28.518-7.385l-186.712-114.101c-15.945-9.744-27.97-31.185-27.97-49.871v-230.4c0-21.175 17.227-38.4 38.4-38.4h409.6c21.175 0 38.4 17.226 38.4 38.4v230.4c0 18.686-12.024 40.127-27.969 49.871zM41.319 322.427l186.712 114.101c3.774 2.305 9.303 3.629 15.169 3.629s11.396-1.322 15.17-3.629l186.712-114.101c3.974-2.429 7.774-6.803 10.643-11.761l-198.324-132.218c-7.431-4.954-20.969-4.954-28.401 0l-198.324 132.217c2.87 4.959 6.669 9.333 10.642 11.761zM448 51.2h-409.6c-7.058 0-12.8 5.743-12.8 12.8v219.283l189.2-126.133c7.963-5.309 18.181-7.963 28.4-7.963s20.439 2.654 28.401 7.963l189.199 126.133v-219.283c0-7.058-5.743-12.8-12.8-12.8z" />
<glyph unicode="&#xe698;" glyph-name="paperclip" d="M243.2-25.6c-63.522 0-115.2 51.678-115.2 115.2v307.2c0 49.406 40.194 89.6 89.6 89.6s89.6-40.195 89.6-89.6v-281.6c0-35.289-28.711-64-64-64s-64 28.711-64 64v153.6c0 7.069 5.731 12.8 12.8 12.8s12.8-5.731 12.8-12.8v-153.6c0-21.175 17.226-38.4 38.4-38.4s38.4 17.226 38.4 38.4v281.6c0 35.29-28.71 64-64 64s-64-28.71-64-64v-307.2c0-49.406 40.195-89.6 89.6-89.6s89.6 40.195 89.6 89.6v179.2c0 7.069 5.731 12.8 12.8 12.8s12.8-5.731 12.8-12.8v-179.2c0-63.522-51.678-115.2-115.2-115.2z" />
<glyph unicode="&#xe699;" glyph-name="paper-plane" d="M507.728 457.546c-3.685 3.293-8.938 4.171-13.495 2.251l-486.4-204.8c-4.911-2.068-8.028-6.963-7.823-12.288s3.687-9.966 8.743-11.651l144.847-48.283v-144.375c0-5.418 3.411-10.25 8.517-12.063 1.403-0.498 2.849-0.738 4.281-0.738 3.781 0 7.458 1.679 9.937 4.729l70.736 87.060 115.135-113.696c2.425-2.395 5.67-3.692 8.995-3.692 1.067 0 2.142 0.134 3.201 0.407 4.36 1.127 7.808 4.461 9.079 8.781l128 435.2c1.396 4.742-0.065 9.863-3.751 13.157zM412.931 397.788l-248.941-191.493-114.895 38.299 363.836 153.195zM179.2 185.697l241.031 185.408-184.173-226.673c-0.006-0.007-0.011-0.014-0.017-0.020l-56.841-69.96v111.245zM364.961 36.95l-101.671 100.4 205.64 253.096-103.969-353.496z" />
<glyph unicode="&#xe69a;" glyph-name="reply" d="M437.659 127.397c-14.828 35.058-36.053 66.541-63.087 93.575s-58.516 48.259-93.575 63.087c-36.303 15.355-74.859 23.141-114.597 23.141h-84.299l106.15 106.149c4.999 4.999 4.999 13.103 0 18.103-4.999 4.998-13.103 4.998-18.102 0l-128-128c-4.998-4.999-4.998-13.103 0-18.103l128-128c2.5-2.499 5.775-3.749 9.051-3.749s6.551 1.25 9.051 3.75c4.999 4.998 4.999 13.103 0 18.101l-106.15 106.149h84.299c148.217 0 268.8-120.583 268.8-268.8 0-7.070 5.731-12.8 12.8-12.8s12.8 5.731 12.8 12.8c0 39.738-7.786 78.295-23.141 114.598z" />
<glyph unicode="&#xe69b;" glyph-name="reply-all" d="M488.859 127.397c-14.828 35.058-36.053 66.541-63.087 93.575s-58.516 48.259-93.575 63.087c-36.303 15.355-74.859 23.141-114.597 23.141h-84.299l106.149 106.149c4.999 4.999 4.999 13.103 0 18.103-4.999 4.998-13.103 4.998-18.102 0l-128-128c-4.999-4.999-4.999-13.103 0-18.103l128-128c2.5-2.499 5.775-3.749 9.051-3.749s6.551 1.25 9.051 3.75c4.999 4.998 4.999 13.103 0 18.101l-106.15 106.149h84.298c148.217 0 268.8-120.583 268.8-268.8 0-7.070 5.731-12.8 12.8-12.8s12.8 5.731 12.8 12.8c0 39.738-7.786 78.295-23.141 114.598zM153.6 153.6c-3.276 0-6.551 1.25-9.051 3.75l-128 128c-4.998 4.999-4.998 13.103 0 18.102l128 128c4.999 4.998 13.103 4.998 18.102 0s4.999-13.103 0-18.102l-118.95-118.95 118.95-118.95c4.999-4.998 4.999-13.103 0-18.101-2.5-2.499-5.775-3.749-9.051-3.749z" />
<glyph unicode="&#xe69c;" glyph-name="inbox" d="M500.666 220.584l-69.079 157.893c-7.636 17.453-28.538 31.123-47.587 31.123h-256c-19.049 0-39.952-13.671-47.588-31.123l-69.079-157.893c-6.355-14.528-11.334-38.329-11.334-54.184v-102.4c0-21.175 17.227-38.4 38.4-38.4h435.2c21.175 0 38.4 17.226 38.4 38.4v102.4c0 15.857-4.979 39.657-11.334 54.184zM103.867 368.216c3.614 8.261 15.117 15.784 24.133 15.784h256c9.017 0 20.519-7.523 24.135-15.784l69.079-157.893c0.779-1.779 1.541-3.795 2.274-5.975-1.92 0.298-3.885 0.452-5.887 0.452h-153.6c-7.070 0-12.8-5.731-12.8-12.8v-12.8c0-28.232-22.968-51.2-51.2-51.2s-51.2 22.968-51.2 51.2v12.8c0 7.070-5.731 12.8-12.8 12.8h-153.6c-2.001 0-3.966-0.154-5.886-0.451 0.733 2.18 1.496 4.196 2.273 5.975l69.078 157.892zM486.4 64c0-7.058-5.743-12.8-12.8-12.8h-435.2c-7.058 0-12.8 5.743-12.8 12.8v102.4c0 7.058 5.742 12.8 12.8 12.8h140.8c0-42.348 34.452-76.8 76.8-76.8s76.8 34.452 76.8 76.8h140.8c7.058 0 12.8-5.743 12.8-12.8v-102.4z" />
<glyph unicode="&#xe69d;" glyph-name="inbox2" d="M473.6 246.221l-66.703 133.405c-8.404 16.807-29.707 29.973-48.497 29.973h-64c-7.070 0-12.8-5.731-12.8-12.8s5.731-12.8 12.8-12.8h64c9.257 0 21.459-7.542 25.6-15.822l66.703-133.405c0.707-1.413 1.401-2.989 2.076-4.681-1.567 0.195-3.16 0.308-4.779 0.308h-128c-7.070 0-12.8-5.731-12.8-12.8 0-35.289-28.711-64-64-64s-64 28.711-64 64c0 7.070-5.731 12.8-12.8 12.8h-128c-1.618 0-3.211-0.113-4.779-0.308 0.675 1.692 1.369 3.268 2.076 4.681l66.703 133.405c4.14 8.28 16.343 15.822 25.6 15.822h64c7.069 0 12.8 5.731 12.8 12.8s-5.731 12.8-12.8 12.8h-64c-18.791 0-40.094-13.166-48.498-29.973l-66.703-133.405c-7.178-14.355-12.8-38.172-12.8-54.222v-102.4c0-21.175 17.227-38.4 38.4-38.4h409.6c21.175 0 38.4 17.226 38.4 38.4v102.4c0 16.050-5.623 39.867-12.8 54.222zM460.8 89.6c0-7.058-5.743-12.8-12.8-12.8h-409.6c-7.058 0-12.8 5.743-12.8 12.8v102.4c0 7.058 5.742 12.8 12.8 12.8h116.112c6.23-43.364 43.628-76.8 88.688-76.8s82.459 33.436 88.688 76.8h116.112c7.058 0 12.8-5.743 12.8-12.8v-102.4zM303.45 316.251c-4.998 4.999-13.103 4.999-18.101 0l-29.349-29.349v109.897c0 7.069-5.731 12.8-12.8 12.8s-12.8-5.731-12.8-12.8v-109.897l-29.349 29.349c-4.999 4.999-13.103 4.999-18.102 0s-4.999-13.103 0-18.101l51.2-51.2c2.5-2.5 5.775-3.75 9.051-3.75s6.551 1.25 9.051 3.75l51.2 51.2c4.998 4.999 4.998 13.103-0.001 18.101z" />
<glyph unicode="&#xe69e;" glyph-name="outbox" d="M473.6 246.221l-66.703 133.405c-8.404 16.807-29.707 29.973-48.497 29.973h-64c-7.070 0-12.8-5.731-12.8-12.8s5.731-12.8 12.8-12.8h64c9.257 0 21.459-7.542 25.6-15.822l66.703-133.405c0.707-1.413 1.401-2.989 2.076-4.681-1.567 0.195-3.16 0.308-4.779 0.308h-128c-7.070 0-12.8-5.731-12.8-12.8 0-35.289-28.711-64-64-64s-64 28.711-64 64c0 7.070-5.731 12.8-12.8 12.8h-128c-1.618 0-3.211-0.113-4.779-0.308 0.675 1.692 1.369 3.268 2.076 4.681l66.703 133.405c4.14 8.28 16.343 15.822 25.6 15.822h64c7.069 0 12.8 5.731 12.8 12.8s-5.731 12.8-12.8 12.8h-64c-18.791 0-40.094-13.166-48.498-29.973l-66.703-133.405c-7.178-14.355-12.8-38.172-12.8-54.222v-102.4c0-21.175 17.227-38.4 38.4-38.4h409.6c21.175 0 38.4 17.226 38.4 38.4v102.4c0 16.050-5.623 39.867-12.8 54.222zM460.8 89.6c0-7.058-5.743-12.8-12.8-12.8h-409.6c-7.058 0-12.8 5.743-12.8 12.8v102.4c0 7.058 5.742 12.8 12.8 12.8h116.112c6.23-43.364 43.628-76.8 88.688-76.8s82.459 33.436 88.688 76.8h116.112c7.058 0 12.8-5.743 12.8-12.8v-102.4zM303.45 341.851l-51.2 51.2c-4.999 4.998-13.103 4.998-18.102 0l-51.2-51.2c-4.999-4.999-4.999-13.103 0-18.102s13.103-4.999 18.102 0l29.35 29.349v-109.898c0-7.070 5.731-12.8 12.8-12.8s12.8 5.731 12.8 12.8v109.899l29.349-29.35c2.499-2.499 5.774-3.749 9.050-3.749s6.551 1.25 9.050 3.749c4.999 4.999 4.999 13.103 0 18.102z" />
<glyph unicode="&#xe69f;" glyph-name="box" d="M497.357 348.563l-63.801 109.375c-9.466 16.226-30.769 28.463-49.555 28.463h-256c-18.785 0-40.090-12.237-49.555-28.463l-63.801-109.375c-8.211-14.076-14.643-37.866-14.643-54.163v-76.8c0-16.687 10.701-30.914 25.6-36.199v-168.601c0-21.175 17.227-38.4 38.4-38.4h384c21.175 0 38.4 17.226 38.4 38.4v168.601c14.899 5.283 25.6 19.512 25.6 36.199v76.8c0 16.296-6.432 40.087-14.643 54.163zM100.557 445.038c4.812 8.249 17.893 15.762 27.443 15.762h256c9.55 0 22.63-7.513 27.443-15.762l63.801-109.375c0.543-0.931 1.081-1.94 1.608-3.011-1.074 0.091-2.157 0.148-3.253 0.148h-435.2c-1.097 0-2.179-0.057-3.252-0.148 0.527 1.070 1.065 2.080 1.608 3.011l63.801 109.375zM448 0h-384c-7.057 0-12.8 5.743-12.8 12.8v166.4h409.6v-166.4c0-7.058-5.743-12.8-12.8-12.8zM486.4 217.6c0-7.058-5.743-12.8-12.8-12.8h-435.2c-7.058 0-12.8 5.743-12.8 12.8v76.8c0 7.058 5.742 12.8 12.8 12.8h435.2c7.058 0 12.8-5.743 12.8-12.8v-76.8zM320 76.8h-128c-21.173 0-38.4 17.226-38.4 38.4s17.227 38.4 38.4 38.4h128c21.173 0 38.4-17.226 38.4-38.4s-17.226-38.4-38.4-38.4zM192 128c-7.058 0-12.8-5.743-12.8-12.8s5.743-12.8 12.8-12.8h128c7.058 0 12.8 5.743 12.8 12.8s-5.743 12.8-12.8 12.8h-128z" />
<glyph unicode="&#xe6a0;" glyph-name="archive" d="M294.4 76.8h-76.8c-7.069 0-12.8 5.731-12.8 12.8s5.731 12.8 12.8 12.8h76.8c7.070 0 12.8-5.731 12.8-12.8s-5.731-12.8-12.8-12.8zM500.666 194.984l-69.079 157.893c-7.635 17.453-28.538 31.123-47.587 31.123h-256c-19.049 0-39.953-13.671-47.588-31.123l-69.079-157.893c-6.355-14.528-11.334-38.329-11.334-54.184v-102.4c0-21.175 17.227-38.4 38.4-38.4h435.2c21.175 0 38.4 17.226 38.4 38.4v102.4c0 15.857-4.979 39.657-11.334 54.184zM103.867 342.616c3.614 8.261 15.117 15.784 24.133 15.784h256c9.017 0 20.519-7.523 24.135-15.784l69.079-157.893c0.779-1.779 1.541-3.795 2.274-5.975-1.92 0.298-3.885 0.452-5.887 0.452h-435.2c-2.001 0-3.966-0.154-5.886-0.451 0.733 2.18 1.496 4.196 2.273 5.975l69.078 157.892zM486.4 38.4c0-7.058-5.743-12.8-12.8-12.8h-435.2c-7.058 0-12.8 5.743-12.8 12.8v102.4c0 7.058 5.742 12.8 12.8 12.8h435.2c7.058 0 12.8-5.743 12.8-12.8v-102.4zM422.4 204.8h-332.8c-7.069 0-12.8 5.731-12.8 12.8s5.731 12.8 12.8 12.8h332.8c7.070 0 12.8-5.731 12.8-12.8s-5.731-12.8-12.8-12.8zM396.8 256h-281.6c-7.069 0-12.8 5.731-12.8 12.8s5.731 12.8 12.8 12.8h281.6c7.070 0 12.8-5.731 12.8-12.8s-5.731-12.8-12.8-12.8zM371.2 307.2h-230.4c-7.069 0-12.8 5.731-12.8 12.8s5.731 12.8 12.8 12.8h230.4c7.070 0 12.8-5.731 12.8-12.8s-5.731-12.8-12.8-12.8z" />
<glyph unicode="&#xe6a1;" glyph-name="archive2" d="M294.4 76.8h-76.8c-7.069 0-12.8 5.731-12.8 12.8s5.731 12.8 12.8 12.8h76.8c7.070 0 12.8-5.731 12.8-12.8s-5.731-12.8-12.8-12.8zM422.4 204.8h-332.8c-7.069 0-12.8 5.731-12.8 12.8s5.731 12.8 12.8 12.8h332.8c7.070 0 12.8-5.731 12.8-12.8s-5.731-12.8-12.8-12.8zM500.666 194.984l-69.077 157.892c-4.081 9.327-12.155 17.889-21.984 23.669l0.004 97.055c0 3.395-1.349 6.65-3.75 9.051s-5.656 3.75-9.050 3.75h-281.61c-3.395 0-6.65-1.349-9.051-3.75s-3.749-5.656-3.749-9.050l0.001-97.052c-9.831-5.78-17.907-14.343-21.987-23.67l-69.079-157.895c-6.355-14.528-11.334-38.329-11.334-54.184v-102.4c0-21.175 17.227-38.4 38.4-38.4h435.2c21.175 0 38.4 17.226 38.4 38.4v102.4c0 15.857-4.979 39.657-11.334 54.184zM384.007 460.8l-0.007-179.2h-256.001l-0.001 179.2h256.009zM102.4 339.264v-70.464c0-7.069 5.731-12.8 12.8-12.8h281.6c7.069 0 12.8 5.731 12.8 12.8l0.003 70.46 67.609-154.536c0.779-1.779 1.541-3.795 2.274-5.975-1.92 0.297-3.885 0.451-5.887 0.451h-435.2c-2.001 0-3.966-0.154-5.886-0.451 0.733 2.18 1.496 4.196 2.273 5.975l67.612 154.54zM486.4 38.4c0-7.058-5.743-12.8-12.8-12.8h-435.2c-7.058 0-12.8 5.743-12.8 12.8v102.4c0 7.058 5.742 12.8 12.8 12.8h435.2c7.058 0 12.8-5.743 12.8-12.8v-102.4zM345.6 307.2h-179.2c-7.069 0-12.8 5.731-12.8 12.8s5.731 12.8 12.8 12.8h179.2c7.070 0 12.8-5.731 12.8-12.8s-5.731-12.8-12.8-12.8zM345.6 358.4h-179.2c-7.069 0-12.8 5.731-12.8 12.8s5.731 12.8 12.8 12.8h179.2c7.070 0 12.8-5.731 12.8-12.8s-5.731-12.8-12.8-12.8zM345.6 409.6h-179.2c-7.069 0-12.8 5.731-12.8 12.8s5.731 12.8 12.8 12.8h179.2c7.070 0 12.8-5.731 12.8-12.8s-5.731-12.8-12.8-12.8z" />
</font>
</defs>
</svg>
